<svg id="レイヤー_1" data-name="レイヤー 1" xmlns="http://www.w3.org/2000/svg" viewBox="0 0 1095.93 255">
  <defs>
    <style>.cls-1{fill:#fad9e1;}.cls-2{fill:#d16f89;}.cls-3{fill:#767c53;}</style>
  </defs>
  <title>basic</title>
  <path class="cls-1" d="M83.56,61.76C75.24,12.41,95.41,5.32,95.41,5.32l20.84,21.49,13-26.74s23.72.37,28.4,50.2c3.38,36-28.64,61.1-28.64,61.1S90.07,100.42,83.56,61.76Z" />
  <path class="cls-1" d="M50.1,154.35C.6,147,.09,125.64.09,125.64L27,112.45,5.55,91.83s7.68-22.44,56.51-11.49c35.33,7.92,49.27,46.11,49.27,46.11S88.88,160.1,50.1,154.35Z" />
  <path class="cls-1" d="M130,215.82c-22.28,44.81-42.76,38.7-42.76,38.7L83,224.88l-26.23,14s-19-14.23,6.53-57.3c18.45-31.15,59.08-32.6,59.08-32.6S147.41,180.72,130,215.82Z" />
  <path class="cls-1" d="M213.31,158.14c35.74,35,23.59,52.62,23.59,52.62l-29.5-5.13,5.21,29.27s-19.4,13.65-52.48-23.92c-23.93-27.17-12.75-66.26-12.75-66.26S185.32,130.7,213.31,158.14Z" />
  <path class="cls-1" d="M183.2,63.35c44.37-23.16,57.34-6.17,57.34-6.17l-14,26.47L256,87.74s7,22.67-39,42.52c-33.23,14.36-67-8.35-67-8.35S148.46,81.49,183.2,63.35Z" />
  <path class="cls-2" d="M207.4,205.63s-46.53-42.88-64.7-82.9c-17.34-38.19-26.45-95.92-26.45-95.92L95.41,5.32S75.24,12.41,83.56,61.76C86.8,81,111,127.81,111,127.81c-12.13,9.5-34.75,31.81-47.75,53.76-25.5,43.07-6.53,57.3-6.53,57.3l26.23-14,42.8-71A192.89,192.89,0,0,0,160.13,211c33.08,37.57,52.48,23.92,52.48,23.92Z" />
  <path class="cls-3" d="M280.06,69.71h26.59v51h49v-51h26.59v128.6H355.65V142.75h-49v55.56H280.06Z" />
  <path class="cls-3" d="M456.12,198.31c-1.46-3.28-2.37-8.56-2.74-12.93-3.82,8.92-12.75,15.85-26.77,15.85-18.77,0-29.69-12.21-29.69-29.15,0-18.76,14-26.23,34.79-29.33l20.22-3.09V136.2c0-10.75-5.83-13.12-14-13.12-12.2,0-20.4,5.28-26.59,11.66l-11.84-16.39c7.46-7.29,21.49-14.21,41.53-14.21,25.5,0,35.88,10.93,35.88,33.88v34.24c0,13.85.37,18.58,3.46,26.05Zm-4.19-43-15.85,2.92c-10.93,2-15.48,5.83-15.48,12.93,0,6.92,4.55,12.39,12.38,12.39,10.38,0,18.95-8.56,18.95-22.23Z" />
  <path class="cls-3" d="M506.11,170.81c5.65,6.37,16.58,12.2,27.51,12.2,6.56,0,13.48-2.55,13.48-8.92,0-16.94-49.36-7.47-49.36-41.35,0-19.86,17.85-28.6,36.61-28.6,15.3,0,27,4,36.25,11.11l-11.48,16.39c-4.92-4.73-15.85-9.47-25.68-9.47-5.65,0-10.57,2.19-10.57,7.83,0,15.49,49.18,8.57,49.18,41,0,20.4-19.12,30.24-37.34,30.24-16.39,0-30.24-4.74-40.25-13.66Z" />
  <path class="cls-3" d="M588.63,69.71H613.4v74.14l34.43-37h30.42l-36.07,34.61,37.71,56.83H651.47l-25-41.53L613.4,169.35v29H588.63Z" />
  <path class="cls-3" d="M707.68,158.42c1.82,16.94,10.38,24.23,22.22,24.23,8.93,0,15.3-4,19.86-12.21l18.39,10.38c-8.38,13.3-22.22,20.41-39.52,20.41-30.24,0-46.27-21.13-46.27-48.27,0-27.51,16.21-48.82,44.81-48.82,27.69,0,42.62,20.4,42.62,49,0,3.09-.18,4.55-.18,5.28Zm0-14.21h37c0-11.47-5.46-21.86-18-21.86C715.33,122.35,709.13,130.55,707.68,144.21Z" />
  <path class="cls-3" d="M785.64,69.71h24.78v128.6H785.64Z" />
  <path class="cls-3" d="M829.27,69.71H854v128.6H829.27Z" />
  <path class="cls-2" d="M881.62,133.1h51.19v21.49H881.62Z" />
  <path class="cls-2" d="M945,211.79a33.47,33.47,0,0,0,9.65,1.46c6,0,8.74-3.1,8.74-10.75V106.87h24.78v97.27c0,18-7.47,27.69-28,27.69-6.38,0-12.39-.91-16.94-2.92Zm18.39-141h24.78V91H963.39Z" />
  <path class="cls-2" d="M1008,106.87h24.59v14c4.38-9.11,12.75-16.76,26.78-16.76,21.68,0,34.61,17.85,34.61,47.72,0,35.71-18.58,48.64-36.43,48.64-10.75,0-20.77-4.92-24.77-12.93V230H1008Zm24.59,47.54c0,14.39,6.2,26.41,18,26.41,11.11,0,17.48-10.56,17.48-28,0-16.76-5.64-28.23-18-28.23-12.57,0-17.49,12.39-17.49,25.87Z" />
</svg>
