<?xml version="1.0" encoding="iso-8859-1"?>
<!-- Generator: Adobe Illustrator 21.1.0, SVG Export Plug-In . SVG Version: 6.00 Build 0)  -->
<svg version="1.1" id="_x36_" xmlns="http://www.w3.org/2000/svg" xmlns:xlink="http://www.w3.org/1999/xlink" x="0px" y="0px"
	 viewBox="0 0 512 512" style="enable-background:new 0 0 512 512;" xml:space="preserve">
<g>
	<path style="fill:#EEEEEF;" d="M392.399,73.32c0,0,19.941,16.316,22.107,16.316c2.165,0,23.095-2.887,23.095-2.887
		s-9.382-11.547-11.547-12.991c-2.165-1.443-12.991-5.052-12.991-5.052L392.399,73.32z"/>
	<path style="fill:#888888;" d="M399.711,97.936c0,0-23.095,69.284-24.538,72.532c-1.443,3.248-1.083,7.939-1.083,7.939
		s6.495,5.774,9.743,1.443c3.248-4.33,20.208-54.85,20.208-54.85l7.217-7.217l2.887-10.104c0,0,2.526-12.991,1.083-13.712
		C413.784,93.244,399.711,97.936,399.711,97.936z"/>
	<path style="fill:#EEEEEF;" d="M433.631,86.027c3.969,0.722,5.052,1.083,3.608,5.774c-1.443,4.691-1.804,11.187-4.691,12.63
		c-2.887,1.443-18.764,5.052-21.29,4.691c-2.526-0.361-5.413-2.887-5.413-2.887l5.774-19.125L433.631,86.027z"/>
	<polygon style="fill:#FFFFFF;" points="415.227,82.419 407.289,106.957 385.637,92.523 392.854,74.119 	"/>
	<path style="fill:#65D69D;" d="M104.893,234.699c-9.382-21.651-18.764-62.067-18.043-74.336
		c0.722-12.269,29.59-53.406,38.25-64.954c8.66-11.547,41.859-47.633,49.798-55.571c7.939-7.939,18.043-16.599,18.043-16.599
		l20.93-20.93c0,0-1.443,0,5.052,4.33c6.495,4.33,9.382,10.104,10.104,12.991c0.722,2.887,10.826,3.609,10.826,3.609l9.382-10.826
		c0,0,11.547-11.547,15.878-6.495c4.33,5.052,12.269,16.599,12.269,16.599v9.382l14.434,8.66c0,0,17.321,1.444,18.764,4.33
		c1.443,2.887-7.217,7.939-12.991,8.66c-5.774,0.722-3.609,12.269-12.991,18.043c-9.382,5.774-25.982,9.382-31.033,13.712
		c-5.052,4.33-7.939,17.321-7.939,17.321l-0.722,21.651l8.66,20.208c0,0,21.651,1.443,39.694-2.887
		c18.043-4.33,29.59-11.547,35.364-10.826c5.774,0.722,20.208,2.887,29.59-0.722c9.382-3.608,24.538-10.826,24.538-10.826
		s3.609-7.217,13.712-2.165c10.104,5.052,31.755,5.052,31.755,5.052s-14.434,7.939-23.095,7.939s-12.991,3.609-12.991,3.609
		s12.269,1.443,7.217,5.774c-5.052,4.33-1.939,3.776-3.609,7.217c-1.67,3.441-12.854,12.164-16.599,12.991
		c-3.746,0.827-10.826-3.608-21.651-2.165c-10.826,1.443-45.468,3.609-59.902,12.269c-14.434,8.66-32.477,17.321-32.477,17.321
		s-7.939,38.972-12.991,48.354c-5.052,9.382-11.547,7.217-10.826,9.382c0.722,2.165,1.443,17.321,0.722,33.198
		c-0.722,15.878-11.962,57.332-7.217,81.553c4.745,24.221,2.165,25.982,1.443,28.868c-0.722,2.887,0,18.764,0,18.764
		s1.443,19.486,8.661,24.538s12.768,4.962,19.486,0.722c6.718-4.241,18.043-4.33,23.816-0.722
		c5.774,3.608,13.712,13.712,13.712,13.712s8.66,4.33,10.104,10.104c1.443,5.774,7.169,18.647,2.887,17.321
		c-4.282-1.326-14.434-9.382-20.208-13.712c-5.774-4.33-15.156-9.382-36.085-7.939c-20.93,1.443-30.335,8.007-40.416,2.165
		c-10.081-5.842-8.661-17.321-8.661-17.321s2.887-25.981,2.887-36.807c0-10.826-10.826-52.685-10.826-52.685l-23.816-53.406
		c0,0-5.774,49.076-6.495,62.789c-0.722,13.712-3.609,41.137-3.609,41.137l-4.33,25.982c0,0-1.443,31.033-7.217,40.416
		c-5.774,9.382-24.128,17.139-37.529,24.538c-13.401,7.399-18.764,16.599-18.764,16.599l2.887-15.156
		c0,0-25.26,12.991-27.425,18.764c-2.165,5.774,6.495-18.043,8.66-20.208c2.165-2.165,6.495-13.712,0.722-11.547
		c-5.774,2.165-9.382,10.104-10.104,7.217c-0.722-2.887,0.722-14.434,15.878-20.208c15.156-5.774,34.642-12.269,38.25-28.147
		c3.609-15.878,9.675-35.168,8.661-49.076c-1.014-13.908,0-17.321-3.609-39.694c-3.609-22.373-7.217-54.128-12.991-70.006
		C114.997,260.681,104.893,234.699,104.893,234.699z"/>
	<path style="fill:#FFFFFF;" d="M192.22,69.428c7.939-3.609,12.269-5.774,21.651-6.495c9.382-0.722,40.416,0.722,55.571-3.609
		c15.156-4.33,28.147-5.774,28.147-5.774s-4.33,9.382-11.547,14.434c-7.217,5.052-21.651,10.826-27.425,15.878
		c-5.774,5.052-11.547,15.878-11.547,15.878s-3.609,15.878-2.165,24.538c1.443,8.66,8.66,20.208,8.66,20.208
		s-15.878-3.609-23.816-12.269s-15.156-19.486-15.156-19.486s-5.052-6.495-12.269-8.66c-7.217-2.165-6.495-9.382-6.495-9.382
		s6.495-7.939,0.722-13.712C190.776,75.202,192.22,69.428,192.22,69.428z"/>
	<path style="fill:#FFFFFF;" d="M261.504,191.397c0,0-2.887,28.147-7.939,38.251c-5.052,10.104-9.382,12.991-16.599,18.043
		c-7.217,5.052-19.678,18.941-23.095,20.929c-3.416,1.988-17.321,2.165-23.095-2.165c-5.774-4.33-13.712-4.33-18.764-8.661
		c-5.052-4.33-15.878-8.66-13.712-25.981c2.165-17.321,12.269-46.911,18.043-54.85c5.774-7.939,13.712-13.712,13.712-13.712
		s16.599,20.929,28.147,23.816C229.748,189.953,261.504,191.397,261.504,191.397z"/>
	<path style="fill:#595757;" d="M416.671,78.81c-13.162-2.925-17.9-7.89-15.878-18.764c2.022-10.874,7.217-18.764,19.486-16.599
		c12.269,2.165,17.703,8.753,14.434,20.929C431.444,76.552,429.661,81.697,416.671,78.81z"/>
	<g>
		<path style="fill:#231815;" d="M235.225,32.089c1.804,2.526,4.691,8.66,0.722,6.135c-3.969-2.526-10.465-9.021-9.382-14.434
			c1.083-5.413,2.526-5.052-0.361-10.465C223.317,7.912,216.1,2.86,215.378,3.942c-0.722,1.083-7.578,6.856-11.186,10.465
			c-3.609,3.608-7.939,10.826-9.743,15.156c-1.804,4.33-5.774,8.3-7.578,7.217c-1.804-1.083-7.578-4.33-3.248-7.217
			c4.33-2.887,9.382-7.578,9.382-7.578s5.774-7.578,7.939-10.104c2.165-2.526,10.104-9.382,13.352-11.186
			c3.248-1.804,4.691,0,8.3,4.33c3.609,4.33,10.826,10.465,10.465,14.795C232.699,24.15,235.225,32.089,235.225,32.089z"/>
		<path style="fill:#231815;" d="M207.44,59.514c10.826,0.722,41.859,0.361,49.437-0.722c7.578-1.083,24.899-3.969,35.003-7.578
			s16.599-5.052,14.795-6.495c-1.804-1.443-11.186-1.804-14.795-2.526c-3.608-0.722-12.63-6.134-12.63-6.134l-15.877-6.856
			c0,0-10.104-1.083-17.321-1.804c-7.217-0.722-9.021-6.134-4.33-5.052c0,0,7.939,2.165,11.187,2.526
			c3.248,0.361,10.826,0.722,14.434,1.804c3.608,1.083,7.939,3.248,11.908,4.691c3.969,1.443,12.219,6.056,15.517,6.495
			c5.413,0.722,10.104,2.887,13.712,3.609c3.609,0.722,7.217,6.856,5.413,8.3c-1.804,1.443-10.465,2.165-14.073,3.248
			c-3.609,1.083-31.394,7.578-37.529,9.021s-29.229,2.165-32.838,1.443c-3.608-0.722-19.125,0-24.899,1.804
			c-5.774,1.804-9.382,5.052-14.073,5.774c-4.691,0.722-7.939-2.526-3.609-4.691C191.201,64.205,207.44,59.514,207.44,59.514z"/>
		<path style="fill:#231815;" d="M269.507,44.719c-3.041-0.507-2.887-6.856,1.443-4.691C275.28,42.193,273.837,45.44,269.507,44.719
			z"/>
		<path style="fill:#231815;" d="M247.855,18.015c4.33-2.887,9.743-7.578,12.63-9.382c2.887-1.804,4.691-1.804,7.217,3.609
			c2.526,5.413,4.33-0.361,2.526,5.413c-1.804,5.774-0.722,6.856,2.526,6.135c3.248-0.722,6.135,4.691,7.578,2.526
			s0-3.969-1.443-6.495c-1.443-2.526-2.526-4.33-7.939-9.743c-5.413-5.413-3.969-9.743-9.021-7.217
			c-5.052,2.526-9.382,5.774-13.352,6.856C244.608,10.799,247.855,18.015,247.855,18.015z"/>
		<path style="fill:#231815;" d="M289.353,60.235c3.248-5.052,10.104-9.382,10.465-7.217c0.361,2.165-1.804,3.248-3.609,6.135
			c-1.804,2.887-1.083,5.052-3.969,8.3c-2.887,3.248-6.856,3.969-15.156,8.66c-8.3,4.691-18.403,9.021-20.929,14.434
			c-2.526,5.413-2.887,9.743-3.969,10.826c-1.083,1.083-5.413,1.804-7.578-0.361c-2.165-2.165-6.134,5.774-2.165-2.165
			c3.969-7.939,8.66-14.073,11.908-15.878c3.248-1.804,9.382-5.413,15.517-7.939c6.135-2.526,12.63-6.135,15.156-9.382
			C287.549,62.401,289.353,60.235,289.353,60.235z"/>
		<path style="fill:#231815;" d="M132.128,85.227c-4.68,4.16-8.319,9.36-12.479,12.999c-4.16,3.64-8.84,12.48-14.039,18.719
			c-5.2,6.24-11.439,14.559-18.199,25.479c-6.76,10.919-3.64,15.079-6.76,24.958c-3.12,9.88,1.04,6.24,4.68,11.96
			c3.64,5.72,9.88,38.738,11.959,46.537c2.08,7.8,5.2,13,10.4,19.759c5.2,6.76,5.2-1.04,2.6-6.759c-2.6-5.72-4.16-13-6.76-24.959
			c-2.6-11.96-7.8-33.538-9.879-40.818c-2.08-7.28,0-19.24,3.639-28.079c3.64-8.84,18.199-27.558,25.999-39.518
			s18.719-25.479,25.479-33.798c6.76-8.319,17.159-14.559,15.599-22.879c-1.56-8.319,0,0-6.24,6.76L132.128,85.227z"/>
		<path style="fill:#231815;" d="M213.574,27.037c-2.477-0.495-3.969-5.052-0.361-5.774c3.609-0.722,4.691-0.361,4.691,2.526
			S215.378,27.398,213.574,27.037z"/>
		<path style="fill:#231815;" d="M217.766,113.863c2.463,4.542,12.822,19.401,18.165,22.742c0,0,26.206,5.326,33.504,5.309
			c7.298-0.017,29.109-4.458,29.109-4.458s12.12-5.507,20.343-6.846c8.223-1.34,16.948-1.147,22.052-1.123
			c5.103,0.023,27.629-4.313,34.698-10.2c7.07-5.887,10.4-8.679,25.329-3.558c14.929,5.121,19.927,5.859,24.884,4.401
			c4.957-1.457,4.571-6.256,4.957-1.457c0.386,4.799-1.662,6.321-4.676,6.97c-3.014,0.65-8.697,4.553-16.866,5.536
			c-8.17,0.983-8.065,0.269-6.912,4.816c1.153,4.547-4.372,7.38-4.372,7.38s0.849,4.138-3.909,6.718
			c-4.758,2.581-7.901,9.048-18.675,10.376c-10.774,1.328-10.645-4.489-7.432-4.015c3.213,0.474,10.353,1.527,16.55-3.394
			c6.198-4.922,9.791-9.498,6.672-8.135c-3.119,1.364-8.023,2.464-10.721,0.971c-2.698-1.492-1.006-3.067,3.845-3.809
			c4.852-0.743,9.797,0.351,11.699-2.651c1.902-3.002,5.87-0.228,1.902-3.002c-3.968-2.774-8.568-1.264-10.909-2.704
			c-2.341-1.44-0.24-3.319,3.383-3.149c3.623,0.17,7.151-1.498,11.394-3.06c4.243-1.563,6.426,0.948,11.079-0.918
			c4.652-1.867,5.273-3.599,1.65-3.769c-3.623-0.17-21.209-4.588-24.421-5.063s-8.392,4.962-13.297,6.063s-8.328,2.054-13.033,4.277
			c-4.705,2.224-16.006,7.122-21.255,5.618c-5.25-1.504-7.444-1.463-11.529-0.972c-4.085,0.492-23.661,7.087-31.222,8.889
			c-7.561,1.803-23.04,5.354-29.068,6.654c-6.028,1.299-8.843,3.072-12.36,2.188c-3.517-0.884-13.554-4.554-13.554-4.554
			s-6.426-0.948-10.353-1.527c-3.927-0.58-3.728,0.544-7.233-2.892c-3.505-3.435-5.331-5.893-7.965-10.294
			c-2.633-4.401-1.311-3.476-4.91-8.749c-3.599-5.273-2.979-7.005-5.864-12.172C205.559,105.132,213.465,105.933,217.766,113.863z"
			/>
		<path style="fill:#231815;" d="M189.487,152.245c6.812,13.164,20.974,25.953,33.951,30.3c12.976,4.346,37.127,5.478,47.435-1.755
			c10.308-7.233,39.335-16.081,46.35-17.477c7.015-1.397,30.37-4.76,35.816-5.415c5.447-0.656,7.031-4.799,5.447-0.656
			c-1.584,4.143-14.857,5.103-18.329,5.564c-3.473,0.46-24.993,4.58-31.056,6.117c-6.063,1.536-15.192,4.08-20.584,7.662
			c-5.392,3.582-11.4,8.045-16.035,9.792c-4.635,1.748-5.938,3.987-12.337,4.502c-6.399,0.515-12.992-0.945-21.505,0.717
			c-8.513,1.662-12.602,3.004-16.886,2.372c-4.284-0.632-8.108,2.208-11.143-3.589c-3.035-5.798-3.301-7.296-9.949-11.681
			c-6.648-4.386-6.562-8.264-11.977-14.413C183.268,158.137,189.487,152.245,189.487,152.245z"/>
		<path style="fill:#231815;" d="M247.615,114.003c-0.77,7.192,1.443,14.915,3.368,16.84c1.924,1.924-5.774,6.736-6.736,0.481
			c-0.962-6.254-3.368-11.066-2.887-16.84C241.841,108.71,249.058,100.531,247.615,114.003z"/>
		<path style="fill:#231815;" d="M262.899,186.409c4.811,4.811,4.33,2.887,1.443,13.953c-2.887,11.066-7.217,35.604-12.51,39.934
			c-5.293,4.33-8.661,4.812-16.84,11.067c-8.179,6.254-14.434,12.991-18.283,18.764c-3.849,5.774-9.623,7.698-6.255,0.481
			c3.368-7.217,2.887-8.179,9.623-14.434c6.736-6.254,11.547-11.547,18.764-14.434c7.217-2.887,9.623-7.698,12.028-11.066
			c2.406-3.368,4.812-16.359,5.774-20.689c0.962-4.33-0.962-6.736,0.481-10.585C258.569,195.55,262.899,186.409,262.899,186.409z"/>
		<path style="fill:#231815;" d="M405.179,68.109c-1.567-3.881-1.496-7.713-0.382-11.248c0.593-1.763,1.409-3.546,2.825-5.137
			c1.378-1.577,3.219-3.212,5.764-4.347c2.552-1.116,4.852-1.341,6.697-1.2c0.93,0.025,1.757,0.219,2.514,0.355
			c0.739,0.233,1.441,0.367,2.055,0.657c1.25,0.505,2.33,1.077,3.396,1.828c1.103,0.701,2.155,1.644,3.311,2.875
			c1.159,1.258,1.543,2.322,1.886,3.138c0.111,0.422,0.162,0.798,0.247,1.156c0.041,0.433,0.057,0.885,0.08,1.34
			c0.032,0.459,0.023,0.941-0.003,1.483c-0.017,0.543-0.035,1.147-0.13,1.842c-0.128,1.389-0.431,3.188-1.244,5.433
			c-0.429,1.107-0.809,1.889-1.151,2.417c-0.309,0.553-0.535,0.887-0.701,1.08c-0.301,0.408-0.237,0.357-0.112,0.252
			c0.126-0.105,0.32-0.266,0.27-0.065c-0.05,0.199-0.3,0.818-1.34,1.986c-2.15,2.207-4.192,3.291-5.652,3.993
			c-0.707,0.395-1.282,0.604-1.64,0.83c-0.366,0.204-0.543,0.332-0.543,0.332s0.484,0.147,1.211,0.367
			c0.754,0.264,1.765,0.411,2.872,0.56c1.069,0.046,2.255,0.097,3.108-0.071c0.443-0.068,0.813-0.125,1.072-0.165
			c0.267-0.037,0.409-0.083,0.409-0.083s0.246-0.197,0.677-0.54c0.213-0.173,0.471-0.384,0.767-0.625
			c0.275-0.264,0.566-0.582,0.889-0.919c1.282-1.358,2.636-3.452,3.437-5.687c0.821-2.233,1.141-4.532,1.281-6.231
			c0.125-1.706,0.061-2.83,0.061-2.83s0.02-0.256,0.055-0.716c0.024-0.46,0.019-1.123,0.029-1.944
			c0.016-0.412-0.033-0.854-0.051-1.334c-0.05-0.502,0.001-0.939-0.14-1.58c-0.178-1.228-0.592-2.534-1.264-3.715
			c-1.305-2.409-3.408-4.435-5.579-5.863c-2.182-1.418-4.409-2.353-6.107-2.728c-1.674-0.458-3.623-0.749-5.689-0.818
			c-2.068-0.035-4.255,0.217-6.32,0.831c-4.152,1.169-7.594,3.838-9.23,6.154c-1.728,2.217-3.254,6.354-3.081,10.748
			c0.081,2.195,0.47,4.428,1.132,6.56c0.714,2.121,1.662,4.136,2.863,5.933c0.689,0.85,1.265,1.575,1.955,1.997
			c0.321,0.228,0.615,0.415,0.881,0.565c0.3,0.116,0.572,0.193,0.805,0.243c0.942,0.197,1.289-0.077,1.223-0.598
			C408.452,73.506,406.751,72.001,405.179,68.109z"/>
		<path style="fill:#231815;" d="M387.653,77.869c-1.145,2.365-2.154,4.316-3.068,6.56c-0.445,1.125-0.872,2.319-1.215,3.684
			c-0.176,0.68-0.332,1.403-0.461,2.178c-0.045,0.251-0.09,0.506-0.136,0.765c-0.048,0.314-0.096,0.634-0.145,0.959
			c-0.086,0.642-0.177,1.285-0.243,1.932c-0.035,0.319-0.068,0.629-0.101,0.93l-0.049,0.438l0.395,0.128
			c0.596,0.105,1.157,0.204,1.689,0.299c0.524,0.099,1.018,0.192,1.487,0.281c0.361,0.101,0.701,0.197,1.025,0.288
			c0.957,0.304,1.692,0.682,2.33,1.07c1.277,0.805,2.201,1.585,3.892,2.77c1.693,1.188,2.367,1.706,3.155,2.419
			c0.803,0.71,1.648,1.657,3.975,3.76c2.407,2.083,2.535,2.041,2.348,1.845c-0.118-0.231-0.505-0.574,1.61,0.506
			c1.033,0.562,2.116,0.805,2.973,0.958c0.927,0.068,1.643,0.097,2.242-0.056c1.186-0.283,1.643-0.659,1.643-0.659
			s-0.272-0.237-0.681-0.592c-0.389-0.373-0.87-0.778-1.26-1.347c-0.399-0.546-0.742-1.025-0.97-1.453
			c-0.218-0.422-0.364-0.702-0.364-0.702c0.001-0.026-0.49-0.08-1.23-0.395c-0.745-0.259-1.738-0.716-2.737-1.21
			c-1.988-1.033-3.975-2.27-3.975-2.27s-1.55-1.424-3.533-3.119c-1.96-1.698-4.539-3.55-6.263-4.325
			c-0.425-0.202-0.877-0.416-1.349-0.639c-0.249-0.097-0.504-0.197-0.762-0.298l-0.193-0.077l-0.037-0.024l-0.069-0.05
			c-0.144-0.159-0.377-0.174-0.128-0.431l0.197-0.195l0.083-0.047c0.07-0.201,0.14-0.4,0.207-0.592
			c0.285-0.796,0.535-1.509,0.709-2.088c0.341-1.156,0.503-3.012,0.863-5.075c0.349-2.06,0.922-4.318,1.876-6.158
			c0.958-1.821,0.699-2.944-0.184-3.101C390.34,74.586,388.803,75.49,387.653,77.869z"/>
		<path style="fill:#231815;" d="M413.645,109.576c3.949-0.707,6.794-0.135,12.257-1.847c2.715-0.912,4.22-1.579,5.483-2.205
			c0.639-0.301,1.193-0.65,1.782-1.083c0.303-0.18,0.585-0.529,0.897-0.837c0.27-0.332,0.54-0.706,0.784-1.129
			c0.913-1.703,1.063-2.389,1.441-3.22c0.34-0.829,0.796-1.823,1.648-4.121c1.681-4.525-0.003-0.024,0.797-3.311
			c0.408-1.616,0.46-2.751,0.45-3.506c-0.01-0.744-0.124-1.163-0.124-1.163s-0.878,0.443-1.716,1.099
			c-0.838,0.635-1.637,1.347-1.637,1.347s-0.369,1.926-0.648,3.788c-0.282,1.87-0.625,3.685-0.625,3.685s-0.138,0.402-0.393,1.013
			c-0.243,0.618-0.605,1.452-1.055,2.275c-0.466,0.823-1,1.566-1.602,2.002c-0.673,0.505-1.39,0.879-1.93,1.144
			c-2.177,1.129-6.224,1.238-8.198,1.501c-1.97,0.316-5.945,1.817-9.405,2.546c-1.755,0.393-2.244,1.242-1.799,1.687
			C410.504,109.72,411.692,109.909,413.645,109.576z"/>
		<path style="fill:#231815;" d="M396.441,78.708c1.76,1.429,3.088,2.841,4.697,4.27c1.614,1.415,3.497,2.934,6.509,4.263
			c3.044,1.27,4.83,1.812,6.351,2.295c1.522,0.435,2.918,0.771,4.98,0.601c2.056-0.191,2.825-0.367,3.829-0.438
			c0.977-0.07,2.169-0.154,4.936-0.35c5.33-0.349-0.036-0.001,3.708-0.827c1.9-0.421,3.145-1.14,3.971-1.821
			c0.219-0.178,0.382-0.334,0.606-0.535c0.115-0.117,0.237-0.173,0.585-0.541c0.023-0.018,0.258-0.307,0.318-0.517
			c0.089-0.235,0.109-0.486,0.086-0.682c-0.028-0.214-0.122-0.479-0.284-0.691c-0.136-0.201-0.42-0.391-0.482-0.412
			c-0.163-0.063-0.369-0.108-0.479-0.109c-0.266,0.032-0.371,0.098-0.436,0.139l-0.104,0.066c0,0,0.078,0.056,0.214,0.154
			l0.143,0.094l0.079,0.056l0.18,0.104l0.089,0.065c0.071,0.042,0.243,0.199,0.302,0.359c0.072,0.174,0.072,0.298,0.034,0.447
			c-0.032,0.145-0.142,0.303-0.215,0.361c-0.131,0.075-0.27,0.112-0.328,0.093c-0.568-0.082-1.079-0.391-1.657-0.66
			c-1.119-0.564-2.218-1.168-2.218-1.168s-2.011,0.658-4.021,1.315c-2.006,0.678-4.012,1.355-4.012,1.355s-1.902,0.239-4.078,0.308
			c-1.085,0.032-2.232,0-3.192-0.131c-0.467-0.061-0.912-0.171-1.328-0.278c-0.413-0.079-0.784-0.198-1.1-0.297
			c-1.271-0.35-2.767-1.217-4.087-2.25c-1.328-1.027-2.52-2.129-3.394-2.787c-1.745-1.243-6.255-2.974-9.333-5.406
			c-1.56-1.211-2.705-0.964-2.933-0.119C394.139,75.894,394.694,77.284,396.441,78.708z"/>
		<path style="fill:#231815;" d="M411.425,89.904c-0.592,1.802-1.48,2.848-1.899,5.434c-0.413,2.59-0.953,2.746-1.448,4.3
			c-0.468,1.579-0.406,1.21-1.408,3.403c-0.897,2.34-0.029-0.027-0.291,1.744c-0.105,0.914,0.18,1.708,0.56,2.174
			c0.384,0.481,0.8,0.546,0.769,0.538c0,0,0.004-0.207,0.068-0.449c0.086-0.245,0.248-0.503,0.455-0.715
			c0.405-0.421,0.891-0.713,0.891-0.713s-0.025-0.176-0.045-0.467c-0.013-0.293-0.016-0.701,0.007-1.123
			c0.042-0.842,0.155-1.712,0.155-1.712s0.321-0.735,0.7-1.603c0.386-0.873,0.846-1.889,1.05-2.492
			c0.407-1.206,1.492-2.856,1.816-3.766c0.321-0.911,0.104-3.04,0.589-4.602C413.848,88.25,411.973,88.149,411.425,89.904z"/>
		<path style="fill:#231815;" d="M393.505,74.854c0.799-0.376,1.472-0.161,2.427-0.95c1.001-0.771,1.277-0.34,1.984-0.484
			c0.719-0.12,0.588-0.111,1.649,0.229c1.048,0.368-0.001-0.004,0.72-0.067c0.715-0.054,0.982-0.99,0.982-0.99
			s-0.212-0.457-0.423-0.913c-0.225-0.454-0.45-0.908-0.45-0.908s-0.433,0.152-0.866,0.304c-0.424,0.167-0.849,0.334-0.849,0.334
			s-0.411-0.065-0.91-0.094c-0.498-0.035-1.084-0.023-1.404,0.054c-0.631,0.147-1.725-0.004-2.209,0.178
			c-0.496,0.171-1.059,1.408-1.758,1.772C391.675,73.703,392.751,75.233,393.505,74.854z"/>
		<path style="fill:#231815;" d="M429.926,80.53c0.394,0.453,0.364,1.107,1.301,1.313c0.923,0.165,0.713,0.575,1.142,0.877
			c0.437,0.282,0.326,0.226,0.741,0.998c0.445,0.762-0.001,0.003,0.472,0.246c0.487,0.24,1.042-0.544,1.042-0.544
			s0.08-0.475,0.159-0.95c0.097-0.469,0.194-0.937,0.194-0.937s-0.26-0.001-0.52-0.001c-0.264-0.015-0.528-0.03-0.528-0.03
			s-0.481-0.848-0.726-1.053c-0.273-0.206-0.333-0.88-0.496-1.041c-0.162-0.15-1.187,0.131-1.476-0.223
			C430.965,78.853,429.519,80.041,429.926,80.53z"/>
		<path style="fill:#231815;" d="M127.907,264.51c-4.154-0.3-11.782,4.492-10.42,9.832c0.729,2.642,1.58,7.818,2.782,13.016
			c1.15,5.211,2.603,10.448,4.143,13.303c3.078,5.712,3.587,15.758,4.39,20.285c0.822,4.545,2.324,16.641,4.78,27.082
			c2.385,10.505,1.883,12.101,2.774,24.322c0.575,12.246,3.216,12.438,3.405,3.089c-0.052-9.34-1.426-10.831-1.399-20.14
			c-0.027-9.335-1.366-18.592-3.162-25.325c-1.778-6.743-2.678-15.169-3.782-21.211c-1.14-6.044-1.497-16.078-1.992-19.088
			c-0.239-1.509-0.611-4.929-0.917-7.969c-0.253-3.043-0.475-5.707-0.475-5.707s0.327-2.355,0.528-4.967
			C128.745,268.421,128.726,265.561,127.907,264.51z"/>
		<path style="fill:#231815;" d="M181.585,274.113c-3.208,6.16-4.993,11.545-6.53,17.515c-1.474,5.98-2.477,12.616-2.685,21.437
			c-0.173,8.814-0.342,13.712-0.708,17.793c-0.35,4.083-0.758,7.311-1.19,12.665c-0.463,5.361-0.737,7.499-1.215,10.158
			c-0.472,2.667-1.216,5.801-2.888,13.299c-1.636,7.536-1.57,7.589-1.377,7.042c0.226-0.528,0.608-1.602-0.003,3.903
			c-0.576,5.523-0.179,9.451,0.279,11.951c0.487,2.506,1.028,3.616,1.028,3.616s1.244-2.712,2.562-5.352
			c1.299-2.648,2.691-5.218,2.691-5.218s0.188-5.892,0.72-11.826c0.553-5.965,1.106-11.929,1.106-11.929s1.098-5.365,2.026-11.922
			c0.976-6.567,1.533-14.264,1.763-18.568c0.219-4.336,0.817-9.719,1.564-14.772c0.726-5.061,1.631-9.773,2.127-12.907
			c0.489-3.136,0.737-7.908,1.59-13.119c0.859-5.17,2.429-10.879,5.391-15.076c1.466-2.075,2.481-3.511,2.985-4.533
			c0.496-1.023,0.405-1.721-0.274-1.897c-0.665-0.167-2.016,0.136-3.702,1.343C185.19,268.923,183.219,271.036,181.585,274.113z"/>
		<path style="fill:#231815;" d="M239.959,271.836c-0.092,6.184-1.261,11.372-2.427,17.101c-1.193,5.738-2.57,12.083-3.458,20.766
			c-0.846,8.686-1.318,13.557-1.813,17.62c-0.492,4.061-0.955,7.327-1.049,12.798c-0.025,2.736-0.012,4.65,0.027,6.223
			c0.008,1.573,0.014,2.804,0.02,4.174c0.021,2.739-0.189,6.039,0.15,13.747c0.438,7.705,0.515,7.71,0.551,7.142
			c0.079-0.571,0.141-1.689,1.091,3.716c0.971,5.405,2.379,9.029,3.52,11.277c1.128,2.255,1.941,3.166,1.941,3.166
			s0.517-2.895,1.033-5.79c0.244-1.431,0.577-2.868,0.796-3.933c0.228-1.064,0.38-1.773,0.38-1.773s-1.468-5.662-2.531-11.421
			c-0.59-2.871-0.996-5.77-1.352-7.942c-0.291-2.18-0.486-3.633-0.486-3.633s-0.05-1.333-0.039-3.465
			c-0.031-2.131,0.029-5.059,0.129-8.244c0.211-6.376,0.97-13.753,1.395-17.967c0.398-4.22,1.392-9.441,2.515-14.369
			c1.117-4.93,2.339-9.591,2.956-12.765c0.608-3.167,1.025-8.065,1.304-13.595c0.277-5.524,0.321-11.679-0.152-17.275
			c-0.206-2.806-0.889-4.716-1.56-5.738c-0.665-1.032-1.296-1.207-1.78-0.676C240.119,262.086,239.983,265.721,239.959,271.836z"/>
		<path style="fill:#231815;" d="M196.94,329.024c1.842,5.271,4.106,11.074,6.099,17.447c1.022,3.173,1.906,6.516,2.668,9.961
			c0.79,3.384,1.126,7.289,1.775,10.184c1.398,6.289,4.711,12.636,6.793,19.775c1.028,3.575,1.716,7.415,1.564,11.306
			c-0.18,3.604-0.525,6.908-0.868,10.219c-1.429,13.139-3.134,22.24-4.406,27.587c-0.641,2.669-1.2,4.408-1.574,5.227
			c-0.561,1.086-0.548,0.722-0.326-0.294c0.609-3.955-0.748-12.021,1.026-31.654c0.213-2.453,0.401-4.847,0.554-7.166
			c0.075-1.16,0.143-2.3,0.188-3.41c0.011-1.101,0.048-2.083-0.063-3.112c-0.318-4.063-1.611-7.829-2.926-11.275
			c-1.351-3.451-2.778-6.628-3.929-9.599c-1.164-2.965-2.048-5.736-2.596-8.207c-0.124-0.624-0.236-1.191-0.34-1.715
			c-0.083-0.457-0.158-0.875-0.229-1.265c-0.132-0.78-0.227-1.451-0.302-2.096c-0.176-1.295-0.336-2.471-0.571-4.196
			c-0.551-3.458-1.553-9.119-6.512-21.975c-2.465-6.438-4.278-11.726-5.339-15.925c-1.058-4.202-1.503-7.25-1.547-9.208
			c-0.108-3.907,0.901-3.392,2.077,0.337c1.23,3.732,3.366,8.52,5.287,12.33C195.346,326.116,196.94,329.024,196.94,329.024z"/>
		<path style="fill:#231815;" d="M233.475,390.777c-0.997,4.18-1.671,7.644-2.006,11.52c-0.27,3.86-0.259,8.17,1.313,13.697
			c1.625,5.492,2.95,8.488,4.428,11.007c0.34,0.637,0.756,1.133,1.118,1.695c0.399,0.533,0.697,1.126,1.206,1.63
			c0.478,0.523,0.988,1.065,1.559,1.639c0.612,0.536,1.363,1.04,2.174,1.605c0.853,0.51,1.655,0.832,2.32,1.164
			c0.676,0.312,1.307,0.437,1.85,0.628c1.094,0.398,1.97,0.459,2.94,0.696c1.897,0.284,4.359,0.779,9.485,0.219
			c5.049-0.636,4.942-0.741,4.594-0.753c-0.381-0.042-1.102-0.121,2.185-1.111c3.253-1.015,5.232-2.203,6.508-3.14
			c1.261-0.913,1.778-1.644,1.778-1.644s-0.468-0.184-1.17-0.459c-0.707-0.273-1.676-0.646-2.647-0.963
			c-1.959-0.668-3.932-1.273-3.932-1.273s-0.867,0.342-2.168,0.856c-1.296,0.51-2.99,1.189-4.678,1.777
			c-1.689,0.61-3.367,1.09-4.632,1.384c-0.636,0.179-1.153,0.212-1.523,0.292c-0.369,0.063-0.58,0.099-0.58,0.099
			s-0.198,0.017-0.538-0.023c-0.337-0.038-0.824-0.093-1.424-0.161c-0.601-0.044-1.254-0.286-1.994-0.431
			c-0.368-0.083-0.711-0.276-1.086-0.409c-0.363-0.16-0.766-0.252-1.108-0.501c-0.354-0.209-0.716-0.421-1.082-0.636
			c-0.362-0.214-0.67-0.543-1.01-0.798c-0.7-0.479-1.245-1.22-1.828-1.815c-0.575-0.612-1.001-1.381-1.471-1.966
			c-0.47-0.608-0.68-1.194-0.996-1.649c-1.072-1.968-1.714-5.017-1.944-7.954c-0.261-2.944-0.17-5.79-0.224-7.672
			c-0.087-1.879-0.638-4.719-0.94-7.966c-0.298-3.227-0.255-6.894,0.747-9.899c0.277-0.725,0.441-1.368,0.518-1.935
			c0.109-0.538,0.145-0.991,0.092-1.384c-0.102-0.78-0.503-1.278-1.124-1.337c-0.613-0.059-1.488,0.331-2.426,1.317
			c-0.423,0.496-0.859,1.132-1.287,1.91C234.106,388.813,233.756,389.73,233.475,390.777z"/>
		<path style="fill:#231815;" d="M208.817,453.202c2.816,1.03,5.272,1.445,7.666,1.846c2.387,0.369,4.696,0.626,7.104,0.798
			c4.813,0.338,10.014,0.319,16.874-0.33c13.705-1.277,15.407-0.113,23.88,0.173c4.23,0.193,5.91,0.342,7.993,0.665
			c2.063,0.36,4.604,0.806,10.144,2.414c2.747,0.84,4.046,1.357,4.656,1.58c0.609,0.223,0.523,0.161,0.351,0.039
			c-0.363-0.211-1.001-0.815,2.778,0.404c3.728,1.276,6.275,2.073,8.053,2.561c0.879,0.247,1.568,0.395,2.024,0.496
			c0.466,0.091,0.72,0.106,0.72,0.106s-0.218-0.545-0.544-1.362c-0.361-0.812-0.908-1.902-1.561-2.968
			c-1.289-2.14-2.992-4.123-2.992-4.123s-1.198-0.462-3.01-0.985c-1.81-0.535-4.232-1.096-6.65-1.493
			c-4.839-0.818-9.638-1.047-9.638-1.047s-4.299-0.832-9.497-1.395c-5.195-0.591-11.261-0.955-14.713-0.956
			c-6.914-0.026-17.225-1.003-22.279-1.064c-2.534-0.027-6.329,0.526-10.493,0.787c-2.077,0.123-4.249,0.161-6.334-0.056
			c-2.044-0.218-4.124-0.763-5.23-1.755c-0.543-0.482-0.814-0.853-1.058-1.246c-0.258-0.382-0.42-0.812-0.621-1.175
			c-0.336-0.739-0.837-1.207-1.466-0.997c-0.302,0.11-0.683,0.374-0.988,0.896c-0.294,0.518-0.597,1.313-0.485,2.404
			c0.078,1.075,0.643,2.408,1.638,3.439C206.122,451.901,207.413,452.669,208.817,453.202z"/>
		<path style="fill:#231815;" d="M273.497,453.935c1.312,0.078,2.515,0.167,3.664,0.428c1.153,0.225,2.275,0.44,3.427,0.756
			c1.16,0.266,2.368,0.542,3.711,0.85c1.361,0.238,2.827,0.605,4.587,0.857c3.482,0.672,5.323,1.549,6.726,2.431
			c0.702,0.452,1.319,0.88,1.988,1.35c0.659,0.492,1.384,1.001,2.336,1.557c1.859,1.202,2.619,1.658,3.435,2.431
			c0.819,0.763,1.758,1.748,3.835,4.113c4.057,4.829,0.013-0.024,3.421,2.826c1.687,1.451,3.237,2.07,4.377,2.335
			c1.144,0.257,1.879,0.139,1.879,0.139s-0.055-1.629-0.111-3.259c-0.058-1.646-0.178-3.289-0.178-3.289s-2.118-1.501-4.318-2.894
			c-1.075-0.721-2.216-1.366-3.042-1.877c-0.827-0.51-1.401-0.819-1.401-0.819s-0.438-0.398-1.139-1.034
			c-0.692-0.649-1.696-1.484-2.817-2.377c-1.096-0.924-2.397-1.785-3.574-2.62c-1.213-0.782-2.367-1.444-3.221-1.891
			c-0.881-0.4-1.841-0.914-2.835-1.482c-1.016-0.536-2.076-1.095-3.109-1.641c-2.104-1.03-4.17-1.949-5.628-2.269
			c-1.44-0.389-3.767-0.23-6.241,0.018c-2.489,0.255-5.128,0.672-7.493,0.657C266.99,449.31,268.332,453.873,273.497,453.935z"/>
		<path style="fill:#231815;" d="M263.977,445.198c6.038-0.091,10.009,0.801,17.812-0.055c3.907-0.333,6.095-0.03,7.831,0.43
			c0.867,0.244,1.635,0.505,2.475,0.759c0.815,0.321,1.696,0.646,2.825,0.956c1.113,0.347,1.846,0.688,2.469,0.926
			c0.619,0.246,1.092,0.464,1.558,0.811c0.477,0.326,0.987,0.709,1.688,1.245c0.704,0.53,1.471,1.413,2.594,2.463
			c1.969,2.424,1.924,2.396,1.873,2.157c-0.033-0.123-0.083-0.309,0.082-0.288c0.158,0.029,0.583,0.21,1.301,1.055
			c0.726,0.83,1.517,1.374,2.166,1.887c0.637,0.521,1.255,0.884,1.798,1.141c1.086,0.514,1.865,0.599,1.865,0.599
			s0.29-1.591,0.479-3.329c0.096-0.863,0.177-1.76,0.215-2.436c-0.006-0.657-0.011-1.095-0.011-1.095s-0.562-0.508-1.406-1.269
			c-0.436-0.364-0.876-0.848-1.467-1.249c-0.578-0.406-1.195-0.839-1.812-1.271c-1.184-0.916-2.562-1.538-3.53-2.073
			c-0.492-0.257-0.894-0.48-1.186-0.615c-0.301-0.118-0.473-0.185-0.473-0.185s-0.561-0.365-1.458-0.948
			c-0.458-0.275-0.98-0.671-1.608-0.98c-0.632-0.312-1.324-0.655-2.045-1.012c-0.366-0.175-0.739-0.353-1.116-0.533
			c-0.387-0.145-0.778-0.291-1.169-0.438c-0.79-0.285-1.58-0.569-2.337-0.843c-1.535-0.412-2.962-0.78-4.006-0.953
			c-4.159-0.709-10.354-2.068-13.439-2.045c-3.115-0.042-9.094,2.481-14.051,2.564C256.947,440.613,257.893,445.291,263.977,445.198
			z"/>
		<path style="fill:#231815;" d="M277.363,432.215c0.739,0.005,1.414,0.13,2.065,0.302c0.652,0.138,1.275,0.363,1.93,0.55
			c1.315,0.373,2.721,0.719,4.821,0.802c2.109,0.118,3.2,0.623,3.997,1.169c0.811,0.543,1.349,1.156,2.447,1.788
			c2.12,1.336,1.835,1.051,3.811,4.083c1.753,3.095,0.016-0.016,1.802,1.608c0.839,0.847,1.834,1.063,2.627,1.129
			c0.807,0.049,1.436-0.112,1.436-0.112s0.499-1.21,0.919-2.515c0.442-1.31,0.74-2.642,0.74-2.642s-0.339-0.245-0.848-0.611
			c-0.506-0.365-1.223-0.787-1.912-1.226c-0.702-0.421-1.43-0.792-1.957-1.085c-0.534-0.285-0.906-0.444-0.906-0.444
			s-0.974-1.1-2.316-2.258c-0.657-0.598-1.433-1.158-2.146-1.695c-0.736-0.493-1.436-0.912-1.965-1.172
			c-2.096-1.001-5.146-3.252-6.987-3.658c-0.892-0.235-2.385,0.072-3.943,0.426c-0.79,0.214-1.592,0.414-2.377,0.573
			c-0.791,0.2-1.556,0.297-2.288,0.311C273.314,427.693,274.557,432.222,277.363,432.215z"/>
		<path style="fill:#231815;" d="M137.187,389.772c1.014,1.742,1.246,4.315,1.221,6.453c-0.022,2.137-0.333,3.838-0.333,3.838
			s-0.694,5.454-1.507,8.819c-0.722,3.366-1.372,7.433-1.916,10.131c-0.103,0.678-0.412,2.021-0.846,3.721
			c-0.365,1.714-1.057,3.74-1.713,5.833c-0.363,1.038-0.808,2.065-1.203,3.083c-0.208,0.505-0.391,1.013-0.611,1.496
			c-0.236,0.475-0.467,0.941-0.692,1.393c-0.451,0.901-0.874,1.746-1.252,2.502c-0.442,0.72-0.831,1.355-1.147,1.871
			c-0.312,0.516-0.687,1.139-1.109,1.839c-0.479,0.663-1.01,1.399-1.575,2.179c-1.056,1.618-2.564,3.159-3.922,4.751
			c-0.706,0.772-1.499,1.439-2.205,2.124c-0.734,0.655-1.367,1.356-2.063,1.853c-1.36,1.029-2.456,1.859-3.069,2.324
			c-2.136,1.529-4.123,2.407-5.689,3.204c-1.586,0.758-2.837,1.355-3.8,1.815c-1.919,0.918-2.664,1.336-2.664,1.336
			s-8.621,3.958-12.113,5.877c-1.771,0.925-3.84,1.993-5.623,3.198c-1.789,1.19-3.255,2.554-3.94,3.673
			c-0.36,0.547-0.592,0.913-0.812,1.194c-0.222,0.278-0.457,0.457-0.67,0.696c-0.424,0.469-1.154,1.039-1.662,2.961
			c-0.521,1.904-0.548,3.96-0.6,5.146c-0.084,1.188-0.427,1.553-1.091-0.25c-0.301-0.908-0.493-2.226-0.402-3.661
			c0.125-1.435,0.578-2.93,1.207-4.165c0.648-1.223,1.398-2.206,1.982-2.863c0.6-0.641,0.981-1.025,0.981-1.025
			s0.381-0.448,0.952-1.121c0.6-0.639,1.424-1.47,2.296-2.238c1.742-1.54,3.633-2.84,3.633-2.84s0.959-0.082,2.317-0.442
			c1.36-0.365,3.116-1.009,4.813-2.238c3.393-2.511,11.009-5.502,13.832-7.281c1.418-0.88,2.978-1.854,4.444-2.952
			c0.738-0.564,1.519-1.269,2.341-1.908c0.816-0.663,1.722-1.282,2.53-2.067c3.538-2.821,6.84-6.851,9.201-10.713
			c0.293-0.485,0.602-0.996,0.921-1.525c0.302-0.538,0.544-1.131,0.823-1.713c0.536-1.175,1.119-2.36,1.496-3.575
			c0.906-2.361,1.457-4.591,1.849-5.839c0.411-1.24,1.382-5.067,2.061-8.988c0.649-3.928,1.026-7.925,1.157-9.256
			c0.084-1.341-0.107-3.881-0.433-6.089c-0.305-2.207-0.652-4.073-0.652-4.073s1.724-0.561,2.296-5.955
			C134.79,384.913,137.187,389.772,137.187,389.772z"/>
		<path style="fill:#231815;" d="M160.089,420.949c0.278,6.545,0.318,11.965,0.032,17.794c-0.099,1.45-0.126,2.947-0.313,4.459
			c-0.07,0.761-0.142,1.536-0.216,2.329c-0.083,0.789-0.234,1.576-0.343,2.395c-0.438,3.276-1.233,6.776-2.666,10.615
			c-0.394,0.943-0.72,1.866-1.122,2.694c-0.45,0.805-0.876,1.566-1.279,2.287c-0.204,0.362-0.403,0.713-0.597,1.054
			c-0.235,0.316-0.463,0.623-0.685,0.923c-0.451,0.595-0.878,1.159-1.283,1.696c-0.763,1.115-1.732,1.887-2.498,2.7
			c-0.8,0.786-1.513,1.523-2.332,2.085c-1.585,1.15-2.967,2.344-4.564,3.203c-1.649,0.937-3.565,1.915-5.947,3.182
			c-4.793,2.524-6.753,3.519-9.229,4.684c-2.476,1.197-5.524,2.395-12.489,5.945c-3.475,1.816-5.19,2.859-5.979,3.353
			c-0.79,0.493-0.654,0.437-0.382,0.326c0.272-0.111,0.678-0.276,0.432-0.006c-0.243,0.279-1.153,0.937-3.425,2.75
			c-2.264,1.83-4.034,3.737-5.265,5.678c-1.238,1.928-1.881,3.938-1.956,5.609c-0.006,1.717,0.438,2.914,0.855,3.553
			c0.418,0.655,0.649,0.905,0.649,0.905s-0.008-0.22-0.022-0.605c0.001-0.38-0.053-0.892,0.118-1.496
			c0.175-1.209,1.005-2.506,2.004-3.404c0.965-0.936,2.163-1.582,3.014-2.042c0.923-0.434,1.504-0.693,1.504-0.693
			s0.88-1.015,2.442-2.449c1.557-1.434,3.838-3.233,6.235-4.927c2.394-1.698,4.891-3.299,6.781-4.479
			c1.903-1.167,3.171-1.946,3.171-1.946s4.917-2.329,10.814-5.122c2.969-1.417,6.173-2.909,9.176-4.649
			c0.722-0.426,1.57-0.944,2.185-1.438c0.644-0.5,1.267-0.983,1.861-1.445c1.188-0.926,2.271-1.755,3.058-2.618
			c3.439-3.067,7.212-7.691,9.804-12.695c2.6-5.005,3.965-10.227,4.407-13.662c0.467-3.452,0.321-8.646-0.326-14.162
			c-0.608-5.53-1.487-11.478-1.664-16.9c-0.168-5.404-1.181-7.562-2.218-6.747C160.819,410.494,159.792,414.389,160.089,420.949z"/>
		<path style="fill:#231815;" d="M125.197,474.799c-3.479,0.786-7.441,2.832-10.982,5.629c-3.568,2.778-6.735,6.225-9.269,9.578
			c-2.533,3.362-4.049,5.943-5.08,7.495c-0.99,1.566-1.616,2.038-1.433,1.384c0.216-0.636-0.092-1.756,0.085-3.542
			c0.112-0.88,0.195-1.992,0.648-3.196c0.21-0.609,0.444-1.276,0.757-1.971c0.35-0.672,0.753-1.389,1.217-2.145
			c3.923-5.903,8.034-9.888,10.501-12.211c1.243-1.156,1.745-1.296,2.937-1.868c1.263-0.456,3.141-1.521,7.87-3.235
			c2.376-0.834,4.403-1.127,5.97-1.127c1.556-0.082,2.68,0.268,3.359,0.519c1.363,0.564,1.093,1.294-0.201,1.62
			c-1.314,0.263-2.968,1.052-4.232,1.7C126.093,474.197,125.197,474.799,125.197,474.799z"/>
		<path style="fill:#231815;" d="M106.559,470.319c-4.572,2.475-9.422,6.72-13.71,11.741c-4.32,5.01-8.137,10.736-11.384,16.075
			c-3.254,5.342-5.364,9.224-6.795,11.475c-1.376,2.274-2.103,2.899-1.78,1.99c0.35-0.895,0.291-2.439,0.789-4.86
			c0.247-1.209,0.553-2.673,1.17-4.341c0.559-1.696,1.412-3.603,2.564-5.768c4.745-8.577,9.319-15.016,12.142-18.741
			c1.407-1.867,2.002-2.237,3.395-3.42c1.506-1.071,3.664-3.15,9.453-7.102c1.421-1.027,2.861-1.715,4.115-2.36
			c1.236-0.678,2.456-1.033,3.479-1.389c2.038-0.745,3.642-0.789,4.618-0.816c1.981,0.027,1.814,0.832,0.103,1.657
			c-1.755,0.743-3.848,2.243-5.465,3.457C107.731,469.273,106.559,470.319,106.559,470.319z"/>
		<path style="fill:#231815;" d="M392.273,153.559c-2.277,6.166-4.288,10.098-6.831,18.501c-0.636,2.101-1.167,3.729-1.636,5.07
			c-0.202,0.557-0.383,1.056-0.55,1.517l-0.08,0.201l-0.133,0.113c-0.138-0.003-0.27-0.005-0.4-0.007
			c-0.43-0.022-0.84-0.042-1.248-0.063c-0.468-0.036-0.933-0.076-1.412-0.136c-0.955-0.119-1.997-0.265-3.189-0.589
			c-1.19-0.328-1.867-0.741-2.237-1.106c-0.367-0.372-0.449-0.67-0.456-1.059c-0.007-0.192,0.036-0.422,0.135-0.696
			c0.088-0.288,0.232-0.54,0.488-1.064c0.49-0.961,1.1-2.207,1.923-3.962c3.214-7.042,0.02,0.004,1.929-5.163
			c1.864-5.183,1.547-7.61,1.547-7.61l-3.77,4.485c0,0-0.873,2.873-1.812,5.721c-0.926,2.854-1.966,5.657-1.966,5.657
			s-0.073,0.155-0.205,0.434c-0.14,0.325-0.355,0.794-0.479,1.474c-0.134,0.655-0.117,1.629,0.379,2.517
			c0.483,0.885,1.306,1.563,2.153,1.999c1.716,0.887,3.604,1.223,5.318,1.416c0.859,0.092,1.681,0.137,2.431,0.152
			c0.242,0,0.479,0,0.71,0c0.293-0.009,0.578-0.018,0.854-0.026c0.503-0.088,1.207,0.142,1.237-0.486
			c0.285-0.735,0.588-1.516,0.904-2.329c0.227-0.56,0.463-1.143,0.705-1.738c0.499-1.18,1.019-2.411,1.526-3.611
			c1.023-2.393,1.999-4.656,2.568-6.196c1.136-3.076,2.426-9.599,4.322-14.734C396.89,147.109,394.55,147.39,392.273,153.559z"/>
		<path style="fill:#231815;" d="M396.286,104.728c-0.366,1.367-1.091,2.165-0.986,4.093c0.112,1.921-0.446,2.032-0.696,3.153
			c-0.255,1.113-0.199,0.906-1.083,2.312c-0.899,1.369,0.005,0.007-0.284,1.069c-0.148,0.523-0.008,0.955,0.16,1.263
			c0.17,0.311,0.379,0.509,0.379,0.509s0.581-0.075,1.176-0.192c0.59-0.13,1.179-0.259,1.179-0.259s0.065-0.68,0.099-1.34
			c0.028-0.658,0.056-1.316,0.056-1.316s1.034-2.153,1.227-3.055c0.198-0.904,1.007-2.134,1.162-2.795
			c0.151-0.66-0.557-2.234-0.245-3.325C398.748,103.78,396.679,103.334,396.286,104.728z"/>
		<path style="fill:#231815;" d="M413.436,109.67c-0.68,1.29-1.564,1.976-1.798,3.945c-0.202,1.957-0.757,1.99-1.16,3.101
			c-0.394,1.106-0.315,0.888-1.348,2.257c-1.031,1.356,0,0.003-0.384,1.09c-0.382,1.072,0.428,1.863,0.428,1.863
			s0.593-0.083,1.186-0.165c0.594-0.097,1.188-0.194,1.188-0.194l0.363-2.612c0,0,1.262-2.021,1.587-2.874
			c0.319-0.868,1.31-1.941,1.578-2.547c0.256-0.607-0.145-2.279,0.419-3.264C416.058,109.334,414.179,108.342,413.436,109.67z"/>
		<path style="fill:#231815;" d="M115.101,156.815c-6.253-5.873,3.269-13.536,9.287-12.879
			C122.939,152.279,125.691,156.462,115.101,156.815z"/>
		<path style="fill:#231815;" d="M125.926,114.956c0.472,1.068,1.3,2.06,2.151,2.829c3.647-1.563,20.989-23.834,8.076-20.762
			C134.354,101.36,122.358,113.467,125.926,114.956z"/>
		<path style="fill:#231815;" d="M159.125,84.644c-2.297-2.689,4.746-9.969,7.988-11.49
			C168.046,77.821,165.709,92.418,159.125,84.644z"/>
		<path style="fill:#231815;" d="M113.657,187.126c6.855-5.806,7.259,12.171,4.365,15.135c-2.404-2.921-9.787-6.994-11.191-9.759
			C103.477,185.901,109.471,185.725,113.657,187.126z"/>
		<path style="fill:#231815;" d="M101.388,169.084c-2.637-3.162-4.272-8.749-0.037-10.822
			C104.932,161.624,106.643,167.233,101.388,169.084z"/>
		<path style="fill:#231815;" d="M135.309,186.405c-2.431-2.883-2.915-10.628,2.059-10.714
			C137.582,179.633,138.34,184.521,135.309,186.405z"/>
		<path style="fill:#231815;" d="M125.205,236.924c-2.511-4.185-6.169-11.969,0-14.397
			C130.178,225.628,129.269,235.205,125.205,236.924z"/>
		<path style="fill:#231815;" d="M149.021,133.72c-0.912-3.359,0.592-9.482,4.92-10.041
			C155.143,128.008,151.439,132.518,149.021,133.72z"/>
		<path style="fill:#231815;" d="M214.696,122.173c-4.482,2.267-8.03,9.381-9.308,14.486
			C213.103,139.284,226.882,128.774,214.696,122.173z"/>
		<path style="fill:#231815;" d="M229.131,138.772c-4.657,0.26-14.583,13.698-3.248,11.826
			C232.952,149.431,239.741,141.9,229.131,138.772z"/>
		<path style="fill:#231815;" d="M239.235,281.67c-3.286,3.676-8.638,5.051-14.043,7.251c-3.635,1.479-9.864,3.366-3.997,8.515
			c1.181,1.036,10.492,2.073,12.146,1.567C239.465,297.124,238.103,291.262,239.235,281.67z"/>
		<path style="fill:#231815;" d="M235.626,314.869c-4.992-2.15-13.454-0.158-15.82,4.948c3.69,1.468,8.72,2.739,11.504,5.534
			C232.915,322.851,233.068,320.004,235.626,314.869z"/>
		<path style="fill:#231815;" d="M173.559,289.609c-2.302,4.876-22.954,1.404-8.361,9.452c3.543,1.954,5.981,4.79,8.934,1.386
			C176.427,297.8,174.729,291.858,173.559,289.609z"/>
		<path style="fill:#231815;" d="M175.003,320.642c-4.813-1.42-11.774-2.687-16.537,0.125c1.986,3.25,8.11,8.358,11.381,9.919
			C171.553,327.602,171.763,323.338,175.003,320.642z"/>
		<path style="fill:#231815;" d="M178.894,62.568c-1.252,0.765-2.172,1.606-2.908,2.706c-0.711,1.097-1.233,2.527-1.035,4.396
			c0.236,1.845,0.572,2.789,0.787,3.632c0.265,0.809,0.483,1.559,1.252,2.449c0.793,0.867,1.224,1.159,1.732,1.547
			c0.505,0.347,1.22,0.93,2.91,1.367c1.636,0.377,1.568,0.307,1.478,0.257c-0.122-0.076-0.305-0.204,0.73-0.238
			c1.018-0.042,1.648-0.353,2.081-0.65c0.423-0.293,0.622-0.584,0.622-0.584s-0.477-0.587-0.994-1.157
			c-0.522-0.567-1.045-1.133-1.045-1.133s-1.111,0.213-2.09,0.338c-0.5,0.068-0.959,0.083-1.299,0.069
			c-0.338-0.013-0.551-0.06-0.551-0.06s-0.711-0.357-1.272-1.138c-0.643-0.789-0.986-1.781-1.153-2.381
			c-0.202-0.584-0.183-1.407,0.014-2.129c0.166-0.729,0.474-1.345,0.62-1.753c0.139-0.412,0.133-1.117,0.359-1.919
			c0.223-0.777,0.771-1.601,1.536-1.905c0.719-0.278,1.004-0.877,0.775-1.441C181.242,62.322,180.217,61.807,178.894,62.568z"/>
		<path style="fill:#231815;" d="M218.669,55.517c2.854,0.106,4.699,1.176,8.894,1.068c2.097-0.2,3.159-0.355,4.121-0.393
			c0.941-0.062,1.703-0.059,2.946-0.242c2.483-0.387,1.983-0.286,5.505-0.61c3.516-0.381,0.002,0.01,2.457-0.524
			c2.454-0.555,3.248-1.494,3.248-1.494l-2.744-0.773c0,0-1.308,0.379-2.617,0.758c-1.318,0.347-2.636,0.696-2.636,0.696
			s-1.237,0.128-2.709,0.282c-1.485,0.126-3.197,0.272-4.169,0.354c-0.954,0.091-2.252,0.118-3.304,0.026
			c-1.086-0.11-2.142-0.344-2.864-0.451c-1.438-0.152-4.497-0.208-7.145-0.069c-1.373,0.122-1.763,0.765-1.442,0.989
			C216.535,55.404,217.284,55.475,218.669,55.517z"/>
	</g>
</g>
</svg>
