<?xml version="1.0" encoding="iso-8859-1"?>
<!-- Generator: Adobe Illustrator 21.1.0, SVG Export Plug-In . SVG Version: 6.00 Build 0)  -->
<svg version="1.1" id="_x36_" xmlns="http://www.w3.org/2000/svg" xmlns:xlink="http://www.w3.org/1999/xlink" x="0px" y="0px"
	 viewBox="0 0 512 512" style="enable-background:new 0 0 512 512;" xml:space="preserve">
<g>
	<path style="fill:#FFFFFF;" d="M196.897,98.897c0,0-17.663-33.364-20.28-45.793c-2.617-12.43,3.883-34.321,6.542-41.214
		c2.659-6.893,11.775-3.271,11.775-3.271s15.701,20.934,19.626,36.635c3.925,15.701,1.308,29.439,2.617,39.906
		s7.196,15.701,7.196,15.701s13.084-40.56,24.205-50.373c11.121-9.813,23.284-28.211,41.214-28.784
		c17.93-0.573,10.467,11.121,7.85,23.551c-2.617,12.43-15.701,33.364-20.28,37.943c-4.579,4.579-21.624,12.382-25.514,17.663
		c-3.889,5.282-2.368,7.33,3.271,12.43c5.639,5.1,15.701,34.018,21.588,37.943c5.888,3.925,43.831,17.663,83.082,41.214
		c39.252,23.551,47.102,32.055,56.915,41.214c9.813,9.159,15.701,26.822,15.047,30.747c-0.654,3.925-5.234,2.617-5.234,2.617
		s-1.481,8.062-3.925,7.85c-2.444-0.212-3.925-2.617-3.925-2.617s-0.597,3.814-3.925,3.925c-3.328,0.111-11.121-6.542-11.121-6.542
		s-5.888,3.271-10.467-0.654c-4.579-3.925-4.573-10.815-6.542-18.317c-1.969-7.503-9.159-17.009-9.159-17.009
		s-28.13-24.205-51.681-28.785c9.813,8.504,15.046,18.222,20.28,30.747c5.233,12.525,11.775,36.635,11.121,52.335
		c-0.654,15.701,13.738,26.168,21.588,31.401c7.85,5.234,0,11.121-13.084,8.505c-13.084-2.617-18.621,12.317-19.626,27.476
		c-1.004,15.159,1.308,18.971,1.308,18.971s-1.963,17.009,7.196,29.439c9.159,12.43,4.561,15.651,12.43,20.934
		c7.868,5.283,10.467,19.626,8.504,28.13c-1.962,8.505-10.291,35.574-35.326,45.793c-15.046,9.813-21.834,12.31-25.514,7.85
		c-9.813,2.617-16.355-2.617-16.355-2.617s-12.43-7.196-7.85-12.43c4.579-5.234,29.439-12.43,29.439-12.43
		s17.009-15.701,19.626-29.439c2.617-13.738,5.888-19.626-9.159-30.093c-15.046-10.467-32.055-22.243-45.139-37.943
		c-13.084-15.701-13.738-26.822-13.738-26.822s-17.009,7.85-18.971,28.13c-1.963,20.28-0.806,22.907,6.542,32.055
		c7.348,9.148,8.377,9.28,8.504,18.972c0.128,9.691-13.084,30.093-17.009,34.018c-3.925,3.925-43.831,24.205-53.644,27.476
		c-9.813,3.271-11.28-0.126-13.084-1.308c-1.804-1.182-11.121-5.888-6.542-14.392c-8.505-3.925-3.912-13.628,6.542-15.046
		s20.934,4.579,35.981-4.579s18.317-28.13,15.046-35.326c-3.271-7.196-7.196-15.701-17.663-20.28
		c-10.467-4.579-18.972-10.467-22.897-29.439c-3.925-18.972,3.271-32.71,9.813-44.485c6.542-11.775,30.093-31.401,32.055-35.981
		c1.963-4.579-0.654-63.457-23.551-81.774c-22.897-18.317-26.168-16.355-32.055-16.355c-5.888,0-33.364-2.617-40.56-3.925
		c-7.196-1.308-24.859-1.963-43.177-10.467s-21.588-14.392-11.775-32.71c9.813-18.317,32.481-37.81,41.214-44.485
		c8.733-6.675,5.234-8.505,13.738-11.775c8.505-3.271,21.588-7.196,31.401-6.542s14.008,4.033,9.813,9.159
		c-4.195,5.126-7.85,5.233-7.85,5.233s1.495,9.086-6.199,10.431c-7.695,1.345-5.576,0.69-5.576,0.69s-4.328,4.97-11.524,6.279
		c-7.196,1.308-8.756,0.263-8.756,0.263s-5.234,6.542-11.121,11.776c-5.888,5.233-13.774,16.91-13.738,22.242
		c0.036,5.333,5.637,9.624,13.084,11.775c7.447,2.152,37.289,1.963,43.177,2.617c5.888,0.654,18.287,2.043,20.28,0.654
		c1.993-1.389-5.888-4.579-5.888-4.579l-0.654-9.159c0,0-12.758-1.07-15.701-2.617c-2.943-1.547-3.925-15.046-3.925-15.046
		s7.196-17.663,13.084-22.897C185.776,108.056,196.897,98.897,196.897,98.897z"/>
	<g>
		<path style="fill:#595959;" d="M344.14,490.237c0.427,0.445,0.114,5.127-0.268,5.383
			C343.688,495.743,343.989,490.645,344.14,490.237z"/>
		<path style="fill:#595959;" d="M214.492,95.778c-6.308,2.127-11.66,6.105-17.952,8.261c-8.098,2.775-15.175,8.932-20.578,15.412
			c-5.09,6.103-10.309,13.379-8.361,21.679c2.047,8.718,6.034,8.99,13.834,9.907c2.184,0.257,5.245,0.367,6.831,2.168
			c1.902,2.16,0.426,3.636-0.138,5.95c-0.343,1.408,0.334,4.504-1.973,3.11c-2.863-1.729,0.196-4.724-1.239-6.524
			c-1.759-2.207-9.206-1.352-11.76-2.055c-2.501-0.688-3.891-1.887-5.368-3.999c-6.12-8.757-3.453-17.526,2.103-25.481
			C179.299,110.732,194.727,87.675,214.492,95.778z"/>
		<path style="fill:#595959;" d="M221.639,109.9c-4.681-15.402,4.811-27.011,12.44-39.424c4.97-8.085,9.818-16.742,15.878-24.069
			c6.774-8.189,15.654-14.833,24.676-20.343c6.734-4.112,14.626-8.777,22.579-9.936c1.565-0.228,9.374-0.701,6.121,1.96
			c-2.24,1.832-8.161,2.259-10.933,3.284c-16.867,6.241-36.642,18.124-46.116,33.918C235.985,72.46,229.883,91.757,221.639,109.9z"
			/>
		<path style="fill:#595959;" d="M304.784,13.246c5.525,8.376,2.416,17.361-1.33,25.613c-4.641,10.225-9.967,20.145-15.374,29.982
			c-5.681,10.337-12.673,19.148-22.94,25.226c-4.419,2.616-9.021,4.765-12.235,8.928c-0.927,1.201-7.612,11.564-7.542,11.703
			c-1.276-2.543,2.931-9.413,4.191-11.354c2.991-4.607,7.092-7.305,11.814-9.898c9.936-5.458,17.572-12.602,23.601-22.228
			c5.439-8.684,9.366-18.623,12.966-28.181C301.509,33.546,304.434,23.423,304.784,13.246z"/>
		<path style="fill:#595959;" d="M220.778,95.427c-4.115-6.111-4.743-12.317-4.032-19.393c0.89-8.858,1.434-18.715-0.495-27.476
			c-2.067-9.39-8.156-18.839-13.377-26.767c-2.452-3.723-5.095-7.432-8.21-10.637c-0.77-0.793-8.761-7.365-9.174-6.578
			c3.29-6.268,16.922,12.219,18.125,14.038c5.317,8.039,10.084,16.95,13.043,26.14C221.736,60.524,221.785,79.042,220.778,95.427z"
			/>
		<path style="fill:#595959;" d="M187.078,75.352c2.501,4.925,5.121,9.81,8.067,14.486c1.211,1.921,2.768,3.73,3.875,5.701
			c1.069,1.904,1.894,2.886-1.129,2.271c-4.496-0.915-7.932-8.464-9.904-11.93c-3.413-5.998-6.498-12.214-9.169-18.577
			c-5.148-12.263-5.641-25.958-5.053-39.119c0.147-3.295,2.354-30.474,9.285-28.028c-1.033-0.352-3.242,6.252-3.376,6.776
			c-0.895,3.503-1.067,7.229-1.166,10.824c-0.182,6.591,0.049,13.212,0.302,19.797C179.332,51.11,181.519,62.949,187.078,75.352z"/>
		<path style="fill:#595959;" d="M212.089,165.105c3.233,4.436,9.153,3.689,12.648,7.071c0.116,0.113-2.271,0.636-2.475,0.648
			c-2.268,0.136-5.617-1.051-7.598-2.152c-1.147-0.637-7.591-6.577-5.532-7.383C209.576,163.115,211.49,164.826,212.089,165.105z"/>
		<path style="fill:#595959;" d="M223.014,156.176c3.852,1.665,8.235,2.055,12.363,2.48c1.015,0.105,8.662,0.074,9.023,1.189
			c0.431,1.332-13.016,0.954-14.134,0.83c-1.584-0.175-13.4-3.861-11.983-5.247C218.656,155.062,222.18,156.125,223.014,156.176z"/>
		<path style="fill:#595959;" d="M242.996,146.229c2.809,0.891,15.917-1.24,17.147,1.838c1.053,2.636-23.039,0.785-20.929-1.799
			C239.517,145.895,242.276,146.347,242.996,146.229z"/>
		<path style="fill:#595959;" d="M250.495,110.134c9.473-2.909,10.488,10.285,14.065,16.071
			c1.134,1.835,13.012,20.654,10.941,21.653c-2.723,1.314-10.176-17.479-11.335-19.507C260.535,122,255.53,115.465,250.495,110.134z
			"/>
		<path style="fill:#595959;" d="M198.635,134.519c-8.386-0.473-13.589-13.176-3.92-15.824
			C205.556,115.726,200.552,131.785,198.635,134.519z"/>
		<path style="fill:#595959;" d="M132.503,103.447c-4.675-6.626,2.997-13.13,8.815-14.78c6.862-1.946,14.036-2.304,21.128-2.361
			c5.631-0.045,17.446-1.855,20.632,4.447c3.619,7.159-10.418,12.532-15.037,14.438c-5.962,2.46-13.973,5.903-20.596,5.205
			c-1.732-0.183-5.058-0.99-2.871-2.115c1.739-0.895,5.843-0.452,7.907-0.873c7.725-1.576,15.609-4.21,22.528-8.016
			c2.234-1.229,7.093-3.635,6.848-6.725c-0.25-3.16-4.64-4.301-7.113-4.692c-7.281-1.15-16.42,0.495-23.533,2.089
			C144.085,91.662,133.816,95.164,132.503,103.447z"/>
		<path style="fill:#595959;" d="M169.416,103.989c1.435-3.578,5.785-4.74,5.705-0.041c-0.081,4.787-6.571,11.19-11.348,9.071
			c-1.079-0.479-4.755-4.219-1.955-4.687c1.58-0.264,2.808,3.202,5.328,2.959c2.302-0.222,3.527-1.834,4.013-3.857
			C171.341,106.68,171.604,102.84,169.416,103.989z"/>
		<path style="fill:#595959;" d="M158.977,110.286c2.781,1.15,3.222,4.299,0.897,6.001c-1.175,0.86-4.129,0.623-5.521,0.869
			c-4.698,0.831-12.098,4.849-16.894,2.544c-2.458-1.181-1.929-1.894,0.182-2.469c2.963-0.807,6.975,0.517,10.16-0.029
			c2.518-0.431,4.663-1.64,6.847-2.956C155.547,113.704,158.487,110.349,158.977,110.286z"/>
		<path style="fill:#595959;" d="M137.246,101.495c-11.28-7.857-19.943,7.435-27.464,14.146
			c-9.163,8.177-16.923,16.903-23.516,27.332c-5.325,8.424-11.916,20.229-5.388,29.68c6.249,9.049,18.777,13.113,28.792,16.079
			c10.044,2.975,22.385,6.906,32.904,5.865c0.545-0.054,6.037-0.596,5.991-2.106c-0.046-1.523-4.094-1.525-5.034-1.638
			c-6.078-0.732-12.101-0.094-18.185-1.087c-10.675-1.742-22.374-4.928-31.867-10.271c-4.456-2.508-9.549-5.955-11.528-10.902
			c-2.3-5.748,0.78-12.312,3.466-17.385c5.767-10.895,14.631-19.979,23.138-28.769c4.66-4.815,9.725-9.455,14.969-13.628
			C127.68,105.504,133.245,104.693,137.246,101.495z"/>
		<path style="fill:#595959;" d="M140.07,119.034c-2.365,6.195-5.574,11.044-10.56,15.383c-4.722,4.11-9.641,9.072-11.749,15.103
			c-5.757,16.469,29.073,15.896,38.468,16.302c2.373,0.103,16.712-0.894,17.394,1.449c0.5,1.72-11.673,1.29-13.096,1.242
			c-8.398-0.285-16.836-1.018-25.105-2.537c-6.013-1.105-14.66-2.42-18.608-7.673c-5.517-7.341,2.264-17.708,6.728-23.513
			C128.181,128.759,133.727,123.273,140.07,119.034z"/>
		<path style="fill:#595959;" d="M271.511,149.075c7.634-0.203,15.628,3.92,22.509,6.863c7.884,3.371,15.485,7.421,23.394,10.713
			c13.607,5.663,26.596,12.275,36.828,23.169c-0.851,1.702-39.577-20.268-44.48-22.406c-7.901-3.446-15.823-5.967-24.087-8.278
			c-4.556-1.274-10.524-2.002-14.134-5.363C270.115,152.445,267.825,148.923,271.511,149.075z"/>
		<path style="fill:#595959;" d="M277.332,200.299c4.59-16.884,24.111-6.877,33.953-2.606c16.637,7.219,34.391,11.415,50.202,20.5
			c7.144,4.105,16.321,9.475,20.442,16.941c0.696,1.261,3.224,6.926,0.823,7.854c-1.377,0.532-5.249-6.412-6.085-7.396
			c-10.983-12.919-29.936-22.642-45.948-27.593c-8.963-2.771-18.51-5.035-27.683-7.033
			C294.963,199.209,285.358,197.63,277.332,200.299z"/>
		<path style="fill:#595959;" d="M214.387,212.886c10.757,16.088,18.328,34.693,22.657,53.52c2.061,8.962,3.398,18.195,3.189,27.411
			c-0.071,3.147-0.308,6.31-0.863,9.412c-0.184,1.032-2.596,7.889-2.504,7.994c-0.37-0.424,0.49-4.041,0.524-4.78
			c0.118-2.582,0.001-5.182-0.135-7.762c-0.32-6.067-0.908-12.14-1.769-18.154c-1.683-11.752-4.954-23.369-9.593-34.294
			c-3.795-8.937-7.069-17.949-12.18-26.263c-2.998-4.878-6.358-9.555-10.09-13.899c-0.402-0.468-6.541-7.342-6.242-7.476
			c2.03-0.914,8.348,5.559,9.667,6.753C209.646,207.699,212.101,210.229,214.387,212.886z"/>
		<path style="fill:#595959;" d="M316.209,206.377c2.902-2.096,6.551-4.671,10.158-2.794c3.128,1.628,5.043,5.944,7.308,8.583
			c5.363,6.248,10.453,11.315,13.983,18.886c6.548,14.044,9.933,29.261,10.78,44.692c0.417,7.604,0.887,15.656,0.466,23.25
			c-0.092,1.661-0.286,7.72-2.718,7.497c-3.967-0.362-1.45-9.59-1.119-11.395c3.092-16.846-0.766-36.794-6.888-52.487
			c-3.236-8.296-8.364-16.141-13.965-23.037c-2.591-3.19-5.692-6.774-9.055-9.169C322.547,208.544,318.283,208.716,316.209,206.377z
			"/>
		<path style="fill:#595959;" d="M222.535,300.355c-10.121,11.187-18.135,24.792-24.674,38.298
			c-7.805,16.122-6.929,32.951,0.591,49.098c3.139,6.74,7.431,12.724,13.893,16.622c6.952,4.193,13.525,6.546,17.859,13.885
			c7.715,13.066,1.926,29.527-9.446,38.474c-3.148,2.477-6.766,4.463-10.714,5.291c-3.971,0.832-7.362-0.476-11.245-0.733
			c-4.31-0.285-2.238,2.639,0.353,4.326c3.383,2.203,7.751,2.235,11.563,1.362c13.132-3.009,23.336-16.334,26.184-28.896
			c1.928-8.505,0.165-16.664-4.857-23.752c-4.614-6.512-10.923-8.836-17.701-12.402c-12.873-6.772-19.016-22.152-19.815-36.117
			c-0.935-16.337,7.495-32.215,18.61-43.688c6.167-6.366,13.874-11.304,19.368-18.337c1.331-1.704,4.08-6.857,0.788-7.818
			C230.955,295.286,224.618,299.328,222.535,300.355z"/>
		<path style="fill:#595959;" d="M299.966,314.346c-5.134-5.65-14.122-2.371-18.554,2.358c-3.285,3.505-5.482,9.217-7.29,13.621
			c-6.619,16.124-5.087,31.64,3.912,46.528c7.833,12.958,19.125,21.99,31.685,30.093c12.382,7.989,30.833,18.313,29.928,35.471
			c-0.868,16.456-14.781,25.751-26.129,35.242c-1.011,0.846-4.496,3.111-2.967,4.387c1.437,1.2,7.083-2.243,8.019-2.791
			c6.178-3.616,11.658-8.817,15.955-14.514c9.29-12.315,12.312-27.898,2.004-40.555c-10.183-12.503-25.865-18.356-37.821-28.771
			c-11.371-9.906-21.928-28.065-22.312-43.258C276.069,339.224,285.374,316.718,299.966,314.346z"/>
		<path style="fill:#595959;" d="M371.914,443.77c2.016,0.735,6.532,1.978,7.466,4.375c0.781,2.005-0.945,3.459-1.75,5.116
			c-1.429,2.941-1.206,6.159-2.104,9.224c-0.835,2.851-2.561,5.505-4.058,8.05c-3.53,6.001-7.623,11.711-12.459,16.733
			c-3.387,3.517-8.74,10.243-13.38,11.907c-3.43,1.23-5.064-1.104-2.172-3.943c2.071-2.033,5.482-2.606,7.814-4.657
			c5.368-4.72,9.742-10.053,13.421-16.189c3.319-5.538,5.452-11.576,7.22-17.771c0.562-1.968,1.305-4.328,1.407-6.381
			C373.426,448.052,371.468,445.644,371.914,443.77z"/>
		<path style="fill:#595959;" d="M358.975,323.885c2.481,10.424-9.188,15.618-11.654,25.186c-1.37,5.315-2.078,11.182-0.977,16.604
			c0.408,2.01,4.289,8.978,3.133,10.477c-1.692,2.194-5.26-8.458-5.435-9.358c-1.05-5.373-0.216-10.842,1.251-16.043
			C348.122,340.71,352.163,331.923,358.975,323.885z"/>
		<path style="fill:#595959;" d="M344.933,383.059c1.39,6.042,4.885,11.446,8.769,16.179c1.564,1.905,8.689,7.554,8.695,10.234
			c0-0.193-6.04-3.485-6.442-3.822c-3.386-2.839-6.325-6.536-8.905-10.11c-1.271-1.761-7.678-19.345-5.053-18.917
			C342.688,376.735,344.515,382.327,344.933,383.059z"/>
		<path style="fill:#595959;" d="M261.831,424.509c21.737-4.382,1.993,26.461-2.228,33.018c-4.627,7.189-8.613,12.619-15.943,17.364
			c-7.115,4.606-14.756,8.271-22.521,11.629c-7.214,3.12-14.373,6.621-21.645,9.551c-1.145,0.461-8.197,3.467-8.114,0.622
			c0.102-3.52,8.19-4.643,10.495-5.292c8.213-2.315,16.518-6.223,24.197-9.962c8.157-3.973,17.061-8.654,23.375-15.324
			c3.345-3.534,5.082-8.254,7.418-12.465c2.134-3.849,4.624-7.436,6.86-11.214c1.591-2.688,3.807-6.195,3.666-9.507
			C267.218,428.844,263.196,427.813,261.831,424.509z"/>
		<path style="fill:#595959;" d="M268.057,356.052c0.03,3.914-0.442,5.861-3.391,8.17c-2.951,2.311-5.896,3.994-7.636,7.536
			c-1.99,4.051-3.066,9.278-3.498,13.738c-0.102,1.052,0.357,8.704-1.671,7.902c-4.723-1.866,2.124-17.913,3.146-20.48
			C257.795,365.915,261.393,360.026,268.057,356.052z"/>
		<path style="fill:#595959;" d="M360.157,295.377c0.698,4.852,5.37,8.816,9.082,11.427c2.604,1.83,5.398,3.349,8.213,4.823
			c0.958,0.502,5.231,2.043,5.713,3.214c-0.088-0.214-7.498-1.304-8.246-1.611c-4.15-1.707-8.806-4.28-12.115-7.377
			c-2.349-2.199-4.188-5.49-5.195-8.525c-0.106-0.32-1.199-9.318,0.688-8.404C358.889,289.209,359.504,294.231,360.157,295.377z"/>
		<path style="fill:#595959;" d="M366.47,314.304c4.23,3.099,12.271,5.245,15.319,9.572c0.367,0.521-6.416-1.029-7.021-1.309
			c-2.053-0.95-4.217-1.807-6.133-2.969c-1.466-0.889-5.526-3.133-5.98-4.603C361.9,312.553,364.59,314.017,366.47,314.304z"/>
		<path style="fill:#595959;" d="M364.018,324.635c2.805,1.088,10.802,0.532,12.517,3.242
			C377.828,329.922,352.766,327.972,364.018,324.635z"/>
		<path style="fill:#595959;" d="M197.49,203.124c-9.725,2.878-17.174-4.981-26.882-5.736c-6.283-0.489-12.772-0.072-19.076-0.073
			c-2.296,0-12.425,1.431-14.04-1.071c-1.312-2.032,9.048-1.452,10.294-1.423c6.281,0.149,12.537,0.57,18.807,0.942
			C177.786,196.427,187.749,196.869,197.49,203.124z"/>
		<path style="fill:#595959;" d="M384.644,243.167c9.859-1.435,5.181,10.195,5.092,15.28c-0.047,2.68,0.26,7.443,2.591,9.361
			c3.434,2.826,7.974-1.522,11.124,0.164c3.683,1.972-5.32,3.269-6.635,3.263c-4.371-0.022-7.155-2.068-8.016-6.465
			C387.423,257.725,388.338,249.579,384.644,243.167z"/>
		<path style="fill:#595959;" d="M353.386,192.425c7.801-0.873,14.812,0.34,20.892,5.483c4.598,3.889,9.345,7.608,14.163,11.228
			c7.411,5.569,15.469,10.238,22.812,15.863c7.731,5.923,12.562,13.484,16.927,22.088c2.032,4.005,10.042,18.497,2.476,21.263
			c-1.247,0.456-3.999,0.328-4.792-1.008c-1.242-2.094,0.242-0.872,1.614-1.602c3.244-1.727,2.597-3.589,1.494-7.289
			c-4.976-16.682-15.522-31.222-30.926-39.518C383.012,210.835,367.134,202.574,353.386,192.425z"/>
		<path style="fill:#595959;" d="M416.877,258.175c7.825-4.826,8.633,4.774,8.838,10.298c0.072,1.934,0.198,6.609-1.955,7.431
			c-1.525,0.582-5.437-2.251-6.363-3.012c-0.925-0.76-5.788-6.311-1.982-6.206c1.621,0.044,3.799,5.394,6.044,6.13
			c3.603,1.182,3.067-3.278,2.084-5.977C422.23,263.233,419.842,260.561,416.877,258.175z"/>
		<path style="fill:#595959;" d="M414.88,271.252c3.371-0.53,6.867,0.85,4.506,4.349c-3.133,4.643-10.234,2.464-13.149-1.082
			c-0.902-1.097-3.209-4.145-2.081-5.582c1.693-2.157,3.144,3.068,3.935,4.223C410.993,277.401,417.391,277.574,414.88,271.252z"/>
		<path style="fill:#595959;" d="M316.487,506.623c-8.077,8.579-7.231-9.89-0.726-10.243c5.706-0.31-2.548,4.161-2.923,4.991
			C311.619,504.07,314.587,505.371,316.487,506.623z"/>
		<path style="fill:#595959;" d="M302.833,505.03c-4.965,9.711-8.359-5.728-3.411-8.836c0.863-0.542,2.531-1.767,2.993,0.177
			c0.25,1.05-2.564,2.64-3.025,3.432C297.634,502.824,299.995,504.341,302.833,505.03z"/>
		<path style="fill:#595959;" d="M293.222,498.997c-3.296,1.406-7.841,0.287-7.342-4.071c0.398-3.467,4.316-5.631,7.018-7.038
			c7.308-3.805,14.923-7.406,23.235-8.379c5.234-0.613,4.714,1.568,0.135,2.592c-4.039,0.903-8.147,1.436-12.139,2.564
			C298.784,486.173,285.31,492.466,293.222,498.997z"/>
		<path style="fill:#595959;" d="M342.91,491.616c-0.412,2.361,0.984,7.993-0.92,9.613c-1.017,0.866-4.618,0.833-5.969,1.419
			c-5.733,2.484-11.141,11.865-18.758,8.71c-1.032-0.427-2.313-1.14-2.132-2.531c0.304-2.337,2.486-1.351,3.935-1.415
			c3.673-0.163,7.771-0.69,10.686-3.24C334.33,500.166,336.279,493.358,342.91,491.616z"/>
		<path style="fill:#595959;" d="M190.235,491.864c0.332,4.833-1.774,5.62-5.425,3.483c-1.88-1.1-3.286-1.995-3.639-4.652
			c-0.284-2.143,0.894-5.056,3.15-5.781c2.793-0.898,2.501,0.484,1.487,2.096c-0.987,1.57-3.271,1.456-2.674,4.17
			C183.816,494.283,187.735,492.284,190.235,491.864z"/>
		<path style="fill:#595959;" d="M176.155,476.631c0.311,0.734,2.178,4.051,1.776,5.083c-0.349,0.895-2.193,0.88-2.723,2.002
			c-2.007,4.254,6.111,4.651,6.311,7.583c0.286,4.191-6.647-3.011-7.256-4.096C172.161,483.463,172.682,479.459,176.155,476.631z"/>
		<path style="fill:#595959;" d="M194.268,463.172c-2.317,2.194-3.949,3.607-7.036,3.304c-3.367-0.33-5.86-1.936-9.411-0.196
			c-2.841,1.392-7.483,5.889-5.103,9.147c0.85,1.164,6.064,2.032,4.517,3.975c-1.895,2.381-7.058-3.013-7.405-4.298
			c-0.967-3.578,2.04-6.364,4.555-8.302C180.225,462.302,187.139,460.698,194.268,463.172z"/>
		<path style="fill:#595959;" d="M283.215,214.439c-1.58,2.991-2.327,6.376-3.243,9.604c-0.329,1.16-1.152,6.7-2.629,7.308
			c-2.337,0.962,3.501-23.36,6.364-20.925C284.109,210.767,283.261,213.728,283.215,214.439z"/>
		<path style="fill:#595959;" d="M268.875,231.126c-1.549,2.824-1.759,6.242-2.104,9.378c-0.137,1.249,0.122,5.745-1.205,6.516
			c-2.767,1.608,0.103-22.912,3.749-19.584C269.676,227.766,268.89,230.442,268.875,231.126z"/>
		<path style="fill:#595959;" d="M258.209,253.574c-0.786,2.023-0.5,8.118-2.331,9.493c-2.116,1.589-1.297-1.998-1.2-4.026
			c0.098-2.033,0.132-3.831,1.042-5.705C256.753,251.206,258.331,249.689,258.209,253.574z"/>
		<path style="fill:#595959;" d="M227.178,219.906c3.083,2.215,11.003,7.655,9.626,12.561c0.244-0.869-6.297-6.488-7.255-7.352
			c-1.043-0.94-6.541-4.758-6.039-5.58C223.827,219.016,226.557,219.796,227.178,219.906z"/>
		<path style="fill:#595959;" d="M238.801,243.498c1.1,3.095,6.058,6.442,5.792,9.847c-0.031,0.399-6.127-5.141-6.858-6.344
			C236.166,244.418,235.037,240.184,238.801,243.498z"/>
		<path style="fill:#595959;" d="M183.465,165.702c1.861-2.799,2.796-3.979,5.392-3.079c2.061,0.714,4.606,2.785,6.697,3.775
			c2.444,1.157,4.606,2.951,6.062,5.294c0.625,1.005,2.334,3.577-0.063,3.667c-1.454,0.054-4.389-5.776-5.456-6.642
			C192.801,166.042,187.464,166.943,183.465,165.702z"/>
		<path style="fill:#595959;" d="M353.419,417.129c3.649-0.743,5.676-0.809,8.234,1.741c2.947,2.938,5.195,5.533,8.805,7.797
			c2.725,1.71,5.076,3.462,6.509,6.465c0.92,1.928,3.044,9.711,0.025,11.095c-2.281,1.046-1.113-4.257-1.176-5.566
			c-0.191-3.981-1.858-7.438-5.024-9.944C365.163,424.263,358.411,422.842,353.419,417.129z"/>
		<path style="fill:#595959;" d="M251.438,401.256c2.624,9.225,17.114,9.402,17.807,19.893c-0.032-0.483-3.94-3.374-4.553-3.945
			c-3.144-2.926-5.919-4.249-9.665-6.149c-2.7-1.369-4.097-3.34-5.356-6.078c-0.311-0.675-3.078-9.164-1.207-9.048
			C249.156,395.974,250.869,400.384,251.438,401.256z"/>
		<path style="fill:#595959;" d="M173.245,141.665c-2.079-0.479-5.244-0.338-6.159-2.854c-0.692-1.903-0.131-2.757,1.158-2.238
			c0.891,0.359,1.772,1.592,2.863,2.035c0.609,0.247,1.479,0.286,2.043,0.572C174.557,139.891,176.394,140.912,173.245,141.665z"/>
		<path style="fill:#595959;" d="M155.295,135.829c-3.795-0.997-12.525,0.395-14.906-3.637c-0.273-0.463,19.438,0.607,18.329,3.013
			C158.482,135.714,155.892,135.674,155.295,135.829z"/>
		<path style="fill:#595959;" d="M150.838,142.426c-4.613-0.549-8.504,0.199-12.853,1.58c-3.048,0.968-7.275,2.991-10.494,1.894
			c0.558,0.19,4.756-2.283,5.336-2.513c3.142-1.247,6.689-2.931,10.047-3.561c1.639-0.307,13.426,0.007,13.236,1.27
			C155.989,141.902,151.608,142.285,150.838,142.426z"/>
		<path style="fill:#595959;" d="M152.258,148.47c-5.412,0.351-12.835,7.154-18.255,4.629c0.112,0.052,3.786-1.994,4.035-2.099
			c2.525-1.072,5.052-2.495,7.6-3.461c1.282-0.486,11.045-2.496,10.468-0.557C155.965,147.455,152.926,148.096,152.258,148.47z"/>
		<path style="fill:#595959;" d="M273.867,29.194c6.839-3.113,20.929-18.435,28.508-9.425c6.197,7.367-4.286,21.758-8.784,27.56
			c0.087-0.668-0.145-5.135-0.833-5.64c-0.671-0.492-3.044-0.119-3.999-0.197c-2.632-0.215-5.419-0.513-7.758-1.842
			c-1.039-0.59-1.905-1.282-2.658-2.215c-0.709-0.878-1.043-2.925-1.753-3.532c-1.674-1.431-8.098,0.484-10.385,1.604
			C268.302,34.102,272.763,31.721,273.867,29.194z"/>
		<path style="fill:#595959;" d="M177.701,35.736c0-5.058-0.763-10.22,0.148-15.241c0.838-4.619,3.467-8.722,4.251-13.347
			c0.373-2.202-0.406-3.102,1.748-3.514c0.993-0.19,2.447,0.586,3.301,0.998c2.885,1.392,5.327,3.896,7.412,6.263
			c2.489,2.826,9.967,11.391,8.825,15.693c-1.044,3.931-12.106-3.128-10.882,5.318c-1.897-0.645-4.021-0.822-5.705-2.006
			c-0.302,0.986-0.532,1.989-0.691,3.008C182.256,31.205,179.474,31.909,177.701,35.736z"/>
	</g>
</g>
</svg>
