<?xml version="1.0" encoding="iso-8859-1"?>
<!-- Generator: Adobe Illustrator 18.1.1, SVG Export Plug-In . SVG Version: 6.00 Build 0)  -->
<svg version="1.1" id="_x34_" xmlns="http://www.w3.org/2000/svg" xmlns:xlink="http://www.w3.org/1999/xlink" x="0px" y="0px"
	 viewBox="0 0 512 512" style="enable-background:new 0 0 512 512;" xml:space="preserve">
<g>
	<path style="fill:#34AD37;" d="M142.411,256.815c-1.508-4.527-29.877-37.347-46.95-46.95
		c-17.073-9.604-20.274-35.213,27.743-86.431c-7.468-16.006-20.274-50.151,6.402-52.285c14.94,3.201,28.81,13.871,28.81,13.871
		l49.085-19.207c0,0,2.134-38.413,23.475-40.547c21.341-2.134,19.207,25.608,41.615,27.743
		c22.408,2.134,52.286,21.342,77.895,42.683c25.609,21.34,52.286,43.748,67.224,66.156c14.938,22.408,29.876,69.358,43.749,80.029
		c13.872,10.671,26.676,53.352,32.011,86.431c5.336,33.079,19.74,65.624,4.802,106.172c-14.938,40.548-21.874,46.417-44.282,43.215
		c-22.408-3.201-70.425-2.134-83.23,4.268c-12.805,6.402-29.878,6.402-62.956,5.335c-33.078-1.067-44.815-6.402-59.754-3.201
		c-14.939,3.201-23.476,5.336-46.95,5.336c-23.476,0-19.207-8.537-36.28-4.269c-17.072,4.269-30.944,7.469-37.346,0
		c-6.402-7.469-14.938-25.609-14.938-25.609s4.268-16.006-12.805,5.336c-17.073,21.341-43.75,25.61-49.085,2.134
		c-5.335-23.476-1.068-44.816,6.402-54.419c7.47-9.603-6.402-14.94-13.872-36.28c-7.468-21.34-29.876-40.547-39.48-43.749
		c-9.603-3.201,8.536-6.403,24.542-4.269c16.006,2.134,33.079,20.275,33.079,20.275s-8.537-22.408,3.201-46.95
		c6.402-19.207,7.469-8.537,9.604,10.67c2.134,19.207,0,34.145,12.804,38.414c4.267-26.676,20.273-29.878,23.474-44.816
		c3.201-14.938,8.537-9.604,8.537-9.604l-10.671,58.688c-2.134,7.469,12.805-10.67,21.34-35.213
		C138.144,295.229,145.612,266.419,142.411,256.815z"/>
	<path style="fill:#FFFFFF;" d="M389.991,477.636c3.072-14.104,3.071-32.52,1.04-56.024c-14.003-9.143-38.411-21.872-38.411-51.689
		c-22.408-16.006-37.347-49.084-40.548-76.828c-3.201-27.743-2.134-34.146-2.134-34.146s25.609,68.291,43.749,58.687
		c5.743-3.041,8.487-7.689,9.39-13.195c-9.142-17.38-31.244-43.938-47.326-62.518c-4.869-5.625,2.227-24.639-1.011-28.325
		c-3.188-3.628-9.142-2.219-15.811,4.45c-14.604,14.604-11.932-29.259-8.731-51.667c3.201-22.408-13.605-8.803-40.014-3.201
		c-26.409,5.602-61.622,7.202-75.227,15.205c-13.605,8.003-48.817,16.006-60.021,23.208c-11.204,7.203-3.604,18.772,11.204,31.211
		c20.007,16.806,27.21,47.217,18.406,72.026c-8.803,24.809-20.807,45.616-18.406,50.418c2.401,4.802,28.01-34.412,28.81-41.615
		c0.8-7.203,8.803-2.401,8.803,6.402c0,8.803-4.802,8.003-14.405,44.816c-9.604,36.813-29.611,52.019-29.611,52.019
		s-2.401,19.207-3.201,21.608c-0.8,2.401-0.8,13.605,2.401,19.207c3.164,5.538,0.088,5.619,19.345,31.907
		c7.043,0.332,16.196-1.844,26.538-4.431c17.073-4.269,12.805,4.269,36.28,4.269c23.475,0,32.012-2.134,46.95-5.336
		c14.939-3.201,26.676,2.134,59.754,3.201c33.078,1.067,50.151,1.067,62.956-5.335C374.576,480.055,381.531,478.624,389.991,477.636
		z"/>
	<path style="fill:#718B91;" d="M500.379,361.411c-3.75-7.643-6.909-14.421-6.909-20.299c0-7.371-1.194-17.727-2.885-28.191
		c-3.713-17.498-9.049-35.826-15.213-49.814c-6.692-10.005-15.587-20.087-19.911-26.196c-1.145-1.619-2.806-4.962-4.92-9.477
		c-6.19-10.924-12.526-25.671-18.925-39.383c-9.952-18.873-22.376-38.716-36.559-50.934c-8.78,36.091-79.786,71.681-79.786,71.681
		s-4.268,20.274-4.268,25.609c0,5.336-1.067,11.738-1.241,14.195c-0.174,2.457-5.814,17.472-9.429,19.951
		c-3.615,2.479-2.776,19.243-5.029,32.49c-2.253,13.247-25.915,67.813-32.318,75.282c-6.402,7.469-33.078,56.554-36.279,58.688
		c-3.201,2.134-28.428-24.584-30.945-38.414c-2.517-13.83-24.441-73.776-27.039-79.2c-2.599-5.425-16.71-28.572-22.045-38.176
		c-2.931-5.274-3.93-6.013-5.092-2.312c-1.193,6.434-2.985,13.719-5.122,21.228c-4.666,19.369-7.241,41.385-14.328,51.509
		l-1.881,11.666c0,0,5.883-6.064,28.557-37.275c22.675-31.211,10.006,5.134,10.006,5.134s-5.737,23.677-11.073,45.018
		c-5.335,21.341-27.279,38.694-27.279,38.694s1.67,19.994-5.799,29.597c-7.47,9.604-40.548-4.268-61.78-18.942
		c-2.528,4.573-4.189,11.994-4.577,20.328c-0.185,7.206,0.491,15.045,2.334,23.156c1.485,5.567,4.538,9.943,8.382,13.137
		c10.659,6.775,28.237,0.311,40.703-15.271c7.489-9.361,10.87-11.535,12.308-11.027c0.873-1.427,1.372-2.289,1.372-2.289
		s1.881,8.257,4.62,18.777c2.864,5.284,6.395,11.257,9.443,14.813c6.402,7.469,20.274,4.269,37.346,0
		c17.073-4.269,12.805,4.269,36.28,4.269c23.475,0,32.012-2.134,46.95-5.336c14.939-3.201,26.676,2.134,59.754,3.201
		c33.078,1.067,50.151,1.067,62.956-5.335c12.805-6.402,60.822-7.469,83.23-4.268c22.408,3.201,29.344-2.667,44.282-43.215
		C508.248,407.4,505.136,383.893,500.379,361.411z M451.449,260.328c-6.53,6.624-18.267,17.295-18.267,24.231
		c0,6.936-2.134,30.412-8.537,42.149c-6.402,11.737,2.157,16.207,2.157,16.207s1.127,16.525-14.962,31.811
		c-16.089,15.286-42.682,22.408-48.017,20.274c-5.336-2.134-11.204-25.075-11.204-25.075s-20.199-16.882-23.865-22.515
		c-3.665-5.633-6.546-20.167-6.546-20.167c0-4.268-15.343-41.341-10.873-62.286c5.004,19.07,18.342,30.274,24.744,42.012
		c6.402,11.738,11.204,17.073,21.341,11.738c10.137-5.335-1.067-44.282-2.667-51.218c-1.601-6.936-3.734-9.604-6.402-13.872
		c-2.668-4.268-6.378-14.339,0.533-9.604c6.911,4.735,22.353,26.874,26.677,30.411c4.324,3.536,4.802,13.872,4.268,19.741
		c-0.534,5.868,7.469,11.204,11.204,1.601c3.735-9.603,8.002-21.874,7.469-27.21c-0.533-5.336-1.165-19.616-3.25-24.746
		c-2.085-5.131-1.025-6.981,4.85-0.863c5.875,6.118,10.671,30.411,10.671,30.411s9.07-5.336,21.874-11.738
		C445.453,255.215,457.979,253.704,451.449,260.328z"/>
	<path style="fill:#ED7342;" d="M145.346,186.39c4.802-1.601,8.803-19.207,23.208-19.207c14.405,0,44.016,0,44.016,0
		s-13.605,28.81-26.409,32.011c-12.805,3.201-28.81-4.001-39.214-7.203C136.543,188.791,145.346,186.39,145.346,186.39z"/>
	<g>
		<path style="fill:#231815;" d="M313.323,308.455l1.094,3.428c0.492,1.594,1.563,4.64,2.79,7.464
			c1.198,2.832,2.588,5.425,2.758,6.423c0.389,2.763,3.458,5.337,6.802,1.494c2.724-3.081,0.922-5.154-0.916-5.58
			c-0.607-0.116-2.462-1.863-4.178-4.168c-1.741-2.276-3.304-5.059-4.074-6.432c-0.821-1.443-1.425-2.895-1.6-3.952
			c-0.136-0.769-1.555-5.555-2.509-11.529c-0.983-5.944-1.544-13.109-1.948-18.113c-0.684-9.857-0.327-11.226-0.206-12.536
			c0.336-2.567-6.868-3.917-5.46,0.464c0.737,2.055,1.05,3.013,2.064,12.414c0.602,5.006,1.265,12.114,2.378,18.31
			C311.394,302.315,312.972,307.393,313.323,308.455z"/>
		<path style="fill:#231815;" d="M325.112,297.352l2.356,3.665c0.152,0.259,0.522,0.605,0.682,0.812l0.574,0.678
			c0.396,0.49,0.842,1.037,1.282,1.639c0.89,1.196,1.804,2.581,2.547,3.973c1.522,2.784,2.194,5.564,1.903,6.525
			c-0.358,1.328-0.253,2.58,0.69,3.421c0.96,0.817,2.82,1.376,6.068,0.81c2.628-0.46,3.84-1.89,3.956-3.471
			c0.144-1.578-0.779-3.167-1.927-3.852c-0.725-0.479-2.635-3.595-5.175-6.401c-2.477-2.846-5.568-5.475-7.064-6.527
			c-0.55-0.373-1.272-1.272-1.769-1.899c-0.527-0.678-0.937-1.332-1.197-1.908c-0.383-0.836-3.481-5.816-6.541-12.229
			c-3.109-6.387-6.15-14.178-8-19.751c-3.589-10.985-3.494-12.702-3.734-14.236c-0.361-3.115-9.757-2.041-6.734,2.317
			c1.516,2.083,2.131,3.068,6.045,13.523c2.117,5.568,5.339,13.431,8.668,19.992C321.018,291.02,324.387,296.261,325.112,297.352z"
			/>
		<path style="fill:#231815;" d="M349.571,316.834c3.12-1.794,4.697-2.841,5.974-4.673c0.296-0.419,1.221-1.736,1.919-4.158
			c0.716-2.39,1.129-5.765,1.117-9.248c0.009-6.997-1.486-14.245-2.486-15.985c-2.044-3.488-2.209-8.135-5.955-16.117
			c-1.354-2.858-2.269-6.88-2.995-10.146l-1.254-5.658c0.65-0.617,3.423,1.93,5.91,5.588c2.52,3.595,4.817,8.051,5.49,10.341
			c1.43,4.555,3.588,12.887,4.086,15.876c0.283,1.483,1.529,6.54,2.285,11.668c0.842,5.103,0.88,10.366,0.969,11.571
			c0.142,1.185,0.175,3.234-0.367,5.846c-0.542,2.557-1.769,5.93-4.646,8.651c-1.419,1.34-3.037,2.067-4.415,2.349
			c-1.392,0.282-2.567,0.159-3.496-0.127c-1.865-0.594-2.802-1.78-3.359-2.746c-0.544-0.977-0.147-1.72,0.281-2.224
			C349.069,317.134,349.571,316.837,349.571,316.834z"/>
		<path style="fill:#231815;" d="M364.664,258.742c-1.002-1.001-1.995-2.028-2.929-3.054c-1.31-1.443-3.844-4.212-5.938-6.941
			c-2.114-2.727-3.652-5.443-3.754-6.455c-0.416-2.715-2.047-5.395-6.663-3.374c-1.862,0.872-2.369,2.429-2.014,3.908
			c0.352,1.465,1.488,2.774,2.593,3.249c0.705,0.349,3.081,2.932,5.84,5.389c2.741,2.492,5.781,5.004,7.306,6.199
			c1.61,1.256,3.039,2.524,3.851,3.546c0.553,0.777,4.977,5.017,9.49,10.712c1.115,1.432,2.219,2.964,3.232,4.565
			c0.924,1.252,1.205,3.193,1.485,4.995c0.471,3.684,0.491,7.388,0.638,10.448c0.218,6.041,0.763,9.609,1.274,11.825
			c0.53,2.224,0.846,3.117,1.147,3.986c0.675,1.838,3.029,1.923,4.258,0.955c0.647-0.451,1.122-1.086,1.271-1.685
			c0.141-0.608-0.009-1.186-0.741-1.948c-0.694-0.765-1.238-1.394-1.887-3.117c-0.65-1.729-1.316-4.621-1.71-10.229
			c-0.243-2.998-0.329-6.673-0.899-10.68c-0.151-1.003-0.338-2.029-0.628-3.078c-0.148-0.528-0.297-1.038-0.523-1.598
			c-0.205-0.692-0.674-1.231-0.891-1.618c-1.107-1.702-2.296-3.311-3.489-4.805C370.156,264.001,365.558,259.715,364.664,258.742z"
			/>
		<path style="fill:#231815;" d="M394.242,252.874c0.681,1.98,1.415,4.084,1.794,5.841c0.385,1.761,0.532,3.692,0.57,4.635
			c0.084,1.648,0.106,4.086-0.094,6.847c-0.098,1.38-0.258,2.837-0.476,4.309c-0.108,0.735-0.23,1.475-0.377,2.206
			c-0.083,0.447-0.081,0.411-0.206,0.718l-0.413,1.085c-2.144,5.768-4.778,10.656-5.982,11.808
			c-1.579,1.654-3.118,3.619-3.909,5.239c-0.4,0.83-0.622,1.615-0.657,2.498c-0.021,0.876,0.092,1.906,0.76,2.986
			c0.538,0.873,1.484,1.29,2.648,1.173c1.146-0.112,2.419-0.748,3.487-1.654c2.171-1.827,3.467-4.575,3.751-6.434
			c0.273-1.225,2.499-6.859,4.094-13.044l0.627-2.338c0.317-1.228,0.25-1.893,0.347-2.745c0.113-1.634,0.159-3.236,0.156-4.74
			c-0.005-3.007-0.23-5.622-0.451-7.334c-0.113-0.852-0.26-1.904-0.375-2.535l-0.376-1.954c-0.244-1.266-0.524-2.395-0.721-3.159
			c-0.088-0.379-0.457-1.515-1.091-3.137c-0.601-1.632-1.565-3.74-2.04-6.325c-0.108-0.635-0.175-1.3-0.155-1.981
			c0.013-0.342,0.037-0.689,0.099-1.033c-0.031-0.222,0.16-0.26,0.354-0.296l0.561-0.063c1.58-0.017,2.919,1.204,3.924,2.452
			c2.031,2.607,3.394,5.786,4.605,8.873c0.596,1.554,1.136,3.107,1.628,4.63l0.878,2.801l0.921,3.113
			c0.626,2.085,1.068,3.998,1.742,6.06c0.626,1.837,1.109,3.623,1.49,5.308c1.113,5.007,1.334,9.056,1.343,12.245
			c-0.005,3.197-0.242,5.558-0.469,7.354c-0.488,3.59-0.894,4.942-1.229,6.27c-0.698,2.654,0.421,5.052,1.883,5.744
			c1.428,0.687,3.358-0.498,3.59-5.245l0.223-7.624c0.041-1.837,0.089-4.18-0.07-7.352c-0.174-3.166-0.531-7.185-1.751-12.223
			c-0.434-1.777-0.975-3.66-1.663-5.595c-0.579-1.646-1.129-3.83-1.755-5.838l-0.964-3.134l-1.197-3.657
			c-1.007-2.975-2.132-5.934-3.318-8.571c-2.434-5.335-4.77-8.944-7.561-11.485c-1.404-1.212-3.146-2.331-5.337-2.088
			c-0.264,0.038-0.527,0.089-0.784,0.162c-0.228,0.086-0.606,0.115-0.609,0.318c-0.171,0.334-0.3,0.663-0.41,0.986
			c-0.22,0.648-0.336,1.268-0.394,1.855c0.313,3.301,1.011,5.471,1.575,7.854C393.014,248.949,393.789,251.605,394.242,252.874z"/>
		<path style="fill:#231815;" d="M445.005,272.562c2.034-1.834,4.216-3.775,6.135-5.905c0.356-0.394,0.713-0.805,1.105-1.28
			l0.742-0.892l0.87-1.092c1.158-1.545,2.312-3.255,2.201-5.25c-0.087-1.066-0.825-1.949-1.647-2.524
			c-0.835-0.609-1.891-1.056-3.084-1.38c-1.16-0.318-2.545-0.569-3.719-0.691c-1.173-0.115-2.096-0.112-3.132-0.027
			c-4.048,0.333-7.509,1.888-10.114,3.234c-2.62,1.372-4.482,2.601-5.442,3.054c-2.599,1.239-5.318,3.448-6.796,5.699
			c-1.485,2.255-1.796,4.523,0.172,6.123c1.616,1.313,3.844,0.551,5.86-0.864c2.017-1.425,3.865-3.466,4.827-5.036
			c0.314-0.514,1.566-1.83,3.488-3.338c1.914-1.493,4.549-3.177,7.511-3.953c1.424-0.402,3.201-0.485,4.133-0.405
			c1.047,0.101,2.337,0.113,3.222,0.849c0.412,0.423,0.291,1.015,0.112,1.445c-0.181,0.454-0.43,0.866-0.672,1.26
			c-0.499,0.789-0.949,1.438-1.541,2.276c-2.229,3.111-5.025,5.597-6.999,7.232c-0.659,0.627-3.533,2.807-6.466,7.168
			c-0.727,1.138-1.415,2.19-2.096,3.75c-0.537,1.374-1.022,2.855-1.472,4.419c-0.902,3.125-1.584,6.588-2.106,10.202
			c-1.056,7.223-1.565,15.063-3.535,22.175c-0.485,1.766-1.064,3.525-1.7,5.129c-0.695,1.587-1.505,3.176-2.334,4.659
			c-1.665,2.982-3.493,5.671-5.217,8.058c-3.42,4.681-6.368,8.215-8.652,11.082c-2.301,2.856-3.99,5.009-5.264,6.677
			c-2.542,3.348-3.501,4.691-4.443,5.999c-1.903,2.686-1.498,5.688-0.224,6.653c1.319,0.982,3.204,0.17,5.154-4.22
			c0.986-2.134,1.727-3.711,3.856-6.963c1.071-1.624,2.513-3.656,4.553-6.382c2.029-2.738,4.711-6.13,7.97-10.751
			c1.726-2.471,3.581-5.274,5.299-8.428c0.863-1.59,1.677-3.207,2.447-5.015c0.718-1.836,1.287-3.641,1.794-5.533
			c2.03-7.547,2.478-15.539,3.476-22.632c0.491-3.554,1.128-6.902,1.976-9.911c0.42-1.492,0.894-2.952,1.383-4.223l0.149-0.327
			l0.235-0.456l0.484-0.872c0.326-0.567,0.655-1.107,0.994-1.612C441.203,275.715,444.094,273.478,445.005,272.562z"/>
		<path style="fill:#231815;" d="M333.065,348.73c-0.468-0.818-0.904-1.669-1.268-2.526c-0.531-1.196-1.458-3.547-2.096-5.821
			c-0.652-2.273-1-4.463-0.766-5.225c0.65-2.068-0.449-4.452-5.289-2.982c-3.958,1.211-3.205,4.131-1.575,5.024
			c0.531,0.296,1.691,2.367,3.018,4.575c1.316,2.216,2.826,4.552,3.665,5.633c0.864,1.151,1.603,2.26,1.94,3.117
			c0.237,0.623,2.298,4.409,5.573,8.466c3.236,4.086,7.771,8.241,11.166,10.848c3.323,2.592,5.314,3.926,6.495,4.831
			c1.195,0.885,1.625,1.282,2.053,1.659c1.769,1.52,6.224-4.173,2.631-4.805c-1.699-0.381-2.715-0.264-9.014-4.585
			c-3.34-2.327-7.689-6.157-10.842-9.991C335.566,353.144,333.498,349.491,333.065,348.73z"/>
		<path style="fill:#231815;" d="M57.375,345.534c0.528,1.537,1.123,3.062,1.721,4.527c0.813,2.074,2.66,5.918,4.333,9.413
			c1.683,3.51,2.921,6.77,2.895,7.893c0.095,3.036,1.443,6.357,6.284,5.014c1.974-0.598,2.677-2.159,2.516-3.782
			c-0.148-1.621-1.131-3.19-2.158-3.928c-0.657-0.51-2.71-3.686-5.012-6.924c-2.299-3.253-4.628-6.79-5.686-8.583
			c-1.159-1.865-1.99-3.767-2.281-5.138c-0.109-0.499-0.681-2.309-1.083-4.999c-0.38-2.651-0.367-6.291,0.253-10.197
			c1.201-7.847,4.77-16.726,6.554-23.302c1.096-3.87,1.678-6.849,2.014-9.125c0.166-1.153,0.273-2.073,0.353-2.954
			c0.07-1.061,0.159-2.008,0.145-2.749c-0.643-0.752-1.157-1.43-1.418-1.862l-0.593-1.01c-0.47-0.793-1.456-1.393-2.455-1.384
			c-0.966-0.006-1.754,0.738-2.137,1.414c-0.399,0.693-0.511,1.342-0.574,1.861c-0.016,0.269-0.061,0.452,0.031,0.66
			c0.114,0.224,0.428,0.56,0.953,0.995l0.487,0.416l0.404,0.311l0.586,0.326c0.127,0.185,0.162,0.451,0.221,0.823
			c0.045,0.517,0.036,1.472-0.013,2.456c-0.125,2.041-0.488,4.856-1.503,8.898c-1.5,6.334-5.009,15.272-6.237,23.731
			c-0.615,4.215-0.617,8.201-0.097,11.336C56.388,342.747,57.151,344.809,57.375,345.534z"/>
		<path style="fill:#231815;" d="M77.438,311.628l-0.055-3.34c-0.026-1.556-0.164-4.606-0.869-7.567
			c-0.629-2.979-2.082-5.697-2.327-6.702c-0.278-1.396-1.359-2.785-2.7-3.118c-1.349-0.361-2.801,0.37-4.086,2.531
			c-1.066,1.783-1.111,3.017-0.81,3.761c0.303,0.754,1.03,1.102,1.876,1.135c0.544-0.004,2.16,1.3,3.351,3.488
			c1.23,2.143,1.946,4.985,2.289,6.377c0.377,1.471,0.521,2.914,0.385,3.893l-0.519,10.966c-0.278,5.642-0.053,12.519,1.529,17.24
			c1.486,4.635,3.306,6.961,4.331,8.358l1.952,2.456c0.916,1.067,2.749,0.291,3.74-0.932c1.008-1.246,1.372-2.72-0.267-3.309
			c-0.799-0.316-1.418-0.552-2.442-1.458c-0.971-0.935-2.502-2.516-3.884-6.263c-1.544-3.987-1.933-10.385-1.742-15.992
			C77.374,317.549,77.504,312.664,77.438,311.628z"/>
		<path style="fill:#231815;" d="M90.899,333.906l-1.378,2.787c-0.654,1.286-1.82,3.839-2.731,6.355
			c-0.94,2.504-1.619,4.955-2.165,5.669c-1.544,1.954-1.144,5.283,3.92,4.997c4.12-0.214,4.258-2.646,3.171-3.994
			c-0.37-0.438-0.583-2.617-0.392-5.055c0.168-2.435,0.765-5.09,1.069-6.405c0.305-1.39,0.787-2.649,1.323-3.396
			c0.37-0.559,2.399-4.302,5.282-8.655c2.86-4.358,6.332-9.506,8.492-13.355c2.144-3.768,3.184-6.054,3.873-7.448
			c0.677-1.404,0.977-1.941,1.269-2.467c1.149-2.246-5.463-5.123-5.254-1.558c0.028,0.877,0.053,1.535-0.27,2.878
			c-0.342,1.336-1.016,3.373-2.803,6.877c-1.885,3.75-5.175,8.84-8.02,13.341C93.422,328.962,91.299,333.026,90.899,333.906z"/>
		<path style="fill:#231815;" d="M109.892,341.442c-0.235,0.548-0.428,1.083-0.716,1.64c-0.288,0.563-0.583,1.214-0.839,1.801
			c-1.589,3.4-4.251,12.93-5.714,14.1c-0.933,0.882-1.55,2.016-1.393,3.048c0.183,1.029,1.016,2.197,3.143,3.576
			c1.751,1.108,3.384,0.506,4.27-0.621c0.893-1.11,1.085-2.616,0.743-3.642c-0.269-1.445,1.108-11.778,1.855-14.935
			c0.181-0.861,0.401-1.627,0.72-2.36c0.273-0.756,0.56-1.429,0.841-1.939c0.4-0.742,2.559-5.735,4.388-12.079
			c1.882-6.33,3.117-14.022,3.611-19.428c0.911-10.641,0.957-12.115,1.251-13.534c0.437-2.882-6.721-4.266-5.477,0.188
			c0.525,2.152,1.113,3.196,0.619,13.054c-0.292,5.255-1.358,12.649-3.103,18.842C112.406,335.356,110.303,340.394,109.892,341.442z
			"/>
		<path style="fill:#231815;" d="M133.197,343.228c-0.758,0.824-1.552,1.635-2.352,2.401c-2.257,2.129-8.68,8.358-10.427,9.001
			c-2.404,0.795-4.236,3.67-0.161,6.684c3.312,2.464,5.357,0.143,5.396-1.794c-0.045-1.28,5.564-8.844,7.325-11.404
			c0.915-1.35,1.872-2.539,2.68-3.204c0.581-0.497,3.989-3.987,7.834-8.517c3.866-4.508,7.962-10.244,10.332-14.632
			c2.363-4.293,3.364-6.949,4.045-8.562c0.655-1.63,0.939-2.262,1.211-2.882c1.057-2.645-5.745-5.067-5.354-1.169
			c0.06,0.964,0.117,1.687-0.187,3.192c-0.324,1.497-0.965,3.812-2.917,7.731c-2.051,4.198-5.867,9.761-9.603,14.258
			C137.309,338.845,133.896,342.45,133.197,343.228z"/>
		<path style="fill:#231815;" d="M168.725,317.399c1.057,3.495,0.95,7.61,0.119,11.302c-0.816,3.715-2.245,7.023-3.496,9.667
			c-0.606,1.338-2.563,5.035-5.136,9.674c-1.303,2.368-2.61,4.831-4.038,7.762c-1.448,2.735-2.657,5.61-3.77,8.691
			c-2.191,6.122-3.83,12.747-5.64,18.203c-1.757,5.474-3.72,9.683-4.403,11.546c-1.402,3.861-3.653,7.174-6.756,11.443
			c-3.14,4.228-7.259,9.241-12.901,15.603c-2.033,2.3-4.638,4.673-7.389,6.897l-2.084,1.64l-1.333,1.038
			c-0.627,0.406-1.052,1.066-1.888,1.157l-1.118,0.301c-0.384,0.102-0.764,0.187-0.945,0.217l-1.396,0.245
			c-0.927,0.141-1.843,0.244-2.743,0.308c-3.585,0.274-6.973-0.17-9.387-1.1c-2.431-0.905-3.681-2.152-3.675-2.113
			c0.148-0.475,2.296,0.445,5.233,0.311c2.937-0.067,6.564-0.992,10.156-2.521c0.909-0.442,1.748-0.603,2.273-1.432l1.968-2.218
			l3.919-4.376c2.501-2.787,4.676-5.239,6.172-6.759c3.009-3.023,6.98-7.483,10.336-11.939c1.69-2.22,3.24-4.423,4.55-6.357
			c1.268-1.876,2.193-3.55,2.807-4.712c0.613-1.159,1.841-3.818,2.993-7.391c1.174-3.565,2.257-8.037,3.365-12.553
			c1.099-4.513,2.356-9.049,3.644-12.644c0.631-1.779,1.27-3.41,1.745-4.551c0.46-1.168,0.743-2.032,0.901-2.537
			c0.554-1.958,1.842-5.174,3.425-8.897c1.572-3.725,3.396-7.971,4.584-12.131c1.173-4.143,2.176-6.854,3.243-9.02
			c1.069-2.146,2.195-3.697,3.151-4.825c0.96-1.139,1.846-0.724,2.502,0.095C168.375,316.229,168.725,317.4,168.725,317.399z"/>
		<path style="fill:#231815;" d="M4.14,326.543l0.964-0.437l5.801-0.176c1.328-0.04,2.616-0.062,3.86-0.062
			c2.49,0,4.808,0.088,6.954,0.266c4.293,0.352,7.907,1.066,10.81,2.107c2.898,1.027,5.096,2.434,6.369,3.931
			c1.302,1.493,1.536,2.917,1.363,3.614c-0.181,0.733-0.62,0.859-1.11,0.736c-0.499-0.13-1.057-0.466-1.838-0.821
			c-1.49-0.738-4.461-1.732-8.849-2.663c-3.425-0.748-7.063-1.056-10.68-1.164c-1.812-0.053-3.627-0.053-5.439-0.017l-2.718,0.074
			c-0.6,0.018-0.495,0.026-0.691,0.038l-0.387,0.037c-0.399-0.039-0.724,0.257-0.856,0.585c-0.13,0.372,0.186,0.729,0.445,0.923
			l0.41,0.267l0.198,0.099l0.703,0.421c1.035,0.601,2.14,1.153,3.257,1.667c2.264,1.03,4.484,1.904,6.798,2.657
			c0.274,0.094,0.567,0.166,0.807,0.331l0.601,0.34l0.852,0.488l1.663,1.013c1.09,0.69,2.134,1.421,3.132,2.176
			c6.64,4.944,11.739,11.664,15.629,18.466c2.229,3.648,3.497,7.515,4.719,11.204c1.188,3.726,2.177,7.415,3.223,11.031
			c1.05,3.615,2.337,8.083,4.159,12.224c1.783,4.159,4.278,7.893,6.774,10.371c2.463,2.504,4.69,3.856,4.917,4.402
			c0.121,0.266-0.245,0.32-1.225,0.039c-0.968-0.295-2.574-0.928-4.668-2.361c-4.17-2.915-6.916-6.371-9.092-9.644
			c-2.17-3.309-3.794-6.545-5.296-9.904c-1.497-3.362-2.832-6.885-4.293-10.823c-0.734-1.966-1.498-4.037-2.377-6.202
			c-0.438-1.082-0.91-2.184-1.426-3.297l-0.397-0.838c-0.133-0.254-0.216-0.466-0.377-0.733l-0.991-1.687
			c-2.831-4.773-6.177-9.595-10.266-13.467c-2.033-1.946-4.235-3.675-6.507-5.177l-1.712-1.089l-0.267-0.165l-0.08-0.042
			l-1.045-0.398c-1.379-0.547-2.677-1.118-3.929-1.707c-2.498-1.185-4.779-2.427-6.807-3.836c-1.48-1.014-2.975-2.303-3.837-3.525
			c-0.897-1.241-1.318-2.454-1.385-3.611c-0.064-1.165,0.312-2.255,0.825-3.021c0.502-0.785,1.116-1.315,1.636-1.718
			C3.59,326.632,4.117,326.592,4.14,326.543z"/>
		<path style="fill:#231815;" d="M225.986,169.541c3.179-0.639,6.405-1.246,9.55-1.779c4.426-0.727,12.926-2.281,20.839-3.389
			c7.927-1.133,15.223-1.576,17.486-0.799c3.107,0.998,6.585,1.08,9.162-0.412c2.548-1.5,4.5-4.622,4.25-10.445
			c-0.21-4.746-3.006-7.179-6.309-7.796c-3.298-0.641-6.895,0.505-8.905,2.272c-1.358,1.126-8.786,3.408-16.619,6.097l-20.467,6.931
			c-4.363,1.548-8.562,2.667-11.518,2.904c-1.082,0.091-5.024,0.769-10.767,1.647c-2.872,0.43-6.196,0.903-9.839,1.35
			c-3.69,0.483-7.428,0.805-11.542,0.763c-4.081-0.009-8.372-0.377-12.926-0.579c-4.527-0.2-9.474-0.082-14.186,1.261
			c-2.344,0.654-4.589,1.569-6.662,2.649c-1.038,0.541-2.033,1.12-2.987,1.728l-1.466,0.971c-0.288,0.181-0.535,0.419-0.786,0.623
			l-0.585,0.484c-3.11,2.58-6.071,4.944-8.793,6.991c-10.713,8.074-17.566,10.956-21.797,12.363
			c-4.266,1.352-5.988,1.395-7.631,1.555c-1.654,0.12-2.89,1.2-3.83,2.684c-0.925,1.501-1.542,3.423-1.592,5.26
			c-0.048,1.83,0.502,3.542,1.966,4.52c1.439,0.949,3.855,1.143,6.951-0.352c2.954-1.471,5.032-2.644,9.491-4.992
			c4.403-2.385,11.19-6.136,21.561-14.477c2.762-2.219,5.738-4.725,8.831-7.409l0.943-0.81l1.028-0.716
			c0.766-0.51,1.553-0.99,2.359-1.433c1.613-0.889,3.307-1.613,5.083-2.149c6.995-2.247,16.058-0.653,24.994-0.769
			c2.223-0.013,4.421-0.105,6.555-0.285c2.163-0.17,4.187-0.463,6.055-0.706c3.794-0.517,7.267-1.065,10.294-1.573
			C220.227,170.694,224.496,169.836,225.986,169.541z"/>
		<path style="fill:#231815;" d="M109.058,219.005c5.514,1.44,10.979,5.38,14.623,8.539c1.772,1.533,10.577,9.207,16.004,19.746
			c2.757,5.189,4.524,10.914,5.347,15.677c0.85,4.77,0.927,8.54,1.179,10.129c0.484,3.189,0.281,6.683-0.46,11.042
			c-0.752,4.362-2.055,9.592-4.1,16.345c-1.462,4.895-4.632,10.741-7.508,15.192c-2.868,4.47-5.368,7.651-5.361,7.656
			c-0.736-0.22,1.055-5.595,3.114-11.781c2.102-6.18,4.209-13.207,5.339-16.529c1.189-3.312,2.587-8.043,3.378-12.55
			c0.831-4.502,1.009-8.743,0.991-10.931c-0.003-1.093-0.088-3.539-0.607-6.57c-0.507-3.031-1.495-6.627-2.961-9.98
			c-2.85-6.785-7.679-12.236-8.849-13.23c-2.291-2.101-7.794-7.24-14.182-11.335c-6.327-4.078-8.226-7.62-8.9-10.005
			C105.407,218.069,109.052,218.99,109.058,219.005z"/>
		<path style="fill:#231815;" d="M178.717,71.115c-8.563,5.715-18.029,5.93-25.054,12.026c-3.484,3.056-7.054,6.414-10.758,10.255
			c-3.712,3.818-7.704,8.107-12.086,13.188l-17.845,20.66c-4.12,4.788-7.547,8.581-12.287,15.617
			c-4.662,7.081-6.277,10.06-8.522,13.641c-2.194,3.638-4.971,7.823-10.723,18.236c-2.848,5.272-4.069,8.243-4.603,9.65
			c-0.527,1.421-0.41,1.218-0.187,0.796c0.221-0.424,0.566-1.032,0.489-0.453c-0.034,0.294-0.18,0.877-0.45,1.98
			c-0.249,1.121-0.707,2.708-0.924,5.366c-0.225,2.635,0.239,5.583,1.504,7.929c1.242,2.362,2.957,3.925,4.455,4.997
			c3.064,2.1,5.564,2.823,7.506,3.378c3.886,0.99,5.691,0.84,5.696,0.868c-2.285-1.885-4.544-3.842-6.468-5.958
			c-1.91-2.08-3.451-4.508-3.485-6.455c-1.053-1.422-1.309-3.561-0.878-6.217c0.407-2.609,1.326-5.405,2.35-8.165
			c2.1-5.539,4.664-11.107,7.237-16.591c0.02,0.016,4.048-7.237,9.578-15.377c5.471-8.187,12.8-16.98,17.089-21.963
			c8.437-10.088,23.416-23.283,30.472-30.314c3.455-3.459,9.303-8.229,16.528-12.16c9.692-5.272,14.626-4.979,21.7-8.841
			c3.521-1.919,4.218-7.891,5.626-8.841c1.4-0.935,1.824-1.685,1.058-2.253c-0.752-0.553-2.795-0.834-5.807-0.146
			C186.92,66.638,183.027,68.281,178.717,71.115z"/>
		<path style="fill:#231815;" d="M109.853,89.837l-0.625,4.27c-0.317,1.98-0.78,5.874-0.803,9.688
			c-0.053,3.831,0.281,7.351-0.266,8.392c-0.686,1.53-0.747,2.862,0.259,3.594c1.028,0.721,3.196,1.405,7.245,1.343
			c3.304-0.055,4.997-1.525,5.372-3.262c0.382-1.723-0.458-3.276-1.644-3.951c-0.772-0.52-2.262-3.239-3.271-6.312
			c-1.043-3.099-1.501-6.794-1.733-8.634c-0.263-1.934-0.197-3.801,0.218-4.977c0.152-0.428,0.456-2.071,1.142-4.348
			c0.688-2.259,1.83-5.186,3.84-7.698c1.976-2.531,4.941-4.387,8.17-4.879c3.223-0.542,6.505,0.082,9.041,0.982
			c5.021,1.869,7.351,4.084,8.681,5.339c1.316,1.33,1.64,1.997,2.005,2.591c0.664,1.168,3.364,0.276,5.518-1.078
			c2.135-1.319,3.408-3.739,0.555-5.238c-1.362-0.66-2.357-1.084-4.295-2.21c-1.977-1.037-4.775-3.055-10.716-4.922
			c-3.164-0.928-7.315-1.636-11.745-0.786c-4.441,0.767-8.756,3.601-11.271,7.031c-2.599,3.405-3.841,6.986-4.589,9.697
			C110.214,87.204,109.962,89.159,109.853,89.837z"/>
		<path style="fill:#231815;" d="M213.677,33.848c-1.17,2.48-2.037,4.893-2.889,7.22c-1.225,3.27-3.101,9.55-4.939,15.27
			c-1.836,5.742-3.87,10.787-5.224,11.973c-1.804,1.682-2.981,3.797-2.546,5.489c0.109,0.421,0.316,0.861,0.632,1.286
			c0.319,0.434,0.791,0.82,1.227,1.45c0.933,1.172,2.029,2.785,3.906,4.492c1.525,1.386,3.175,2.032,4.817,1.715
			c1.733-0.439,3.082-1.391,4.051-2.58c1.921-2.364,2.224-5.329,1.509-7.335c-0.417-1.357,0.199-7.176,0.735-13.292
			c0.556-6.143,1.366-12.665,1.843-15.839c0.453-3.348,1.366-6.419,2.578-8.056c0.211-0.281,0.678-1.085,1.362-1.866
			c0.632-0.714,2.117-1.839,3.76-2.871c1.671-1.021,3.717-1.941,5.966-2.165c2.243-0.234,4.677,0.321,7.046,1.693
			c4.784,2.735,8.951,8.203,12.962,13.192c3.732,5,6.866,10.48,9.58,14.89c5.269,8.77,8.683,13.755,11,16.806
			c2.325,3.054,3.361,4.278,4.388,5.465c1.067,1.195,2.724,1.479,4.223,1.012c1.51-0.452,2.806-1.643,3.617-2.997
			c0.817-1.361,1.249-2.841,1.238-3.973c-0.03-1.149-0.52-1.944-2.228-2.599c-1.656-0.679-2.985-1.274-5.303-3.453
			c-2.321-2.2-5.574-6.113-10.826-14.14c-2.865-4.272-6.056-9.606-10.319-15.121c-1.154-1.438-2.151-2.571-3.258-3.899
			c-1.094-1.29-2.234-2.598-3.446-3.881c-2.426-2.554-5.143-5.053-8.459-6.906c-3.27-1.876-7.368-2.838-11.005-2.344
			c-3.647,0.449-6.541,1.939-8.732,3.358c-1.104,0.72-2.051,1.45-2.875,2.137c-0.365,0.305-0.898,0.752-1.326,1.186
			c-0.418,0.432-0.775,0.874-1.088,1.299C214.43,32.186,213.981,33.249,213.677,33.848z"/>
		<path style="fill:#231815;" d="M283.691,51.63c11.763,2.54,22.057,7.441,30.689,12.741c4.32,2.664,8.239,5.454,11.731,8.233
			l2.604,2.13l2.275,2.04l4.037,3.618c10.262,9.127,19.688,15.649,27.032,21.662c3.684,2.985,10.873,7.479,17.996,12.808
			c3.557,2.667,7.086,5.513,10.183,8.352c1.607,1.444,3.079,3.001,4.325,4.419c1.236,1.393,2.301,2.722,3.195,3.92
			c3.528,4.799,8.609,10.212,13.438,16.102c4.836,5.873,9.424,12.143,12.175,18.192c2.757,6.052,6.229,13.095,9.796,19.65
			c1.784,3.277,3.597,6.429,5.353,9.278c1.765,2.885,3.41,5.257,5.129,7.759c3.333,5.092,4.6,9.012,5.962,13.058
			c1.322,3.99,2.58,7.95,5.358,12.474c2.77,4.533,6.246,10.715,9.284,15.32c3.013,4.652,5.568,7.726,5.561,7.74
			c0.059,0.002-4.882,0.378-7.86-5.044c-1.461-2.653-4.092-6.022-6.491-9.17c-2.393-3.142-4.566-6.001-5.158-7.276
			c-0.604-1.268-2.919-6.387-5.615-12.494c-1.354-3.051-2.831-6.338-4.3-9.471c-0.71-1.511-1.547-3.259-2.235-4.564
			c-0.724-1.402-1.301-2.62-1.843-3.773c-4.237-9.07-13.28-21.399-19.206-29.626c-5.961-8.21-10.386-5.477-12.615-13.296
			c-2.32-7.817-4.07-11.174-6.989-15.064c-1.462-1.946-2.357-4.285-3.789-6.589c-1.448-2.263-3.456-4.558-7.098-5.933
			c-3.649-1.316-9.266-3.906-14.328-6.357c-5.048-2.484-9.564-4.946-10.714-6.848c-2.256-3.819-9.531-9.652-12.598-10.744
			c-3.01-1.085-17.661-3.772-22.092-8.754l-3.81-4.33c-1.393-1.608-2.862-3.418-3.955-4.896c-2.282-2.972-4.675-5.853-5.326-7.535
			c-1.403-3.385,0.099-4.756-4.773-8.837c-2.487-1.994-2.193-1.98-3.15-2.626c-0.485-0.316-1.288-0.797-2.983-1.683
			c-1.704-0.871-4.273-2.205-8.5-3.84c-8.49-3.206-13.766-4.191-17.011-5.2c-3.279-0.92-4.605-1.733-5.949-2.571
			c-1.346-0.83-1.907-1.939-0.265-2.816C272.763,50.939,276.77,50.196,283.691,51.63z"/>
		<path style="fill:#231815;" d="M241.443,83.022c-12.072,1.208-14.471-14.47-3.618-19.896
			C248.678,57.699,259.53,81.212,241.443,83.022z"/>
		<path style="fill:#231815;" d="M137.644,102.392c-10.92,0-11.395-14.651-1.627-14.651
			C145.784,87.741,147.411,102.392,137.644,102.392z"/>
		<path style="fill:#231815;" d="M136.447,152.224c-2.895-4.341-1.447-13.023,2.893-8.681
			C143.68,147.883,136.447,152.224,136.447,152.224z"/>
		<path style="fill:#231815;" d="M175.516,140.648c-8.437,0-5.789-10.129,1.447-10.129
			C184.199,130.519,184.199,140.648,175.516,140.648z"/>
		<path style="fill:#231815;" d="M314.793,93.257c22.136,14.757,28.941,21.705,11.577,21.705c-17.365,0-17.366-1.445-23.153-11.574
			C297.428,93.257,301.769,84.575,314.793,93.257z"/>
		<path style="fill:#231815;" d="M356.45,138.503c14.403,9.261,19.105,24.133,9.05,22.123c-10.056-2.012-19.106-6.034-19.106-9.05
			C346.394,148.559,342.373,129.453,356.45,138.503z"/>
		<path style="fill:#231815;" d="M154.322,197.798c-7.617-3.359-12.951-4.168-16.801-4.079c-3.837,0.072-6.241,0.555-7.453,0.163
			c-1.198-0.33-1.193-1.456,0.261-2.874c1.413-1.379,4.51-3.006,8.635-3.039c8.242-0.075,15.419,3.318,21.575,6.138
			c1.535,0.697,3.043,1.384,4.352,1.819c0.649,0.21,1.226,0.354,1.566,0.337l2.295,0.14c3.018,0.142,5.855,0.091,8.446-0.129
			c5.185-0.416,10.035-1.994,13.598-5.107c3.862-3.423,7.556-7.936,11.68-12.029c2.062-2.065,4.794-4.581,7.811-6.734
			c2.995-2.169,6.34-3.872,9.074-4.567c2.739-0.726,4.702-0.521,5.049-0.189c0.372,0.405-0.823,0.666-3.818,2.102
			c-2.981,1.519-5.158,3.497-7.032,5.429c-1.869,1.955-3.432,3.934-5.023,6.022l-5.143,6.835c-1.985,2.516-4.161,5.395-7.652,8.625
			c-3.766,3.457-8.959,5.616-13.933,6.424c-5.003,0.853-9.814,0.622-13.903,0.159l-1.505-0.191c-0.48-0.082-0.91-0.094-1.726-0.286
			c-1.264-0.316-2.175-0.725-3.021-1.105c-1.653-0.774-2.93-1.492-4.001-2.069L154.322,197.798z"/>
		<path style="fill:#231815;" d="M406.725,430.615c-6.799-1.2-12.967-3.361-18.33-6.086c-1.354-0.689-2.613-1.378-3.904-2.157
			c-1.336-0.786-2.517-1.691-3.611-2.533c-2.21-1.724-4.172-3.493-5.991-5.246c-7.221-7.042-12.264-13.692-16.01-19.401
			c-7.504-11.453-9.084-19.462-8.686-22.335c0.177-1.458,0.625-1.676,1.152-0.988c0.539,0.692,1.245,2.273,2.427,4.539
			c2.317,4.539,6.754,11.819,13.276,20.403c3.254,4.289,6.798,8.384,10.584,12.165c3.833,3.729,7.758,7.351,12.243,9.597
			c9.163,4.953,19.49,7.234,29.501,7.242c20.071,0.016,38.823-8.505,50.752-19.549c6.033-5.895,11.084-12.69,14.601-20.241
			c3.547-7.539,5.539-15.777,6.322-24.211c0.797-8.445,0.461-17.07-0.362-25.694c-0.217-2.154-0.435-4.337-0.722-6.419l-0.98-6.459
			c-0.691-4.309-1.46-8.608-2.3-12.893c-1.675-8.57-4.055-19.238-7.153-29.564c-3.065-10.331-6.951-20.275-10.819-27.513
			c-3.791-7.29-7.582-11.758-7.991-12.725c-0.212-0.478,0.466-0.123,2.108,1.454c1.618,1.59,4.186,4.438,7.221,9.156
			c6.008,9.472,9.688,18.264,12.867,26.424c3.12,8.197,5.564,15.894,7.776,23.937c2.196,8.051,4.156,16.449,5.876,26.18
			c0.851,5.012,1.467,10.165,1.897,15.936c0.403,5.738,0.544,11.992-0.055,18.835c-0.601,6.835-1.991,13.985-4.539,20.903
			c-2.524,6.92-6.23,13.533-10.754,19.346c-2.257,2.91-4.701,5.636-7.263,8.161c-1.279,1.216-2.565,2.565-4.125,3.725
			c-1.415,1.101-2.846,2.138-4.3,3.121c-5.811,3.934-11.895,6.951-17.81,9.136c-11.855,4.413-22.915,5.406-30.635,5.144
			C411.227,431.747,406.724,430.558,406.725,430.615z"/>
		<path style="fill:#231815;" d="M429.167,349.934c-3.306-2.112-4.756-4.752-5.221-6.594c-0.464-1.896-0.034-3.159,0.633-3.826
			c1.401-1.301,3.617-0.571,4.519,1.56c0.961,2.219,2.837,3.85,4.81,4.773c1.987,0.948,4.025,1.258,5.814,1.618
			c3.622,0.727,7.525,0.431,11.636,0.169c2.06-0.105,5.324-0.275,7.569-0.288c2.225-0.004,3.47,0.422,1.051,1.991
			c-2.441,1.504-4.173,2.692-6.179,3.746c-2.009,1.024-4.313,1.973-8.025,2.216c-3.703,0.261-8.216-0.502-11.457-2.034
			C431.046,351.782,429.165,349.907,429.167,349.934z"/>
		<path style="fill:#231815;" d="M101.492,461.605c6.934-10.688,10.677-19.279,13.316-25.144c2.586-5.908,3.916-9.303,5.003-10.527
			c1.043-1.237,1.899-0.202,2.033,2.67c0.127,2.849-0.647,7.44-2.836,12.648c-4.403,10.379-9.74,20.225-16.301,28.822
			c-3.313,4.265-6.951,8.229-11.341,11.352c-0.547,0.391-1.111,0.761-1.689,1.116c-0.122,0.073-0.409,0.266-0.631,0.356
			l-0.458,0.225l-0.848,0.411c-1.131,0.542-2.276,1.036-3.426,1.494c-2.298,0.917-4.642,1.649-6.999,2.149
			c-4.681,1-9.886,1.21-14.894-0.417c-5.024-1.575-9.332-5.16-12.078-9.33c-2.8-4.182-4.372-8.817-5.275-13.414
			c-0.893-4.613-1.113-9.246-0.875-13.805c0.225-4.566,1.121-10.196,2.708-15.528c1.557-5.343,3.813-10.362,6-13.926
			c2.174-3.583,4.194-5.704,4.774-5.872c0.641-0.138-0.346,1.477-2.511,6.335c-2.099,4.899-3.193,9.342-3.911,13.464
			c-0.7,4.134-0.992,7.983-1.024,11.929c-0.013,3.944,0.22,8.009,0.989,12.489c0.816,4.42,2.084,9.478,5.216,14.14
			c1.577,2.299,3.617,4.268,6.085,5.536c2.457,1.285,5.353,1.859,8.367,1.804c3.015-0.055,6.111-0.685,9.053-1.622
			c1.472-0.464,2.91-0.998,4.302-1.581l1.829-0.799c0.553-0.302,1.162-0.682,1.719-1.045c4.523-3.035,7.914-6.806,10.198-9.477
			C100.266,463.343,101.482,461.594,101.492,461.605z"/>
		<path style="fill:#231815;" d="M112.715,459.908c-2.167-4.731-0.928-7.516,0.695-8.334c1.646-0.842,3.701-0.028,3.794,1.979
			c0.203,4.099,2.913,7.535,3.945,10.655c1.038,3.126,2.131,6.34,2.356,9.833c0.127,1.74-0.145,4.463-0.732,6.194
			c-0.584,1.739-1.379,2.488-2.172,0.583c-1.63-3.82-3.529-4.903-4.998-9.549C114.046,466.641,112.67,459.916,112.715,459.908z"/>
		<path style="fill:#231815;" d="M503.124,431.851c-3.293,7.195-5.802,12.015-7.511,15.434c-1.723,3.392-2.915,5.321-3.937,5.971
			c-1.015,0.65-1.84-0.034-2.135-1.821c-0.291-1.768,0.056-4.629,1.455-7.774c2.782-6.269,5.871-12.106,8.287-17.735
			c1.215-2.806,2.265-5.54,3.119-8.162l0.603-1.944l0.231-1.55l0.544-3.843c1.384-9.963,0.798-19.981-0.583-30.112
			c-1.14-10.113-5.36-30.96-0.458-18.738c2.356,6.148,4.148,10.461,5.73,15.247c1.53,4.784,3,10.072,3.443,18.257
			c0.195,4.089,0.067,8.546-0.433,12.864c-0.238,2.16-0.564,4.286-0.954,6.319l-0.295,1.509l-0.339,1.608
			c-0.028,0.207-0.125,0.401-0.188,0.599l-0.142,0.383l-0.259,0.693l-0.533,1.342C505.83,427.36,503.068,431.815,503.124,431.851z"
			/>
		<path style="fill:#231815;" d="M214.228,289.336c-4.342-8.682-17.322-38.345,13.023-36.177
			c10.129,0.725,9.491,4.097,10.129,13.023c0.724,10.13,0.724,6.513,2.169,13.747L214.228,289.336z"/>
		<path style="fill:#231815;" d="M213.834,299.526c8.115,12.172-11.496,52.07-11.496,66.272c0,14.2-6.087,32.458-4.057,44.631
			c2.028,18.259,24.346,24.345,32.459,40.575c4.058-12.172,14.201-24.345,20.287-34.488c2.029-32.46,4.058-93.998-12.172-126.457
			c-8.115,0-14.201,4.058-20.288,6.086L213.834,299.526z"/>
		<path style="fill:#231815;" d="M201.346,265.52c-0.203-0.704-0.496-1.416-0.9-2.134c-0.056-0.1-0.089-0.198-0.131-0.297
			c-5.343-1.772-10.736-3.479-16.233-5.074c-3.776-1.096-8.156-1.962-12.837-2.783c-4.72-0.766-9.578-1.682-15.055-1.94
			c-2.758-0.136-5.282,0.963-6.333,2.309c-1.075,1.4-0.638,2.382,0.371,2.676c1.053,0.325,2.427,0.374,4.973,0.671
			c2.554,0.27,6.44,0.806,12.093,1.629c0,0,3.676,0.953,8.743,2.548c5.069,1.571,11.533,3.74,17.199,5.389
			c2.638,0.767,4.895,1.316,6.944,1.729C200.761,268.73,201.069,267.14,201.346,265.52z"/>
		<path style="fill:#231815;" d="M256.19,250.271l-5.249,5.304c-0.472,0.627-1.595,1.277-1.893,1.421
			c-0.469,0.259-0.919,0.491-1.343,0.697c-0.85,0.413-1.586,0.722-2.14,0.955c-1.072,0.427-1.691,0.747-2.411,1.276
			c-0.682,0.486-1.279,0.882-1.801,1.021c-1.025,0.286-1.819-0.347-1.893-1.891c-0.018-0.763,0.164-1.83,0.942-3.035
			c0.788-1.23,2.098-2.191,3.229-2.774l1.646-0.882c0.504-0.283,1.153-0.662,1.161-0.676l2.51-2.58
			c1.791-1.814,3.589-3.571,5.38-5.232c3.583-3.329,7.139-6.283,10.5-8.538c6.734-4.506,13.52-8.563,20.371-12.408
			c3.436-1.907,8.677-4.675,12.075-6.419c3.393-1.728,5.188-2.092,1.654,1.541c-3.583,3.568-6.107,6.115-8.923,8.705
			c-2.828,2.571-6.004,5.136-11.054,8.356c-5.055,3.22-10.954,6.749-15.364,9.75C259.16,247.839,256.2,250.281,256.19,250.271z"/>
		<path style="fill:#231815;" d="M332.091,204.566c-9.09,5.486-16.438,8.204-21.622,9.557c-5.205,1.346-8.303,1.329-9.592,0.811
			c-2.571-1.127,1.866-4.187,9.877-6.888c8.054-2.748,15.652-6.731,22.425-11.124c3.435-2.218,6.509-4.42,9.602-6.768l8.778-6.498
			c11.043-8.114,21.862-16.582,31.027-26.309c2.255-2.445,4.993-5.588,7.068-9.038c2.126-3.423,3.363-7.235,3.274-10.362
			c-0.031-3.131-1.072-5.343-0.921-5.89c0.061-0.278,0.366-0.133,0.992,0.589c0.568,0.746,1.501,2.117,2.061,4.47
			c1.06,4.758-0.023,8.877-1.228,12.279c-1.276,3.437-2.894,6.361-4.743,9.223c-3.743,5.689-8.484,11.181-16.516,18.1
			c-8.049,6.914-18.11,13.956-26.082,19.244C338.448,201.413,332.071,204.55,332.091,204.566z"/>
		<path style="fill:#231815;" d="M246.451,273.503c-2.563-1.712-4.331-2.58-5.7-3.532c-1.35-0.919-2.219-1.84-2.505-2.769
			c-0.288-0.923,0.019-1.809,0.902-2.363c0.868-0.534,2.354-0.703,3.986,0.019c6.544,2.748,11.721,7.579,14.483,11.634
			c2.764,4.129,5.035,8.022,7.461,11.62c1.168,1.835,3.126,4.519,4.739,6.262c1.565,1.713,2.301,2.993-0.828,2.093
			c-3.049-1.052-5.224-2.085-7.347-3.455c-2.104-1.384-4.135-3.227-6.262-6.327c-2.124-3.105-4.086-6.723-5.796-9.216
			C247.904,274.937,246.449,273.513,246.451,273.503z"/>
		<path style="fill:#231815;" d="M189.205,310.678c-5.439,7.18-9.632,8.974-11.531,8.368c-1.901-0.615-1.672-3.453,1.103-5.855
			c5.589-4.85,9.356-11.41,13.176-15.879c3.826-4.485,7.571-9.016,11.76-13.189c2.1-2.085,5.466-5.043,7.775-6.816
			c2.29-1.776,3.723-2.286,1.965,1.099c-3.668,6.604-4.386,9.885-10.044,16.883C197.735,302.268,189.216,310.69,189.205,310.678z"/>
		<path style="fill:#231815;" d="M261.369,393.796c-5.127,12.98-8.5,22.389-10.598,29.014c-2.122,6.605-3.176,10.421-4.09,11.867
			c-0.891,1.449-1.637,0.428-1.826-2.688c-0.181-3.085,0.389-8.217,2.21-14.082c7.36-23.351,17.544-44.096,23.322-61.887
			c3.393-8.862,6.979-17.508,10.438-26.136c1.73-4.313,3.429-8.623,5.068-12.958l0.308-0.811l0.06-0.151l0.105-0.352l0.482-1.651
			l0.925-3.343l1.749-6.812c1.153-4.578,2.569-10.416,4.289-16.137c1.699-5.722,3.812-11.248,5.841-15.149
			c2.002-3.929,3.809-6.246,4.297-6.446c0.552-0.156-0.327,1.651-2.372,6.97c-1.998,5.362-3.11,10.224-4.019,14.752
			c-0.892,4.545-1.533,8.801-2.253,13.247c-0.724,4.444-1.491,9.088-2.726,14.418l-0.488,2.029c-0.096,0.34-0.133,0.626-0.355,1.307
			l-0.358,1.063c-0.45,1.35-0.928,2.743-1.44,4.177c-1.018,2.876-2.165,5.938-3.454,9.236c-2.579,6.61-5.496,13.624-8.272,20.5
			c-1.384,3.438-2.733,6.842-3.998,10.142l-1.852,4.935c-0.283,0.806-0.658,1.655-0.996,2.474l-0.983,2.296L261.369,393.796z"/>
		<path style="fill:#231815;" d="M174.717,343.941c-2.377-6.742-3.414-11.318-4.413-14.35c-0.917-3.021-1.572-4.663-1.579-5.827
			c-0.028-1.12,0.912-1.679,2.598-0.941c1.671,0.711,3.645,2.885,4.717,5.854c2.119,5.858,3.365,11.599,5.446,16.262
			c0.384,0.846,0.555,1.505,0.804,2.128l0.685,1.92l1.29,3.746c0.819,2.453,1.551,4.809,2.149,7.045
			c2.392,8.948,4.654,17.815,6.734,26.701l3.426,15.449c0.955,4.273,0.932,6.327-1.931,1.188c-2.725-5.189-4.618-8.871-6.467-12.883
			c-1.831-4.018-3.557-8.403-5.403-15.122c-1.851-6.724-3.667-14.588-5.189-20.695l-1.066-4.215l-0.468-1.784l-0.211-0.799
			l-0.033-0.147l-0.135-0.386C174.998,345.086,174.727,343.946,174.717,343.941z"/>
		<path style="fill:#231815;" d="M62.994,434.104c-8.113-4.616-10.393-8.606-10.106-10.565c0.31-1.994,3.245-2.11,6.062,0.412
			c5.661,5.076,12.755,7.976,17.878,10.699c5.161,2.753,10.408,4.991,15.74,6.534c2.654,0.842,6.805,1.652,9.738,1.69
			c1.452,0.077,2.56,0.085,2.878,0.392c0.309,0.28-0.166,0.922-2.062,1.711c-3.82,1.471-6.793,2.024-9.947,2.218
			c-3.151,0.142-6.591-0.198-11.163-1.917C72.768,441.853,62.986,434.061,62.994,434.104z"/>
		<path style="fill:#231815;" d="M384.572,394.1c-7.045,2.647-12.626,3.223-16.433,3.08c-3.834-0.175-5.938-1.059-6.695-1.937
			c-1.459-1.819,2.026-3.468,7.736-3.798c5.794-0.359,11.482-2.006,16.545-4.172c5.083-2.167,9.555-4.83,13.418-7.257
			c7.753-4.862,14.443-11.154,19.378-18.694c1.243-1.882,2.695-4.328,3.893-6.918c1.217-2.581,2.183-5.298,2.851-7.464
			c0.685-2.163,1.125-3.759,1.537-4.026c0.37-0.271,0.792,0.803,0.725,3.936c-0.248,6.249-1.186,10.711-2.798,15.276
			c-1.699,4.505-4.177,9.285-9.617,14.775c-5.429,5.521-13.048,10.304-19.361,13.11C389.443,392.874,384.56,394.076,384.572,394.1z"
			/>
		<path style="fill:#231815;" d="M155.666,206.553c1.399,0.946,10.363,4.143,19.92,4.505c4.749,0.234,9.549-0.22,13.338-1.093
			c3.803-0.844,6.579-2.028,7.692-2.503c3.418-1.461,6.212-3.761,8.092-5.82c1.897-2.063,2.966-3.843,3.51-4.423
			c1.075-1.168,1.78-1.525,3.111-0.441c1.311,1.075,1.667,1.783,0.367,3.231c-0.646,0.721-2.982,2.982-5.793,4.939
			c-2.793,1.992-6.033,3.594-7.609,4.387c-4.089,2.152-8.873,3.661-13.682,4.401c-4.812,0.765-9.625,0.794-13.899,0.458
			c-8.577-0.694-14.966-2.756-16.473-3.07c-3.03-0.721-2.52-2.037-2.026-3.298C152.72,206.557,154.488,205.784,155.666,206.553z"/>
	</g>
</g>
</svg>
