<?xml version="1.0" encoding="iso-8859-1"?>
<!-- Generator: Adobe Illustrator 18.1.1, SVG Export Plug-In . SVG Version: 6.00 Build 0)  -->
<svg version="1.1" id="_x36_" xmlns="http://www.w3.org/2000/svg" xmlns:xlink="http://www.w3.org/1999/xlink" x="0px" y="0px"
	 viewBox="0 0 512 512" style="enable-background:new 0 0 512 512;" xml:space="preserve">
<g>
	<g>
		<path style="fill:#BAD17D;" d="M312.851,464.978c4.614,1.065,9.583,0,11.712,0c2.13,0,2.839,0-3.904-3.194
			c-11.003-5.324-29.103-2.13-43.3-2.839c-14.197-0.71-14.552-4.259-15.971-11.712c-1.42-7.453,4.969-34.427,8.518-44.72
			c3.549-10.293-0.355-27.329-1.775-30.878c-1.42-3.549,16.681-45.43,18.101-66.37c34.782-49.334,17.036-84.826,11.357-96.893
			s-23.07-37.267-31.588-54.303c-8.518-17.036-14.552-22.005-9.938-29.458c4.614-7.453,17.036-4.969,23.425-5.324
			c6.388-0.355,11.357-1.065,15.971-4.259c4.614-3.194,1.775-6.743,0.355-10.293c-1.42-3.549-0.71-1.775,4.969-3.549
			c5.679-1.775,4.969-2.129,11.357-2.484c6.389-0.355,7.453-2.484,11.357-7.453c3.904-4.969-1.065-2.839-6.388-8.518
			c-5.324-5.679-7.453-12.422-14.552-21.65c-7.098-9.228-12.777-12.777-15.262-15.262c-2.484-2.484,0,0,0-4.969
			c0-4.969-1.065-14.906-4.614-16.681c-3.549-1.775-12.067,4.614-15.261,8.163c-3.194,3.549-7.453,2.839-14.907-0.71
			c-7.453-3.549-9.583,2.484-10.293-3.194c-0.71-5.679-2.839-17.391-9.228-17.391c-6.389,0-22.715,17.391-28.039,24.844
			C177.272,46.883,151.008,84.86,143.2,96.217c0,0-4.969,1.42-12.777,4.969c-19.166,6.389-52.883,35.492-58.207,44.365
			c-5.324,8.873-3.549,18.101,4.259,26.619c7.808,8.518,27.684,46.494,31.233,54.658c3.549,8.163,0.355,12.777-12.067,16.681
			c-12.422,3.904-7.808,6.389-9.228,8.163s-2.484,4.259-0.355,5.324c-1.42,2.13-8.518,2.484-10.648,1.42
			c-2.13-1.065-3.549-1.775-5.324-5.679c1.065,2.839-2.484,3.194-2.13,6.389c0.355,3.194,7.808,7.808,9.228,7.808
			s2.484,1.775-3.194,1.42c5.324,2.484,8.518,2.129,15.616,1.775c7.098-0.355,11.712-1.775,20.585-4.969
			c8.873-3.194,9.228-10.648,10.647-7.808c1.42,2.839,16.681,35.492,14.197,44.365c-2.484,8.873-12.422,43.655-13.132,52.173
			c-0.71,8.518-3.904,48.269-3.194,55.012c0.71,6.743-1.42,19.875-3.194,25.199c-1.775,5.324,0.355,12.777,0.355,17.036
			s-9.583,8.163-22.005,7.808c-12.422-0.355-24.489-1.42-32.652-0.71c-8.163,0.71-23.78,11.357-23.78,11.357
			s11.712-2.13,18.811-3.549c7.098-1.42,14.552,3.194,14.552,3.194s-8.163,1.775-18.101,5.324
			c-9.938,3.549-17.391,13.842-14.197,13.132c3.194-0.71,25.554-7.808,31.943-9.228c6.389-1.42,8.518,3.194,8.518,3.194
			s-2.484,1.42-7.808,3.904c-5.324,2.484-11.357,6.389-3.549,4.969c7.808-1.42,25.199,1.42,34.782,0.355
			c9.583-1.065,14.197-1.42,30.168-20.585c24.489-22.36,27.684-60.691,27.329-69.919c-0.355-9.228-2.13-7.453,0.71-20.585
			c20.585-12.067,41.88-56.077,41.88-56.077s18.101-3.194,19.521-3.194c1.42,0,1.775,30.878,7.453,55.367
			c-1.775,6.743,1.775,58.207,6.388,66.725c4.614,8.518-0.355,20.94,6.389,34.782c6.743,13.842,30.523,7.098,39.751,4.259
			c9.228-2.839,19.166,2.129,24.844,3.549c5.679,1.42,5.324,0.71,0-3.194c-8.873-7.098-16.681-5.679-22.005-12.422
			c8.518-3.904,25.909,1.065,32.298,1.775c3.379,0.376,5.059,1.44,5.693,1.999c-0.103-0.144-0.225-0.325-0.369-0.579
			C321.014,470.302,308.237,463.913,312.851,464.978z M120.958,172.407c-1.42,3.786-1.42,14.669-2.839,8.991
			c-1.42-5.679-8.518-21.768-9.938-22.242l16.091-4.259C124.271,154.897,122.377,168.621,120.958,172.407z"/>
		<path style="fill:#BAD17D;" d="M322.802,473.365C323.177,473.885,323.243,473.754,322.802,473.365L322.802,473.365z"/>
	</g>
	<path style="fill:#DFE66A;" d="M236.895,53.518c-5.774-1.348-11.593-12.066-6.389-21.768c5.205-9.702,15.378-8.519,19.401-3.313
		c4.023,5.206,5.679,13.25,2.839,17.036C249.908,49.258,243.994,55.174,236.895,53.518z"/>
	<path style="fill:#DFE66A;" d="M277.592,44.999c0.341-5.096,4.023-8.755,8.045-9.938c4.022-1.183,1.892,4.969,1.42,7.098
		c-0.473,2.13,0.24,3.659,0.24,3.659l8.515,7.462c0,0-2.366,7.334-8.755,5.679C280.668,57.304,277.118,52.098,277.592,44.999z"/>
	<path style="fill:#F6F8DD;" d="M290.133,35.299c3.189,2.833,7.808,5.916,7.098,10.647c-0.71,4.732,1.716,8.944-2.928,10.623
		c-4.644,1.68-9.612-9.205-9.139-15.356C285.637,35.062,288.004,33.406,290.133,35.299z"/>
	<path style="fill:#BAD17D;" d="M244.706,127.095c4.969-1.065,22.36,1.775,30.523,8.518c8.163,6.743,33.362,10.647,41.88,15.971
		c8.518,5.324,9.228,3.904,13.842,0c4.614-3.904,28.748-20.585,36.557-23.07c7.808-2.485,10.647-2.839,10.293-4.259
		c-0.355-1.42-6.743-10.293,1.775-12.422c8.518-2.13,12.422-2.839,15.262-3.904c2.839-1.065,11.002-1.42,9.583-4.614
		c-1.42-3.194-5.679-6.388-2.839-5.324c2.839,1.065,8.873,2.484,10.648,2.13s-1.065-5.324-1.775-6.743
		c-0.71-1.42,0.71,1.42,6.743,3.549s8.518,0.71,8.163,2.13c-0.355,1.42-4.259,6.743-4.259,6.743s4.259,1.775-1.42,7.098
		c-5.679,5.324-18.101,12.422-23.07,15.616c-4.969,3.194-9.938,5.679-14.907,11.712s-29.813,29.458-37.621,34.782
		c-7.808,5.324-12.777,4.969-12.777,4.969s-7.453,0.71-9.228,0.71c-1.775,0-30.168,2.484-47.559-2.13
		C257.128,173.944,244.706,127.095,244.706,127.095z"/>
	<path style="fill:#FFFFFF;" d="M213.473,86.279c5.679-2.839,7.098-4.259,14.907,1.42c7.808,5.679,48.272,28.629,56.788,28.866
		c2.838,0.947-0.711,2.367-8.519,2.367c-7.808,0-21.295,0.71-24.134,9.228c-2.839,8.518-3.549,15.616,2.13,22.715
		c5.679,7.098,17.036,11.357,26.264,29.813c9.228,18.456,37.621,40.461,21.295,88.02c-9.228,32.652-11.357,33.362-15.971,36.557
		c-4.614,3.194-42.945,12.422-53.593,13.842c-10.648,1.42-29.103,9.938-30.168,4.614c-1.065-5.324,3.904-11.003-13.842-18.811
		s-26.974-21.295-24.844-47.559c2.13-26.264,29.103-118.543,34.072-128.481S213.473,86.279,213.473,86.279z"/>
	<path style="fill:#ED7342;" d="M222.703,83.913c5.679,0,17.983,8.992,24.135,13.724c6.152,4.732,26.974,17.982,38.331,18.929
		c11.357,0.947,15.614,0.474,10.646-11.83c2.131-4.259,8.284-6.151,10.649-5.679c2.365,0.473,19.4-2.366,17.035-7.808
		c-5.677-3.549-8.991-1.183-13.25-0.71c-4.259,0.473-9.464-1.42-15.142-4.259c-5.679-2.839-26.027-8.518-35.492-7.098
		C250.149,80.601,222.703,83.913,222.703,83.913z"/>
	<g>
		<g>
			<path style="fill:#595959;" d="M277.864,26.612l1.493-1.181c0.276-0.205,0.557-0.439,0.901-0.572
				c0.352-0.146,0.757-0.024,1.087,0.148c0.674,0.356,1.24,0.753,1.916,1.14c0.574,0.338,1.011,0.741,1.367,0.996
				c0.358,0.253,0.776,0.981,0.994,1.949c0.229,0.965,0.263,2.146,0.172,3.278c-0.004,0.056-0.013,0.11-0.017,0.165
				c1.112-0.191,2.26-0.212,3.397-0.089c-0.117-1.75-0.395-3.515-0.966-5.024c-0.593-1.664-1.637-2.914-2.08-3.296
				c-0.201-0.184-0.682-0.6-1.256-0.943l-0.818-0.499c-0.451-0.268-0.945-0.562-1.489-0.798c-0.542-0.238-1.126-0.413-1.755-0.448
				c-0.635-0.041-1.306,0.105-1.904,0.401c-0.607,0.287-1.185,0.743-1.747,1.241l-1.124,0.966c-2.365,1.97-5.302,3.537-6.034,3.938
				c-1.478,0.803-3.451,1.753-4.567,2.254c-1.073,0.495-1.758,5.344,0.527,5.501c2.337,0.123,4.131-2.824,7.24-2.937
				c0.589-0.024,1.44-1.248,2.271-2.631C276.315,28.787,277.086,27.251,277.864,26.612z"/>
			<path style="fill:#595959;" d="M238.472,20.063c0.286-0.064,0.589-0.106,0.925-0.1c0.904,0.017,1.795,0.104,2.667,0.256
				c-0.162-0.571-0.304-1.025-0.398-1.289c-0.275-0.795-1.187-3.239-2.382-5.551l-0.33-0.638c-0.13-0.277-0.28-0.531-0.446-0.764
				c-0.333-0.47-0.591-0.997-1.03-1.319c-0.842-0.717-1.887-1.035-2.837-1.117c-0.964-0.088-1.837,0.053-2.552,0.21
				c-0.494,0.13-0.837,0.274-1.062,0.394c-0.445,0.241-1.642,0.644-3.099,1.3c-1.463,0.65-3.207,1.546-4.92,2.599
				c-3.447,2.082-6.752,4.819-8.101,6.392c-2.767,3.083-6.326,7.128-7.746,8.095c-1.458,0.957-1.137,3.949-2.623,6.132
				c-1.481,2.234,2.762,3.368,4.037,1.531c0.431-0.618,1.542-3.083,3.103-5.619c1.539-2.541,3.552-5.121,5.062-6.144
				c2.957-2.026,4.65-5.325,7.579-6.574c1.439-0.61,3.235-1.806,5.022-2.85c0.891-0.525,1.78-1.006,2.592-1.375
				c0.842-0.374,1.45-0.595,2.069-0.688c0.288-0.042,0.669-0.048,1.056,0.108c0.415,0.145,0.621,0.582,0.876,1.007
				c0.513,0.88,1.018,1.889,1.453,2.912C237.858,18.062,238.228,19.153,238.472,20.063z"/>
			<path style="fill:#595959;" d="M324.351,85.476c-0.24-0.358-0.52-0.731-0.826-1.114c-0.252-0.311-0.514-0.626-0.785-0.928
				c-0.542-0.611-1.12-1.206-1.698-1.772l-0.434-0.419l-0.308-0.334c-0.204-0.218-0.38-0.445-0.557-0.661
				c-0.338-0.442-0.629-0.867-0.836-1.256c-0.212-0.392-1.027-1.067-1.967-2.079c-0.953-1.004-2.002-2.441-3.011-4.349
				c-1.009-1.884-2.074-4.13-3.16-5.91c-1.073-1.797-2.1-3.126-2.539-3.792c-0.876-1.346-2.257-2.881-3.713-4.188
				c-1.45-1.315-2.953-2.423-3.975-3.241c-2.045-1.614-2.491-3.212-3.775-5.328c-0.212-0.345-0.41-0.604-0.609-0.827
				c-0.362,0.287-0.725,0.575-1.099,0.826c-0.125,1.434-0.598,2.932-1.489,4.54c-0.177,0.319-0.424,0.59-0.697,0.83
				c0.462,0.298,0.814,0.674,1.079,1.095c0.395,0.279,0.756,0.525,1.041,0.729c0.006-0.036,3.87,1.484,5.03,2.616
				c1.231,1.033,3.599,3.66,4.406,4.98c0.444,0.637,1.311,2.025,2.032,3.635c0.729,1.601,1.35,3.439,1.777,4.647
				c0.423,1.185,1.525,3.171,2.878,4.94c1.334,1.79,2.902,3.183,3.48,4.149c0.582,0.977,1.264,1.574,2.035,2.106
				c0.383,0.265,0.807,0.519,1.241,0.786c0.415,0.25,0.85,0.547,1.296,0.936c0.891,0.818,2.135,1.428,2.95,2.834
				c0.391,0.682,0.537,1.525,0.352,2.272c-0.172,0.749-0.616,1.39-1.144,1.79c-2.032,1.599-5.796,3.325-8.714,3.826
				c-2.911,0.494-4.572-0.726-6.405-1.306c-1.779-0.573-5.795,3.69-5.84,3.68c0.005,0.012-4.062,0.887-5.296,1.115
				c-1.223,0.252-5.144,2.057-7.647,2.513c-1.257,0.234-1.652,1.02-1.289,1.623c0.349,0.604,1.36,1.081,3.015,0.783
				c3.308-0.593,6.748-0.693,9.249-1.219c2.501-0.532,2.988-2.284,5.311-3.401c2.311-1.131,3.67,0.715,5.905,0.609
				c2.221-0.111,3.66-0.076,3.66-0.073c0.008,0.015,3.574-1.85,5.615-3.022c1.029-0.562,2.056-1.21,2.964-1.945
				c0.421-0.337,0.936-0.801,1.366-1.279c0.423-0.464,0.758-0.92,1.011-1.329c0.503-0.808,1.169-1.967,1.334-3.456
				C325.746,88.634,325.341,86.903,324.351,85.476z"/>
			<path style="fill:#595959;" d="M120.198,182.042c0.584-0.23,1.171-0.446,1.766-0.64c0.894-3.433,2.084-7.567,3.081-11.757
				c0.75-3.187,1.92-7.295,3.178-11.398l1.42-4.503c-2.087,0.625-4.217,1.021-6.411,1.095c-0.37,1.761-0.786,3.683-1.337,5.927
				c-1.249,5.023-2.033,11.864-2.959,18.145c0.013,0.028,0.029,0.049,0.04,0.076C119.384,180.005,119.79,181.023,120.198,182.042z"
				/>
			<path style="fill:#595959;" d="M135.605,298.982c-0.244-1.421-0.617-3.309-1.24-5.848c-2.365-10.306-5.207-20.7-7.962-28.133
				c-1.329-3.661-2.584-5.975-3.893-8.306c-1.093-1.965-2.224-3.953-3.301-6.779c-0.403,1.906-0.796,3.816-1.18,5.727
				c-0.06,0.295-0.161,0.546-0.269,0.787c0.509,0.921,0.833,1.465,0.833,1.465c-0.007,0.002,0.969,3.204,2.244,6.829
				c1.313,3.634,2.74,7.566,3.364,9.446c0.632,1.855,2.295,5.772,3.905,10.232c1.665,4.45,3.016,9.48,4.206,13.394
				c0.616,1.953,1.407,3.22,2.033,3.849c0.632,0.633,1.105,0.661,1.318,0.192C135.884,301.365,135.841,300.401,135.605,298.982z"/>
			<path style="fill:#595959;" d="M175.052,52.028l-5.125,5.306l-7.8,8.316c-1.883,1.906-4.869,5.09-7.657,8.455
				c-2.803,3.351-5.385,6.883-6.904,9.102c-1.538,2.204-4.675,6.989-7.534,12.308c-0.753,1.38-1.485,2.794-2.186,4.197
				c2.297-0.595,4.658-1.056,7.085-1.414c2.504-5.239,4.88-9.246,6.143-11.104c2.509-3.752,5.887-8.483,9.526-12.833
				c3.623-4.359,7.474-8.345,10.351-11c5.78-5.293,9.669-6.791,15.523-9.943c5.896-3.119,6.541-4.437,8.859-12.082
				C197.66,33.739,181.183,46.807,175.052,52.028z"/>
			<path style="fill:#595959;" d="M258.849,148.84c2.1,4.617,4.737,8.376,7.28,11.918c2.558,3.538,5.087,6.872,7.383,10.514
				c1.148,1.82,2.238,3.714,3.236,5.736c0.499,1.011,0.975,2.055,1.423,3.137l0.33,0.818l0.394,0.945
				c0.277,0.626,0.575,1.233,0.889,1.832c2.53,4.734,5.736,9.305,9.136,14.737c6.817,10.821,9.48,17.537,11.36,23.167
				c0.918,2.828,1.601,5.415,2.229,8.259c0.617,2.845,1.195,5.949,1.654,9.858c0.446,3.911,0.516,6.67,0.509,8.929
				c-0.013,2.261-0.121,4.03-0.319,5.984c-0.205,1.953-0.502,4.097-1.118,7.074c-0.632,2.971-1.565,6.792-3.458,11.936
				c-1.927,5.13-3.207,7.563-3.735,8.718c-0.556,1.143-0.452,0.975-0.247,0.639c0.207-0.336,0.517-0.841,0.373-0.369
				c-0.152,0.467-0.707,1.94-2.5,5.439c-3.642,6.969-6.476,11.744-8.194,14.909c-1.747,3.148-2.428,4.651-2.419,4.656
				c4.079-3.597,8.004-7.448,11.705-11.608c5.88-10.471,10.257-21.913,11.988-33.823c-0.033,0.018,1.808-8.065,1.422-17.982
				c-0.165-4.94-0.864-10.277-1.961-15.1c-1.078-4.83-2.509-9.141-3.693-12.207c-2.328-6.151-5.816-13.599-9.588-20.364
				c-3.702-6.753-7.699-13.011-9.376-16.922l-0.732-1.757c-0.287-0.656-0.606-1.339-0.961-2.04
				c-0.703-1.404-1.548-2.877-2.508-4.389c-1.92-3.026-4.359-6.137-6.955-9.253c-2.589-3.126-5.327-6.289-7.628-9.699
				c-2.313-3.396-4.115-7.094-5.035-10.854c-0.912-3.754-1.167-6.479-1.5-8.099c-0.305-1.621-0.668-2.152-1.09-1.556
				c-0.41,0.593-0.894,2.328-0.918,5.217C256.207,140.104,256.749,144.21,258.849,148.84z"/>
			<path style="fill:#595959;" d="M121.106,361.589c0.056,1.059,1.402,4.45,1.65,6.509c0.243,2.076,2.85,1.378,2.55-1.316
				c-0.288-2.714,0.061-5.462-0.029-7.487c-0.089-2.025-1.704-2.657-2.265-4.726c-0.534-2.075,1.621-2.742,2.207-4.406
				c0.597-1.672,1.195-2.638,1.195-2.64c-0.01,0.004-0.342-3.046-0.159-4.723c0.17-1.672,0.38-3.341,0.528-4.338
				c0.141-1.002,0.923-2.577,1.228-4.219c0.293-1.651,1.373-4.165,2.289-5.651c0.451-0.746,0.761-4.252,1.252-7.898
				c0.473-3.642,1.076-7.429,1.464-8.57c0.782-2.273,1.522-6.059,2.117-8.091c0.593-2.037,1.901-2.762,3.311-4.493
				c0.704-0.874,0.915-1.512,0.506-2.181c-0.409-0.653-1.439-1.416-3.334-2.281c-0.952-0.417-1.652-0.31-2.171-0.026
				c-0.513,0.291-0.865,0.783-1.137,1.364c-0.538,1.152-0.873,2.79-1.109,3.73c0.039-0.031,0.194,3.428-0.263,4.744l-1.862,5.518
				c-0.453,1.3-1.901,5.577-2.508,7.585c-0.653,2.01-0.408,7.129-1.313,8.677c-0.93,1.566-0.643,2.71-1.062,4.75
				c-0.43,2.062,0.642,5.387-0.159,7.345c-0.821,1.978-1.174,5.423-1.855,7.815c-0.688,2.393-2.311,3.388-3.424,4.796
				c-1.129,1.445,2.135,5.695,2.156,5.659C120.895,357.037,121.023,360.541,121.106,361.589z"/>
			<path style="fill:#595959;" d="M199.937,322.31c-0.549,2.675-1.898,4.18-3.074,7.539c-0.603,1.687-1.46,3.763-2.365,5.642
				c-0.901,1.88-1.834,3.564-2.4,4.546c-1.112,1.975-3.122,5.017-3.933,6.124c-0.805,1.124-2.333,1.654-3.598,4.74
				c-1.32,3.081-1.945,3.806-4.148,6.193c-2.174,2.401-6.243,7.635-9.124,10.091c-2.845,2.469-5.748,4.868-10.273,8.294
				c-2.265,1.708-1.536,5.884,1.138,3.883c2.677-2.014,3.43-2.607,5.533-3.054c2.111-0.434,5.887-3.553,6.713-5.557
				c0.851-1.935,7.109-5.182,8.818-7.003c1.751-1.74,4.668-6.381,6.178-8.296c0.774-0.949,1.884-1.948,3.099-3.581
				c1.201-1.631,2.541-3.899,3.519-7.318c0.218-0.764,0.517-1.72,1.206-3.34c0.668-1.63,1.763-3.908,3.227-7.498
				c0.77-1.804,1.073-5.766,1.407-7.139c0.18-0.689,1.072-2.197,1.526-4.022c0.469-1.813,0.495-3.93-0.808-5.453
				c-1.299-1.504-1.831-0.819-2.062,0.503C200.271,318.936,200.21,320.975,199.937,322.31z"/>
			<path style="fill:#595959;" d="M119.95,481.333c-0.657,0.326-2.03,1.216-3.793,1.922c-1.747,0.727-3.849,1.251-5.454,1.345
				c-1.597,0.09-2.274,0.74-1.992,1.414c0.28,0.652,1.572,1.348,3.872,1.115c2.286-0.241,4.606-0.575,6.766-1.2
				c2.156-0.612,4.13-1.533,5.625-2.606c1.495-1.084,2.112-2.242,2.579-3.398c0.465-1.169,0.775-2.367,1.514-3.864
				c1.389-2.988,3.725-2.918,5.528-5.184c1.748-2.258,2.927-3.523,2.931-3.52c0.011-0.01,1.639-4.688,2.888-7.047
				c1.234-2.382,2.576-4.668,3.427-6.007c0.815-1.298,2.85-3.343,4.333-5.69c1.504-2.341,4.278-5.905,6.106-8.183
				c0.907-1.111,3.382-6.743,4.739-12.915c1.446-6.167,1.443-12.521,1.578-14.475c0.383-3.974-0.238-10.139-0.476-13.452
				c-0.209-3.324,0.706-5.067,1.478-7.965c0.768-2.891,0.158-3.424-3.913-5.675c-4.062-2.206-2.929,6.422-2.698,9.633
				c0.018-0.008,1.504,5.296,1.536,7.464c0.107,2.159,0.044,6.989-0.158,9.11c-0.078,1.063-0.277,3.321-0.678,5.672
				c-0.385,2.355-0.995,4.794-1.447,6.316c-0.438,1.521-0.9,4.163-1.629,6.712c-0.711,2.548-1.654,4.987-2.527,6.061
				c-1.751,2.139-2.088,3.812-3.792,6.617c-1.667,2.802-3.117,7.771-5.3,10.275c-2.211,2.517-4.725,7.456-6.85,10.697
				c-2.15,3.234-4.32,3.991-6.243,5.285c-0.964,0.65-1.47,2.621-1.927,4.385c-0.433,1.768-0.885,3.39-0.89,3.393
				c-0.004-0.005-0.846,0.923-1.962,1.789C122.017,480.246,120.622,481.023,119.95,481.333z"/>
			<path style="fill:#595959;" d="M121.394,380.698c-0.467,2.477-0.205,8.439-1.239,11.131c-1.029,2.693-1.557,7.126-1.755,8.789
				c-0.198,1.663,0.176,4.518,0.421,8.478c0.248,3.96,0.313,3.404-0.843,7.198c-1.16,3.795-0.742,10.699-2.351,8.146
				c-3.042-4.827-0.148-11.249-0.592-13.544c-0.444-2.301,0.459-3.881,0.15-7.289c-0.309-3.41-0.815-5.157-1.126-8.563
				c-0.312-3.404,2.064-5.371,1.736-8.772c-0.341-3.388,0.02-0.014-0.051-6.139c-0.039-3.081,1.632-4.66,3.194-4.853
				C120.554,374.911,122.165,376.846,121.394,380.698z"/>
			<path style="fill:#595959;" d="M116.219,432.337c-0.428,4.413-1.75,3.187-1.411,7.659c0.404,4.43,1.385,0.118,0.434,4.401
				c-0.434,2.094-1.442,2.466-2.437,2.031c-0.987-0.457-1.847-1.927-1.763-3.339c0.183-2.811,0.076-1.696,0.564-7.279
				C112.132,430.225,116.678,427.919,116.219,432.337z"/>
			<path style="fill:#595959;" d="M281.646,317.123c1.192-1.93,1.452-4.133,1.41-6.136c-0.036-2.016-0.341-3.821,0.006-5.432
				c0.328-1.612,1.632-1.673,2.924-0.917c1.291,0.736,2.482,2.367,2.497,3.526c0.026,1.143,0.003,2.755-0.186,4.459
				c-0.175,1.703-0.502,3.483-0.847,4.991c-0.165,0.757-0.621,2.606-1.267,4.882c-0.642,2.283-1.432,4.996-2.059,7.697l-0.23,1.012
				l-0.051,0.233l-0.011,0.066l-0.058,0.489c-0.092,0.739-0.197,1.474-0.322,2.197c-0.247,1.443-0.581,2.848-1.012,4.113
				c-0.427,1.266-0.966,2.369-1.409,3.158c-0.446,0.794-0.767,1.296-0.927,1.565c-0.333,0.571-1.213,1.769-2.006,3.607
				c-0.403,0.927-0.797,2.038-1.149,3.27c-0.325,1.171-0.722,2.773-1.162,4.177c-1.754,5.773-4.116,11.475-4.658,13.894
				c-0.513,2.411-2.23,3.6-3.668,3.684c-0.721,0.049-1.289-0.249-1.611-0.632c-0.327-0.39-0.51-0.763-0.374-1.223
				c0.288-0.892,1.312-3.233,2.206-5.542c0.907-2.303,1.723-4.54,1.933-5.123c0.204-0.582,1.949-3.809,3.347-7.413
				c0.668-1.779,1.314-3.777,2.01-5.335c0.672-1.587,1.344-2.821,1.59-3.535c0.474-1.485,2.196-3.719,2.97-6.429
				c0.424-1.346,0.728-2.76,0.947-4.039c0.13-0.632,0.155-1.249,0.319-1.826l0.352-1.442
				C281.897,325.835,280.841,318.481,281.646,317.123z"/>
			<path style="fill:#595959;" d="M201.003,319.394c0.41,1.239-0.256,3.662-0.797,5.684c-0.532,2.018-0.842,3.663,0.758,3.352
				l6.221-1.103c2.203-0.417,4.179-0.868,4.979-0.968c0.801-0.095,2.95-0.484,5.511-1.165c2.565-0.669,5.529-1.651,8.077-2.61
				c2.55-0.951,5.489-2.286,8.098-3.912c2.619-1.607,4.886-3.51,6.274-5.124c1.389-1.61,1.998-2.701,2.504-3.681
				c0.492-0.99,0.877-1.895,1.485-3.355c0.591-1.489-0.255-2.279-1.212-2.204c-0.98,0.082-2.024,0.851-2.62,2.805
				c-0.618,1.981-1.937,3.835-3.481,5.334c-1.55,1.506-3.311,2.676-4.865,3.58c-1.542,0.936-5.6,2.47-9.667,3.266
				c-4.061,0.862-8.041,1.058-9.332,1.236c-2.566,0.401-5.759,1.547-8.109,1.017C202.458,321.013,201.689,318.038,201.003,319.394z"
				/>
			<path style="fill:#595959;" d="M225.785,321.882c-1.005,0.964-3.551,0.941-5.632,1.104c-2.082,0.159-3.714,0.45-2.948,1.777
				c0.76,1.339,1.646,3.613,2.279,5.806c0.638,2.19,1.047,4.282,1.113,5.126l0.596,5.96c0.245,2.811,0.548,6.368,1.156,9.423
				c0.566,3.097,1.698,6.486,2.727,9.572c0.538,1.6,1.016,2.95,1.305,4.252c0.308,1.298,0.471,2.512,0.613,3.587
				c0.264,2.153,0.476,3.585,0.851,4.786c0.376,1.206,0.793,2.267,1.63,3.847c0.889,1.578,2.063,1.398,2.55,0.542
				c0.252-0.43,0.365-1.025,0.285-1.699c-0.073-0.684-0.342-1.419-0.846-2.363c-1.045-1.884-1.138-4.645-1.568-7.251
				c-0.383-2.623-1.202-5.063-1.819-7.006c-0.584-2.001-1.855-6.803-1.911-11.378c-0.062-2.307,0.089-4.604,0.164-6.595
				c0.08-1.974,0.107-3.563,0.053-4.354c-0.198-3.181-1.539-6.958-1.529-9.825C224.884,324.332,227.319,322.307,225.785,321.882z"/>
			<path style="fill:#595959;" d="M258.419,449.213c1.456-4.021,0.984-12.099,1.416-15.578c0.105-0.873,0.194-2.098,0.377-3.481
				c0.165-1.416,0.574-2.888,0.871-4.365c0.653-2.933,1.342-5.722,2.096-6.827c0.758-1.104,1.687-5.01,2.361-8.647
				c0.677-3.637,1.12-6.998,1.12-6.998l1.007-5.035c0.258-1.334,0.548-2.83,0.843-4.078c0.247-1.273,0.293-2.419,0.288-3.159
				c0.061-3.005-1.243-7.785-1.853-11.544c-0.359-1.856-1.47-3.599-2.113-5.368c-0.642-1.743-0.799-3.48,0.737-4.711
				c3.136-2.363,3.99,0.214,5.762,3.433c1.797,3.27,2.385,5.108,1.31,6.588c-1.056,1.551-1.044,2.807-0.647,5.63
				c0.094,0.726,0.428,1.962,0.775,3.72c0.349,1.737,0.607,4.096,0.351,6.498c-0.324,3.691-0.57,7.702-0.998,9.66
				c-0.789,3.975-3.617,12.178-3.637,12.17l-0.948,3.944c-0.485,1.969,0.18,3.185-0.329,5.157c-0.495,1.997-3.071,3.92-2.285,5.233
				c0.702,1.456,0.485,3.24,0.198,6.229c-0.311,3.032-2.256,3.842-1.805,7.155c0.409,3.411-1.317,6.165-2.493,8.481
				c-0.631,1.206-1.528,0.815-2.043-0.186C258.268,452.122,257.942,450.666,258.419,449.213z"/>
			<path style="fill:#595959;" d="M233.73,381.632c-0.56-0.241-1.38-0.659-2.181-1.313c-0.805-0.639-1.585-1.52-2.211-2.38
				c-0.641-0.848-1.165-1.665-1.825-1.838c-0.638-0.191-1.558,0.381-2.088,1.917c-1.067,3.073-1.18,6.951-1.013,10.336
				c0.163,3.393,0.557,6.373,0.617,7.579c0.058,1.205,0.385,4.432,0.997,8.311c0.304,1.941,0.668,4.047,1.073,6.164l0.627,3.13
				l0.502,2.975l1.941,12.908c0.351,2.223,0.704,4.289,1.092,6.351c0.545,2.273,1.273,3.872,1.877,5.311
				c1.237,2.79,1.978,4.311,2.574,5.733c0.556,1.415,1.155,2.698,1.19,4.947c-0.021,1.111-0.008,1.88,0.186,2.383
				c0.204,0.499,0.628,0.713,1.231,0.406c0.592-0.293,1.325-1.194,1.643-2.581c0.315-1.371,0.183-3.12-0.534-4.823
				c-1.425-3.383-3.118-6.449-4.288-9.57c-0.286-0.76-0.559-1.573-0.724-2.263l-0.416-2.364l-0.677-4.454
				c-0.416-2.785-0.794-9.398-1.438-15.992c-0.77-6.378-0.9-12.58-1.038-14.609c-0.331-4.035-1.345-9.096-0.316-12.457
				c0.5-1.662,1.664-2.587,2.468-2.96C233.82,382.075,234.214,382.178,233.73,381.632z"/>
			<path style="fill:#595959;" d="M277.784,39.87c-0.532-0.284-1.037-0.551-1.478-0.785c-3.031-1.648-6.114-3.142-10.696-5.56
				c-2.292-1.215-6.096-2.696-9.967-3.976c-1.477-0.492-2.947-0.96-4.356-1.4c0.865,1.651,1.486,3.415,1.813,5.299
				c1.025,0.431,1.976,0.865,2.771,1.122c1.191,0.38,3.712,1.044,6.104,1.755c2.396,0.702,4.663,1.47,5.426,1.797
				c0.765,0.319,3.63,1.544,6.416,3.024c1.248,0.648,2.468,1.353,3.516,1.987C277.341,42.021,277.486,40.928,277.784,39.87z"/>
			<path style="fill:#595959;" d="M213.257,82.253c5.589-0.145,14.467-1.667,23.279-2.863c8.822-1.243,17.707-1.977,23.354-1.834
				c5.641,0.103,10.35,0.437,14.574,1.003c4.22,0.57,7.968,1.351,11.617,2.558c1.802,0.586,4.022,1.445,6.221,2.503
				c2.139,0.982,4.524,1.945,7.046,2.731c2.522,0.785,5.181,1.385,7.832,1.632c2.672,0.268,5.227,0.108,7.979-0.182
				c1.387-0.13,2.736-0.212,4.021-0.019c1.287,0.184,2.393,0.689,3.072,1.195c1.366,1.045,1.503,1.741,1.35,1.902
				c-0.194,0.194-0.796-0.076-1.75-0.412c-0.954-0.354-2.3-0.581-3.695-0.43c-1.404,0.114-3.021,0.503-4.818,0.773
				c-1.791,0.28-3.759,0.431-5.701,0.364c-3.899-0.114-7.597-1.078-9.802-1.86c-1.109-0.385-3.361-1.237-6.063-2.521
				c-1.375-0.657-2.753-1.368-4.291-1.974c-1.529-0.615-3.165-1.157-4.823-1.607c-6.649-1.831-13.542-2.025-15.346-2.091
				c-1.819-0.074-7.068,0.036-12.52,0.616c-5.454,0.538-11.109,1.425-13.833,1.797c-5.465,0.71-14.672,1.038-20.932,3.581
				c-3.153,1.267-4.875,1.509-6.104,1.261c-1.23-0.258-2.003-0.991-3.398-1.958c-1.418-0.989-2.057-2.209-1.694-2.972
				C209.21,82.65,210.275,82.335,213.257,82.253z"/>
			<path style="fill:#595959;" d="M293.033,115.49c1.31,0.014,2.3-0.401,2.729-1.219c0.481-0.832,0.449-2.197,0.144-3.494
				c-0.635-2.654-2.012-5.112-2.738-7.323c-0.377-1.11-0.348-1.727-0.006-1.998c0.322-0.301,0.958-0.236,1.696,0.094
				c1.482,0.638,3.333,2.422,3.936,3.969c0.588,1.533,1.435,3.706,1.549,6.528c0.033,1.397-0.176,3.073-1.111,4.593
				c-0.921,1.531-2.495,2.512-3.775,2.948c-0.646,0.238-1.792,0.561-3.229,0.653c-1.438,0.103-3.144-0.015-4.958-0.35
				c-3.637-0.663-7.707-2.165-11.583-3.895c-7.746-3.483-14.833-7.75-16.436-8.652c-1.601-0.907-8.45-5.259-15.562-9.806
				c-7.109-4.558-14.669-9.043-17.781-10.112c-3.085-1.135-4.712-2.557-5.403-3.715c-0.696-1.135-0.334-2.16,1.276-1.833
				c1.596,0.306,5.184,1.869,8.421,3.631c3.255,1.741,6.258,3.563,7.046,4.032c1.612,0.914,17.255,12.637,21.172,14.398
				c1.94,0.905,5.476,2.981,9.125,5.015c3.641,2.045,7.422,3.997,9.652,4.96c2.217,0.977,5.871,1.775,9.127,1.97
				c1.625,0.107,3.13,0.053,4.287-0.079C291.776,115.677,292.569,115.48,293.033,115.49z"/>
			<path style="fill:#595959;" d="M264.845,70.577c12.167,0.379,18.194,1.388,19.37,1.782c1.176,0.446-2.479,0.381-9.735-0.074
				c-7.259-0.434-14.531-0.657-22.09-0.516c-7.546,0.172-15.428,0.603-23.674,2.227c-2.067,0.415-3.843,0.88-5.487,1.321
				l-4.297,1.085c-2.475,0.598-4.187,0.956-5.241,1.124c-2.11,0.332-1.593-0.103,0.667-1.063c2.26-0.962,3.973-1.599,6.585-2.393
				c2.584-0.766,6.157-1.921,12.232-2.778c6.07-0.909,14.019-1.224,20.415-1.131C259.989,70.235,264.845,70.587,264.845,70.577z"/>
			<path style="fill:#595959;" d="M195.446,82.122c0.774-0.889,1.6-1.231,2.257-1.528c0.671-0.281,1.235-0.442,1.689-0.557
				c0.91-0.22,1.382-0.234,1.421-0.113c0.039,0.124-0.362,0.384-1.181,0.796c-0.408,0.211-0.923,0.456-1.51,0.783
				c-0.575,0.33-1.277,0.729-1.769,1.364c-0.489,0.631-0.52,1.447-0.379,2.309c0.162,0.862,0.336,1.781,0.733,2.528
				c0.793,1.566,2.419,2.7,4.281,3.615c3.765,1.843,8.526,3.095,14.098,5.555c2.787,1.24,4.195,2.173,4.45,2.41
				c0.244,0.263-0.66-0.155-2.744-1.047c-2.084-0.901-5.393-2.135-9.988-3.577c-2.282-0.773-4.929-1.493-7.725-3.022
				c-1.36-0.777-2.85-1.895-3.646-3.671c-0.392-0.915-0.562-1.747-0.708-2.692c-0.061-0.477-0.093-0.995-0.003-1.556
				C194.811,83.161,195.069,82.573,195.446,82.122z"/>
			<path style="fill:#595959;" d="M248.487,138.805c-0.19,2.138-0.191,4.011-0.204,5.642c-0.029,1.66,0.024,2.958-0.252,4.378
				c-0.049,0.195-0.097,0.397-0.232,0.679c-0.067,0.135-0.173,0.319-0.366,0.503c-0.202,0.199-0.548,0.359-0.858,0.371
				c-0.589-0.002-0.796-0.207-0.975-0.317c-0.166-0.128-0.275-0.242-0.372-0.351c-0.365-0.433-0.548-0.792-0.704-1.115
				c-0.3-0.643-0.396-1.111-0.378-1.42c0.043-0.623,0.575-0.594,1.35-0.083c0.376,0.232,0.873,0.666,1.267,0.916l0.083,0.035
				c-0.227,0.342-0.359,0.692-0.383,0.855c-0.031,0.194,0.058,0.177-0.085,0.048c-0.127-0.121-0.464-0.27-0.911-0.405
				c0.018-0.064,0.06-0.531,0.076-0.941c0.068-3.634-0.13-7.609,0.541-11.29c0.607-3.697,2.079-7.204,4.216-9.716
				c2.102-2.532,4.846-4.459,7.765-5.743c2.927-1.297,6.021-2.001,9.096-2.313c3.089-0.351,7.688-0.102,10.487,0.427
				c2.809,0.525,3.872,1.015,0.161,1.031c-3.714,0.088-6.29,0.487-8.973,1.032c-2.662,0.588-5.522,1.203-9.358,2.897
				c-1.906,0.865-3.822,2.062-5.403,3.555c-1.592,1.482-2.823,3.257-3.652,4.965C248.771,135.886,248.527,138.835,248.487,138.805z"
				/>
			<path style="fill:#595959;" d="M155.755,90.446c3.642-0.789,6.376,2.956,2.465,3.754c-3.928,0.833-6.504,3.648-8.92,3.749
				c-2.435,0.068-10.093,2.307-15.456,4.92c-2.691,1.27-8.371,3.542-13.459,6.046c-5.105,2.468-9.612,5.118-10.487,5.95
				c-0.883,0.825-3.914,2.821-6.866,4.923c-2.961,2.086-5.834,4.285-6.757,5.01c-0.926,0.718-3.696,2.735-6.634,5.181
				c-2.949,2.431-6.046,5.306-7.932,7.305c-3.806,3.948-8.164,8.537-9.391,11.065c-1.219,2.512-3.484-0.594-2.264-2.214
				c0.603-0.803,3.016-4.151,5.788-7.482c2.755-3.347,5.876-6.655,7.191-7.907c2.59-2.546,6.57-5.988,8.784-7.089
				c1.102-0.559,3.685-2.463,6.413-4.419c2.716-1.974,5.582-3.999,6.974-5.182c1.389-1.188,3.854-3.153,6.608-4.969
				c2.746-1.826,5.776-3.495,8.083-4.299c4.585-1.599,8.837-5.104,14.389-6.544c2.756-0.722,7.43-2.694,11.82-4.38
				C150.484,92.16,154.557,90.708,155.755,90.446z"/>
			<path style="fill:#595959;" d="M67.239,161.115c-1.939-3.659,0.772-7.559,2.855-3.563c2.106,3.995,5.684,6.135,6.538,8.741
				c0.841,2.62,5.326,10.437,9.246,15.98c1.942,2.78,5.55,8.773,8.837,14.412c3.304,5.624,6.153,10.984,6.997,12.107
				c0.86,1.111,2.927,4.855,4.597,8.906c1.721,4.018,2.788,8.463,2.985,9.963c0.114,0.767,0.337,2.146,0.335,4.206
				c-0.017,2.005-0.33,4.811-1.959,7.426c-0.801,1.281-1.877,2.414-3.02,3.271c-1.141,0.873-2.325,1.501-3.436,2.014
				c-2.232,1.008-4.198,1.604-5.668,2.142c-2.948,1.031-5.838,2.072-7.593,3.618c-1.784,1.492-2.464,3.464-2.47,4.766
				c0.004,1.271-0.764,1.601-1.606,1.316c-0.815-0.272-1.655-1.305-1.36-2.444c0.153-0.546,0.474-2.014,1.518-3.693
				c1.015-1.695,2.896-3.399,5.087-4.582c2.179-1.212,4.558-2.056,6.534-2.825c1.987-0.754,3.566-1.461,4.423-1.921
				c1.739-0.876,3.639-2.307,4.586-4.229c0.994-1.894,1.166-4.011,1.362-5.344c0.241-1.344-0.116-5.004-1.31-8.614
				c-1.141-3.623-2.906-7.185-4.008-8.903l-5.005-7.731c-1.981-3.078-4.012-6.318-5.153-8.786
				c-2.282-4.936-6.659-9.162-9.432-14.884c-1.386-2.859-4.586-7.538-7.549-11.859C70.602,166.29,67.878,162.324,67.239,161.115z"/>
			<path style="fill:#595959;" d="M103.768,156.071c-1.195-2.736,1.869-6.05,3.295-2.923c1.382,3.128,4.351,4.897,4.628,7.024
				c0.293,2.116,2.712,8.544,4.798,13.309c1.063,2.374,2.666,7.489,3.939,12.295c1.295,4.801,2.265,9.286,2.734,10.251
				c0.476,0.962,1.257,4.087,1.856,7.257c0.611,3.167,1.027,6.375,1.149,7.416c0.128,1.041,0.358,4.097,0.451,7.514
				c0.11,3.415,0.05,7.187,0.004,9.645c-0.032,4.936-1.167,10.479-1.073,12.995c0.105,2.547-3.316,0.831-3.052-0.825
				c0.14-0.84,0.499-4.32,0.566-7.976c0.094-3.655-0.09-7.473-0.143-8.998c-0.068-3.057-0.416-7.451-0.125-9.539
				c0.157-1.045-0.018-3.781-0.449-6.614c-0.42-2.835-1.091-5.756-1.644-7.212c-1.066-2.938-3.764-9.956-4.368-14.005
				c-0.575-4.086-3.351-7.855-4.362-12.507c-0.503-2.336-2.282-6.217-4.115-9.677C106.034,160.03,104.168,156.988,103.768,156.071z"
				/>
			<path style="fill:#595959;" d="M147.255,136.923c0.513-0.441,1.579-0.01,2.429,0.623c0.853,0.623,1.471,1.51,0.821,2.1
				c-1.244,1.113-1.041,3.598-2.2,3.815c-1.138,0.222-3.908,2.162-5.846,3.914c-0.959,0.892-3.269,2.214-5.466,3.31
				c-2.193,1.108-4.26,2.014-4.628,2.457c-0.713,0.933-5.677,2.875-6.66,3.174c-0.968,0.374-5.845,1.389-8.148,1.965
				c-2.306,0.627-5.066,0.708-6.118,1.462c-1.061,0.759-1.289-2.941-0.488-3.11c0.828-0.128,6.477-2.051,7.879-2.514
				c1.425-0.408,3.458-1.058,4.565-0.885c1.113,0.204,5.187-1.305,6.346-2.39c1.198-1.045,4.015-3.481,5.977-3.918
				c2.003-0.437,3.09-2.831,5.271-3.562c1.105-0.37,2.606-1.806,3.813-3.258C146.021,138.657,146.922,137.215,147.255,136.923z"/>
			<path style="fill:#595959;" d="M294.755,74.524c4.732,0,4.732,4.26,1.42,4.732C292.863,79.729,293.809,74.524,294.755,74.524z"/>
			<path style="fill:#595959;" d="M256.247,52.143c0.355-2.129,5.324-4.613,6.743-2.839c1.42,1.774,5.679,1.775,5.679,3.194
				c0,1.419,4.614,3.549,5.679,3.549c1.065,0-0.71,0.71,1.065,1.775c1.775,1.065,0.355,2.129,3.549,4.259
				c3.194,2.13,3.904,4.613,2.839,3.903c-1.065-0.709-4.259-3.193-5.324-3.903c-1.065-0.71-3.194-1.775-3.194-1.775
				s0.875-0.959-1.775-1.775c-4.614-1.42-3.904,0-7.098-1.42c-3.194-1.419-4.614-2.484-6.743-2.839
				C255.537,53.917,256.247,52.143,256.247,52.143z"/>
			<path style="fill:#595959;" d="M196.345,44.522c3.04-2.028,8.518-4.97,11.357-5.324c2.839-0.355,5.324,3.194,3.194,4.614
				c-2.13,1.42-2.839,0.71-5.324,2.839c-2.484,2.13-1.775,2.839-4.614,4.614C198.119,53.04,193.15,46.651,196.345,44.522z"/>
			<path style="fill:#595959;" d="M160.214,82.648c3.887-2.159,8.873-9.583,8.518-5.324s-1.42,4.615-2.484,7.099
				c-1.065,2.484-2.839,5.324-2.839,5.324S157.019,84.423,160.214,82.648z"/>
			<path style="fill:#595959;" d="M137.173,320.127c14.197,5.679,19.876,5.679,26.5,5.679c6.626,0,2.841,11.357-9.464,10.41
				c-12.304-0.946-14.197-1.892-21.769,0.947C124.869,340.003,137.173,320.127,137.173,320.127z"/>
			<path style="fill:#595959;" d="M132.44,349.467c8.743-3.747,17.982-3.786,17.982,0.946c0,4.732-4.732,6.626-10.411,7.572
				S125.814,352.306,132.44,349.467z"/>
			<path style="fill:#595959;" d="M128.654,373.128c-7.233,3.617,0,6.625,5.679,5.679
				C140.011,377.861,132.44,371.235,128.654,373.128z"/>
			<path style="fill:#595959;" d="M272.515,323.913c-9.465,4.732-9.464,4.732-16.089,6.625c-6.626,1.893-7.573-2.839-12.304-1.892
				c-4.732,0.946-6.626,4.732-0.947,7.571c5.679,2.839,4.733,5.679,10.412,5.679c5.679,0,1.892-0.946,9.464-3.786
				c7.573-2.839,5.679,3.786,11.357-2.839C280.086,328.645,272.515,323.913,272.515,323.913z"/>
			<path style="fill:#595959;" d="M246.959,350.413c8.518,0.947,9.465-0.947,16.091-2.839c6.624-1.892,8.518,4.732,2.839,5.679
				s-6.626,4.733-14.197,3.786C244.12,356.092,246.959,350.413,246.959,350.413z"/>
			<path style="fill:#595959;" d="M246.961,368.396c7.571-2.839,10.41-7.571,11.357-2.839c0.947,4.732,0.945,6.625-5.679,6.625
				C246.014,372.182,246.961,368.396,246.961,368.396z"/>
			<path style="fill:#595959;" d="M121.31,252.53c-0.591,2.082-1.058,4.417-2.235,7.002c-0.596,1.28-1.51,2.599-2.722,3.614
				c-1.206,1.023-2.605,1.745-4.039,2.329c-1.433,0.584-2.946,1.038-4.467,1.457c-1.494,0.416-3.028,0.88-4.603,1.389
				c-3.155,0.994-6.46,2.288-10.211,3.14c-3.756,0.866-7.488,0.839-10.775,0.395c-3.233-0.466-6.161-0.76-8.788-0.901l-3.692-0.146
				c-0.318-0.023-0.527-0.002-1.014-0.104l-0.165-0.058l-0.096-0.046l-0.047-0.026l-0.143-0.117
				c-0.187-0.202-0.298-0.407-0.251-0.751c0.013-0.144,0.125-0.347,0.147-0.367l0.083-0.098c0.151-0.154,0.191-0.158,0.25-0.202
				l0.146-0.08c0.171-0.087,0.297-0.137,0.43-0.191c0.516-0.217,1.111-0.387,1.653-0.44c1.055-0.087,1.801-0.082,2.521-0.161
				c0.703-0.064,1.298-0.144,1.775-0.212c3.813-0.523,10.738-1.949,7.01-0.691c-1.869,0.609-3.962,1.148-5.991,1.545
				c-1.015,0.197-2.014,0.357-2.963,0.465c-0.941,0.12-1.863,0.12-2.554,0.29c-0.347,0.087-0.672,0.216-1.001,0.366l-0.237,0.111
				l-0.099,0.054l-0.028,0.018l-0.012,0.008l-0.086-0.13c-0.255-0.248-0.204-0.048-0.092-0.293l0.074-0.181l0.005-0.034l0.035,0.005
				l0.236,0.022l2.403,0.075c1.772,0.063,3.937,0.162,7.082,0.411c1.574,0.107,3.3,0.343,5.027,0.433
				c1.74,0.085,3.534,0.04,5.271-0.207c3.479-0.468,6.703-1.734,9.261-2.701c2.554-0.981,4.827-1.695,7.305-2.394
				c1.249-0.363,2.533-0.673,3.846-1.131c1.316-0.462,2.731-1.045,4.025-1.971c2.588-1.847,2.99-4.321,3.462-6.225
				c0.41-1.919,0.685-3.277,1.112-3.979c0.851-1.408,1.636,0.347,3.717-3.962c1.069-2.132,0.896-0.971,0.48,0.717
				C121.942,250.264,121.311,252.527,121.31,252.53z"/>
			<path style="fill:#595959;" d="M81.76,268.478c-0.702,0.183-1.467,0.385-2.344,0.532c-0.875,0.146-1.91,0.198-2.948-0.011
				c-2.103-0.447-3.729-1.687-5.26-2.956c-1.518-1.34-3.02-2.674-4.536-4.524c-0.172-0.219-0.381-0.506-0.61-0.891
				c-0.208-0.36-0.377-0.742-0.463-1.139c-0.202-0.798,0.104-1.671,0.74-2.22c0.288-0.279,0.715-0.552,1.002-0.735
				c0.248-0.157,0.474-0.301,0.679-0.45l0.287-0.225c0.086-0.07,0.165-0.14,0.333-0.345c0.05-0.12,0.128-0.186,0.154-0.351
				l0.051-0.225l-0.008-0.365c-0.017-0.162,0.011-0.184-0.042-0.462l-0.116-0.695l-0.419-2.187c0.513,0.311,0.858,0.475,1.087,0.546
				c1.081,0.274,0.471-0.818,0.574-1.051c0.933,0.871,1.309,1.529,1.899,2.575c0.277,0.52,0.542,1.195,0.805,1.836
				c0.24,0.616,0.624,1.323,0.796,1.535c0.44,0.628,0.984,1.054,1.611,1.299c0.61,0.264,1.305,0.286,2.081,0.385l2.081,0.277
				c1.23,0.18,2.57,0.438,2.91,0.527c0.28-0.168,0.463-0.303,0.813-0.532c2.193-1.462,6.327-3.809,4.324-2.065
				c-0.74,0.645-1.567,1.291-2.398,1.915c-0.851,0.632-1.608,1.201-2.527,1.84c-0.359-0.072-0.736-0.137-1.058-0.182l-0.864-0.099
				c-1.044-0.093-1.948-0.223-3.118-0.361c-0.587-0.085-1.217-0.091-2.066-0.268c-0.815-0.189-1.78-0.611-2.591-1.477
				c-0.268-0.272-0.589-0.719-0.732-0.938c-0.158-0.236-0.294-0.481-0.417-0.722c-0.247-0.483-0.437-0.958-0.681-1.352
				c-0.123-0.195-0.265-0.372-0.453-0.486l-0.072-0.04l0.017,0.106l0.046,0.233l0.067,0.453c0.068,0.589,0.029,1.136-0.148,1.553
				c-0.071,0.166-0.157,0.313-0.252,0.437l-0.345,0.356c-0.14,0.129-0.279,0.248-0.414,0.358l-0.739,0.557l-0.27,0.243
				c-0.317,0.279-0.166,0.702,0.012,0.968c0.075,0.13,0.365,0.525,0.587,0.794c0.243,0.297,0.503,0.597,0.783,0.897
				c1.135,1.178,2.471,2.52,4.377,3.661c0.954,0.556,1.823,0.893,2.525,0.99c0.703,0.109,1.251,0.017,1.777-0.103
				c1.048-0.259,1.919-0.59,2.48-0.49c1.137,0.179,0.553,1.578,3.818,1.644c1.614,0.082,0.901,0.402-0.186,0.72
				C83.314,268.092,81.77,268.48,81.76,268.478z"/>
			<path style="fill:#595959;" d="M131.159,463.289c-3.344,11.008-9.713,15.91-14.804,19.708
				c-5.089,3.799-20.989,9.928-28.852,8.563c-7.862-1.368-16.368-2.184-17.935-1.415c-1.568,0.768,0.829,1.61,5.114,1.409
				c4.284-0.201,16.145,0.631,22.218,1.213c6.074,0.582,14.201-2.924,18.296-5.287c4.097-2.363,13.502-6.972,16.935-13.992"/>
			<path style="fill:#595959;" d="M101.312,478.149c-0.531,3.679-2.303,5.828-6.061,5.53c-3.76-0.299-14.909,0.818-18.5,1.964
				c-3.591,1.146-7.921,5.096-11.184,5.409c-3.262,0.314-10.236,3.479-13.949,6.335c-3.713,2.853-5.397,7.586-6.753,11.486
				c-1.356,3.9-5.653,3.558-5.284,2.156c0.369-1.4-0.959-5.514,1.389-8.19c2.351-2.677,4.452-5.659,5.647-7.281
				c1.194-1.623,0.905-1.359,5.076-3.031c4.168-1.673,13.29-4.669,16.961-6.954c3.673-2.284,7.017-3.736,10.277-4.049
				c3.264-0.313,8.591,0.683,13.339-1.516C97.016,477.808,101.312,478.149,101.312,478.149z"/>
			<path style="fill:#595959;" d="M118.289,448.105c-2.281,5.774-11.984,11.643-18.018,10.401
				c-6.032-1.244-17.239-0.607-21.481-1.708c-4.242-1.101-16.879-0.579-19.824,0.333c-2.945,0.91-7.344,4.568-4.565,3.453
				c2.778-1.115,5.476-1.09,8.726-1.214c3.25-0.123,4.377-0.797,8.84-0.252c4.462,0.546,5.012,0.397,8.87,1.85
				c3.857,1.452,5.812,1.797,7.133,0.95c1.32-0.85,0.657-1.667,3.355-1.643c2.699,0.024,7.188,0.19,9.669,0.769
				c2.477,0.577,3.112,1.774,4.432,0.924c1.321-0.848,1.184-1.431,3.245-2.604c2.063-1.173,9.764-5.713,10.889-8.867"/>
			<path style="fill:#595959;" d="M48.923,461.676c-3.983,2.507-5.639,3.367-10.976,5.042c-5.339,1.675-4.051-1.275-6.882,0.599
				c-2.834,1.873-1.259,5.052,1.798,5.104c3.057,0.053,5.645,1.594,8.646-0.076c2.999-1.67,6.38-3.691,12.548-4.346
				c6.168-0.655,3.935-2.17-0.223-1.928c-4.158,0.242-8.946,1.77-9.856,1.89c-0.908,0.118-1.377-0.873,2.338-2.487
				c3.713-1.613,3.853-1.03,6.932-3.839C56.325,458.827,52.691,459.303,48.923,461.676z"/>
			<path style="fill:#595959;" d="M88.474,468.013c-3.42,2.943-7.882,0.746-10.973,1.276c-3.094,0.531,0.237,1.927,3.301,1.775
				c3.065-0.151,2.278,0.171,6.305-0.1c4.029-0.269,5.546-0.157,6.011-1.266C93.585,468.587,89.289,467.311,88.474,468.013z"/>
			<path style="fill:#595959;" d="M74.051,470.352c-3.905,1.788-10.132,0.721-14.563,2.278c-4.43,1.557-9.85,4.37-14.991,8.351
				c-5.142,3.981-12.866,11.382-14.871,14.275c-2.005,2.895-4.235,3.863-7.639,8.744c-3.406,4.883-6.405,6.552-7.233,5.533
				c-0.828-1.019-2.455-3.438-0.2-4.787c2.254-1.348,3.494-1.058,5.392-2.433c1.897-1.377,5.687-6.609,10.114-10.647
				c4.427-4.037,14.625-13.342,18.942-15.861c4.319-2.521,8.005-3.753,12.41-4.93c4.403-1.178,7.983-0.893,10.571-1.833
				C74.57,468.103,74.051,470.352,74.051,470.352z"/>
			<path style="fill:#595959;" d="M73.868,475.49c-1.87,0.997-8.501,3.142-12.302,3.412c-3.8,0.27-11.837,1.921-15.029,3.767
				c-3.191,1.847-11.142,4.84-8.802,4.834c2.34-0.003,3.029,0.433,5.094-0.739c2.062-1.172,9.271-3.843,11.83-4.403
				c2.561-0.56,4.955-1.324,7.681-1.68c2.726-0.356,3.827-0.65,7.129-1.533c3.302-0.884,5.729,0.456,7.294-1.33
				C78.33,476.036,73.868,475.49,73.868,475.49z"/>
			<path style="fill:#595959;" d="M235.603,461.15c0,10.581-0.947,14.196,5.679,21.768c6.626,7.572,23.662,6.626,35.019,3.786
				c17.036-3.786,29.339-0.947,29.339-0.947s-13.447-7.471-27.447-3.786c-17.983,4.732-25.554,1.893-31.233,0
				s-4.732-3.786-6.626-13.251C238.443,459.257,235.603,457.365,235.603,461.15z"/>
			<path style="fill:#595959;" d="M268.964,470.85c9.228,0.71,24.134-1.42,30.523-0.71c6.389,0.71,15.617,0,24.135,6.389
				c8.518,6.389,11.357,3.549,11.357,3.549s6.388-3.549,2.839-3.549c-3.549,0-7.098-0.71-9.938-1.42
				c-2.839-0.71-4.259-2.839-12.777-4.969c-8.518-2.13-14.197-3.549-21.295-2.839c-7.098,0.71-8.518,1.42-15.616,1.42
				c-7.098,0-7.808,0-12.067,0C261.866,468.72,268.964,470.85,268.964,470.85z"/>
			<path style="fill:#595959;" d="M269.676,457.363c6.388,6.389,23.425,4.969,29.103,3.549c5.679-1.42,14.907-2.839,26.264,4.259
				c4.969,2.839,8.518-0.71,2.839-1.42c-5.679-0.71-7.098-4.969-12.067-4.969c-4.969,0-11.357-3.549-19.166-0.71
				c-7.808,2.839-7.098,0.71-17.036,0C269.676,457.363,269.676,457.363,269.676,457.363z"/>
			<path style="fill:#595959;" d="M292.39,472.979c0,0,9.938,2.839,15.616,8.518c0,0-10.648-7.098-24.134-7.808
				C278.193,468.72,286.712,471.56,292.39,472.979z"/>
			<path style="fill:#595959;" d="M312.976,465.171c2.13,0.71,14.906,5.679,14.906,9.938c-6.388-2.839-6.388-2.13-6.388-2.13
				L312.976,465.171z"/>
			<path style="fill:#595959;" d="M130.697,104.214c8.873-4.614,13.487-6.389,11.712-3.194c-1.775,3.194-1.065,5.324-0.71,6.389
				c0.355,1.065,3.549,2.484,3.194,3.904c-0.355,1.42,0.355,1.065-0.355,3.549c-0.71,2.484,2.13,3.549-0.71,3.904
				c-2.839,0.355-4.259-2.839-5.324-4.614c-1.065-1.775,2.839,1.42-1.065-1.775c-3.904-3.194-4.614-4.259-7.453-4.969
				C127.148,106.699,130.697,104.214,130.697,104.214z"/>
			<path style="fill:#595959;" d="M115.081,111.312c2.13-1.065,4.969-3.549,6.034,0.355c1.065,3.904,1.42,2.484,3.904,5.324
				c2.484,2.839,1.42,0.71,2.484,2.839c1.065,2.13,2.839,4.969,0.71,4.614c-2.129-0.355-3.157-2.988-5.679-3.549
				c-6.389-1.42-6.389-1.42-9.228-2.839c-2.839-1.42,0.71-2.839,1.775-3.904C116.145,113.087,115.081,111.312,115.081,111.312z"/>
			<path style="fill:#595959;" d="M105.143,122.67c2.13-2.484,2.13-2.484,6.034-0.355c3.904,2.129,4.969,3.904,1.775,3.549
				c-3.194-0.355-3.194-0.355-7.808-0.355C100.529,125.509,105.143,122.67,105.143,122.67z"/>
			<path style="fill:#595959;" d="M134.601,167.035c5.167-2.584,11.712-11.357,10.648-5.679c-1.065,5.679-2.484,6.743-2.839,9.583
				c-0.355,2.839,4.259,5.679-1.065,4.614c-5.324-1.065-8.873,0-10.293-2.484C129.632,170.584,133.182,167.745,134.601,167.035z"/>
			<path style="fill:#595959;" d="M132.472,158.872c1.775,2.484,3.904,2.13,4.614-1.42c0.71-3.549,1.065-3.904-2.13-2.839
				C131.762,155.677,132.472,158.872,132.472,158.872z"/>
			<path style="fill:#595959;" d="M149.153,192.589c1.775,3.549,3.904,4.969,0.355,6.034c-3.549,1.065-2.484-0.71-4.614-3.194
				C142.764,192.944,149.153,192.589,149.153,192.589z"/>
			<path style="fill:#595959;" d="M127.858,189.395c4.614-3.194,7.808-1.775,7.453,0.71c-0.355,2.484-0.71,3.549-0.71,6.389
				c0,2.839,0.355,3.549-2.484,3.549c-2.839,0-3.194-3.194-3.549-4.614C128.213,194.008,127.858,189.395,127.858,189.395z"/>
			<path style="fill:#595959;" d="M136.021,214.594c2.839-2.839,3.194-2.13,2.484,1.065c-0.71,3.194,1.775,4.614-1.42,6.389
				c-3.194,1.775-3.194,3.194-4.969-1.775c-1.775-4.969,0.71-3.904,2.484-2.839C136.376,218.498,136.021,214.594,136.021,214.594z"
				/>
			<path style="fill:#595959;" d="M132.117,240.148c-2.13,0-2.13-4.259-1.065-6.389c1.065-2.13,2.484-4.259,3.549-3.549
				c1.065,0.71,0,0.71,2.13,3.194c2.13,2.484-1.065,3.194-0.355,5.679C137.086,241.568,132.117,240.148,132.117,240.148z"/>
		</g>
		<g>
			<path style="fill:#595959;" d="M268.57,134.17c-1.619-1.688,0.74-5.347,2.342-3.612c1.658,1.746,4.445,1.452,5.12,2.705
				c0.348,0.643,1.417,1.694,2.846,2.677c1.428,0.984,3.216,1.869,4.855,2.341c1.615,0.518,4.854,1.74,8.123,2.611
				c3.251,0.886,6.386,1.678,7.154,1.632c0.772-0.061,2.997,0.414,5.204,1.054c2.209,0.629,4.371,1.44,5.067,1.709
				c0.699,0.265,2.684,1.184,4.832,2.304c2.155,1.109,4.459,2.434,5.975,3.253c3.056,1.626,6.113,4.125,7.831,4.613
				c1.732,0.487-0.894,3.16-1.894,2.519c-0.503-0.322-2.645-1.528-4.94-2.684c-2.29-1.169-4.729-2.281-5.691-2.747
				c-1.915-0.962-4.733-2.207-5.87-3.219c-0.563-0.516-2.306-1.345-4.208-1.999c-1.901-0.663-3.954-1.141-5.059-1.188
				c-2.209-0.123-7.557-0.368-10.243-1.682c-1.328-0.655-2.854-0.851-4.459-1.161c-1.599-0.306-3.291-0.74-4.747-1.784
				c-1.45-1.02-4.335-2.298-6.891-3.794C271.35,136.257,269.103,134.711,268.57,134.17z"/>
			<path style="fill:#595959;" d="M296.366,183.728c-3.832-0.347-6.534-1.189-8.296-2.038c-1.766-0.858-2.604-1.732-2.795-2.403
				c-0.361-1.352,1.736-1.894,4.577-0.896c5.781,2.024,11.999,1.769,16.699,1.703c4.759-0.043,9.412-0.713,13.961-1.895
				c2.29-0.542,5.708-1.675,7.902-2.595c1.105-0.432,1.922-0.74,2.199-0.628c0.268,0.099,0.011,0.649-1.199,1.715
				c-2.444,2.095-4.326,3.456-6.477,4.697c-2.161,1.203-4.647,2.3-8.542,2.956c-3.897,0.668-8.478,0.646-11.999,0.286
				C298.866,184.281,296.368,183.717,296.366,183.728z"/>
			<path style="fill:#595959;" d="M328.868,159.055c-1.501,1.317-5.139-1.046-3.442-2.557c1.696-1.495,1.737-4.276,3.138-4.757
				c1.389-0.487,4.935-3.352,7.412-5.801c1.228-1.235,4.131-3.316,6.91-5.116c2.77-1.812,5.397-3.365,5.863-3.939
				c0.462-0.582,2.254-1.759,4.106-2.842c1.858-1.072,3.77-2.044,4.396-2.346c1.234-0.662,7.553-2.997,10.577-4.133
				c3.017-1.199,6.671-1.91,8.054-2.885c1.385-1.001,1.815,2.715,0.75,3.06c-0.536,0.173-2.698,1.012-4.92,1.986l-5.447,2.443
				c-1.872,0.775-4.515,2.007-5.966,2.118c-1.46,0.083-6.713,2.798-8.199,4.295c-1.533,1.448-5.191,4.886-7.699,5.948
				c-2.548,1.056-4.032,4.007-6.839,5.451c-1.413,0.726-3.397,2.748-5.084,4.731C330.781,156.69,329.368,158.616,328.868,159.055z"
				/>
			<path style="fill:#595959;" d="M374.812,115.981c0.441-1.473,1.273-3.236,2.759-4.526c1.461-1.307,3.277-2.047,5.048-2.554
				c3.549-0.918,7.051-1.337,10.229-1.705c3.161-0.331,5.182-0.618,6.251-1.072c0.545-0.21,0.887-0.429,1.081-0.527
				c0.198-0.096,0.252-0.05,0.121,0.145c-0.254,0.364-0.523,1.131-1.568,1.961c-1.026,0.826-2.737,1.571-5.161,1.96
				c-2.428,0.387-4.57,0.725-6.368,1.126c-1.813,0.397-3.253,0.808-4.187,1.233c-0.938,0.434-1.21,0.47-1.951,0.695
				c-0.356,0.126-0.836,0.297-1.44,0.715c-0.586,0.43-1.316,1.098-1.82,2.465c-0.498,1.369-0.69,2.656-0.907,3.641
				c-0.206,0.995-0.399,1.72-0.603,2.177c-0.395,0.917-0.822,0.765-0.952-0.215c-0.128-0.979-0.356-2.3-0.459-3.436
				C374.773,116.932,374.809,115.981,374.812,115.981z"/>
			<path style="fill:#595959;" d="M348.964,173.522c-8.471,6.953-13.314,8.818-14.887,8.503c-1.583-0.34-0.023-2.835,3.792-5.242
				c7.656-4.827,14.234-11.111,19.778-15.676c5.559-4.575,10.947-9.308,16.317-14.053c2.701-2.358,6.728-5.933,9.217-8.291
				c1.26-1.162,2.168-1.99,2.501-2.01c0.319-0.03,0.083,0.781-1.189,2.708c-2.579,3.821-4.505,6.428-6.659,9.143
				c-2.175,2.697-4.639,5.46-8.732,9.14C360.939,165.157,348.971,173.54,348.964,173.522z"/>
			<path style="fill:#595959;" d="M393.094,128.66c4.362-2.526,9.748-5.188,15.156-8.061c2.685-1.452,5.397-2.962,7.736-4.708
				c2.326-1.725,4.265-3.828,4.289-5.94c0.04-1.06-0.305-2.128-0.81-3.085c-0.491-0.967-0.815-1.228-1.447-1.341
				c-0.653-0.092-1.489,0.128-2.185,0.364c-0.71,0.241-1.338,0.519-1.876,0.753c-2.149,0.987-2.896,1.242-2.188,0.724
				c0.732-0.481,1.578-1.508,3.465-2.754c0.481-0.301,1.038-0.61,1.747-0.831c0.691-0.216,1.646-0.342,2.623,0.093
				c0.976,0.424,1.658,1.37,2.124,2.197c0.5,0.881,0.952,1.954,1.07,3.222c0.123,1.265-0.136,2.543-0.632,3.607
				c-0.485,1.078-1.16,1.969-1.858,2.746c-1.41,1.55-2.931,2.679-4.333,3.672c-2.825,1.957-5.25,3.337-6.999,4.416
				c-1.757,1.062-2.31,1.259-3.782,1.885c-1.454,0.652-3.915,1.607-9.15,4.582c-5.202,3.011-8.051,5.069-9.509,5.922
				c-1.438,0.876-1.575,0.39-0.391-0.944C388.464,132.488,393.08,128.638,393.094,128.66z"/>
			<path style="fill:#595959;" d="M391.767,118.061c15.616-14.197,86.6-96.538,106.476-117.833"/>
			<path style="fill:#595959;" d="M415.425,97.459c-7.866,6.546-13.68,15.711-19.923,20.375c-3.175,2.313-3.688,0.95-3.035-1.259
				c0.635-2.222,2.335-5.44,3.958-7.134c3.255-3.368,9.023-9.584,13.465-14.466c2.231-2.43,10.936-12.048,19.491-21.657
				l18.885-21.277c3.763-4.237,33.917-36.841,40.145-45.249c6.212-8.46,12.303-7.979,9.459-4.17
				c-2.835,3.782-15.402,17.87-17.275,20c-1.891,2.107-23.48,23.369-27.47,28.671c-3.987,5.306-16.911,19.1-21.949,24.734
				C426.16,81.672,418.378,95.015,415.425,97.459z"/>
			<path style="fill:#595959;" d="M422.851,101.359c0.426-0.619,0.871-1.268,1.284-1.943c0.405-0.611,0.821-1.596,0.661-1.533
				l-0.109-0.065c-0.039-0.011-0.281-0.043-0.449-0.042c-0.387-0.007-0.797,0.038-1.251,0.094c-0.966,0.121-1.978,0.126-2.983-0.026
				c-2.031-0.292-3.892-1.28-5.482-2.337c-1.603-1.063-3.05-2.166-4.534-2.955l-0.311-0.166l-0.112-0.043l-0.133,0.155l0.019,0.17
				l0.137,0.454c0.101,0.304,0.215,0.596,0.329,0.875c0.462,1.114,0.894,1.996,1.196,2.655c0.62,1.316,0.764,1.753,0.47,1.314
				c-0.287-0.445-0.839-1.033-1.621-2.121c-0.387-0.548-0.839-1.213-1.277-2.106c-0.11-0.225-0.215-0.462-0.311-0.729
				c-0.108-0.311-0.229-0.763-0.189-1.14c0.014-0.375,0.266-0.792,0.692-0.864c0.397-0.096,0.876,0.033,1.342,0.241
				c2.504,1.228,4.328,2.776,6.074,3.72c1.716,0.984,3.261,1.363,4.398,1.398c1.145,0.024,1.436,0.019,2.386-0.028
				c0.256-0.015,0.555-0.031,0.939-0.025c0.19,0.003,0.405,0.014,0.654,0.048c0.207,0.027,0.66,0.108,0.995,0.347
				c0.347,0.231,0.588,0.665,0.57,1.163c-0.03,0.56-0.194,0.877-0.347,1.225c-0.327,0.685-0.765,1.364-1.273,2.152
				c-2.064,3.091-3.278,4.874-3.913,5.69c-0.632,0.808-0.751,0.562-0.32-0.419C421.231,104.554,422.855,101.354,422.851,101.359z"/>
			<path style="fill:#595959;" d="M411.418,101.527c-2.033-0.285-4.487-0.617-6.997-1.23c-0.627-0.152-1.258-0.326-1.883-0.517
				c-0.825-0.258-0.598-0.183-0.726-0.204l-0.011,0.15l0.029,0.046l0.243,0.284l0.585,0.643c3.272,3.326,4.538,4.861,3.947,4.439
				c-0.539-0.468-2.057-0.866-4.679-3.369c-0.323-0.319-0.634-0.636-0.929-0.96c-0.128-0.14-0.356-0.398-0.548-0.652
				c-0.189-0.251-0.348-0.506-0.449-0.747c-0.097-0.241-0.15-0.462-0.129-0.684c0-0.229,0.187-0.468,0.372-0.553
				c0.359-0.198,0.841-0.205,1.378-0.104c0.571,0.111,0.996,0.251,1.245,0.312l0.844,0.211c0.534,0.122,1.008,0.211,1.413,0.276
				c0.81,0.128,1.03,0.207,1.648,0.393c0.62,0.173,1.639,0.478,4.093,0.779c4.899,0.506,5.867,1.014,4.428,1.185L411.418,101.527z"
				/>
			<path style="fill:#595959;" d="M273.919,137.716c6.316,5.302-0.308,10.508,3.477,11.454c3.786,0.946,5.679-3.786,5.679-3.786
				l2.482-2.09l-1.062-2.642L273.919,137.716z"/>
			<path style="fill:#595959;" d="M289.701,146.804c3.785,0.473,3.785,1.42,1.42,3.313c-2.367,1.893-0.947,3.786-3.786,3.786
				C284.495,153.903,289.701,146.804,289.701,146.804z"/>
			<path style="fill:#595959;" d="M299.164,149.171c-0.946,3.312,1.42,4.259,2.839,2.839
				C303.423,150.591,299.164,149.171,299.164,149.171z"/>
		</g>
		<g>
			<path style="fill:#595959;" d="M242.467,51.244c-6.358,3.539-10.868-6.899-11.651-11.522c-1.069-6.31,2.778-14.951,10.334-13.685
				c11.058,1.853,13.897,21.105,2.659,24.672c-3.186,1.011-2.598,3.421,0.64,2.392c8.457-2.684,13.773-9.226,11.546-18.321
				c-1.955-7.984-9.527-12.995-17.555-11.351c-10.076,2.064-15.175,10.881-12.466,20.653c2.581,9.307,11.443,13.143,19.814,8.484
				C249.015,50.774,244.076,50.35,242.467,51.244z"/>
			<path style="fill:#595959;" d="M287.835,56.827c-9.397,1.004-11.784-17.353-3.3-20.026c11.231-3.539,15.12,19.685,3.3,20.972
				c0.686,0.523,1.374,1.044,2.062,1.565c0-0.316,0-0.632,0-0.947c0-2.41-4.46-1.831-4.46,0.28c0,0.315,0,0.631,0,0.947
				c0,1.09,1.047,1.675,2.061,1.564c16.558-1.805,15.391-28.664-1.53-27.98c-15.589,0.631-14.007,28.692,1.53,27.033
				C290.013,59.967,290.813,56.509,287.835,56.827z"/>
			<path style="fill:#595959;" d="M264.89,42.261c1.687,0.781,3.639,1.61,5.69,2.353c1.012,0.358,2.095,0.725,3.026,0.897
				c0.14,0.02,0.104,0.006,0.164,0.006l0.043-0.036c0.014-0.012-0.003-0.003,0.159-0.115l1.427-0.974l0.91,3.001
				c-1.762-0.007-3.337-0.426-4.704-0.893c-2.765-1.017-4.389-1.863-5.469-2.286c-1.055-0.431-1.441-0.677-1.012-0.677
				c0.417,0.012,1.069-0.247,2.207-0.311c1.13-0.076,2.721,0.124,4.725,0.746c1.583,0.487,3.032,0.744,4.254,0.676l3.553-0.198
				l-2.939,2.228l-1.212,0.919l-0.281,0.218l-0.46,0.324l-0.464,0.326c-0.177,0.013-0.362,0.008-0.539,0.007
				c-0.326-0.001-0.774-0.041-0.991-0.074l-0.643-0.091l-1.074-0.191c-2.056-0.425-1.098-0.639-6.626-2.904
				c-2.752-1.126-4.227-1.955-4.896-2.431c-0.671-0.44-0.647-0.903,0.33-0.914C261.899,41.92,264.885,42.277,264.89,42.261z"/>
		</g>
	</g>
</g>
</svg>
