<?xml version="1.0" encoding="UTF-8" standalone="no"?>
<!-- Generator: Adobe Illustrator 18.1.1, SVG Export Plug-In . SVG Version: 6.00 Build 0)  -->

<svg
   xmlns:dc="http://purl.org/dc/elements/1.1/"
   xmlns:cc="http://creativecommons.org/ns#"
   xmlns:rdf="http://www.w3.org/1999/02/22-rdf-syntax-ns#"
   xmlns:svg="http://www.w3.org/2000/svg"
   xmlns="http://www.w3.org/2000/svg"
   xmlns:sodipodi="http://sodipodi.sourceforge.net/DTD/sodipodi-0.dtd"
   xmlns:inkscape="http://www.inkscape.org/namespaces/inkscape"
   version="1.1"
   id="_x38_"
   x="0px"
   y="0px"
   viewBox="0 0 512 512"
   style="enable-background:new 0 0 512 512;"
   xml:space="preserve"
   inkscape:version="0.91 r13725"
   sodipodi:docname="question-frog.svg"><metadata
     id="metadata195"><rdf:RDF><cc:Work
         rdf:about=""><dc:format>image/svg+xml</dc:format><dc:type
           rdf:resource="http://purl.org/dc/dcmitype/StillImage" /></cc:Work></rdf:RDF></metadata><defs
     id="defs193" /><sodipodi:namedview
     pagecolor="#ffffff"
     bordercolor="#666666"
     borderopacity="1"
     objecttolerance="10"
     gridtolerance="10"
     guidetolerance="10"
     inkscape:pageopacity="0"
     inkscape:pageshadow="2"
     inkscape:window-width="1920"
     inkscape:window-height="1027"
     id="namedview191"
     showgrid="false"
     inkscape:zoom="0.4609375"
     inkscape:cx="256"
     inkscape:cy="256"
     inkscape:window-x="-8"
     inkscape:window-y="22"
     inkscape:window-maximized="1"
     inkscape:current-layer="_x38_" /><g
     id="g3"><path
       style="fill:#F7D97F;"
       d="M128.433,413.517c1.885,0.523,65.527-5.736,87.226-6.878c21.699-1.142,24.273,9.495,18.844,12.563   c-5.432,3.068-15.692,8.793-21.838,10.107c-6.143,1.314-56.395,6.453-67.815,4.74c-11.421-1.713-13.633,0.981-14.811-2.364   C128.861,428.339,123.566,412.165,128.433,413.517z"
       id="path5" /><path
       style="fill:#F7D97F;"
       d="M134.572,278.727c-10.85,3.426-41.686,10.279-43.399,15.418c-1.713,5.139,3.536,35.317,3.536,35.317   s37.008-5.623,41.006-5.623C139.711,323.839,134.572,278.727,134.572,278.727z"
       id="path7" /><path
       style="fill:#94C85C;"
       d="M269.493,491.113c-8.28-0.857-9.137-2.284-5.71-2.855c3.426-0.571,30.557,0.997,42.69,7.494   c0.709-0.927-22.418-15.488-29.556-15.774c7.138-3.426,18.844-1.713,21.985-1.142c3.141,0.571,1.142-2.855-2.284-4.283   c-3.426-1.428-9.137-1.999-14.562-1.142c-5.425,0.857-8.565,0.285-8.565,0.285s3.997-3.426,8.565-3.997   c4.568-0.571,5.11-2.491,1.557-3.672c-3.556-1.182-7.838-2.609-10.408-1.182c-2.57,1.428-1.142,2.284-7.709,2.284   c-6.567,0-10.504-0.801-12.3-2.99c-1.796-2.189,0.676-15.858,5.733-22.992c5.059-7.134,8.695-13.38,14.12-22.516   c5.425-9.137,15.704-31.978,9.993-40.829c-5.71-8.851-7.138-9.993-13.991-11.421c-5.336-1.111-10.607-3.463-12.688-4.453   c3.426-7.877,6.415-16.709,7.477-21.761c2.041-9.692-0.571-23.413-9.304-45.718c-8.733-22.305-24.387-35.941-32.382-43.364   c-7.994-7.423-10.839-11.383-15.989-20.557c-5.151-9.174,2.855-19.439,7.455-27.027c4.597-7.59,17.1-20.369,24.47-27.056   c7.368-6.687,7.526-11.103,7.477-16.154c-0.049-5.051,0.571-7.424-2.835-9.905c-3.408-2.481-34.606-4.088-34.606-4.088   s-5.006-7.421-9.768-7.14c-4.762,0.281-8.724,12.71-8.724,12.71s-11.45,1.57-18.385,0.547c-3.511-2.166-2.201-10.397-9.777-9.871   c-7.577,0.526-7.272,9.181-10.051,15.941c-2.782,6.76-14.923,8.087-25.201,21.221s-6.281,62.243-6.699,76.212   c0,0,0.228,7.54,1.369,20.864c1.142,13.325-2.663,48.538-2.474,54.82c0.094,3.098,1.789,13.51,1.889,23.999   c0.103,10.781-1.401,21.643-2.271,24.73c-1.713,6.092-11.039,26.268-16.368,33.12c-1.713,3.808,12.563-9.137,12.942-5.71   c0.382,3.426-4.376,19.034-4.758,19.796c-0.379,0.762,2.284-1.333,5.139-4.378c2.855-3.045,7.805-11.611,7.805-11.611   s0.95,7.043-3.237,16.18c6.092-3.235,10.468-15.799,10.85-19.415c0.382-3.616,1.523-9.137,3.808-6.092   c2.284,3.045,10.087,11.611,11.8,12.563c1.49,0.826,3.408-0.355,4.76,0.069c-1.747-3.145-4.06-6.004-6.11-8.801   c4.959,5.692,14.459,8.013,24.738,8.584c6.986,0.388,34.28,0.776,51.052,0.985c0.163-0.367,0.324-0.736,0.486-1.108   c4.903,0.289,8.82,0.634,8.706,0.979c-0.286,0.857-7.553,48.213-8.124,53.923c-0.571,5.71-2.57,17.131,3.997,23.698   c6.567,6.567,23.698,6.282,30.265,6.282c6.567,0,24.269-1.713,33.977,2.284c9.708,3.997,8.28,0.857,8.28,0.857   S277.773,491.97,269.493,491.113z"
       id="path9" /><path
       style="fill:#94C85C;"
       d="M181.031,161.372c1.938-8.242,9.021-38.584,7.903-50.563c-1.118-11.979,0.861-36.139-1.555-38.517   c-2.416-2.378-12.933-22.838-12.549-34.268c0.381-3.673,5.128,5.703,8.088,7.317c2.96,1.614,5.942,3.115,5.942,3.115   s-4.907-17.563-5.193-24.987c-1.622-7.789-1.622-7.789-1.622-7.789s8.76,14.071,10.758,19.496c2.284,5.425,3.141-2.57,2.855-8.851   c-0.286-6.281,0-13.99-1.428-17.417c7.995,13.419,10.564,20.272,11.421,27.124c1.999,5.71,3.426-4.854,3.997-6.567   c0.571-1.713,4.087-9.936,4.087-9.936s4.479,22.214-0.089,36.204c-4.568,13.99-5.425,29.408-4.283,34.833   c1.142,5.425,3.141,19.986,4.854,24.84c1.713,4.854,3.997,31.978,0.571,38.545C211.363,160.518,181.031,161.372,181.031,161.372z"
       id="path11" /><path
       style="fill:#FFFFFF;"
       d="M263.142,321.642c-1.51-7.356-2.269-16.728-6.56-27.687c-6.511-16.63-18.913-27.941-27.075-35.953   c-1.519-1.22-3.029-2.391-4.497-3.491c-1.035-0.776-1.787-1.774-2.315-2.928c-0.176-0.163-0.37-0.34-0.54-0.499   c-7.994-7.423-10.839-11.383-15.989-20.557c-5.151-9.174,2.855-19.439,7.455-27.027c4.597-7.59,17.1-20.369,24.47-27.056   c7.368-6.687,7.526-11.103,7.477-16.154c-0.002-0.185,0-0.36,0-0.539c-2.407-1.151-5.755-0.819-10.035,1.753   c-15.09,9.064-37.932,29.05-43.071,34.761c-5.139,5.71-10.731,5.322-15.643,12.083c-4.914,6.761-9.482,19.895-7.198,25.034   c2.284,5.139,19.986,27.981,18.273,47.967c-1.419,16.568-10.662,53.921,3.123,81.182c3.743-0.284,8.474-0.878,18.934-0.433   c9.966,0.424,30.004,1.482,39.894,7.027c5.862-7.189,12.005-16.063,13.591-31.01C264.01,332.694,263.383,326.067,263.142,321.642z"
       id="path13" /><g
       id="g15"><path
         style="fill:#B0C4C6;"
         d="M235.36,331.262c0,1.142-0.857,13.419,1.142,20.557c1.999,7.138-0.857,6.852,5.71,8.28    c6.567,1.428,19.701,2.57,25.982,2.855c6.281,0.286,49.109,1.713,57.96-0.857c8.851-2.57,23.127-1.142,27.124-1.428    c3.997-0.285,11.706-5.139,14.561-6.567c2.855-1.428,34.262-13.705,37.689-15.133c3.426-1.428,11.706-4.568,13.134-12.563    c1.428-7.995,1.142-9.993-1.428-14.847c-2.57-4.854-3.808-10.754-3.808-10.754l-120.393,12.182L235.36,331.262z"
         id="path17" /><path
         style="fill:#EACA78;"
         d="M218.229,320.698c-0.571,3.426-1.428,6.281,0.286,8.566c1.713,2.284,4.854,3.426,8.566,3.426    c3.712,0,76.234-0.285,83.086,0c6.852,0.285,39.402,0.571,41.115,0.285c1.713-0.285,56.247-21.985,62.814-24.84    c6.567-2.855,9.422-3.712,9.137-6.281c-0.285-2.57,2.284-7.709-1.428-7.709C418.092,294.145,218.229,320.698,218.229,320.698z"
         id="path19" /><path
         style="fill:#F7D97F;"
         d="M318.254,291.289c0,0-48.728,15.228-55.199,17.131c-6.473,1.903-38.67,9.509-42.747,11.036    c-4.078,1.527-2.936,1.527,1.633,3.811c4.568,2.284,36.165,3.427,41.494,2.665c5.331-0.762,50.14-1.647,56.098-1.014    c5.956,0.633,19.529,2.632,28.574-0.264c9.047-2.895,18.115-6.717,20.399-7.479c2.284-0.761,37.309-13.704,44.922-16.369    c7.613-2.665,14.548-5.381,8.757-7.637c-5.791-2.256-27.412-1.5-31.98-1.5s-17.131-1.523-22.079-1.523    c-4.95,0-19.415,0.761-24.365,0.761c-4.95,0-12.944,0-16.371,0S318.254,291.289,318.254,291.289z"
         id="path21" /></g><g
       id="g23"><path
         style="fill:#231815;"
         d="M180.025,204.982c-0.975,0.927-1.771,2.095-2.184,3.286c-0.422,1.188-0.457,2.316-0.317,3.176    c0.317,1.738,1.147,2.507,1.762,2.561c0.66,0.061,1.133-0.646,1.662-1.807c0.272-0.577,0.587-1.229,1.059-1.869    c0.473-0.645,1.12-1.322,2.219-2.195l0.868-0.659l0.453-0.328c0.12-0.09,0.27-0.188,0.395-0.299l0.335-0.321l1.644-1.588    l3.045-3.04l5.746-5.883c1.954-1.976,4.04-3.995,6.498-6.145c1.231-1.076,2.547-2.174,4.008-3.326l1.122-0.883l1.129-0.992    c0.75-0.673,1.508-1.381,2.282-2.125c5.817-5.627,10.774-11.68,16.306-16.086c2.746-2.202,5.608-3.972,8.499-5.033    c1.443-0.538,2.884-0.901,4.298-1.102c0.841-0.125,1.046-0.109,1.472-0.122c0.381-0.006,0.743,0.013,1.084,0.046l0.239,0.033    l0.089,0.246c0.054,0.165,0.094,0.33,0.116,0.495c0.085,0.584,0.036,1.063-0.014,1.522c-0.034,0.254-0.024,0.403-0.091,0.739    c-0.078,0.354-0.145,0.694-0.192,1.01c-0.205,1.278-0.013,2.133,0.533,2.337c0.547,0.194,1.403-0.143,2.552-1.37    c0.143-0.157,0.29-0.332,0.439-0.527c0.149-0.194,0.366-0.561,0.535-0.876c0.359-0.667,0.689-1.471,0.852-2.379    c0.172-0.906,0.167-1.913-0.076-2.934c-0.116-0.513-0.308-1.016-0.524-1.535l-0.341-0.802c-0.123-0.268-0.286-0.419-0.431-0.641    c-1.138-0.042-2.318-0.111-3.629-0.058c-0.649,0.011-1.329,0.094-2.028,0.176l-0.533,0.078l-0.361,0.062l-0.709,0.15    c-1.909,0.439-3.935,1.216-5.913,2.379c-2.94,1.752-4.907,3.443-6.643,4.941c-1.722,1.515-3.176,2.894-4.727,4.407    c-1.546,1.514-3.17,3.175-5.137,5.288c-1.979,2.1-4.26,4.698-7.352,7.796c-1.243,1.217-2.509,2.415-3.814,3.373l-4.142,3.025    c-2.73,2.01-5.382,3.978-7.928,5.957c-2.545,1.979-4.994,3.957-7.33,5.965c-1.164,1.008-2.309,2.015-3.417,3.036l-0.83,0.766    l-0.181,0.132l-0.477,0.348C181.306,203.859,180.656,204.377,180.025,204.982z"
         id="path25" /><path
         style="fill:#231815;"
         d="M167.277,226.395c0.707,0.064,1.352-0.203,1.691-0.552c0.348-0.355,0.397-0.755,0.27-1.033    c-0.127-0.29-0.419-0.486-0.752-0.636c-0.343-0.154-0.698-0.253-1.267-0.377c-1.16-0.282-2.246-0.613-3.408-1.116    c-0.578-0.261-1.173-0.591-1.753-1.077c-0.562-0.487-1.16-1.138-1.403-2.053c-0.495-1.901-0.016-3.909,0.711-5.476    c0.745-1.587,1.82-2.798,2.835-3.461c0.491-0.321,0.772-0.644,0.919-1.002c0.138-0.348,0.125-0.743-0.194-0.999    c-0.31-0.259-0.988-0.374-1.863,0.038c-0.865,0.399-1.86,1.363-2.425,2.877c-0.58,1.614-0.794,2.494-1.095,3.567    c-0.136,0.536-0.27,1.123-0.339,1.882c-0.06,0.756-0.076,1.703,0.274,2.893c0.297,1.004,0.848,1.811,1.396,2.509    c0.562,0.702,1.173,1.31,1.822,1.858C163.998,225.304,165.444,226.21,167.277,226.395z"
         id="path27" /><path
         style="fill:#231815;"
         d="M208.26,235.957c1.169,1.86,2.732,3.156,4.082,3.664c1.354,0.529,2.298,0.311,2.467,0.046    c0.196-0.307-0.29-0.622-1.196-1.328c-0.901-0.714-2.224-1.987-3.589-4.444c-1.361-2.498-2.213-5.001-2.688-7.327l-0.038-0.213    l-0.013-0.086l-0.02-0.469l-0.049-0.96l-0.116-1.878c-0.076-1.239-0.147-2.468-0.147-3.704c0.002-0.616,0.018-1.236,0.08-1.84    l0.054-0.436c0.004-0.081,0.047-0.19,0.094-0.337c0.096-0.27,0.223-0.548,0.364-0.829c0.569-1.146,1.475-2.275,2.057-3.822    c0.065-0.273,0.292-0.616,0.446-0.985l0.471-1.091c0.308-0.734,0.607-1.482,0.975-2.216c0.366-0.735,0.803-1.454,1.356-2.122    l1.796-2.16l7.154-8.865c2.346-2.85,4.776-5.476,7.278-7.816c2.599-2.26,4.863-4.817,6.953-7.096    c1.051-1.149,2.07-2.255,3.085-3.279c0.999-0.977,2.104-2.08,2.951-3.145c1.709-2.096,2.681-3.765,3.143-4.777    c0.455-1.008,0.346-1.447-0.417-1.082c-0.765,0.358-2.097,1.617-3.964,3.786l-1.537,1.735c-0.281,0.31-0.567,0.607-0.881,0.921    c-0.344,0.342-0.694,0.703-1.048,1.084c-1.425,1.521-2.913,3.362-4.559,5.446c-0.881,1.114-1.684,2.087-2.449,2.949    c-0.732,0.851-1.519,1.575-2.228,2.311c-1.425,1.452-2.666,2.76-3.977,4.213c-1.309,1.453-2.681,3.057-4.33,5.115l-6.112,7.725    l-1.539,1.859c-0.531,0.612-1.068,1.341-1.472,2.06c-0.839,1.453-1.372,2.946-2.066,4.223l-0.132,0.236    c-0.067,0.106-0.132,0.242-0.174,0.373c-0.058,0.159-0.127,0.302-0.199,0.455c-0.152,0.301-0.332,0.604-0.524,0.908l-1.258,1.876    c-0.402,0.671-0.87,1.362-1.031,2.329c-0.147,0.784-0.221,1.541-0.277,2.291c-0.1,1.495-0.111,2.949-0.114,4.373l-0.005,2.107    l-0.007,0.514c-0.002,0.114-0.007,0.268,0.018,0.393l0.038,0.294c0.054,0.369,0.114,0.733,0.185,1.091    C205.742,230.878,206.746,233.538,208.26,235.957z"
         id="path29" /><path
         style="fill:#231815;"
         d="M176.354,150.72c-1.602,0.35-2.837,0.742-3.758,1.125c-0.915,0.384-1.535,0.786-1.68,1.251    c-0.143,0.451,0.227,0.998,1.399,1.362c1.156,0.363,3.121,0.413,5.644-0.138c2.563-0.55,4.622-1.191,6.529-1.539    c0.892-0.173,1.985-0.28,3.034-0.452c1.044-0.164,2.083-0.348,3.138-0.543c4.223-0.772,8.724-1.797,15.148-2.343    c3.196-0.253,6.391-0.392,9.427-0.342c3.029,0.056,5.933,0.663,8.851,0.997c2.902,0.352,5.708,0.468,8.262,0.65    c2.561,0.191,4.943,0.466,6.982,0.976c2.003,0.493,3.23,0.873,4.066,1.049c0.801,0.177,1.465,0.155,1.39-0.753    c-0.054-0.434-0.359-1.084-1.028-1.717c-0.66-0.632-1.66-1.25-2.927-1.699c-2.543-0.932-6.134-1.22-10.602-0.876    c-4.731,0.379-7.354,0.119-10.595-0.282c-1.628-0.187-3.446-0.346-5.688-0.313c-2.224,0.049-4.87,0.152-8.287,0.488    c-5.44,0.54-10.52,1.046-15.338,1.311c-1.202,0.066-2.391,0.119-3.56,0.158l-1.776,0.055c-0.64,0.028-1.269,0.089-1.881,0.171    C180.65,149.651,178.435,150.275,176.354,150.72z"
         id="path31" /><path
         style="fill:#231815;"
         d="M174.596,155.103c0.955,0.864,2.032,1.337,2.94,1.409c0.912,0.086,1.564-0.292,1.615-0.683    c0.013-0.837-0.674-1.324-2.748-3.45c-0.257-0.27-0.5-0.538-0.714-0.799l-0.303-0.381c-0.109-0.15-0.134-0.177-0.297-0.433    c-0.08-0.15-0.196-0.245-0.299-0.36l-0.165-0.176c-0.091-0.099-0.181-0.212-0.272-0.325c-0.178-0.226-0.355-0.483-0.531-0.751    l-1.102-1.753c-0.196-0.306-0.413-0.632-0.636-0.93l-0.616-0.846c-0.865-1.181-1.84-2.507-3.346-3.588    c-0.752-0.532-1.657-0.976-2.681-1.171c-1.02-0.211-2.148-0.118-3.226,0.098c-1.102,0.203-2.213,0.548-3.188,1.191    c-0.986,0.633-1.718,1.592-2.224,2.553c-0.995,1.947-1.561,3.853-2.429,5.519c-0.861,1.643-1.845,3.209-2.822,4.588    c-0.493,0.695-0.995,1.358-1.486,1.994l-0.736,0.937c-0.279,0.363-0.5,0.684-0.721,1.004c-0.841,1.241-1.205,2.226-1.274,2.843    c-0.018,0.561-0.009,1.071,0.698,1.095c0.714-0.069,1.666-0.751,2.697-2.016c0.531-0.677,1.008-1.267,1.713-2.27    c0.658-0.966,1.35-2.141,1.985-3.56c1.332-3.004,2.032-4.831,2.766-6.869c0.39-1.001,0.767-2.109,1.443-3.169    c0.663-1.052,1.764-1.922,3.857-2.343c1.669-0.411,3.098-0.172,4.258,0.732c1.158,0.89,1.947,2.24,2.652,3.649l0.553,1.089    c0.167,0.33,0.321,0.67,0.48,1.026c0.317,0.709,0.636,1.468,1.068,2.234c0.216,0.382,0.466,0.768,0.765,1.141    c0.192,0.238,0.19,0.219,0.232,0.31c0.107,0.181,0.245,0.386,0.375,0.565C173.409,153.931,173.978,154.539,174.596,155.103z"
         id="path33" /><path
         style="fill:#231815;"
         d="M192.146,146.07c-0.948,2.111,0.952,3.853,2.501,0.714c0.77-1.566,1.044-2.798,1.532-4.095    c0.491-1.248,1.218-2.742,3.203-3.613c0.946-0.448,1.974-0.435,2.824,0.004c0.854,0.428,1.544,1.149,2.139,1.887    c1.193,1.499,2.059,3.101,3.156,4.381c0.535,0.632,1.196,0.916,1.648,0.868c0.464-0.044,0.669-0.372,0.674-0.766    c0.004-0.401-0.129-0.861-0.524-1.489c-0.404-0.627-1.075-1.481-2.26-2.538c-1.283-1.122-1.958-1.839-2.895-2.628    c-0.477-0.384-1.033-0.808-1.905-1.108c-0.85-0.304-2.139-0.339-3.346,0.272c-1.885,0.842-3.337,2.28-4.354,3.739    C193.5,143.168,192.771,144.67,192.146,146.07z"
         id="path35" /><path
         style="fill:#231815;"
         d="M163.253,158.259c0.373,1.021,1.334,1.462,1.954,1.479c0.629,0.02,0.919-0.272,1.057-0.572    c0.132-0.314,0.027-0.689-0.158-1.063c-0.143-0.361-0.25-0.667-0.236-0.994l0.054-0.279c0.031-0.09,0.04-0.127,0.12-0.303    c0.085-0.168,0.12-0.255,0.285-0.503c-0.049,0.026,0.138-0.203,0.292-0.365c0.335-0.361,0.865-0.93,1.113-1.684    c0.241-0.753,0.165-1.494-0.016-2.109l-0.194-0.67l-0.446-0.008c-0.694-0.014-1.434-0.072-2.338,0.223    c-0.439,0.132-0.99,0.581-1.093,1.165c-0.103,0.55-0.013,1.039,0.19,1.55c0.488,0.974,1.396,1.372,1.987,1.845    c0.631,0.462,1.026,1.013,1.162,1.675l0.192-0.598c-0.555,0.394-1.191,0.697-1.715,0.753c-0.261,0.029-0.448-0.029-0.513-0.099    c-0.063-0.065-0.123-0.171-0.163-0.385c-0.038-0.2-0.042-0.478-0.02-0.718c0.022-0.184,0.089-0.348,0.183-0.485    c0.178-0.281,0.62-0.626,1.089-1.18c0.359-0.414,0.587-1.069,0.524-1.566c-0.053-0.499-0.27-0.8-0.473-0.958    c-0.426-0.316-0.814-0.153-1.082,0.17c-0.136,0.157-0.259,0.368-0.395,0.52c-0.152,0.167-0.268,0.153-0.428,0.263    c-0.158,0.135-0.529,0.391-1.08,1.135c-0.27,0.372-0.553,0.984-0.591,1.589c-0.036,0.686,0.065,1.074,0.279,1.701    c0.23,0.671,0.874,1.441,1.63,1.612c0.725,0.176,1.236,0.02,1.646-0.109c0.817-0.298,1.383-0.664,2.003-1.123l0.437-0.323    l-0.145-0.591c-0.172-0.69-0.613-1.512-1.363-2.115c-0.703-0.603-1.704-1.027-1.972-1.559c-0.098-0.18-0.141-0.479-0.118-0.631    c0.04-0.135,0-0.087,0.152-0.166c0.344-0.124,1.064-0.046,1.671,0.119l-0.745-0.787c0.031,0.471-0.044,0.829-0.221,1.045    c-0.17,0.238-0.493,0.442-1.024,0.845c-0.127,0.103-0.275,0.222-0.455,0.42c-0.12,0.135-0.187,0.211-0.312,0.371    c-0.221,0.291-0.399,0.561-0.575,0.956C163.05,156.542,162.956,157.456,163.253,158.259z"
         id="path37" /><path
         style="fill:#231815;"
         d="M137.324,171.62c2.828-3.368,4.214-6.16,3.721-7.019c-0.468-0.84-2.967,0.246-7.307,5.284    c-4.356,5.165-7.142,9.608-9.56,14.817c-1.171,2.628-2.173,5.438-2.96,8.673c-0.796,3.23-1.312,6.841-1.952,11.02    c-0.656,4.284-0.397,8.478-0.48,12.489c-0.031,1.976-0.248,3.95-0.35,5.936c-0.054,0.992-0.076,1.989-0.033,2.988    c0.027,0.982,0.192,2.063,0.328,2.919c0.477,3.544-0.132,7.142,0.1,10.708c0.214,3.426,0.419,6.566,0.361,9.442    c-0.04,2.806-0.049,4.767,0.074,5.942c0.12,1.155,0.486,1.681,1.283,1.017c0.767-0.663,1.742-2.686,2.021-5.994    c0.152-1.652,0.147-3.615-0.04-5.875c-0.094-1.13-0.232-2.337-0.406-3.605c-0.183-1.292-0.346-2.499-0.457-3.933    c-0.227-3.02-0.254-5.633-0.714-7.924c-0.248-1.187-0.415-2-0.471-3.003c-0.063-0.969-0.051-1.95-0.009-2.983l0.196-3.329    c0.078-1.202,0.096-2.56,0.08-3.982l-0.027-4.758c0.022-1.758,0.031-3.669,0.35-5.776c0.5-3.511,1.051-6.878,1.963-10.008    c0.899-3.127,2.197-6.029,3.723-8.696C129.888,180.654,133.684,176.005,137.324,171.62z"
         id="path39" /><path
         style="fill:#231815;"
         d="M258.741,303.281c0.268,0.886,0.517,1.802,0.756,2.737c0.767-0.28,1.537-0.54,2.315-0.781    c-0.116-0.471-0.221-0.95-0.344-1.418c-0.814-3.124-1.733-6.181-2.797-9.147c-2.115-5.938-4.809-11.487-7.859-16.608    c-1.544-2.579-3.089-4.988-4.82-7.444c-1.827-2.443-3.796-4.54-5.762-6.579c-3.935-4.05-7.885-7.76-11.331-11.623    c-2.661-2.969-4.767-5.411-6.201-7.238c-1.45-1.808-2.311-3.048-2.989-3.19c-0.629-0.162-1.238,1.016-0.569,3.803    c0.662,2.763,2.895,6.792,7.102,11.362c4.269,4.664,8.38,8.244,12.014,11.77c1.811,1.764,3.531,3.469,4.959,5.32    c1.521,1.936,3.005,3.93,4.441,5.998c2.869,4.145,5.565,8.674,7.905,14.125C256.727,297.094,257.796,300.05,258.741,303.281z"
         id="path41" /><path
         style="fill:#231815;"
         d="M177.962,199.715c-0.767,0.845-1.325,1.655-1.628,2.321c-0.31,0.664-0.324,1.192-0.183,1.301    c0.143,0.106,0.319-0.11,0.767-0.601c0.448-0.501,1.187-1.313,2.306-2.492c2.3-2.385,4.109-4.209,6.079-6.188    c1.985-1.961,4.149-4.084,7.492-6.703c1.669-1.303,3.442-2.418,5.09-3.617c1.66-1.18,3.252-2.357,4.745-3.538    c2.991-2.359,5.532-4.752,7.745-6.73c2.161-1.938,2.918-3.132,2.063-2.843c-0.859,0.274-3.292,2.149-7.381,6.315    c-2.219,2.196-3.609,3.318-5.293,4.603c-0.845,0.64-1.769,1.313-2.94,2.147c-1.155,0.851-2.623,1.778-4.401,3.181    c-2.817,2.235-5.387,4.407-7.803,6.51C182.213,195.497,179.96,197.535,177.962,199.715z"
         id="path43" /><path
         style="fill:#231815;"
         d="M224.849,154.639c-3.807-0.38-6.092,1.524-4.76,3.617c1.334,2.093,3.237-0.762,4.379-1.713    c1.142-0.952,1.523-1.713,1.523-1.713L224.849,154.639z"
         id="path45" /><path
         style="fill:#231815;"
         d="M185.541,160.73c2.632-0.564,4.95-0.571,6.092-0.951c1.142-0.38,3.236-1.142,4.187-1.333    c0.952-0.19,3.618-1.332,8.757-1.903c5.139-0.571,9.897-1.713,7.613-2.284c-2.284-0.571-3.426-0.952-4.95-0.762    c-1.521,0.191-3.045,0.191-5.139,0.38c-2.092,0.191-2.284-0.191-4.568,0.191c-2.284,0.38,0.002-0.38-3.235,0.191    c-3.237,0.571-2.855,0.571-5.139,1.142c-2.284,0.571-4.758,0.951-5.139,2.665C183.639,159.778,182.878,161.301,185.541,160.73z"
         id="path47" /><path
         style="fill:#231815;"
         d="M147.474,168.535c-1.758,2.108,0.571,2.284-1.142,4.187c-1.713,1.904-1.144,4.188,1.332,3.237    c2.474-0.952,2.855-3.236,4.568-3.997c1.713-0.762,4.377-2.855,2.284-3.426C152.421,167.964,148.426,167.393,147.474,168.535z"
         id="path49" /><path
         style="fill:#231815;"
         d="M119.009,274.125c0.997-4.004-0.772-8.136-0.513-10.807c0.06-0.666,0.315-0.979,0.709-1.181    c0.39-0.192,0.944-0.173,1.517,0.11c1.155,0.553,2.239,1.97,2.349,2.941c0.252,1.961,0.462,5.385,0.549,8.034    c0.058,1.328,0.181,6.519,0.158,11.639c-0.009,5.124-0.105,10.187-0.125,11.314c-0.002,2.256-1.347,19.846-0.642,23.969    c0.361,2.067-0.406,3.428-1.305,4.062c-0.899,0.636-1.956,0.559-2.157-0.401c-0.399-1.905-0.158-9.382-0.127-10.505    c0.045-1.12,2.061-13.042,1.675-15.674c-0.359-2.628,0.163-10.1,0.154-13.095C121.271,281.52,118.654,275.596,119.009,274.125z"
         id="path51" /><path
         style="fill:#231815;"
         d="M150.048,281.29c1.008-1.84,1.499-3.855,2.253-5.787c0.729-1.918,1.831-3.738,3.288-4.602    c1.468-0.84,1.963,0.183,2.072,1.36c0.094,1.208,0.007,2.603-0.397,3.22c-0.428,0.622-0.961,1.554-1.412,2.668    c-0.46,1.107-0.843,2.382-1.129,3.531c-0.147,0.572-0.482,2.003-0.807,3.921c-0.33,1.917-0.649,4.312-0.923,6.718    c-0.547,4.817-0.955,9.63-1.064,10.72c-0.1,1.082-0.767,5.84-1.588,10.804c-0.792,4.969-1.807,10.134-1.858,12.192    c-0.029,2.066-1.113,3.252-2.152,3.627c-1.044,0.375-2.012-0.047-1.981-0.929c0.033-0.898,0.464-3.065,0.841-5.162l0.827-4.635    c0.096-0.523,1.037-3.523,1.843-6.757c0.816-3.229,1.499-6.681,1.412-7.951c-0.174-2.535,0.888-9.659,1.245-12.51    c0.165-1.429-0.199-3.641-0.457-5.715C149.794,283.938,149.664,281.983,150.048,281.29z"
         id="path53" /><path
         style="fill:#231815;"
         d="M118.453,337.359c0.696-3.587-0.665-7.216-0.444-9.852c0.105-1.33,0.852-1.301,1.615-0.69    c0.761,0.607,1.51,1.814,1.59,2.663c0.187,1.697,0.39,4.746,0.462,7.109c0.054,1.182,0.141,5.822,0.067,10.386    c-0.08,4.58-0.105,9.017-0.06,10.02c-0.002,0.993,0.002,5.418-0.123,10.106c-0.065,2.342-0.192,4.745-0.348,6.801    c-0.154,2.056-0.346,3.765-0.368,4.729c-0.047,1.937-0.903,3.113-1.673,3.505c-0.765,0.401-1.443,0.087-1.365-0.73    c0.085-0.822,0.477-2.815,0.705-4.768c0.248-1.947,0.377-3.837,0.413-4.33c0.042-0.49,0.509-3.355,0.767-6.439    c0.272-3.079,0.408-6.345,0.245-7.51c-0.395-2.336-0.005-9.033,0.04-11.697C120.028,343.975,118.219,338.669,118.453,337.359z"
         id="path55" /><path
         style="fill:#231815;"
         d="M144.777,340.762c0.497-1.5,0.453-3.096,0.31-4.559c-0.145-1.471-0.388-2.805-0.252-3.959    c0.127-1.154,0.865-1.164,1.622-0.638c0.754,0.521,1.474,1.605,1.532,2.372c0.141,1.528,0.196,4.272,0.063,6.392    c-0.042,1.06-0.344,5.23-1.316,9.263c-0.475,2.032-1.066,3.969-1.686,5.597l-0.81,1.909l-0.417,1.071    c-0.321,0.783-1.68,4.323-2.614,8.259c-0.959,3.919-1.704,8.126-1.738,9.776c-0.049,3.327-2.918,3.925-2.895,2.425    c0.027-1.482,1.113-7.261,1.294-8.136c0.087-0.433,0.863-2.922,1.749-5.525c0.87-2.611,1.934-5.287,2.148-6.305    c0.096-0.513,0.319-1.24,0.636-2.068c0.294-0.836,0.779-1.731,1.107-2.66c0.72-1.876,1.303-3.849,1.564-4.994    c0.263-1.147,0.163-2.962-0.031-4.587C144.855,342.761,144.594,341.32,144.777,340.762z"
         id="path57" /><path
         style="fill:#231815;"
         d="M142.372,389.094c0.576,5.271,3.319,12.353,5.782,18.075c1.218,2.878,2.059,4.91,2.505,6.153    c0.455,1.239,0.488,1.696,0.232,1.295c-0.482-0.802-2.371-1.926-4.461-6.29c-2.048-4.356-3.504-7.927-4.399-10.018    c-0.446-1.047-0.48-1.378-0.64-2.255c-0.136-0.886-0.475-2.297-1.104-5.637c-0.604-3.356-0.375-5.441-0.085-6.365    c0.297-0.931,0.642-0.755,0.772,0.18C141.219,386.128,142.361,389.105,142.372,389.094z"
         id="path59" /><path
         style="fill:#231815;"
         d="M135.341,400.097c0.917,0.931,1.653,1.942,2.458,2.997l2.449,3.256    c1.702,2.222,3.361,4.45,5.195,5.971c1.807,1.558,3.304,2.089,4.26,2.233c0.961,0.133,1.332,0.063,1.006,0.252    c-0.341,0.13-0.85,0.543-1.923,0.687c-1.051,0.145-2.686-0.12-4.376-1.38c-1.673-1.256-2.911-2.623-3.935-3.797    c-0.999-1.157-1.829-2.102-2.465-2.782c-0.636-0.679-0.743-0.927-1.095-1.56c-0.364-0.598-0.919-1.736-2.614-3.697    c-0.424-0.461-0.83-0.834-1.106-1.005c-0.163-0.128-0.361-0.172-0.544-0.118c-0.154,0.02-0.415,0.225-0.613,0.399l-0.529,0.466    c-0.587,0.514-0.877,0.292-0.607-0.5c0.152-0.393,0.31-0.85,0.683-1.337c0.397-0.525,1.111-0.881,1.796-0.807    c0.732,0.074,1.185,0.329,1.488,0.465C135.174,399.996,135.341,400.098,135.341,400.097z"
         id="path61" /><path
         style="fill:#231815;"
         d="M131.516,409.196c-0.886,4.085-2.141,9.953-4.997,14.195c-1.41,2.105-2.878,3.243-3.805,3.751    c-0.939,0.506-1.325,0.477-1.039,0.26c0.285-0.229,0.56-0.755,1.004-1.546c0.442-0.8,1.046-1.857,1.965-3.334    c1.831-2.989,2.539-5.787,2.84-7.393c0.141-0.813,0.261-1.017,0.522-1.612c0.245-0.595,0.68-1.58,1.142-3.998    c0.439-2.418,0.765-3.822,1.068-4.49c0.286-0.668,0.642-0.609,0.77,0.143C131.244,406.642,131.525,409.192,131.516,409.196z"
         id="path63" /><path
         style="fill:#231815;"
         d="M124.697,409.371c-0.134,2.261-0.283,4.978-0.716,7.777c-0.426,2.795-1.151,5.665-2.202,8.125    c-1.053,2.462-2.173,3.994-2.909,4.825c-0.745,0.831-1.111,0.987-0.917,0.651c0.366-0.699,0.424-2.432,1.813-5.96    c1.367-3.572,1.733-6.646,1.802-8.415c0.029-0.89,0.118-1.129,0.292-1.807c0.158-0.677,0.453-1.798,0.542-4.46    c0.067-2.658,0.194-4.245,0.433-5.007c0.223-0.758,0.58-0.698,0.781,0.081C124.025,406.712,124.71,409.363,124.697,409.371z"
         id="path65" /><path
         style="fill:#231815;"
         d="M116.789,406.449c-1.08,5.455-2.204,13.312-4.836,19.479c-1.3,3.075-2.726,5.018-3.689,6.028    c-0.975,1.012-1.428,1.167-1.127,0.781c0.571-0.829,1.017-2.829,2.786-7.251c1.738-4.487,2.394-8.339,2.69-10.571    c0.14-1.124,0.261-1.425,0.529-2.274c0.259-0.849,0.685-2.244,1.243-5.589c1.046-6.684,2.159-7.886,2.215-5.912    C116.613,403.106,116.796,406.446,116.789,406.449z"
         id="path67" /><path
         style="fill:#231815;"
         d="M122.758,412.97c-1.064,2.611-2.378,6.453-4.521,9.08c-2.146,2.609-3.808,2.84-3.451,2.503    c0.321-0.375,0.317-1.651,1.675-3.548c1.359-1.929,2.023-3.727,2.289-4.798c0.225-1.09,0.549-0.428,1.693-3.505    c0.531-1.546,1.017-2.415,1.423-2.788c0.395-0.374,0.723-0.25,0.729,0.263C122.62,411.178,122.765,412.966,122.758,412.97z"
         id="path69" /><path
         style="fill:#231815;"
         d="M117.03,389.932c-1.365,3.252-2.967,7.188-4.932,11.153c-1.963,3.959-4.307,7.955-7.033,11.192    c-2.721,3.244-5.249,4.97-6.81,5.758c-1.577,0.785-2.157,0.786-1.619,0.484c0.533-0.32,1.207-1.005,2.239-2.14    c1.037-1.135,2.427-2.724,4.332-5.068c3.79-4.742,5.817-9.258,6.91-11.866c0.533-1.321,0.756-1.661,1.312-2.633    c0.538-0.979,1.448-2.579,3.029-6.555c1.561-3.982,2.594-6.319,3.252-7.343c0.643-1.028,0.917-0.743,0.656,0.476L117.03,389.932z"
         id="path71" /><path
         style="fill:#231815;"
         d="M112.761,409.216c-2.083,1.335-4.611,3.793-7.303,5.128c-1.338,0.666-2.449,0.866-3.13,0.849    c-0.687-0.019-0.919-0.211-0.707-0.268c0.448-0.147,0.883-1.23,2.67-2.275c1.816-1.076,3.076-2.267,3.747-3.024    c0.665-0.774,0.604-0.127,2.98-1.945c2.349-1.836,3.498-1.357,2.982-0.625C113.479,407.783,112.763,409.216,112.761,409.216z"
         id="path73" /><path
         style="fill:#231815;"
         d="M229.302,413.739c-2.581,0.114-6.812-0.028-10.896-0.161c-5.11-0.176-9.978-0.392-11.08-0.398    c-2.219,0.012-19.803-0.069-22.344-0.204c-2.556-0.059-5.838-0.179-7.658-0.265c-1.803-0.078-5.67,3.073-2.775,4.08    c2.92,1.007,7.138-0.381,11.057,0.837c1.474,0.466,7.399-1.975,10.328-1.964c2.94,0.025,10.281,0.458,12.853,0.047    c2.579-0.436,14.296,1.388,15.38,1.455c0.62,0.003,3.217,0.09,5.693,0.112C229.503,416.144,229.331,414.963,229.302,413.739z"
         id="path75" /><path
         style="fill:#231815;"
         d="M225.548,455.632c0.923-6.493,2.085-12.661,2.302-14.062c0.21-1.403,1.2-7.714,2.302-14.073    c1.091-6.36,2.278-12.77,2.579-14.403l0.79-4.199c-0.419-0.568-0.613-1.288-0.508-2.021c-0.607-0.244-1.287-0.379-1.74-0.422    c-0.33-0.032-0.638-0.036-0.919-0.009l-0.056,0.043l-0.395,0.404c-0.098,0.113-0.192,0.232-0.283,0.351    c0.013,0.004-0.071,0.161-0.147,0.299c-0.292,1.91-0.696,3.865-1.479,5.722c-0.767,1.803,0.37,9.696-0.265,13.435    c-0.663,3.739-2.605,13.053-2.666,16.402c-0.042,1.672-1.033,6.205-1.961,10.52c-0.939,4.312-1.807,8.414-1.878,9.125    c-0.076,0.711-0.359,3.437-0.542,6.292c-0.185,2.855-0.252,5.84-0.094,7.04c0.337,2.391,4.14,0.632,3.652-4.535    C223.986,468.938,224.604,462.122,225.548,455.632z"
         id="path77" /><path
         style="fill:#231815;"
         d="M268.101,414.117c-0.683,0.293-1.341,0.318-1.927,0.158c-0.892,1.324-1.814,2.633-2.782,3.906    c-1.013,1.341-2.978,5.038-4.928,9.228c-0.964,2.099-1.929,4.319-2.636,6.469c-0.366,1.085-0.573,2.141-0.877,3.082    c-0.292,0.952-0.609,1.827-0.935,2.586c-0.067,0.164-0.154,0.355-0.232,0.531c0.705-0.349,1.387-0.384,1.99-0.199    c0.419-1.009,0.823-2.028,1.173-3.062l0.332-1.009c0.096-0.297,0.205-0.597,0.321-0.898c0.232-0.599,0.495-1.195,0.772-1.785    c1.117-2.358,2.405-4.572,3.578-6.548c1.838-3.06,3.424-5.548,4.41-7.091c-0.205-0.793-0.045-1.674,0.716-2.438    c0.33-0.331,0.629-0.686,0.915-1.049C267.802,415.428,267.816,414.784,268.101,414.117z"
         id="path79" /><path
         style="fill:#231815;"
         d="M301.081,475.517c-0.497-0.656-1.492-1.524-3.074-2.228c-1.575-0.704-3.714-1.208-6.21-1.242    c-2.501-0.078-6.942,0.107-12.152,0.804c-5.213,0.639-11.238,1.713-17.082,2.009c-2.913,0.137-5.784,0.047-8.311-0.516    c-0.12-0.026-0.234-0.057-0.355-0.084c-0.044,0.566-0.105,1.131-0.161,1.697c1.86,0.463,3.832,0.688,5.773,0.767    c4.044,0.155,7.952-0.211,10.992-0.496c3.043-0.302,5.233-0.549,5.873-0.632c1.278-0.148,6.168-0.939,11.238-1.133    c2.532-0.09,5.106,0.026,7.234,0.418c2.139,0.372,3.797,1.031,4.718,1.45c0.919,0.417,1.495,0.587,1.775,0.443    C301.609,476.639,301.578,476.186,301.081,475.517z"
         id="path81" /><path
         style="fill:#231815;"
         d="M240.879,498.103c-0.091-0.348-0.109-0.722-0.045-1.115c-0.042-0.468,0.031-0.934,0.21-1.357    c-0.424-0.093-0.854-0.18-1.267-0.28c-1.606-0.393-3.109-0.839-4.425-1.298c-2.643-0.91-4.501-1.886-5.226-2.297    c-1.465-0.814-3.007-1.899-4.131-3.095c-1.142-1.19-1.831-2.467-2.139-3.421c-0.163-0.475-0.518-1.027-0.912-1.642    c-0.399-0.611-0.839-1.286-1.269-1.84c-0.435-0.548-0.868-0.965-1.312-0.964c-0.426,0.002-0.899,0.426-1.146,1.595    c-0.23,1.167-0.147,2.54,0.295,3.909c0.437,1.371,1.231,2.711,2.222,3.886c2.003,2.377,4.633,4.074,7.055,5.927    c0.91,0.712,3.732,1.444,6.765,1.783c1.813,0.207,3.678,0.341,5.349,0.46C240.894,498.272,240.879,498.188,240.879,498.103z"
         id="path83" /><path
         style="fill:#231815;"
         d="M300.021,502.493c-0.459-1.15-2.152-2.681-5.231-3.16c-1.526-0.245-4.223-0.827-7.495-1.279    c-3.268-0.466-7.102-0.798-10.832-0.972c-7.466-0.325-14.486-0.306-16.065-0.332c-0.64-0.009-2.22,0.019-4.319,0.01    c-0.19,0.217-0.366,0.455-0.522,0.708c-0.076,0.646-0.203,1.27-0.402,1.866c3.027,0.055,5.822-0.007,7.383-0.19    c1.852-0.209,7.04-0.008,11.914,0.447c4.89,0.427,9.38,1.299,10.143,1.41c0.772,0.093,3.738,0.452,6.748,1.125    c3.02,0.636,6.036,1.671,7.283,2.021C299.87,504.483,300.492,503.661,300.021,502.493z"
         id="path85" /><path
         style="fill:#231815;"
         d="M264.889,488.629c-3.607-0.707-7.352,0.326-10.007,0.156c-1.341-0.081-1.285-0.69-0.638-1.323    c0.64-0.631,1.896-1.238,2.764-1.295c1.729-0.136,4.832-0.231,7.236-0.199c1.202-0.003,5.922,0.099,10.569,0.508    c4.651,0.377,9.226,1.036,10.241,1.193c1.015,0.152,5.483,0.945,10.096,2.081c4.626,1.089,9.344,2.67,11.2,3.197    c1.878,0.487,2.878,1.469,3.15,2.19c0.277,0.725-0.123,1.206-0.908,0.937c-0.79-0.27-2.69-1.07-4.579-1.713    c-1.883-0.658-3.725-1.202-4.207-1.34c-0.477-0.146-3.223-1.178-6.228-2.044c-2.998-0.881-6.226-1.607-7.419-1.671    c-2.373-0.179-9.059-1.236-11.773-1.412C271.663,487.635,266.205,488.858,264.889,488.629z"
         id="path87" /><path
         style="fill:#231815;"
         d="M280.01,481.053c-1.782-0.64-3.569,0.482-4.907-0.056c-1.312-0.538,0.268-2.816,1.037-2.845    c0.79-0.027,2.217-0.097,3.33-0.169l9.79-0.723c0.484-0.031,2.641-0.043,4.914-0.038c2.275-0.008,4.669,0.073,5.621-0.122    c0.953-0.214,1.548,0.365,1.742,0.994c0.196,0.63,0.036,1.319-0.37,1.409c-0.801,0.13-3.921-0.014-4.403,0.012    c-0.236-0.006-1.62-0.293-3.112-0.481c-1.49-0.196-3.074-0.309-3.627-0.133c-1.102,0.347-4.332,0.314-5.617,0.416    C283.129,479.42,280.686,481.296,280.01,481.053z"
         id="path89" /><path
         style="fill:#231815;"
         d="M275.456,481.983c-1.486-0.52-3.092-0.574-4.573-0.518c-1.488,0.057-2.844,0.229-4.004,0.106    c-1.16-0.113-1.131-0.719-0.564-1.335c0.558-0.616,1.68-1.19,2.456-1.217c1.544-0.086,4.321-0.003,6.446,0.259    c1.066,0.096,5.237,0.699,9.188,1.887c3.968,1.131,7.709,2.716,8.53,3.076c0.83,0.349,4.419,2.061,7.977,4.151    c3.585,2.056,7.122,4.486,8.59,5.263c2.971,1.564,2.389,4.003,1.095,3.277c-0.649-0.353-2.124-1.398-3.569-2.364    c-1.441-0.973-2.848-1.867-3.217-2.099c-0.366-0.234-2.371-1.791-4.644-3.263c-2.258-1.488-4.78-2.865-5.777-3.171    c-0.99-0.314-2.813-1.095-4.698-1.825c-1.885-0.738-3.839-1.409-4.974-1.729c-1.138-0.328-2.956-0.422-4.6-0.409    C277.474,482.071,276.009,482.174,275.456,481.983z"
         id="path91" /><path
         style="fill:#231815;"
         d="M273.058,492.132c-1.236-0.579-2.619-0.73-3.892-0.773c-1.283-0.042-2.449,0.022-3.431-0.191    c-0.979-0.208-0.923-0.808-0.395-1.376c0.522-0.569,1.543-1.053,2.219-1.022c1.35,0.035,3.739,0.305,5.55,0.663    c0.915,0.149,4.457,0.924,7.814,2.066c3.368,1.11,6.578,2.479,7.287,2.788c0.714,0.301,3.792,1.783,6.928,3.46    c3.147,1.66,6.355,3.512,7.696,4.035c2.701,1.05,2.284,3.427,1.08,2.949c-1.187-0.492-5.541-3.016-6.219-3.355    c-0.332-0.183-2.141-1.452-4.136-2.685c-1.99-1.24-4.169-2.431-5.039-2.677c-1.718-0.535-6.344-2.623-8.307-3.216    c-0.97-0.321-2.552-0.425-3.982-0.456C274.795,492.308,273.517,492.344,273.058,492.132z"
         id="path93" /><path
         style="fill:#231815;"
         d="M131.674,205.652c-3.743-2.673-1.521-9.138,2.284-10.66c3.808-1.522,1.142,3.807,2.665,6.853    C138.145,204.89,134.34,207.555,131.674,205.652z"
         id="path95" /><path
         style="fill:#231815;"
         d="M129.009,231.92c0-9.548,3.426-10.279,5.331-7.614c1.903,2.664,2.282,4.188,0.379,7.994    C132.816,236.107,129.009,236.107,129.009,231.92z"
         id="path97" /><path
         style="fill:#231815;"
         d="M140.811,217.453c-3.426-0.762-3.047-4.568-0.382-4.949c2.666-0.381,1.142,3.425,3.426,4.187    C146.14,217.453,140.811,217.453,140.811,217.453z"
         id="path99" /><path
         style="fill:#231815;"
         d="M128.63,279.506c-3.35-2.513-5.713-9.897-0.763-11.039c4.95-1.142,6.092,3.426,12.184,3.426    c6.09,0,7.992,3.807,3.806,4.187c-4.187,0.381-4.566,0.381-7.613,1.523C133.198,278.745,130.151,280.648,128.63,279.506z"
         id="path101" /><path
         style="fill:#231815;"
         d="M131.293,293.592c-4.392,1.255-7.232-3.807-3.045-4.568c4.187-0.762,5.71-3.046,9.897-2.666    c4.189,0.381,7.234,2.666,5.331,4.95c-1.905,2.284-1.905,3.807-6.473,4.568C132.435,296.637,133.958,292.83,131.293,293.592z"
         id="path103" /><path
         style="fill:#231815;"
         d="M162.129,305.013c0,4.815,4.57,2.664,1.523,5.71c-3.045,3.045-4.568,4.949-6.852,0    c-2.284-4.95,1.142-5.33,0.381-7.614C156.419,300.825,162.129,302.729,162.129,305.013z"
         id="path105" /><path
         style="fill:#231815;"
         d="M155.658,331.28c-3.866-0.645-3.808-4.568-0.761-6.852c3.045-2.284,1.142,1.142,5.329,0.761    c4.187-0.38,3.807,0.38,2.284,3.046C160.987,330.899,157.942,331.661,155.658,331.28z"
         id="path107" /><path
         style="fill:#231815;"
         d="M151.471,349.172c-1.905-2.664-0.381-4.187,1.521-7.613c1.905-3.426,4.57-4.95,4.95-1.523    c0.381,3.426,0.761,4.568,1.903,6.472c1.142,1.904-0.761,7.993-3.426,8.755C153.755,356.025,151.471,349.172,151.471,349.172z"
         id="path109" /><path
         style="fill:#231815;"
         d="M149.187,367.445c-2.104-1.803-3.047-3.427-0.763-6.472c2.284-3.045,2.284-1.142,3.426,2.284    C152.992,366.684,151.85,369.73,149.187,367.445z"
         id="path111" /><path
         style="fill:#231815;"
         d="M151.471,386.48c-2.674-2.94-2.286-7.234-0.763-8.756s1.903-1.904,5.71,3.426    C160.226,386.48,155.276,390.668,151.471,386.48z"
         id="path113" /><path
         style="fill:#231815;"
         d="M185.713,380.403c-2.338,6.94,5.771,13.801,7.341,11.275c1.568-2.525-0.571-6.839,2.349-10.706    c2.918-3.867,1.856-8.716-3.308-9.917c-5.166-1.201-12.382-0.577-8.891,2.395C186.695,376.422,186.527,377.982,185.713,380.403z"
         id="path115" /><path
         style="fill:#231815;"
         d="M221.129,383.527c0.667,4.77-4.646,5.263-5.445,2.299c-0.798-2.964,0.77-5.491-0.783-8.348    c-1.55-2.857,1.798-6.4,5.235-3.805C223.574,376.266,220.812,381.265,221.129,383.527z"
         id="path117" /><path
         style="fill:#231815;"
         d="M237.535,388.154c-5.217-1.577-3.06-2.648-3.587-6.418c-0.526-3.77,1.744-6.778,3.507-2.411    c1.765,4.366,5.49,0.769,4.825,7.013C241.615,392.582,237.535,388.154,237.535,388.154z"
         id="path119" /><path
         style="fill:#231815;"
         d="M186.967,122.781c-0.473,5.914-1.568,12.073-2.634,14.882c-1.026,2.825-1.782,7.102,0.484,7.353    c1.901,0.204,2.895-4.345,2.654-6.516c-0.1-1.089,0.058-4.104,0.234-7.362c0.187-3.259,0.384-6.764,0.638-8.844    c0.517-4.159,0.87-8.346,0.914-11.991c0.025-1.835-0.897-3.137-1.626-3.224c-0.745-0.08-1.231,0.882-0.836,3.615    c0.37,2.759,0.451,4.4,0.471,6.024C187.272,118.345,187.194,119.974,186.967,122.781z"
         id="path121" /><path
         style="fill:#231815;"
         d="M186.733,91.593c0.058-2.792,0.071-5.872,0.065-9.125l-0.025-4.998    c-0.007-1.739,0.007-3.344-0.272-4.979c-1.008-6.605-5.18-12.604-8.07-18.586c-1.468-2.996-2.454-5.728-2.976-8.057    c-0.535-2.33-0.636-4.233-0.602-5.622c0.038-1.394,0.194-2.287,0.299-2.707c0.105-0.422,0.161-0.376,0.143,0.118    c-0.025,0.988,0.165,2.493,0.767,4.858c0.607,2.37,1.727,5.552,3.908,9.902c2.188,4.353,4.573,8.128,6.199,11.626    c1.673,3.474,2.576,6.643,2.933,9.045c0.183,1.198,0.207,1.998,0.201,2.698c-0.011,0.678-0.047,1.294-0.089,2.197    c-0.085,1.806-0.201,4.762-0.201,11.659c0,13.794-1.14,16.421-1.367,12.48C187.417,98.162,186.733,91.593,186.733,91.593z"
         id="path123" /><path
         style="fill:#231815;"
         d="M203.072,62.995c0.497,2.474-0.324,4.227-0.982,4.78c-0.337,0.274-0.68,0.403-0.959,0.08    c-0.274-0.318-0.422-0.941-0.41-1.888c0-0.474,0.044-1.286,0.011-2.333c-0.045-1.036-0.154-2.343-0.656-3.584    c-0.125-0.309-0.281-0.606-0.46-0.889c-0.265-0.41-0.435-0.705-0.68-1.048c-0.466-0.668-1.024-1.332-1.646-1.987    c-1.249-1.309-2.773-2.569-4.39-3.802c-3.243-2.456-6.83-4.886-9.661-7.489c-2.864-2.566-4.861-5.327-5.802-7.264    c-0.223-0.675,0.62,0.862,2.641,3.072c2.003,2.236,5.367,4.876,9.105,7.306c3.707,2.463,7.734,4.935,10.395,7.85    c0.651,0.703,1.258,1.505,1.686,2.144c0.549,0.749,0.886,1.517,1.124,2.193C202.849,61.501,202.963,62.518,203.072,62.995z"
         id="path125" /><path
         style="fill:#231815;"
         d="M184.616,36.237c-1.434-6.036-1.825-14.575-3.328-21.306c-0.736-3.369-1.559-5.635-2.059-6.991    c-0.511-1.349-0.631-1.812-0.343-1.366c0.279,0.45,0.848,1.033,1.593,2.164c0.734,1.129,1.642,2.834,2.315,5.451    c0.669,2.612,1.066,4.993,1.403,7.013c0.332,2.021,0.596,3.686,0.828,4.904c0.228,1.218,0.223,1.572,0.272,2.539    c0.076,0.958,0.089,2.566,0.843,6.13c0.801,3.544,1.57,5.534,1.82,6.537c0.27,0.991-0.051,1.001-0.647,0.093    C186.079,39.628,184.589,36.247,184.616,36.237z"
         id="path127" /><path
         style="fill:#231815;"
         d="M194.314,37.993c-2.639-4.526-5.026-11.4-7.91-16.574c-1.428-2.595-2.659-4.265-3.399-5.249    c-0.754-0.973-0.964-1.311-0.638-0.997c0.321,0.316,0.89,0.703,1.711,1.498c0.821,0.791,1.9,2.002,3.063,3.971    c2.277,3.959,3.658,7.32,4.624,9.195c0.468,0.946,0.56,1.232,0.852,2.004c0.31,0.76,0.74,2.056,2.23,4.798    c1.519,2.72,2.681,4.146,3.163,4.869c0.493,0.716,0.281,0.744-0.408,0.135C196.213,40.448,194.294,38.006,194.314,37.993z"
         id="path129" /><path
         style="fill:#231815;"
         d="M204.227,32.504c-0.573-3.385-1.999-7.334-3.921-11.23c-1.907-3.908-4.243-7.802-6.243-11.446    c-4.051-7.289-4.731-10.743-4.153-9.619c0.591,1.112,2.554,2.857,5.715,8.224c3.185,5.365,5.768,9.687,7.196,12.297    c0.72,1.3,0.834,1.718,1.202,2.828c0.326,1.126,1.055,2.897,2.157,7.232c1.028,4.373,0.765,7.107,0.5,8.307    c-0.301,1.215-0.638,0.988-0.776-0.241c-0.143-1.234-0.511-2.851-0.903-4.126C204.613,33.451,204.225,32.504,204.227,32.504z"
         id="path131" /><path
         style="fill:#231815;"
         d="M194.984,29.847c0.179-5.239-0.415-12.599-1.644-18.517c-0.591-2.965-1.135-5.018-1.43-6.258    c-0.303-1.235-0.314-1.665-0.12-1.244c0.19,0.422,0.649,0.975,1.233,2.004c0.578,1.026,1.301,2.535,1.845,4.824    c1.071,4.577,1.51,8.303,1.854,10.47c0.29,2.171-0.025,1.265,0.08,7.782c0.014,6.506-0.919,7.728-1.093,5.877    C195.532,32.929,194.988,29.844,194.984,29.847z"
         id="path133" /><path
         style="fill:#231815;"
         d="M214.796,45.726c0.656-3.687,1.095-8.186,0.787-12.823c-0.301-4.658-0.975-9.488-1.526-13.882    c-1.151-8.784-1.231-12.386-0.977-11.077c0.219,1.316,1.345,3.826,2.336,10.431c0.977,6.605,1.669,11.906,1.949,15.054    c0.141,1.575,0.094,2.041,0.018,3.277c-0.107,1.234-0.174,3.275-0.816,7.935c-0.689,4.65-1.448,7.325-1.869,8.548    c-0.439,1.218-0.636,0.959-0.482-0.368C214.544,50.166,214.814,45.722,214.796,45.726z"
         id="path135" /><path
         style="fill:#231815;"
         d="M207.277,33.312c0.718-2.378,1.568-5.239,2.568-8.141c0.984-2.905,2.115-5.844,2.962-8.457    c0.868-2.612,1.135-4.406,1.182-5.538c0.036-1.122,0.058-1.55,0.212-1.145c0.123,0.401,0.54,0.95,0.839,2.053    c0.299,1.09,0.402,2.754-0.176,4.893c-0.578,2.133-1.22,3.972-1.706,5.554c-0.493,1.578-0.861,2.886-1.089,3.861    c-0.227,0.975-0.372,1.223-0.707,1.932c-0.319,0.712-0.874,1.875-1.66,4.733c-0.765,2.859-1.334,4.539-1.787,5.293    c-0.444,0.754-0.761,0.565-0.727-0.309L207.277,33.312z"
         id="path137" /><path
         style="fill:#231815;"
         d="M207.629,73.295c0.754-4.029,1.95-9.614,3.623-13.999c1.664-4.372,3.051-5.884,2.853-5.22    c-0.201,0.668,0.254,2.289-0.827,5.627c-1.084,3.334-1.66,6.069-1.847,7.686c-0.096,0.809-0.205,1.016-0.437,1.609    c-0.219,0.593-0.613,1.573-1.006,3.938c-0.37,2.362-0.678,3.752-1.008,4.412c-0.324,0.658-0.663,0.555-0.767-0.161    C207.986,75.773,207.618,73.3,207.629,73.295z"
         id="path139" /><path
         style="fill:#231815;"
         d="M210.009,82.473c0.067,2.163,0.495,4.748,1.008,7.444c0.504,2.693,1.059,5.537,1.162,8.21    c0.114,2.673-0.283,4.562-0.631,5.62c-0.361,1.063-0.638,1.345-0.589,0.96c0.067-0.794-0.547-2.392-0.803-6.159    c-0.326-3.804-1.176-6.813-1.671-8.574c-0.261-0.882-0.245-1.149-0.272-1.872c-0.016-0.726-0.114-1.898-0.402-4.644    c-0.27-2.755,0.007-4.422,0.308-5.171c0.308-0.753,0.649-0.615,0.772,0.154C209.115,79.993,210.005,82.48,210.009,82.473z"
         id="path141" /><path
         style="fill:#231815;"
         d="M212.012,112.824c0.493-2.678-0.87-5.303-0.464-7.309c0.406-1.995,2.978,0.213,3.101,1.408    l0.535,5.056c0.181,1.676,1.55,13.272,1.657,14.75c0.071,0.729,0.254,3.969,0.373,7.378c0.136,3.408,0.114,6.986,0.337,8.367    c0.466,2.804-2.313,3.535-2.496,2.305c-0.092-0.608-0.078-2.104-0.087-3.541l-0.036-3.177c0-0.359,0.241-2.469,0.352-4.723    c0.118-2.251,0.118-4.633-0.109-5.465c-0.446-1.664-0.685-6.521-0.917-8.453C214.033,117.489,211.827,113.829,212.012,112.824z"
         id="path143" /><path
         style="fill:#231815;"
         d="M242.743,366.978c0.192-0.502,0.442-0.942,0.729-1.335c-2.608-0.79-5.512-1.527-8.432-2.083    c-8.952-1.739-18.057-2.107-20.346-2.275c-4.608-0.268-10.499-0.542-13.756-0.767c-3.23-0.188-10.002,1.525-4.805,2.597    c5.235,1.065,12.732,0.279,19.678,1.488c1.296,0.229,4.571,0.065,8.182,0.016c3.607-0.052,7.566,0.07,10.147,0.57    c2.014,0.373,5.186,1.108,8.499,2.135C242.674,367.208,242.699,367.095,242.743,366.978z"
         id="path145" /><path
         style="fill:#231815;"
         d="M272.475,396.76c-0.219-4.138-1.332-8.931-3.415-13.214c-0.522-1.13-1.198-2.128-1.827-3.084    c-0.647-0.96-1.334-1.877-2.048-2.734c-1.425-1.717-2.973-3.179-4.454-4.336c-2.318-1.794-4.374-2.884-5.612-3.485    c-0.149,0.589-0.27,1.186-0.372,1.785c0.013,0.027,0.025,0.055,0.038,0.082c0.401,0.181,0.778,0.352,1.093,0.497    c1.035,0.481,2.931,1.58,4.894,3.338c1.974,1.742,3.935,4.168,5.44,6.763c1.515,2.534,2.36,5.375,2.887,7.553    c0.52,2.202,0.645,3.832,0.725,4.301c0.134,0.932,0.587,4.602-0.004,8.365c-0.493,3.784-2.161,7.419-2.906,8.818    c-0.712,1.41-0.245,2.001,0.935,1.358c1.14-0.628,3.063-2.726,3.852-6.539C272.081,404.351,272.725,400.91,272.475,396.76z"
         id="path147" /><path
         style="fill:#231815;"
         d="M169.378,412.415c1.863,1.417,4.118,0.049,5.521,0.91c0.718,0.431,0.656,1.481,0.225,2.427    c-0.428,0.946-1.24,1.762-1.755,1.731c-1.028-0.051-2.855-0.221-4.258-0.424c-0.705-0.091-3.457-0.505-6.143-1.18    c-2.69-0.646-5.302-1.592-5.875-1.827c-0.576-0.225-3.065-1.388-5.496-3.049c-1.218-0.826-2.411-1.786-3.386-2.709    c-0.979-0.919-1.733-1.797-2.257-2.245c-1.071-0.925-0.738-2.175,0-2.794c0.727-0.645,1.769-0.85,2.099-0.534    c0.335,0.335,0.861,1.229,1.526,2.005c0.649,0.785,1.396,1.465,1.597,1.639c0.183,0.175,1.097,1.518,2.44,2.722    c1.316,1.216,2.956,2.265,3.663,2.32c0.707,0.063,1.918,0.524,3.17,0.975c1.251,0.453,2.538,0.901,3.292,1.084    c0.756,0.185,2.034-0.178,3.165-0.557C168.042,412.536,169.039,412.153,169.378,412.415z"
         id="path149" /><path
         style="fill:#231815;"
         d="M286.319,379.288c-0.649-2.477-1.796-4.845-3.223-6.804c-1.419-1.97-3.078-3.528-4.546-4.705    c-1.483-1.159-2.715-2.03-3.683-2.513c-1.794-0.965-4.102-1.342-6.609-1.61c-2.503-0.297-5.353-0.417-8.22-1.5    c-0.129-0.051-0.232-0.095-0.353-0.145c0.085,0.334,0.167,0.67,0.254,1.005c0.129,0.003,0.259-0.014,0.386-0.001    c0.489,0.048,0.964,0.132,1.443,0.223h0.002c0.044,0.001,0.078,0.001,0.143,0.003c1.294,0.036,2.4,0.895,2.737,2.097    c0.888,0.153,1.907,0.317,3.025,0.487c1.352,0.22,2.844,0.471,4.336,0.889c0.745,0.209,1.497,0.467,2.195,0.788    c0.658,0.304,1.408,0.778,2.112,1.239c2.849,1.859,5.34,4.444,6.779,7.243c1.472,2.785,1.939,5.633,1.985,7.647    c0.1,4.048-0.569,7.977-1.59,11.683c-0.52,1.853-1.138,3.65-1.842,5.378c-0.359,0.841-0.709,1.76-1.14,2.488    c-0.455,0.804-0.924,1.59-1.403,2.361c-1.912,3.082-4.526,7.502-6.964,11.776c-2.445,4.27-4.615,8.434-5.784,10.889l-2.465,5.084    c-0.914,2.096-2.074,4.411-3.27,6.641l-3.335,6.234c-0.957,1.832-1.677,3.329-2.086,4.141c-0.46,0.906-1.008,2.15-1.521,3.595    c0.136,2.147,0.259,4.294,0.348,6.44c0.067-0.483,0.132-0.968,0.221-1.442c1.059-5.496,3.576-10.108,4.327-11.706    c0.393-0.799,1.225-2.42,2.318-4.463c1.086-2.046,2.431-4.519,3.647-7.092c2.282-5.03,5.019-9.858,5.804-11.486    c0.393-0.812,1.597-2.939,3.295-5.785l6.096-10.18c4.905-7.466,7.343-16.87,7.359-21.551    C287.173,384.312,286.983,381.763,286.319,379.288z"
         id="path151" /><path
         style="fill:#231815;"
         d="M286.776,465.103c-0.326-0.081-0.792-0.065-1.677-0.179c-0.908-0.087-2.159-0.646-4.008-1.123    c-0.91-0.241-2.092-0.311-3.094-0.23c-1.051,0.061-2.182,0.27-3.257,0.616c-1.08,0.342-2.068,0.78-3.022,1.104l-0.718,0.227    l-0.361,0.098c-0.111,0.031-0.277,0.068-0.27,0.064c-0.404,0.035-1.03,0.105-1.544,0.13c-2.159,0.149-4.37,0.113-6.495-0.026    c-2.126-0.146-4.825-0.475-7.647-1.13l-0.531-0.131c0.009,0.598,0.02,1.196,0.022,1.793c3.105,0.706,9.643,1.668,15.907,0.922    c1.76-0.21,3.236-1.027,4.695-1.542c1.445-0.55,2.902-0.777,4.209-0.779c1.294-0.006,2.398,0.371,3.268,0.658    c0.87,0.301,1.535,0.519,1.916,0.618c0.763,0.213,1.51,0.198,2.039,0.027c0.533-0.167,0.841-0.448,0.923-0.666    C287.213,465.333,287.088,465.172,286.776,465.103z"
         id="path153" /><path
         style="fill:#231815;"
         d="M88.784,313.357c0.475-7.393-1.738-15.106-0.944-20.738c0.393-2.798,1.459-2.426,2.411-0.98    c0.955,1.451,1.871,3.958,1.958,5.649c0.136,3.384,0.647,9.497,1.075,14.302c0.1,1.2,0.372,4.159,0.629,8.024    c0.127,1.932,0.239,4.091,0.308,6.366c0.029,1.138,0.056,2.303,0.056,3.483l0.002,0.356l0.029,0.317l0.076,0.887l0.136,1.779    c0.64,9.496,0.468,18.791,0.509,20.852c0.036,2.064-0.33,11.171-0.022,20.609c0.161,4.719,0.555,9.52,1.193,13.549    c0.62,4.035,1.486,7.283,2.155,8.998c1.323,3.424,1.501,5.942,1.093,7.383c-0.402,1.426-1.437,1.695-2.264,0.127    c-0.836-1.552-2.311-5.703-3.216-9.803c-0.946-4.092-1.432-8.074-1.555-9.109c-0.145-1.039-0.372-7.136-0.192-13.517    c0.145-6.385,0.5-13.079,0.281-15.486c-0.216-2.407-0.196-7.045-0.21-11.764c-0.004-4.719-0.118-9.523-0.337-12.26    c-0.051-0.684-0.154-1.451-0.297-2.27c-0.098-0.895-0.181-1.736-0.319-2.667c-0.265-1.833-0.647-3.783-1.042-5.639    C89.513,318.094,88.688,314.742,88.784,313.357z"
         id="path155" /><path
         style="fill:#231815;"
         d="M144.032,436.194c-2.559-0.945-5.244-1.373-7.794-1.942c-2.536-0.556-4.952-1.282-6.629-2.567    c-1.664-1.31-0.854-2.102,0.466-2.473c1.341-0.371,3.214-0.474,4.281-0.096c2.119,0.823,6.168,1.867,9.422,2.348    c0.81,0.134,2.815,0.434,5.443,0.681c2.626,0.246,5.876,0.429,9.126,0.489c6.502,0.13,12.991-0.175,14.432-0.236    c1.439-0.051,7.818-0.176,14.524-0.54c6.703-0.364,13.734-0.795,16.411-1.298c2.674-0.527,4.553,0.192,5.407,1.084    c0.857,0.892,0.723,1.947-0.471,2.163c-1.198,0.215-4.189,0.393-7.073,0.591l-6.377,0.418c-1.441,0.083-17.011-0.519-20.372,0.018    c-1.684,0.295-4.954,0.444-8.287,0.465c-3.335,0.027-6.727-0.096-8.666-0.146c-1.938-0.039-4.865,0.478-7.604,0.839    C147.538,436.354,144.989,436.557,144.032,436.194z"
         id="path157" /><path
         style="fill:#231815;"
         d="M104.55,290.112c-0.837-0.124-1.354,0.358-1.905,0.838c-0.538,0.479-1.164,0.965-1.881,0.773    c-0.72-0.201-0.888-1.256-0.964-2.232c-0.058-0.979-0.091-1.871,0.103-1.972c0.404-0.177,1.169-0.651,1.878-1.134    c0.181-0.117,0.607-0.415,1.271-0.816c0.335-0.197,0.718-0.419,1.169-0.626c0.444-0.217,0.957-0.399,1.352-0.531    c0.676-0.261,1.53-0.565,2.164-0.781l1.327-0.428c0.361-0.112,2.03-0.402,3.785-0.642c1.758-0.259,3.598-0.417,4.292-0.87    c1.457-0.908,1.925,2.908,1.334,3.33c-0.573,0.392-2.819,0.577-3.159,0.651c-0.167,0.02-1.214-0.26-2.355-0.39    c-1.138-0.136-2.358-0.122-2.697,0.2c-0.685,0.62-3.052,0.995-3.966,1.355c-0.473,0.143-0.859,0.999-1.062,1.787    C105.021,289.414,104.869,290.155,104.55,290.112z"
         id="path159" /><path
         style="fill:#231815;"
         d="M102.054,329.796c-0.736-0.317-1.256,0.032-1.628,0.402c-0.386,0.379-0.598,0.746-1.115,0.633    c-0.506-0.11-1.287-0.825-1.718-1.712c-0.453-0.883-0.477-1.943-0.152-2.15c0.638-0.447,1.782-1.039,2.663-1.387    c0.442-0.193,2.166-0.825,3.861-1.226c1.695-0.426,3.37-0.704,3.743-0.763c0.372-0.064,2.045-0.117,3.772-0.185    c1.727-0.078,3.518-0.175,4.2-0.616c1.408-0.887,1.896,2.924,1.296,3.344c-0.578,0.405-2.918,0.525-3.272,0.565    c-0.176,0.012-1.236-0.33-2.376-0.574c-1.138-0.247-2.351-0.39-2.735-0.115c-0.765,0.527-3.185,0.568-4.12,0.824    c-0.468,0.115-0.999,0.918-1.419,1.66C102.625,329.233,102.326,329.917,102.054,329.796z"
         id="path161" /><path
         style="fill:#231815;"
         d="M134.652,414.942c-0.83-0.962-1.155,0.687-1.78-0.074c-0.558-0.765-0.504-4.187-0.335-4.215    c0.221-0.039,0.618-0.119,0.935-0.196c0.297-0.042,2.556-0.712,2.871-0.825c0.283-0.094,2.887-0.023,3.259-0.98    c0.388-0.973,1.506,2.657,1.361,3.13c-0.138,0.466-1.091,0.731-1.238,0.777c-0.132,0.032-2.199-1.092-2.425-0.577    c-0.219,0.512-1.336,0.419-1.733,0.533C135.192,412.627,135,415.297,134.652,414.942z"
         id="path163" /><path
         style="fill:#231815;"
         d="M213.565,433.757c-0.919-0.362-1.677-0.104-2.438,0.129c-0.749,0.237-1.492,0.468-2.11,0.056    c-0.616-0.409-0.504-1.466-0.237-2.419c0.277-0.948,0.68-1.813,0.97-1.833c0.593-0.041,1.662-0.185,2.487-0.38    c0.41-0.088,2.032-0.499,3.569-1.194c1.544-0.668,2.982-1.566,3.294-1.772c0.317-0.195,1.831-0.935,3.252-2.009    c1.43-1.055,2.719-2.431,2.857-3.233c0.245-1.554,3.533,0.363,3.433,1.168c-0.087,0.836-2.036,2.932-2.369,3.201    c-0.154,0.149-1.343,0.712-2.574,1.236c-1.227,0.54-2.492,1.034-2.779,1.469c-0.553,0.926-3.194,1.918-4.209,2.301    c-0.497,0.224-1.031,1.106-1.613,1.91C214.528,433.192,213.91,433.89,213.565,433.757z"
         id="path165" /><path
         style="fill:#231815;"
         d="M133.285,447.174c1.129-4.428-0.421-9.09,0.422-12.397c0.843-3.306,4.214,0.826,4.214,2.892v8.677    l-0.02,25.195c0.007,1.235-0.185,6.697-0.127,12.402c0.033,5.702,0.437,11.646,1.167,13.734c0.687,2.115,0.281,3.452-0.321,4.215    c-0.299,0.412-0.546,0.842-0.919,1.026c-0.359,0.209-0.883,0.054-1.216-0.526c-1.414-2.213-1.867-10.505-1.925-11.758    c-0.038-0.627,0.208-4.28,0.489-8.115c0.272-3.837,0.553-7.866,0.335-9.312c-0.457-2.893-0.011-11.163,0.011-14.465    C135.393,455.438,132.863,448.827,133.285,447.174z"
         id="path167" /><path
         style="fill:#231815;"
         d="M191.707,433.984c0.051-0.214,0.127-0.434,0.225-0.654c0.118-0.262,0.254-0.492,0.408-0.688    c0.312-0.392,0.703-0.677,1.086-0.792c0.384-0.119,0.725-0.064,1.013,0.069c0.29,0.131,0.52,0.31,0.807,0.636    c0.488,0.526,0.649,0.824,0.658,0.958c-0.005,0.108-0.31,0.025-0.616,0.475c-0.265,0.401-0.245,0.982-0.169,1.529    c0.083,0.548,0.257,1.076,0.426,1.566c0.346,0.985,0.689,1.834,0.511,2.592c-0.181,0.758-0.187,2.411-0.018,4.361    c0.141,1.947,0.544,4.183,0.718,6.281c0.406,3.857,0.134,15.982,0.587,17.527c0.442,1.541,0.566,9.544,0.591,11.095    c0.024,1.549-0.286,9.048-0.25,12.669c0.042,3.621-0.357,7.763,0.065,9.576c0.424,1.815-2.527,1.035-2.529-0.254    c0.011-1.293-0.486-10.582-0.527-12.905c-0.029-2.323-0.08-5.679,0.319-7.234c0.397-1.556,0.292-8.269-0.163-10.586    c-0.46-2.318-1.381-7.99-0.988-11.096c0.386-3.076-0.888-6.518-0.486-10.021c0.136-1.719-0.542-4.932-1.091-7.923    c-0.277-1.504-0.524-2.972-0.642-4.236C191.52,435.677,191.562,434.566,191.707,433.984z"
         id="path169" /><g
         id="g171"><g
           id="g173"><path
             style="fill:#231815;"
             d="M260.138,307.257c4.914-1.138,9.884-2.349,14.74-3.707l14.339-4.19      c9.315-2.757,18.003-5.37,25.268-7.343c14.515-4.016-2.967,3.173-12.041,5.761l-17.64,5.099l-10.354,2.982      c-3.473,0.967-6.89,1.858-10.08,2.692l-17.459,4.573c-4.158,1.111-8.804,2.373-13.723,3.795      c-2.458,0.712-4.983,1.464-7.544,2.269l-3.859,1.251l-3.127,1.086v0.913l-0.741-1.068c3.181,1.183,6.614,1.889,10.058,2.381      c3.449,0.484,6.928,0.743,10.348,0.89c6.841,0.287,13.448,0.138,19.38-0.007c5.92-0.176,11.231-0.262,15.382-0.219l8.789,0.05      l20.682,0.264l8.095,0.072c2.824,0.029,5.802-0.014,8.882,0.117c6.139,0.216,12.565,0.941,19.007,0.795      c3.219-0.075,6.435-0.399,9.567-1.059c3.13-0.656,6.181-1.652,9.047-2.895c5.724-2.792,11.528-5.15,16.803-7.262l24.229-9.42      c19.237-7.609,26.832-8.882,18.193-5.126c-4.336,1.854-15.345,6.031-25.909,10.017c-10.573,3.971-20.611,7.98-23.194,9.105      l-4.113,1.736c-1.013,0.438-2.17,0.948-3.44,1.537c-1.247,0.611-2.735,1.263-4.305,1.823c-3.161,1.154-6.893,2.12-10.946,2.586      c-4.053,0.483-8.392,0.456-12.746,0.207c-4.356-0.244-8.749-0.646-13.013-0.81c-4.258-0.147-8.4-0.108-12.192-0.18      c-7.591-0.096-13.828-0.191-17.122-0.171l-13.741-0.024c-2.808-0.001-5.82-0.028-8.929,0.007l-9.567,0.207      c-6.471,0.152-13.011,0.215-18.867-0.056c-5.855-0.253-11.017-0.875-14.711-1.66c-1.86-0.389-3.946-0.894-6.13-1.669      l-0.114-0.041l-0.002-0.127l-0.029-1.857l2.998-1.126l2.993-1.069c2.03-0.711,4.124-1.413,6.234-2.106      c4.225-1.382,8.521-2.717,12.54-3.93C250.118,309.93,257.044,307.975,260.138,307.257z"
             id="path175" /><path
             style="fill:#231815;"
             d="M257.648,333.731c-7.038-0.303-14.265-0.344-21.044-0.369l-9.757-0.055l-1.149-0.014      l-0.569-0.008l-0.382-0.026l-0.301-0.044c-0.788-0.128-1.539-0.314-2.266-0.556c-1.445-0.482-2.813-1.196-3.855-2.268      c-1.048-1.082-1.367-2.22-1.439-2.916c-0.067-0.716,0.042-1.067,0.116-1.144c0.203-0.167,0.263,0.815,0.995,1.965      c0.712,1.165,2.284,2.178,4.1,2.688c0.901,0.268,1.858,0.449,2.753,0.543l2.601-0.003l27.586,0.325l40.557,0.403      c17.898,0.162,35.632,0.229,39.569,0.216c1.961-0.022,7.327,0.073,14.392-0.098c0.44-0.02,0.874-0.033,1.247-0.099      c0.408-0.068,0.848-0.171,1.292-0.284c0.888-0.227,1.807-0.5,2.744-0.79c1.876-0.582,3.828-1.242,5.831-1.942      c4.008-1.401,8.229-2.967,12.48-4.593c17.017-6.483,34.496-14.074,40.856-17.429c3.185-1.651,5.9-3.015,7.863-4.233      c0.411-0.27,0.265-0.044,0.422-0.785l0.286-1.441c0.185-0.882,0.361-1.605,0.522-2.164c0.64-2.237,1.017-1.859,0.694,1.413      l-0.379,3.476c-0.123,0.187-0.361,0.31-0.547,0.469l-0.468,0.332c-0.308,0.212-0.633,0.421-0.97,0.629      c-0.674,0.417-1.396,0.832-2.157,1.25c-3.045,1.669-6.683,3.409-10.27,5.059c-7.176,3.292-14.158,6.192-15.978,6.954      c-1.822,0.761-12.507,5.029-23.939,9.171c-5.724,2.049-11.597,4.175-16.727,5.552c-0.645,0.158-1.278,0.313-1.918,0.364      c-0.634,0.046-1.247,0.059-1.843,0.075l-3.321,0.052l-4.849,0.064c-9.201,0.233-35.474-0.116-45.984-0.215      C283.93,333.167,262.902,333.96,257.648,333.731z"
             id="path177" /><path
             style="fill:#231815;"
             d="M342.936,292.085c-6.406-0.391-13.134,0.565-17.936,0.166c-4.785-0.41,1.189-2.094,4.156-2.155      l12.525-0.296c2.09-0.043,10.301-0.317,18.465-0.326c4.08-0.008,8.151,0.081,11.425,0.237c3.266,0.157,5.766,0.382,6.661,0.477      c1.644,0.261,9.581,0.347,17.867,0.379c8.294,0.018,16.977,0.284,20.297,0.348c3.321,0.014,5.556,0.675,6.531,1.269      c0.977,0.603,0.734,1.089-0.741,0.988c-1.477-0.11-5.17-0.419-8.737-0.558c-3.565-0.155-6.991-0.214-7.885-0.232      c-0.892-0.024-6.105-0.303-11.63-0.47c-5.523-0.168-11.345-0.321-13.439-0.316c-1.046,0.042-2.594-0.096-4.356-0.239      c-1.776-0.136-3.801-0.26-5.851-0.356c-4.096-0.195-8.276-0.267-10.662-0.262C354.839,290.725,345.327,292.225,342.936,292.085z      "
             id="path179" /><path
             style="fill:#231815;"
             d="M357.627,360.71c-7.278,1.845-14.963,2.056-20.178,1.782c-2.616-0.149-2.355-0.773-0.961-1.42      c1.392-0.639,3.917-1.162,5.57-1.17c1.657-0.013,3.962-0.022,6.38-0.205c2.42-0.179,4.95-0.593,7.073-1.228      c0.531-0.16,1.45-0.44,2.612-0.92l4.41-1.894l11.724-5.099c8.305-3.631,16.625-7.064,18.49-7.789      c0.928-0.374,3.457-1.349,6.852-2.601c1.682-0.615,3.654-1.322,5.619-2.006l0.136-0.073l0.359-0.227l0.732-0.442l1.49-0.843      c0.999-0.549,1.999-1.08,2.958-1.651c0.961-0.569,1.878-1.183,2.735-1.862c0.426-0.34,0.839-0.695,1.234-1.066l0.294-0.28      c0.114-0.112,0.08-0.077,0.196-0.219c0.167-0.204,0.326-0.412,0.48-0.623c1.231-1.688,1.976-3.598,2.306-5.432      c0.656-3.702-0.138-6.905-0.647-8.55c-1.095-3.316-1.713-5.672-1.673-6.955c0.011-1.266,0.658-1.406,1.454,0.09      c0.776,1.483,2.465,5.414,2.996,9.534c0.279,2.047,0.25,4.112-0.02,5.757c-0.254,1.65-0.707,2.86-0.897,3.352      c-0.196,0.48-0.915,2.195-2.547,4.056c-1.805,1.845-4.403,3.413-7.18,4.785l-2.046,1.064l-0.995,0.56l-0.495,0.298      c-0.176,0.139-0.419,0.162-0.578,0.232c-1.432,0.47-2.82,0.926-4.082,1.374c-2.53,0.881-4.586,1.669-5.643,2.156      c-4.258,1.883-16.589,6.836-21.456,8.986c-2.44,1.059-5.942,3.003-9.159,4.779C361.946,358.714,359.066,360.375,357.627,360.71z      "
             id="path181" /><path
             style="fill:#231815;"
             d="M247.218,359.672c-0.823-0.027-1.642-0.051-2.429-0.064l-1.408-0.014      c-0.455-0.008-0.964,0.005-1.187-0.026c-0.618-0.075-1.314-0.332-1.916-0.629c-0.607-0.302-1.153-0.658-1.573-1.005      c-0.207-0.173-0.381-0.347-0.488-0.482l-0.051-0.072l-0.063-0.225c-0.259-0.908-0.433-1.612-0.542-2.057      c-0.544-2.231-0.97-4.818-1.118-7.26c-0.161-2.442-0.053-4.732,0.096-6.363c0.134-1.626,0.011-4.141-0.254-5.657      c-0.265-1.506-0.832-2.008-1.604,0.647c-0.743,2.661-1.055,6.031-0.901,9.615c0.138,3.592,0.774,7.349,1.419,11.015      c0.04,0.228,0.109,0.506,0.201,0.83c0.103,0.53,0.33,0.852,0.52,1.12c0.254,0.329,0.529,0.587,0.823,0.825      c0.587,0.472,1.256,0.865,2.012,1.207c0.756,0.337,1.593,0.626,2.547,0.763c0.239,0.034,0.484,0.056,0.741,0.06      c0.263,0.009,0.533-0.017,0.718-0.034l1.276-0.112c0.901-0.076,1.816-0.14,2.719-0.191      C246.868,360.922,247.02,360.288,247.218,359.672z"
             id="path183" /><path
             style="fill:#231815;"
             d="M317.422,361.667c-3.649,0.605-13.386,1.255-22.714,1.149c-9.331-0.05-18.229-0.695-20.241-0.811      l-2.318-0.147l-3.984-0.446c-2.527-0.282-5.579-0.623-8.824-0.932c0.107,0.537,0.225,1.072,0.361,1.605      c1.854,0.196,3.848,0.42,5.847,0.658l6.596,0.748c2.023,0.117,3.747,0.177,4.932,0.176c2.367-0.001,8.929,0.491,15.179,0.752      c6.25,0.284,12.181,0.326,13.199,0.279c1.015-0.038,4.905-0.199,8.956-0.537c4.051-0.323,8.253-0.839,9.917-1.163      C327.652,362.321,324.703,360.489,317.422,361.667z"
             id="path185" /><path
             style="fill:#231815;"
             d="M335.934,426.715c-0.025,1.187-0.022,2.372,0.02,3.543c0.009,0.57,0.074,1.183,0.08,1.842      l0.044,1.865l0.147,7.374c0.078,4.914,0.089,9.814,0.045,14.62c-0.107,9.613-0.23,18.823-0.21,27.2l-3.75-1.555      c0.196-0.194,0.444-0.365,0.698-0.482c0.312-0.178,1.115-0.277,1.544-0.119c0.207,0.059,0.419,0.153,0.611,0.274      c0.176,0.104,0.404,0.313,0.426,0.345c0.132,0.138,0.25,0.293,0.348,0.456c0.107,0.184,0.178,0.357,0.223,0.476l0.089,0.29      c0.08,0.308,0.109,0.515,0.141,0.718c0.053,0.396,0.078,0.732,0.1,1.067c0.045,0.664,0.062,1.287,0.074,1.905      c0.025,1.231,0.018,2.421,0.002,3.586c-0.033,2.328-0.109,4.554-0.192,6.668c-0.183,4.331-0.323,6.368-0.54,6.484      c-0.016,0.134-0.413,0.29-0.709-0.084c-0.312-0.359-0.62-1.176-0.89-2.194c-0.544-2.057-0.979-5.07-1.327-8.302l-0.473-4.92      l-0.23-2.372c-0.04-0.374-0.085-0.744-0.138-1.054c-0.025-0.15-0.056-0.295-0.076-0.347l-0.005-0.005      c0.087-0.021,0.426-0.125,0.551-0.149c0.33-0.078,0.718-0.243,0.921-0.314c0.257-0.12,0.415-0.223,0.469-0.295      c0.031-0.124-0.004,0.04,0.125,0.113l-2.465-1.377l0.038,1.187c-0.027-0.891-0.042-1.744-0.038-2.542      c0.005-5.878,0.223-14.115,0.417-22.865c0.085-4.375,0.118-8.881,0.042-13.311c-0.078-4.403-0.241-8.849-0.486-12.792      c-0.207-2.103-0.35-5.767-0.299-10.471c0.038-4.715,0.25-10.521,0.451-17.036c0.098-3.256,0.19-6.691,0.199-10.239      c0.002-1.773-0.018-3.575-0.094-5.382c-0.038-0.903-0.089-1.807-0.165-2.703c-0.054-0.741-0.236-1.902-0.279-2.873      c-0.241-3.997-0.114-7.894-0.138-11.818c-0.022-3.901-0.092-7.846-0.716-11.508c-0.317-1.803-0.807-3.578-1.579-4.816      c-0.337-0.552-0.935-1.204-1.515-1.705c-0.6-0.524-1.283-0.977-2.023-1.367c-2.989-1.569-6.708-2.162-10.315-2.49      c-7.296-0.579-14.481-0.236-20.872-0.186c-6.404,0.101-12.079,0.047-16.585-0.186c-2.255-0.109-4.218-0.254-5.837-0.399      c-0.837-0.074-1.492-0.144-2.063-0.172c-0.576-0.035-1.066-0.042-1.468-0.045c-1.573,0.033-4.653,0.031-8.037,1.764      c-1.675,0.872-3.37,2.232-4.818,4.181c-1.456,1.938-2.659,4.433-3.553,7.287c-1.802,5.729-2.431,12.766-2.505,20.237      c-0.089,7.497,0.442,15.469,0.729,23.652l0.272,24.338c0.098,7.97,0.067,15.721-0.344,22.861      c-0.199,3.57-0.486,6.985-0.843,10.195c-0.404,3.161-0.544,5.985-0.555,8.709c-0.007,5.395,0.341,9.912,0.553,13.135      c0.178,2.517,0.292,4.9,0.303,7.142c0.007,2.214-0.031,4.276-0.174,6.207c-0.263,3.829-0.984,7.096-1.74,9.313l-0.029,0.063      l-0.022,0.065c-0.207,1.081-0.468,1.766-0.698,2.456l-0.335,0.902c-0.054,0.13-0.105,0.265-0.145,0.346l-0.013,0.019      c0.049,0.006-0.103-0.004-0.236-0.006l-0.348,0.003c-0.21-0.007-0.314,0.069-0.317,0.024l-0.176-0.109l-0.283-0.13l-0.172-0.072      l-0.1-0.037l0.009-0.006l0.02-0.018l0.045-0.057c0.513-0.781,0.91-1.266,1.182-1.27c0.27-0.015,0.419,0.389,0.386,1.25      l-0.027,0.351l-0.029,0.206l-0.029,0.131l-0.033,0.099l-0.051,0.107l-0.129,0.167l-0.08,0.073      c-0.085,0.066-0.201,0.126-0.33,0.155c-0.281,0.053-0.469-0.009-0.627-0.107c-0.172-0.089-0.324-0.339-0.341-0.415l-0.027-0.086      l-0.027-0.139l-0.011-0.101l-0.004-0.104l-0.002-0.142l-0.002-0.241l0.013-0.481c0.029-0.655,0.1-1.418,0.181-2.265      c0.018-0.213,0.038-0.455,0.042-0.652l0.011-0.2l0.02-0.2c0.281-1.682,0.564-3.689,0.732-6.144      c0.172-2.435,0.185-5.231,0.149-8.297c-0.04-6.063-0.631-13.062-0.62-19.97c-0.004-3.432,0.212-6.929,0.633-10.08      c0.361-3.124,0.602-6.081,0.776-8.725c0.337-5.29,0.395-9.335,0.428-11.035c0.04-1.748,0.201-7.718,0.207-15.986l0.074-13.873      c0.147-5.024-0.025-10.311-0.205-15.742c-0.352-10.814-0.553-22.068,1.334-31.399c0.93-4.647,2.438-8.782,4.463-11.846      c2.001-3.094,4.475-4.96,6.288-5.957c1.807-1.031,4.303-1.869,7.232-2.118c1.461-0.124,3.022-0.119,4.646,0.023      c1.602,0.143,3.277,0.271,5.017,0.371c6.96,0.421,14.93,0.346,22.98,0.224c4.026-0.048,8.077-0.091,12.036,0.063      c3.951,0.162,7.836,0.503,11.396,1.471c3.535,0.937,6.79,2.744,8.579,5.446c0.874,1.352,1.327,2.802,1.666,4.147      c0.328,1.353,0.52,2.631,0.66,3.801c0.571,4.677,0.602,10.568,0.839,16.844c0.067,1.566,0.154,3.159,0.326,4.737      c0.08,0.806,0.21,1.527,0.339,2.387c0.112,0.839,0.201,1.655,0.279,2.486c0.301,3.309,0.433,6.625,0.526,9.863      c0.176,6.474,0.192,12.632,0.241,17.738C335.894,420.381,335.97,424.425,335.934,426.715z"
             id="path187" /><path
             style="fill:#231815;"
             d="M404.028,443.012c-0.268-4.555-0.274-9.94-0.147-15.214c0.292-10.544,0.848-20.694,0.819-23.012      c0-1.182,0.071-4.268-0.094-8.632l-1.26-14.534c-0.883-10.35-1.381-20.776-1.437-23.428c-0.082-2.652-0.145-5.682-0.147-8.519      c-0.018-2.985-0.178-5.608-0.178-7.463c-0.002-0.156-0.029-0.337-0.042-0.502c-1.35,0.528-2.71,1.029-4.104,1.444l-0.261,0.05      c0.049,1.449,0.141,2.92,0.234,4.415c0.129,1.893,0.154,3.969,0.176,6.037c0.002,2.07-0.049,4.158-0.254,6.229      c-0.158,1.547,0.533,5.37,1.376,9.538c0.837,4.171,1.816,8.693,2.063,11.739l1.015,13.616c0.129,1.31,0.167,2.589,0.181,3.854      l0.04,3.615c0.02,2.276,0.038,4.233,0.12,5.571c0.176,2.678-0.375,10.109-0.888,17.173c-0.533,7.061-0.828,13.796-0.772,14.955      c0.038,1.153,0.158,5.584,0.7,10.206c0.27,2.31,0.645,4.666,1.104,6.667c0.451,2.003,0.975,3.646,1.365,4.555      c0.807,1.833,1.867,1.587,2.291,0.08c0.444-1.527,0.408-4.238-0.598-8.192C404.813,451.281,404.28,447.569,404.028,443.012z"
             id="path189" /></g></g></g></g></svg>