<?xml version="1.0" encoding="iso-8859-1"?>
<!-- Generator: Adobe Illustrator 18.1.1, SVG Export Plug-In . SVG Version: 6.00 Build 0)  -->
<svg version="1.1" id="_x33_" xmlns="http://www.w3.org/2000/svg" xmlns:xlink="http://www.w3.org/1999/xlink" x="0px" y="0px"
	 viewBox="0 0 512 512" style="enable-background:new 0 0 512 512;" xml:space="preserve">
<g>
	<path style="fill:#FFFFFF;" d="M157.169,209.236c0,0-75.688,33.443-88.889,44.005c-11.441-32.563-51.925-135.534-51.925-135.534
		l-3.52-7.041l-1.76-39.604c0,0,22.002,21.122,29.923,30.803c28.163-1.76,73.048-9.681,83.609,5.281
		C130.766,122.107,157.169,209.236,157.169,209.236z"/>
	<path style="fill:#FFFFFF;" d="M197.653,116.826c-10.523-1.265-5.322,5.999,1.3,10.479c6.621,4.483,71.748,13.284,84.069,13.284
		s8.87,7.549,8.395,15.656c-0.474,8.106-14.387,70.758-17.113,90.918c-2.723,20.16,7.91,73.814,12.713,82.629
		c4.806,8.818,59.372,33.461,76.974,16.739c17.602-16.722-1.245-235.964-37.586-247.797
		C290.063,86.903,197.653,116.826,197.653,116.826z"/>
	<path style="fill:#94C85C;" d="M315.032,110.318c-9.289,4.858-72.728,15.818-98.017,13.954
		c-25.292-1.86-49.319-8.529-33.021-22.745c16.299-14.219,45.342-49.423,45.342-53.823s8.017-29.287,10.853-28.655
		c2.836,0.629,15.439,2.173,19.562,3.957c4.122,1.788,7.886,5.246,15.35,0.055c7.462-5.191,6.246-14.8,12.802-10.479
		c6.56,4.318,13.937,10.186,13.937,10.186s34.867-9.389,63.91,15.254c29.043,24.643,59.846,42.244,94.17,124.093
		c34.324,81.849,57.206,119.693,49.285,163.697c-7.921,44.005-28.163,82.729-68.647,97.69
		c-40.484,14.962-55.333,19.193-105.996-0.083c-50.66-19.279-84.104-43.922-101.706-36.881
		c-17.602,7.041-28.163,11.441-41.364,21.122c-13.201,9.681-57.997,23.811-62.442,32.147c-4.445,8.337-18.915,11.565-20.043,18.754
		c-1.124,7.185-14.14,20.686-25.234,23.178c-11.094,2.489-42.186,15.051-48.642,15.811c-6.456,0.76,7.594-8.832,20.809-16.357
		c13.219-7.525,14.14-13.965,14.14-13.965s-5.322,4.679-13.243,4.679s-40.247-0.777-46.645-0.88
		c-6.398-0.103-0.88-4.401,21.122-9.681c22.002-5.281,37.51-9.104,31.401-8.612c-6.109,0.488-11.905,1.997-19.015-1.296
		c-7.106-3.293-41.743-7.831-35.867-7.323c5.879,0.509,23.529-3.486,37.146-3.689c13.617-0.203,35.166-6.697,41.969-9.227
		c6.802-2.527,33.055-23.003,43.815-36.74c10.761-13.734,29.923-38.724,43.124-52.806c13.201-14.081,26.38-41.897,57.754-30.47
		c31.374,11.431,98.902,31.35,113.864,34.87c14.962,3.52,14.081-77.448,4.4-91.529c-9.681-14.082,0,0,0,0
		s-35.204,29.923-63.367,33.443c-28.163,3.52-22.882,0.88-28.163,3.52c-5.28,2.64-34.788,10.045-116.406-36.342
		c-20.889-9.423-37.224-13.621-48.972-19.785c-11.747-6.161-26.1-39.136-23.212-40.79c2.891-1.654,24.014,20.349,27.534,21.229
		c3.52,0.88-18.575-39.01-16.768-42.825c1.807-3.819,30.85,32.264,35.25,31.384c4.4-0.88-1.007-25.983-9.745-33.234
		c-8.737-7.25,9.745,2.431,15.025,6.831c5.281,4.4,22.614,29.768,23.707,36.324c1.097,6.552,5.446,5.36,5.446,5.36s-8.691-0.561,0,0
		c8.691,0.56,69.417,19.042,80.858,8.481c11.441-10.561,51.784-49.23,51.784-49.23l-9.698,64.271l-25.364,13.122
		c0,0,10.052,9.887,22.188,1.423c12.136-8.464,70.222-55.989,70.222-55.989s-9.681-50.165-13.201-64.247
		C323.506,123.393,321.522,106.922,315.032,110.318z"/>
	<path style="fill:#595959;" d="M352.817,350.583c-0.162,4.397-1.382,6.195-2.389,8.471c-1.011,2.276,0.603,4.012,3.197,5.837
		c2.592,1.829,3.479,2.905,4.71,2.427c1.234-0.474,3.472-3.225,5.525-4.022c2.052-0.791,7.89-3.991,6.027-5.157
		c-1.867-1.165-3.228-3.469-7.175-1.475c-3.947,1.997-6.13,0.007-6.13,0.007S352.934,347.235,352.817,350.583z"/>
	<path style="fill:#595959;" d="M341.544,38.759c-2.248-3.376-3.823-1.354-3.283,1.269c0.543,2.623,0.009,6.126,2.537,6.566
		c2.53,0.44,8.471,2.389,11.568,3.08c3.097,0.691-5.067-7.006-6.109-8.492C345.213,39.701,341.544,38.759,341.544,38.759z"/>
	<path style="fill:#595959;" d="M368.391,48.729c5.116-1.98,9.152,3.362,10.465,6.363c-0.347,0.615-0.66,1.252-0.914,1.932
		c-0.244,0.656,0.309,1.079,0.859,1.062c-0.694,2.695-2.437,6.528-4.002,8.45c-2.238,2.75-4.394-1.605-6.415-3.183
		c-2.029-1.578-2.156-4.356-1.468-7.453C367.607,52.803,363.055,50.788,368.391,48.729z"/>
	<path style="fill:#595959;" d="M435.467,421.572c0.392-3.706-1.571-5.655-0.839-8.725c0.729-3.073-1.361-6.078-3.508-4.449
		c-2.142,1.623-3.232,9.599-1.788,9.643c1.445,0.045,1.58,3.129,2.535,6.061C432.821,427.038,435.03,425.697,435.467,421.572z"/>
	<path style="fill:#595959;" d="M476.405,380.221c-3.685,0.598-4.758,4.091-7.972,3.988c-3.211-0.1-5.239,3.919-2.833,6.553
		c2.4,2.633,10.424,1.712,9.889-0.423c-0.531-2.135,2.348-3.307,4.76-5.638C482.662,382.373,480.503,379.558,476.405,380.221z"/>
	<path style="fill:#595959;" d="M445.543,355.592c-2.932-1.306-3.885,1.19-3.689,3.173c0.199,1.984-0.633,5.669,0.815,6.126
		c1.447,0.457,3.015-1.901,4.342-2.637c1.327-0.732,3.311-0.932,2.138-2.616C447.981,357.951,445.543,355.592,445.543,355.592z"/>
	<path style="fill:#595959;" d="M374.098,393.863c-4.335,0.433-5.449,1.794-5.074,5.514c0.371,3.713,1.516,5.786,0.124,7.491
		c-1.394,1.702,2.166,2.908,6.405-1.582c4.242-4.49,6.659-5.356,4.15-8.546C377.195,393.55,374.098,393.863,374.098,393.863z"/>
	<path style="fill:#595959;" d="M412.883,146.622c2.348-1.492,7.154-0.43,7.257-1.819c0.107-1.389-0.437-10.778-3.957-10.348
		c-3.52,0.43-6.724,0.327-8.11,3.85C406.692,141.826,412.883,146.622,412.883,146.622z"/>
	<path style="fill:#595959;" d="M258.761,217.122c1.825-1.506,5.989-1.111,5.93-2.29c-0.055-1.183-1.489-9.045-4.414-8.316
		c-2.926,0.729-5.635,0.973-6.436,4.091C253.04,213.722,258.761,217.122,258.761,217.122z"/>
	<path style="fill:#595959;" d="M316.907,348.084c1.901,3.441,3.802,6.883,3.261,10.293c-0.54,3.403-2.979,10.004-2.042,12.943
		c0.928,2.946,5.449,0.863,7.493-5.449c2.047-6.309,4.956-11.441,4.877-13.195c-0.067-1.757-3.83-4.449-8.491-5.886
		C317.342,345.354,316.907,348.084,316.907,348.084z"/>
	<path style="fill:#595959;" d="M309.198,348.259c-2.833,0.251-5.559-0.179-8.859-1.399c-3.3-1.217-7.529,1.251-4.449,3.837
		c3.084,2.585,3.479,2.297,3.625,5.81c0.141,3.513-0.148,9.757,2.615,7.749c2.764-2.008,0.11-7.316,2.874-9.323
		c2.757-2.008,8.175,1.293,7.924-1.54C312.678,350.556,309.198,348.259,309.198,348.259z"/>
	<path style="fill:#595959;" d="M275.919,348.933c4.552,2.121,5.089-1.286,6.023-4.985c0.935-3.692-0.32-4.59-2.544-5.989
		c-2.224-1.396-5.205,1.973-8.753,4.555c-3.549,2.582-4.448,3.837-2.905,5.129C269.284,348.93,275.919,348.933,275.919,348.933z"/>
	<path style="fill:#595959;" d="M287.017,329.791c0,0-9.253,0.743-5.404,2.297c3.852,1.554,11.001,0.165,11.001,0.165
		L287.017,329.791z"/>
	<path style="fill:#595959;" d="M267.434,326.432c-2.173-1.031-11.639-1.341-13.346,1.207c-1.705,2.544-2.936,8.67-4.641,9.255
		c-1.71,0.591-15.364,3.321-13.66,0.777c1.707-2.544,7.909-5.748,6.355-7.883c-1.556-2.145-7.917-4.05-2.023-7.684
		C246.008,318.477,267.434,326.432,267.434,326.432z"/>
	<path style="fill:#595959;" d="M227.181,320.447c0,0,0.744,3.266,3.266,5.239c2.523,1.977-0.392,2.461-3.881,0.646
		c-3.497-1.812-7.247-3.981-5.824-5.016C222.165,320.282,227.181,320.447,227.181,320.447z"/>
	<path style="fill:#595959;" d="M198.361,337.856c1.489,0.55,3.624-1,4.01-3.462c0.39-2.458,0.782-4.92-0.706-5.47
		c-1.492-0.55-2.881-1.712-5.116,0.454c-2.228,2.166-4.108,4.077-3.428,5.755C193.799,336.822,198.361,337.856,198.361,337.856z"/>
	<path style="fill:#595959;" d="M196.515,349.535c0.87-2.822,8.251-4.366,3.335-5.146c-4.916-0.774-7.99-1.262-7.99-1.262
		s-4.662-0.419-3.562,2.589C189.395,348.727,195.869,351.635,196.515,349.535z"/>
	<path style="fill:#595959;" d="M181.693,363.572c0.813-1.038,4.92-5.208,0.877-5.532c-4.045-0.323-10.257,3.104-10.291,5.305
		C172.244,365.545,179.719,366.095,181.693,363.572z"/>
	<path style="fill:#595959;" d="M495.873,352.736c-1.915-2.568-5.576-3.534-7.024-4.868c-1.446-1.334-2.582-1.846,1.009-6.03
		c3.591-4.184,5.392-4.393,5.662-1.207c0.27,3.194,3.532,8.076,1.941,10.087C495.873,352.736,495.873,352.736,495.873,352.736z"/>
	<path style="fill:#595959;" d="M496.382,327.491c4.982-0.588,5.037-2.85,3.012-8.199c-2.032-5.356-3.847-8.897-4.841-12.758
		c-0.994-3.857-5.15,0.072-7.192,4.61c-2.046,4.541-3.011,8.203-0.897,8.811c2.114,0.608,2.84,1.275,2.482,2.822
		c-0.351,1.551-2.355,3.716-0.395,3.916C490.507,326.893,494.581,327.704,496.382,327.491z"/>
	<path style="fill:#595959;" d="M494.041,283.394c2.75-2.984,2.046-4.538,1.832-6.346c-0.213-1.798-3.689-8.485-4.868-6.628
		c-1.176,1.863-2.083,6.914-5.023,6.615c-2.936-0.299,1.705,0.767,2.795,3.644C489.871,283.562,492.04,285.556,494.041,283.394z"/>
	<path style="fill:#595959;" d="M487.072,294.65c4.92,0.093,2.611-4.284,0.653-4.479C485.77,289.971,482.333,294.563,487.072,294.65
		z"/>
	<path style="fill:#595959;" d="M473.674,262.846c3.453-0.835,3.394-2.228,0.034-6.126c-3.364-3.905-5.69-6.315-5.96-9.506
		c-0.268-3.194-5.306-0.344-7.307,1.829c-2.001,2.169-0.172,9.475,1.487,12.61C463.589,264.788,473.674,262.846,473.674,262.846z"/>
	<path style="fill:#595959;" d="M482.294,238.884c-0.939-2.472-4.937-11.778-6.669-6.419c-1.731,5.363-4.046,6.711-0.894,8.811
		c3.149,2.101,5.93,1.987,8.101,3.991c2.171,1.994,2.028,5.349,6.001,7.137c3.972,1.784,6.652,2.65,3.902-3.366
		C489.981,243.027,482.294,238.884,482.294,238.884z"/>
	<path style="fill:#595959;" d="M440.3,246.815c2.345-3.307,1.913-8.643-0.753-6.618c-2.668,2.032-5.226,6.305-2.874,6.625
		C439.018,247.135,440.3,246.815,440.3,246.815z"/>
	<path style="fill:#595959;" d="M452.343,227.914c1.815-1.815,6.608-11.641,2.126-9.605c-4.481,2.032-10.136,1.183-10.136,1.183
		s0.961,2.028,2.245,5.332C447.862,228.134,452.343,227.914,452.343,227.914z"/>
	<path style="fill:#595959;" d="M439.64,224.297c2.558-0.643-1.069-2.455-2.245-3.52c-1.172-1.062-6.936,3.101,0.11,4.057
		L439.64,224.297z"/>
	<path style="fill:#595959;" d="M415.175,81.629c-0.985,2.152-1.167,8.003-3.085,9.392c-1.922,1.389-3.52,4.057-1.167,8.003
		c2.35,3.947,2.14,6.724,1.822,9.073c-0.318,2.348,1.818,3.627,3.953,6.721c2.138,3.09,7.696,10.774,5.767,3.09
		c-1.929-7.684-2.358-9.392-1.076-11.527c1.279-2.138,2.558-4.273,2.124-7.794C423.085,95.065,416.345,79.065,415.175,81.629z"/>
	<path style="fill:#595959;" d="M404.835,96.467c-1.757,0.443-4.268,1.076-3.412,4.486c0.858,3.417,6.097,11.63,6.522,9.709
		C408.37,108.74,406.544,96.041,404.835,96.467z"/>
	<path style="fill:#595959;" d="M389.14,89.977c3.735-1.396,4.374-4.277,1.703-4.06c-2.668,0.217-0.536-3.947-3.844-2.664
		c-3.307,1.286-2.448,8.326-0.739,7.9c1.707-0.43,1.707-0.43,1.707-0.43L389.14,89.977z"/>
	<path style="fill:#595959;" d="M443.267,154.22c-3.94-2.358-5.555-5.868-5.978-2.128c-0.423,3.737-0.526,8.749-0.098,10.458
		c0.428,1.705-3.19,10.781-1.375,12.596c1.817,1.812,5.124,2.341,5.875,5.329c0.75,2.991-0.1,8.646,2.46,6.188
		c2.56-2.458,4.799-4.38,5.865-5.556C451.081,179.932,445.402,155.495,443.267,154.22z"/>
	<path style="fill:#595959;" d="M470.846,196.234c-2.317,1.1-8.323,2.994-7.36,5.019c0.962,2.032,3.204,3.737,2.248,5.339
		c-0.959,1.599-2.343,6.938,0.22,8.113c2.561,1.165,8.749-3.108,7.037-6.305C471.279,205.2,472.874,195.275,470.846,196.234z"/>
	<path style="fill:#595959;" d="M427.707,127.934c2.558-0.643,1.165-4.376-0.859-5.226c-2.032-0.853-1.815,0-2.025,2.774
		C424.609,128.257,427.707,127.934,427.707,127.934z"/>
	<path style="fill:#595959;" d="M406.616,175.871c2.348-1.495,2.877-4.803,0.21-4.586
		C404.158,171.498,406.616,175.871,406.616,175.871z"/>
	<path style="fill:#595959;" d="M245.927,227.762c2.145-1.771,2.265-5.119-0.354-4.579
		C242.95,223.723,245.927,227.762,245.927,227.762z"/>
	<path style="fill:#595959;" d="M395.856,78.766c3.929-0.192,0.842-11.104-0.545-11.207c-1.391-0.106-3.948,0.536-7.152-1.382
		c-3.204-1.918-7.687-1.698-4.48,2.032C386.883,71.938,393.613,78.869,395.856,78.766z"/>
	<path style="fill:#595959;" d="M332.011,214.54c-3.483,2.613-10.575,8.722-6.467,7.965c4.105-0.746,8.151-1.062,10.956,1.114
		c2.802,2.179,9.028,8.399,6.284,2.675c-2.743-5.724-3.928-13.005-1.939-14.501C342.837,210.298,332.011,214.54,332.011,214.54z"/>
	<path style="fill:#595959;" d="M319.549,225.029c-0.626,4.356-3.115,3.111-0.248,7.965c2.867,4.851,2.255,18.54-0.61,13.693
		c-2.867-4.854-2.312-8.773-5.296-9.646c-2.987-0.866-7.654,0.691-5.229-3.85c2.42-4.548,2.666-6.291,2.666-6.291L319.549,225.029z"
		/>
	<path style="fill:#595959;" d="M299.147,243.463c2.395,1.196,4.299,4.167,2.993,7.089c-1.303,2.933-3.792,7.911-5.721,5.858
		c-1.932-2.056-1.932-5.167-1.626-7.347C295.104,246.891,297.901,242.841,299.147,243.463z"/>
	<path style="fill:#595959;" d="M210.837,129.354c-6.429-0.368-9.471-2.276-10.065-3.806c-0.592-1.554,1.13-2.785,4.198-2.493
		c3.064,0.334,13.927,1.265,26.123,0.842c12.191-0.323,25.605-1.856,33.607-3.4c8.014-1.471,22.82-4.043,36.57-7.216
		c3.438-0.777,6.814-1.578,10.006-2.365l0.299-0.072l0.479-0.076l1-0.151l1.977-0.299c0.165-0.021,0.323-0.062,0.492-0.062
		c0.168,0.034,0.34,0.062,0.505,0.11c0.334,0.082,0.652,0.203,0.959,0.337c0.612,0.279,1.164,0.663,1.626,1.131
		c1.898,1.919,1.93,4.916,0.725,7.237c-0.261,0.547-0.715,1.224-0.956,1.53c-0.282,0.371-0.578,0.712-0.88,1.021
		c-0.602,0.622-1.227,1.134-1.844,1.578c-1.236,0.887-2.443,1.496-3.539,1.966c-2.204,0.925-3.984,1.317-5.162,1.578
		c-2.364,0.488-4.062,0.485-5.117,0.347c-1.052-0.141-1.471-0.43-1.325-0.753c0.29-0.701,2.88-1.358,7.059-2.743
		c1.006-0.395,3.378-1.021,5.999-2.95c1.26-0.966,2.649-2.407,2.921-4.029c0.156-0.811-0.065-1.815-0.861-2.307
		c-0.382-0.241-0.846-0.371-1.306-0.33l-1.42,0.412c-9.351,2.668-21.61,5.745-33.844,8.144c-12.266,2.438-24.679,4.222-34.597,5.171
		c-9.92,0.973-17.33,1.162-19.558,1.193C215.997,128.996,210.841,129.333,210.837,129.354z"/>
	<path style="fill:#595959;" d="M251.442,25.627c3.173-1.925,6.114-2.682,8.309-2.62c2.214,0.052,3.581,0.877,4.122,1.788
		c0.552,0.915,0.392,1.908-0.103,2.723c-0.512,0.829-1.368,1.506-2.745,2.018c-1.37,0.485-4.588,1.877-8.655,4.624
		c-4.074,2.706-8.945,6.625-13.856,11.073c-9.837,8.904-19.943,19.737-25.744,26.564c-2.898,3.424-7.168,8.168-12.139,13.425
		c-4.988,5.249-10.64,11.032-16.636,16.306l-2.278,1.942l-2.24,1.812c-1.11,0.88-1.734,1.819-1.819,2.272
		c-0.059,0.241-0.069,0.416,0.003,0.715c0.076,0.296,0.248,0.688,0.548,1.11c0.586,0.86,1.556,1.76,2.589,2.534
		c2.095,1.568,4.402,2.75,6.331,3.647c1.942,0.901,3.561,1.526,4.648,1.929c4.358,1.564,6.131,2.764,5.554,3.507
		c-0.56,0.701-3.484,0.928-8.191-0.33c-1.169-0.34-3.679-1.117-7.027-2.723c-1.666-0.818-3.553-1.836-5.442-3.345
		c-0.938-0.76-1.881-1.65-2.678-2.799c-0.789-1.128-1.428-2.613-1.385-4.27c0.031-1.657,0.777-3.242,1.767-4.49
		c0.502-0.633,1.059-1.21,1.654-1.743l1.695-1.465c2.228-1.966,4.476-4.122,6.745-6.391c4.529-4.545,9.14-9.53,13.717-14.553
		c9.143-10.066,18.214-20.259,25.762-28.108c7.507-7.883,13.54-13.377,15.427-14.962C246.797,29.412,251.426,25.647,251.442,25.627z
		"/>
	<path style="fill:#595959;" d="M208.702,392.082c3.644-3.83,6.388-5.232,8.309-4.947c1.86,0.258,2.613,2.431,0.755,4.909
		c-0.921,1.214-3.108,3.905-6.489,6.917c-3.362,3.032-7.937,6.302-13.019,9.165c-10.173,5.783-22.1,10.087-28.974,13.212
		c-3.447,1.557-8.437,3.527-13.846,5.923c-5.384,2.406-11.254,5.305-15.737,9.072l-21.922,19.056
		c-6.043,5.342-6.938,2.716-1.483-3.249c1.361-1.492,6.195-6.126,12.754-12.332l5.207-4.93c1.756-1.719,3.838-3.62,6.107-5.195
		c4.547-3.232,9.794-5.851,15.08-8.22c5.296-2.369,10.656-4.486,15.683-6.552c5.031-2.052,9.727-4.057,13.779-5.982
		c8.136-3.813,13.538-7.45,15.132-8.557c3.235-2.183,5.408-4.308,6.754-5.837C208.14,393.007,208.697,392.078,208.702,392.082z"/>
	<path style="fill:#595959;" d="M411.886,428.616c9.808-1.09,15.003-0.137,16.591,1.602c1.581,1.691-0.569,4.095-5.629,4.858
		c-5.022,0.742-22.847,3.108-42.816,2.056c-9.968-0.474-20.412-1.801-29.887-3.74c-9.483-1.908-17.985-4.394-24.343-6.398
		c-6.367-1.977-15.244-5.432-24.808-10.128c-9.592-4.641-19.821-10.551-29.648-15.931c-9.812-5.377-19.462-9.963-27.628-11.376
		c-8.163-1.554-14.444,0.1-17.428,1.155c-3.015,1.056-5.145,2.001-6.573,2.455c-1.423,0.467-2.142,0.457-2.159-0.035
		c-0.01-0.481,0.677-1.461,2.187-2.712c1.509-1.241,3.855-2.778,7.192-4.008c1.657-0.591,5.389-1.777,10.836-1.87
		c5.432-0.131,12.431,1.189,19.878,4.077c7.476,2.836,15.443,7.003,23.773,11.414c8.33,4.421,17.076,9.066,26.054,13.146
		c8.968,4.091,18.166,7.608,27.085,10.241c8.918,2.647,17.536,4.428,25.227,5.535c15.398,2.211,26.973,1.884,30.427,1.901
		c6.939-0.051,12.375-0.67,16.053-1.214C409.951,429.09,411.886,428.616,411.886,428.616z"/>
	<path style="fill:#595959;" d="M310.538,24.255c-8.736-0.272-13.305-1.478-14.69-3.345c-1.38-1.781,0.698-4.088,5.48-4.373
		c2.37-0.124,7.742-0.313,14.776,0.395c7.027,0.691,15.687,2.393,24.392,5.411c8.722,2.974,17.439,7.216,25.024,11.782
		c7.606,4.548,14.112,9.354,18.955,13.04c4.856,3.679,11.391,9.399,18.112,16.46c6.738,7.044,13.652,15.405,19.819,23.845
		c12.404,16.863,21.779,33.928,24.931,39.566c3.156,5.652,3.778,8.46,2.816,8.45c-0.976,0-3.544-2.798-7.116-8.144
		c-1.809-2.658-7.261-11.823-15.467-23.587c-8.191-11.757-19.287-26.062-32.084-38.648c-6.379-6.305-13.16-12.17-19.965-17.193
		c-6.8-5.033-13.623-9.203-19.893-12.387c-12.557-6.425-22.74-8.794-25.734-9.533c-6.057-1.472-10.956-1.832-14.271-1.898
		C312.302,24.045,310.538,24.262,310.538,24.255z"/>
	<path style="fill:#595959;" d="M193.839,131.162c-2.477-1.379-4.089-3.331-4.622-5.03c-0.553-1.709-0.104-2.898,0.495-3.393
		c0.609-0.523,1.366-0.506,2.011-0.327c0.667,0.196,1.209,0.516,1.783,1.183c0.528,0.674,2.247,2.248,5.447,3.709
		c3.146,1.485,7.481,2.881,12.153,4.067c4.672,1.165,9.708,2.255,14.291,2.915c4.631,0.667,8.935,1.052,12.182,1.214
		c6.498,0.344,18.48,1.372,29.746,2.217c11.263,0.866,21.787,1.609,25.298,1.788c7.013,0.347,5.918,2.496-1.157,2.871
		c-3.536,0.172-23.415-0.285-43.293-1.544c-9.944-0.653-19.86-1.437-27.821-2.764c-7.84-1.327-13.626-2.785-15.359-3.307
		c-3.465-1-6.229-1.839-8.151-2.503C194.918,131.599,193.839,131.155,193.839,131.162z"/>
	<path style="fill:#595959;" d="M331.784,200.906c9.691-7.574,16.036-9.416,18.351-8.636c2.341,0.804,0.892,4.022-3.943,7.525
		c-2.431,1.753-7.89,5.752-14.967,11.324c-7.089,5.559-15.788,12.675-25.029,20.16c-9.268,7.457-19.008,15.336-28.759,21.889
		c-2.449,1.629-4.911,3.17-7.431,4.541c-2.541,1.358-5.095,2.603-8.017,3.38c-3.144,0.794-5.8,0.653-8.211,0.588
		c-2.42-0.11-4.626-0.333-6.657-0.56c-16.237-1.853-44.634-9.502-70.536-19.345c-6.486-2.537-12.761-5.05-18.759-8.423
		c-1.48-0.842-3.108-1.939-4.467-3.135c-1.365-1.2-2.563-2.479-3.611-3.785c-2.111-2.613-3.686-5.298-5.028-7.849
		c-2.639-5.122-4.364-9.76-5.846-13.504c-1.452-3.754-2.62-6.618-3.483-8.412c-1.695-3.644-3.08-5.648-3.795-6.491
		c-0.681-0.828-0.969-1.183-0.717-1.585c0.235-0.351,1.427-0.663,3.285,0.681c1.832,1.317,3.861,4.129,5.758,7.948
		c0.997,1.891,2.75,6.171,5.346,12.057c1.325,2.926,2.888,6.257,5.012,9.66c2.125,3.369,4.856,6.907,8.739,9.272
		c3.977,2.352,8.691,4.29,13.586,6.226c4.923,1.915,10.135,3.758,15.522,5.545c10.783,3.569,22.288,6.951,33.887,9.863
		c5.798,1.451,11.623,2.785,17.39,3.878c5.746,1.062,11.529,2.004,16.892,2.059c1.325-0.004,2.618-0.072,3.702-0.313
		c1.134-0.241,2.324-0.67,3.493-1.166c2.345-1.004,4.631-2.303,6.822-3.647c4.388-2.719,8.449-5.683,12.213-8.529
		c7.52-5.727,13.885-11.039,18.848-15.14l10.13-8.426C324.635,207.703,331.777,200.902,331.784,200.906z"/>
	<path style="fill:#595959;" d="M299.833,96.835c3.845-1.571,6.002-1.846,6.807-1.416c0.796,0.42,0.172,1.561-1.781,2.451
		c-1.939,0.911-8.863,3.713-16.784,6.092c-7.9,2.444-16.749,4.579-22.092,5.91c-5.336,1.372-15.329,3.276-24.777,4.514
		c-9.44,1.282-18.303,1.953-21.255,2.179c-5.911,0.44-5.128-0.705,0.724-1.526c2.922-0.396,19.499-2.107,35.784-5.442
		c8.144-1.626,16.213-3.596,22.546-5.397c6.34-1.784,10.946-3.376,12.332-3.843C296.9,98.482,299.833,96.821,299.833,96.835z"/>
	<path style="fill:#595959;" d="M275.589,41.372c-0.686,1.671-1.798,2.798-2.912,3.311c-1.131,0.526-2.2,0.395-2.946-0.058
		c-0.753-0.444-1.255-1.159-1.564-1.76c-0.304-0.626-0.412-1.162-0.089-1.674c0.32-0.505,1.09-1.819,1.908-3.929
		c0.828-2.09,1.705-4.885,2.592-7.918c0.904-3.032,1.798-6.288,2.989-9.385c0.615-1.554,1.27-3.077,2.316-4.555
		c0.526-0.736,1.162-1.468,2.032-2.097c0.846-0.633,1.98-1.086,3.055-1.207c0.27-0.041,0.538-0.041,0.82-0.048l0.512,0.003
		c0.236-0.01,0.76,0.038,1.148,0.072c0.777,0.082,1.605,0.234,2.455,0.457c1.705,0.447,3.476,1.227,5.155,2.245
		c3.376,2.039,6.324,4.985,8.782,7.941c2.463,2.963,4.486,5.965,6.119,8.358c1.622,2.41,2.867,4.163,3.503,4.892
		c0.638,0.75,0.928,1.213,0.952,1.543c-0.052,0.285-0.11,0.639-0.31,0.956c-0.21,0.306-0.56,0.602-1.249,0.495
		c-0.666-0.096-1.529-0.533-2.409-1.286c-0.921-0.719-3.316-3.692-6.513-7.598c-1.614-1.936-3.473-4.088-5.6-6.13
		c-2.123-2.032-4.543-3.974-7.18-5.226c-1.313-0.622-2.671-1.066-4.016-1.272c-0.344-0.048-0.672-0.086-0.966-0.106l-0.56-0.027
		l-0.146-0.007l-0.019,0.01l-0.1,0.014c-0.234,0.041-0.464,0.179-0.785,0.485c-0.643,0.636-1.263,1.819-1.734,2.981
		c-0.481,1.179-0.87,2.403-1.21,3.572c-1.31,4.717-2.119,8.478-2.469,9.567C275.923,38.398,275.603,41.355,275.589,41.372z"/>
	<path style="fill:#595959;" d="M232.795,43.297c-1.633,4.022-7.879,1.086-7.099-0.67c0.399-0.89,1.853-4.039,3.293-7.787
		c1.465-3.747,2.981-7.952,4.342-10.895c0.356-0.743,0.815-1.619,1.812-2.675c1.153-1.21,2.988-2.269,5.047-2.221
		c0.512,0.01,1.031,0.069,1.542,0.199c0.486,0.11,1.109,0.361,1.294,0.43c0.431,0.162,0.901,0.316,1.389,0.464
		c0.978,0.299,2.03,0.578,3.084,0.829c4.242,1.004,8.447,1.647,9.824,1.791c2.742,0.251,2.2,2.785-0.755,3.355
		c-0.736,0.131-3.141,0.162-6.394-0.079c-1.626-0.124-3.462-0.316-5.418-0.65c-0.976-0.172-1.984-0.378-3.015-0.66l-0.746-0.217
		c-0.182-0.052-0.297-0.079-0.443-0.096c-0.278-0.034-0.564-0.007-0.818,0.093c-0.254,0.1-0.478,0.258-0.663,0.444
		c-0.155,0.155-0.379,0.423-0.612,0.756c-0.447,0.646-0.849,1.43-1.203,2.228c-0.712,1.605-1.267,3.28-1.751,4.772
		c-0.952,2.998-1.64,5.308-1.893,5.982C232.63,41.406,232.795,43.294,232.795,43.297z"/>
	<path style="fill:#595959;" d="M455.946,161.927c-13.735-28.52-6.602-31.886,0.175-17.629l10.547,22.233
		c5.016,10.65,11.24,23.931,17.368,38.16c6.13,14.226,12.087,29.442,16.636,43.822c4.595,14.363,7.663,27.898,9.329,38.25
		c1.679,10.307,3.123,25.423,0.751,42.358c-1.172,8.44-3.324,17.272-6.597,25.873c-3.254,8.608-7.625,16.956-12.737,24.574
		c-10.228,15.316-23.233,27.486-34.581,36.342c-5.731,4.442-11.242,8.024-16.251,10.468c-4.987,2.472-9.523,3.716-12.775,4.022
		c-3.232,0.347-6.305-0.1-8.698-1.148c-2.41-1.035-4.045-2.551-5.019-3.833c-0.986-1.296-1.396-2.379-1.54-3.073
		c-0.143-0.708-0.027-1.052,0.282-0.839c0.638,0.354,1.85,2.19,4.785,3.833c1.456,0.794,3.35,1.423,5.552,1.564
		c2.202,0.155,4.682-0.162,7.323-0.918c2.647-0.701,8.265-2.826,15.168-7.525c6.896-4.655,15.23-11.558,23.855-20.355
		c8.581-8.811,17.281-19.84,23.866-32.911c6.633-13.029,10.882-28.077,12.036-43.41c1.245-15.34-0.397-30.807-3.383-45.122
		c-2.991-14.336-7.261-27.589-11.496-39.144c-4.249-11.555-8.473-21.435-11.83-29.077c-3.369-7.639-5.886-13.043-7.032-15.549
		C462.423,172.853,455.908,161.941,455.946,161.927z"/>
	<path style="fill:#595959;" d="M329.276,338.634c7.445,2.386,10.649,5.318,11.051,7.477c0.406,2.149-2.046,3.479-5.856,2.324
		c-3.812-1.131-16.999-5.545-31.451-10.96c-14.475-5.37-30.274-11.589-40.001-14.859c-4.865-1.633-11.694-4.187-19.374-7.048
		c-3.83-1.42-7.917-2.943-12-4.383c-3.699-1.289-7.689-1.887-11.663-1.75c-7.983,0.23-15.649,3.259-21.48,6.449
		c-5.872,3.211-10.07,6.529-12.1,8.203c-4.055,3.403-6.004,4.562-6.362,3.668c-0.395-0.808,1.083-3.809,5.092-7.667
		c1.004-0.959,3.262-2.939,6.711-5.37c3.451-2.41,8.117-5.298,14.002-7.591c5.844-2.276,13.091-3.898,20.796-2.967
		c1.915,0.227,3.844,0.612,5.748,1.159c1.939,0.574,3.66,1.193,5.518,1.812c3.651,1.244,7.333,2.547,11.005,3.867l40.857,14.993
		c11.611,4.208,20.258,7.141,22.853,8.051C323.001,337.691,329.283,338.623,329.276,338.634z"/>
	<path style="fill:#595959;" d="M168.852,339.799c3.907-4.098,7.508-4.844,9.365-3.775c0.438,0.285,0.715,0.688,0.926,1.097
		c0.187,0.426,0.423,0.784,0.461,1.231c0.105,0.87-0.268,1.894-1.236,2.86c-3.952,3.751-27.632,28.067-36.842,39.515
		c-4.617,5.724-13.798,15.694-22.58,24.901c-8.765,9.22-17.217,17.612-20.111,20.417c-2.864,2.822-4.751,3.469-5.083,2.63
		c-0.334-0.842,0.703-3.077,3.147-6.205c2.53-3.056,17.354-19.682,31.993-36.503c14.663-16.794,29.411-33.533,32.129-36.417
		C166.41,343.759,168.85,339.802,168.852,339.799z"/>
	<path style="fill:#595959;" d="M86.95,431.201c3.372-1.327,5.514-0.976,6.724,0.007c1.268,0.911,1.074,2.846-0.815,3.781
		c-0.937,0.468-3.068,1.423-5.953,2.352c-2.883,0.935-6.523,1.836-10.401,2.448c-7.759,1.306-16.373,1.207-21.573,1.1
		c-1.272,0-2.945-0.124-4.572-0.251c-1.642-0.117-3.46-0.213-5.38-0.21c-3.838-0.017-8.089,0.378-12.05,1.351
		c-3.964,0.952-18.951,1.55-21.717,3.18c-2.781,1.619-4.689,3.269-5.578,4.118c-1.777,1.726-2.683,2.2-3.099,1.654
		c-0.471-0.433-0.132-2.176,1.647-4.301c0.873-1.035,4.193-4.335,9.826-7.061c5.576-2.785,24.794-3.648,32.687-3.51
		c1.956,0.014,3.967,0.151,5.841,0.316c1.86,0.151,3.694,0.247,5.48,0.292c3.568,0.086,6.939-0.038,9.898-0.306
		c5.927-0.526,10.178-1.595,11.451-1.888C84.509,433.071,86.955,431.167,86.95,431.201z"/>
	<path style="fill:#595959;" d="M51.107,447.61c3.868,1.141,1.942,6.728,0.196,6.161c-0.89-0.275-4.015-1.393-7.601-2.331
		c-3.575-0.956-7.598-1.702-10.076-1.705c-2.479-0.017-18.283-1.537-22.453-1.743c-4.17-0.251-8.014-0.052-9.265,0.144
		c-2.465,0.395-2.618-1.829-0.012-2.95c0.646-0.268,2.872-0.78,5.939-1.069c3.065-0.306,6.955-0.368,10.828-0.151
		c7.761,0.399,26.741,2.884,28.068,3.225C49.392,447.865,51.105,447.613,51.107,447.61z"/>
	<path style="fill:#595959;" d="M70.081,467.23c1.475-1.22,3.244-0.667,4.235,0.433c0.976,1.114,1.477,2.517,0.835,3.005
		c-1.324,0.894-10.092,7.704-13.361,11.314c-1.622,1.819-16.518,8.237-20.042,10.626c-3.499,2.42-7.147,4.273-8.409,4.865
		c-2.573,1.189-2.929-1.028-0.976-2.788c0.49-0.451,2.254-1.633,4.498-3.4c2.252-1.757,16.414-7.67,19.078-10.09
		c5.329-4.834,10.479-9.928,11.481-10.757C69.369,468.756,70.077,467.23,70.081,467.23z"/>
	<path style="fill:#595959;" d="M78.875,476.034c1.468-1.186,3.106-0.701,4.275,0.216c1.179,0.904,1.76,2.365,0.973,3.036
		c-0.784,0.677-3.637,2.802-6.926,4.974c-3.276,2.2-7.011,4.411-9.193,5.961c-2.166,1.575-18.073,7.319-22.607,8.591
		c-4.517,1.344-9.007,1.64-10.489,1.688c-3.029,0.083-2.45-2.094,0.223-2.95c0.67-0.227,2.922-0.619,5.827-1.533
		c2.908-0.897,6.444-2.351,9.808-4.139c6.769-3.531,24.147-11.916,25.218-12.706C78.16,477.578,78.875,476.027,78.875,476.034z"/>
	<path style="fill:#595959;" d="M62.717,452.736c2.797,0.241,4.002,1.963,4.053,3.455c0.014,1.495-0.808,2.809-2.037,2.644
		c-1.222-0.175-5.66-0.846-10.669-0.705c-5.002,0.076-10.477,1.069-13.55,2.321c-3.096,1.169-20.144,2.224-24.974,5.15
		c-4.884,2.829-8.801,6.442-9.994,7.732c-2.352,2.585-3.778,0.849-1.75-2.406c0.523-0.784,2.523-3.204,5.777-5.934
		c3.238-2.74,19.139-4.741,24.116-6.848c4.959-2.149,10.248-3.486,14.499-4.146c4.254-0.674,7.46-0.763,8.421-0.774
		C60.441,453.221,62.71,452.746,62.717,452.736z"/>
	<path style="fill:#595959;" d="M59.444,466.102c4.672,0.224,4.177,6.106,1.987,5.954c-1.107-0.065-5.019-0.43-9.413-0.564
		c-4.39-0.148-9.244-0.065-12.163,0.388c-2.915,0.447-19.654-0.278-24.715-0.007c-5.062,0.254-9.789,0.547-11.359,0.712
		c-3.132,0.337-2.944-1.894,0.148-2.957c1.542-0.536,21.789-1.028,30.783-1.86c8.985-0.887,18.045-1.138,19.651-1.09
		C57.57,466.745,59.442,466.106,59.444,466.102z"/>
	<path style="fill:#595959;" d="M353.474,243.951c3.584-3.238,6.762-3.335,8.454-2.21c1.702,1.124,2.042,3.362,0.29,4.882
		l-15.152,13.098c-3.593,3.053-7.482,6.178-11.18,8.935c-3.696,2.761-7.202,5.146-9.853,6.969
		c-2.642,1.839-6.639,4.132-11.403,6.209c-4.755,2.09-10.286,3.899-15.742,5.122c-10.939,2.534-21.377,2.486-24.79,2.492
		c-3.448,0.003-4.889-0.818-4.614-1.65c0.272-0.856,2.224-1.74,5.545-2.266c1.659-0.275,7.202-0.608,14.484-2.001
		c7.278-1.365,16.237-4.026,24.503-8.134c16.699-8.069,29.815-21.6,32.349-23.677C351.28,247.283,353.467,243.944,353.474,243.951z"
		/>
	<path style="fill:#595959;" d="M255.598,288.355c5.48-1.743,9.021-1.138,10.42,0.461c1.382,1.561,0.684,3.919-2.207,4.988
		c-1.451,0.512-4.749,1.709-9.346,2.847c-4.584,1.134-10.509,2.039-16.739,1.942c-6.231-0.058-12.679-1.066-18.429-2.482
		c-5.757-1.406-10.864-3.156-14.688-4.442c-3.83-1.272-9.133-3.465-14.898-6.322c-5.774-2.843-12.012-6.329-17.909-9.891
		c-11.786-7.13-22.276-14.384-25.835-16.399c-3.561-2.128-4.517-3.183-3.995-3.909c0.494-0.749,3.125-0.643,7.021,1.172
		c1.962,0.859,8.071,4.411,16.284,9.169c8.223,4.734,18.647,10.561,29.442,15.484c5.387,2.462,10.876,4.71,16.139,6.504
		c5.26,1.791,10.336,3.066,14.857,3.806c9.069,1.519,15.776,0.763,17.757,0.574c4.005-0.399,7.055-1.358,9.076-2.128
		C254.574,288.946,255.598,288.351,255.598,288.355z"/>
	<path style="fill:#595959;" d="M128.246,245.134c8.674,2.152,7.058,7.873,2.864,6.742c-2.085-0.598-9.583-2.386-17.977-4.954
		c-4.186-1.299-8.557-2.877-12.488-4.641c-3.938-1.75-7.412-3.689-9.995-5.256c-2.582-1.557-6.089-4.177-9.396-7.821
		c-1.657-1.815-3.252-3.878-4.684-6.095c-1.452-2.252-2.649-4.521-3.814-6.807c-2.303-4.579-4.144-9.279-5.102-13.425
		c-1.004-4.129-0.973-7.721-0.667-9.581c0.483-3.747,2.822-5.281,3.011-4.521c0.15,0.756-0.374,2.743-0.21,5.8
		c0.031,0.77,0.065,2.427,0.531,4.686c0.452,2.262,1.332,5.112,2.678,8.251c1.341,3.146,3.137,6.58,5.241,10.09
		c2.058,3.507,4.632,6.886,7.663,9.832c6.03,5.961,13.733,9.815,20.05,12.142c6.339,2.338,11.297,3.472,12.76,3.899
		C124.615,245.044,128.253,245.117,128.246,245.134z"/>
	<path style="fill:#595959;" d="M94.988,210.986c2.204,2.052-1.636,6.432-2.843,5.346c-0.593-0.54-2.499-2.565-4.615-4.809
		c-2.123-2.238-4.454-4.706-6.109-5.989c-1.662-1.279-4.196-4.153-6.355-7.044c-2.178-2.878-3.943-5.786-4.559-6.738
		c-1.233-1.929,0.825-2.764,2.62-1.348c0.877,0.736,4.834,5.432,9.217,9.698c4.332,4.315,8.931,8.323,9.703,9.073
		C93.589,210.687,94.992,210.986,94.988,210.986z"/>
	<path style="fill:#595959;" d="M113.721,201.559c2.52,2.998-1.908,6.803-3.206,5.281c-1.312-1.509-8.314-11.142-12.103-14.7
		c-3.826-3.538-11.881-14.852-13.583-17.038c-1.715-2.18,0.258-3.218,2.544-1.495c1.143,0.859,6.407,6.652,11.654,12.449
		c5.239,5.8,10.475,11.582,11.359,12.641C112.146,200.823,113.721,201.559,113.721,201.559z"/>
	<path style="fill:#595959;" d="M103.088,217.164c2.156,4.607-3.122,7.12-4.218,4.792c-1.114-2.317-6.872-16.574-10.217-22.377
		c-1.69-2.895-4.17-8.533-6.336-13.889c-2.176-5.353-4.019-10.437-4.672-12.118c-1.311-3.369,0.925-3.658,2.91-0.595
		c0.978,1.54,5.274,10.678,9.758,19.719l9.753,19.682C101.561,215.623,103.091,217.164,103.088,217.164z"/>
	<path style="fill:#595959;" d="M119.644,198.713c-0.232,1.788-1.951,2.389-3.398,2.128c-1.439-0.316-2.752-0.952-2.623-1.557
		c0.143-0.598,0.717-2.953,0.583-5.721c-0.086-2.75-0.908-5.776-1.912-7.374c-0.949-1.612-2.379-4.675-4.156-7.398
		c-1.734-2.737-3.704-5.129-4.414-5.872c-1.423-1.465,0.29-2.864,2.336-1.791c0.989,0.523,5.719,4.696,8.882,10.31
		c1.606,2.764,2.787,5.82,3.403,8.354c0.633,2.534,0.756,4.51,0.77,5.095C119.145,197.231,119.634,198.702,119.644,198.713z"/>
	<path style="fill:#595959;" d="M135.498,192.229c0.665,1.702-0.456,3.074-1.793,3.692c-1.353,0.591-2.843,0.681-3.098-0.059
		c-0.247-0.732-1.062-3.462-2.455-6.315c-1.358-2.864-3.331-5.779-4.926-7.158c-1.556-1.406-4.084-4.191-6.879-6.247
		c-2.75-2.111-5.721-3.421-6.745-3.737c-2.018-0.595-1.306-2.702,1.238-2.671c0.622,0.021,2.613,0.454,5.128,1.605
		c2.518,1.128,5.485,3.06,8.067,5.445c5.263,4.73,8.701,11.018,9.215,12.118C134.317,191.142,135.49,192.229,135.498,192.229z"/>
	<path style="fill:#595959;" d="M35.664,107.403c-8.871,2.427-13.59,2.709-15.57,1.499c-2.08-1.079-0.622-4.239,4.084-6.009
		c2.341-0.894,7.649-2.685,14.802-4.201c7.145-1.543,16.129-2.781,25.614-3.266c9.485-0.512,19.457-0.292,28.586,0.368
		c9.134,0.653,17.427,1.719,23.68,2.534l2.912,0.409l5.356,0.915l4.43,13.48l4.208,13.153l8.875,28.531l12.782,41.78
		c4.019,12.779,0.653,11.83-4.294-0.653c-1.403-3.541-5.875-16.581-11.658-33.746l-19.097-57.178l-4.547-0.722
		c-1.948-0.299-3.881-0.577-5.795-0.832c-3.826-0.505-7.577-0.918-11.204-1.238c-7.256-0.643-14.023-0.908-19.962-0.904
		c-11.89-0.014-20.426,1.052-23.247,1.365C42.523,104.227,35.652,107.479,35.664,107.403z"/>
	<path style="fill:#595959;" d="M16.378,129.031c-4.538-12.063,2.766-14.81,5.035-8.777c2.269,6.03,14.967,42.564,21.78,57.901
		c6.811,15.34,21.779,57.904,24.956,66.351c3.177,8.443-0.017,8.265-4.107,0.165c-4.089-8.1-38.585-94.27-41.761-102.713
		C19.106,133.514,16.378,129.031,16.378,129.031z"/>
	<path style="fill:#595959;" d="M283.641,153.893c-0.165-2.207,0.016-3.782,0.426-5.047c0.409-1.251,1.042-2.241,1.805-2.919
		c0.767-0.681,1.698-0.99,2.63-0.681c0.918,0.299,1.776,1.231,2.113,2.633c0.359,1.399,0.828,4.5,0.802,8.364
		c0.004,3.874-0.397,8.543-1.024,13.377c-1.248,9.674-3.288,20.063-4.019,26.437c-0.717,6.377-3.149,17.908-5.126,28.627
		c-0.98,5.36-1.807,10.527-2.226,14.721c-0.442,4.201-0.411,7.374-0.256,8.859c0.292,2.964,0.116,3.998-0.773,4.184
		c-0.839,0.168-2.486-1.324-3.187-4.806c-0.413-1.695-0.715-7.498,0.052-15.213c0.701-7.718,2.212-17.333,3.802-26.894
		c1.595-9.561,3.207-19.087,4.222-26.643c1.045-7.56,1.447-13.122,1.566-14.779C284.993,157.4,283.624,153.859,283.641,153.893z"/>
	<path style="fill:#595959;" d="M274.902,293.023c0.137-1.767,2.193-2.465,4.155-2.42c1.958,0.065,3.842,0.664,3.764,1.437
		c-0.084,0.773-0.576,3.558-0.736,6.704c-0.181,3.142,0.017,6.615,0.73,8.605c0.691,1.991,1.227,5.686,2.152,8.914
		c0.87,3.259,2.224,5.91,2.812,6.659c0.557,0.76,0.284,1.53-0.411,2.046c-0.684,0.499-1.86,0.664-2.948-0.038
		c-0.536-0.34-1.932-1.832-3.287-4.229c-1.368-2.383-2.639-5.631-3.501-8.973c-1.775-6.69-2.01-13.607-1.969-14.81
		C275.747,294.498,274.905,293.03,274.902,293.023z"/>
	<path style="fill:#595959;" d="M93.001,235.363c-4.524,2.228-9.648,4.786-14.387,7.395c-7.969,4.308-14.874,8.646-16.804,9.99
		c-1.934,1.337-1.753,3.648-0.117,4.861c1.623,1.238,4.521,1.527,8.265-0.925c0.002,0.014,2.453-2.822,7.907-6.044
		c1.973-1.169,10.68-6.601,21.775-11.912C97.455,237.536,95.253,236.388,93.001,235.363z"/>
	<path style="fill:#595959;" d="M151.553,220.983c-1.162-0.055-3.146-0.155-5.664-0.148c0.94,1.468,2.039,2.819,3.204,4.115
		c0.567-0.038,1.049-0.072,1.356-0.11c3.204-0.364,5.155-1.083,5.489-1.918C156.275,222.114,154.927,221.165,151.553,220.983z"/>
	<path style="fill:#595959;" d="M16.72,104.137c-0.418,5.071-2.867,7.295-4.88,7.515c-2.028,0.175-3.699-1.258-3.39-3.524
		c0.206-1.558,0.88-5.848,0.97-11.311c0.045-2.726-0.058-5.738-0.437-8.787c-0.093-0.763-0.206-1.526-0.337-2.286l-0.222-1.196
		c-0.136-0.694-0.304-1.396-0.485-2.101c-0.352-1.409-0.81-2.836-1.432-4.383c-0.394-0.846-0.598-1.52-1.265-2.602L4.39,73.97
		l-2.596-3.053c1.231-2.135,1.42-3.16,1.441-3.971c-0.021-1.42-0.956-1.798-1.377-1.826c0.952-0.399,2.03-1.389,3.251-2.53
		l17.208,14.821l9.396,8.296l12.928,11.507c5.129,4.428,2.486,6.009-3.28,2.324c-1.432-0.914-5.831-4.311-11.718-8.973l-9.758-7.78
		l-2.468-1.97L15.8,79.577l-2.865-2.166L9.65,75.008l-0.165-0.117l0.273,0.278l0.524,0.55c0.333,0.371,0.643,0.732,0.925,1.097
		c0.564,0.722,1.031,1.42,1.416,2.08c0.523,0.88,0.904,1.685,1.198,2.396c0.304,0.729,0.512,1.361,0.674,1.898l0.058,0.203
		l0.125,0.55l0.247,1.21c0.152,0.784,0.283,1.523,0.386,2.214c0.426,2.764,0.557,4.744,0.607,5.648
		C16.232,100.046,16.674,104.123,16.72,104.137z"/>
	<path style="fill:#595959;" d="M276.715,175.503c2.755-2.64,5.214-4.263,7.28-5.091c2.042-0.818,3.79-0.873,4.717-0.227
		c0.871,0.698,0.88,1.702,0.957,2.548c-0.074,0.921-0.756,2.104-2.114,3.321c-2.749,2.352-12.356,11.493-23.125,21.676
		c-10.779,10.19-22.913,21.174-30.924,27.486c-2.011,1.585-4.483,3.448-7.745,5.25c-1.65,0.873-3.496,1.812-5.982,2.334
		c-1.98,0.413-4.016,0.698-6.099,0.897c-8.33,0.784-17.455,0.234-26.145-1.172c-8.692-1.396-16.918-3.74-23.467-6.285
		c-6.563-2.516-11.431-5.212-13.83-6.597c-4.816-2.802-6.25-4.937-5.446-5.36c0.835-0.488,3.847,0.598,8.705,2.719
		c2.415,1.059,10.358,4.957,21.841,7.701c5.721,1.385,12.29,2.516,19.276,3.07c6.968,0.536,14.418,0.588,21.56-0.543
		c0.882-0.144,1.785-0.313,2.622-0.502c0.717-0.172,1.489-0.461,2.252-0.801c1.537-0.691,3.067-1.588,4.553-2.551
		c2.975-1.939,5.81-4.136,8.514-6.343c5.404-4.442,10.31-8.963,14.611-13.009c8.584-8.124,14.769-14.377,16.681-16.206
		C272.997,180.444,276.703,175.5,276.715,175.503z"/>
	<path style="fill:#595959;" d="M279.768,40.76c0-2.743,0-7.316,6.4-6.401c6.401,0.915,7.316,5.487,4.572,7.316
		c-2.743,1.829,3.658-0.915-2.743,1.829C281.594,46.244,279.768,40.76,279.768,40.76z"/>
	<path style="fill:#595959;" d="M274.561,241.624c1.346-0.901,4.377,2.871,3.505,3.517c-0.428,0.316-2.017,1.169-3.763,2.022
		c-1.745,0.866-3.655,1.781-4.693,2.596c-1.024,0.842-6.652,3.764-12.291,6.226c-5.627,2.492-11.23,4.648-11.884,4.868
		c-1.31,0.437-1.695-1.361-0.595-2.376c0.552-0.505,7.638-3.795,14.52-7.371c3.441-1.781,6.828-3.634,9.356-5.139
		c2.536-1.499,4.191-2.644,4.466-2.802C274.312,242.521,274.561,241.617,274.561,241.624z"/>
	<path style="fill:#595959;" d="M322.176,96.842c0.375-0.124,1.915-0.495,4.296-0.32c1.186,0.096,2.587,0.33,4.107,0.911
		c1.5,0.584,3.183,1.509,4.533,3.173c0.658,0.825,1.323,1.867,1.695,3.125c0.385,1.248,0.411,2.671,0.102,3.961
		c-0.619,2.602-2.214,4.627-3.692,6.164c-3.051,3.042-5.841,4.452-5.47,3.864c0.282-0.643,3.111-3.215,5.009-6.628
		c0.942-1.685,1.495-3.606,1.258-5.002c-0.203-1.392-0.975-2.272-1.583-2.998c-1.164-1.465-3.715-3.225-6.025-4.359
		C324.101,97.574,322.165,96.856,322.176,96.842z"/>
	<path style="fill:#595959;" d="M204.499,111.762c-4.333,0-7.584-6.501-1.081-6.501
		C209.919,105.261,204.499,111.762,204.499,111.762z"/>
	<path style="fill:#595959;" d="M245.683,62.996c-14.088,9.753-34.681,31.425-34.681,31.425"/>
	<path style="fill:#595959;" d="M243.259,63.123c2.03-1.461,3.135,0.175,2.138,0.863c-0.497,0.351-2.262,1.547-4.149,2.998
		c-1.894,1.447-3.909,3.139-5.038,4.263c-1.143,1.11-6.919,6.391-12.323,11.802c-5.43,5.384-10.551,10.812-11.139,11.431
		c-1.179,1.231-1.544,0.55-0.529-0.853c0.502-0.705,7.035-7.948,13.954-14.848c3.452-3.451,6.996-6.821,9.815-9.344
		c2.812-2.527,4.894-4.215,5.236-4.48C242.596,63.9,243.261,63.123,243.259,63.123z"/>
	<path style="fill:#595959;" d="M109.51,455.558c1.062-2.431,6.91-0.021,6.355,1.282c-0.273,0.643-1.427,2.816-2.721,5.233
		c-1.282,2.424-2.759,5.064-3.414,6.852c-0.344,0.884-1.55,3.39-3.923,6.415c-1.193,1.502-2.721,3.128-4.641,4.562
		c-1.905,1.444-4.215,2.634-6.535,3.421c-4.693,1.561-9.011,1.97-12.124,2.613c-3.137,0.574-5.22,1.138-5.664,1.241
		c-1.729,0.409-2.121-1.946-0.437-3.152c0.416-0.299,3.214-1.306,7.367-2.283c4.086-1.031,9.75-1.963,13.855-5.061
		c4.129-3.029,6.686-7.673,8.452-11.293c1.741-3.665,2.718-6.412,2.927-6.824C109.809,456.865,109.51,455.558,109.51,455.558z"/>
</g>
</svg>
