<?xml version="1.0" encoding="iso-8859-1"?>
<!-- Generator: Adobe Illustrator 18.1.1, SVG Export Plug-In . SVG Version: 6.00 Build 0)  -->
<svg version="1.1" id="_x31_" xmlns="http://www.w3.org/2000/svg" xmlns:xlink="http://www.w3.org/1999/xlink" x="0px" y="0px"
	 viewBox="0 0 512 512" style="enable-background:new 0 0 512 512;" xml:space="preserve">
<g>
	<path style="fill:#231815;" d="M310.107,103.783c1.092,3.298,1.79,6.166,2.161,8.558c0.366,2.39,0.407,4.308,0.087,5.561
		c-0.311,1.245-1.002,1.821-1.986,1.347c-0.979-0.471-2.279-2.011-3.453-4.986c-0.58-1.481-1.453-4.11-2.225-7.67
		c-0.779-3.555-1.434-8.037-1.754-13.132c-0.162-2.547-0.247-5.245-0.257-8.056c-0.002-2.816,0.031-5.682,0.101-8.692
		c0.146-5.998,0.478-12.408,1.344-18.913c0.86-6.5,2.286-13.099,4.499-19.311c2.194-6.214,5.192-12.003,8.672-16.931
		c3.467-4.945,7.369-9.026,11.078-12.25c3.715-3.23,7.23-5.627,10.068-7.347c0.963-0.48,0.365,0.068-1.367,1.477
		c-1.721,1.418-4.573,3.722-7.868,7.005c-3.288,3.277-6.998,7.572-10.257,12.84c-3.278,5.246-6.037,11.465-7.887,18.094
		c-1.872,6.627-2.873,13.619-3.327,20.371c-0.459,6.759-0.412,13.283-0.271,19.13c0.111,5.855,0.459,10.928,1.01,14.879
		C309.009,99.698,309.677,102.486,310.107,103.783z"/>
	<path style="fill:#231815;" d="M343.976,110.207c2.265-5.921,3.763-10.956,5.071-16.569c1.267-5.61,2.295-11.844,2.623-20.183
		c0.155-4.202,0.115-7.467,0.087-10.175l-0.128-6.811c-0.108-3.908-0.141-7.054-0.805-12.238c-0.711-5.178-1.136-7.229-1.549-9.813
		c-0.214-1.292-0.449-2.716-0.824-4.72c-0.385-2.001-0.898-4.586-1.862-8.174c-0.983-3.584-1.629-5.351-1.916-6.17
		c-0.298-0.817-0.27-0.685-0.213-0.419c0.058,0.267,0.141,0.665-0.042,0.379c-0.191-0.282-0.613-1.26-1.751-3.682
		c-2.311-4.847-4.832-7.803-6.613-9.473c-1.799-1.679-2.85-2.147-2.837-2.159c1.625,3.318,2.662,6.716,3.37,10.116
		c3.786,6.248,6.467,13.284,8.512,20.472c0,0,1.069,5,1.794,11.079c0.771,6.074,1.105,13.202,1.205,17.264
		c0.137,4.064-0.106,9.154-0.704,13.904c-0.604,4.819-1.381,9.299-1.868,12.306c-0.474,3.002-0.885,7.562-1.743,12.579
		c-0.85,5.005-2.175,10.495-4.311,15.072c-1.064,2.281-1.78,3.879-2.077,4.918c-0.304,1.036-0.169,1.523,0.374,1.416
		C338.82,118.939,341.666,116.159,343.976,110.207z"/>
	<path style="fill:#231815;" d="M342.157,112.037c0.724-3.403,1.722-6.455,2.859-9.368c1.142-2.913,2.446-5.688,3.931-8.529
		c3.006-5.664,6.669-11.665,12.384-19.104c2.876-3.707,5.356-6.425,7.489-8.596c2.14-2.172,3.944-3.791,5.623-5.216
		c3.381-2.818,6.199-4.934,11.044-8.215c4.892-3.213,6.987-4.276,9.601-5.576c1.316-0.631,2.778-1.297,4.874-2.135
		c2.099-0.825,4.831-1.846,8.742-2.917c3.917-1.038,5.916-1.331,6.834-1.508c0.923-0.157,0.777-0.146,0.487-0.124
		c-0.287,0.021-0.723,0.055-0.377-0.056c0.346-0.104,1.467-0.405,4.324-0.811c5.717-0.759,9.765-0.908,12.391-1.043
		c2.624-0.112,3.824-0.201,3.823-0.215c-3.791-1.185-7.763-2.026-11.84-2.493c-8.862,0.76-17.466,3.276-25.428,6.973
		c0.009,0.005-5.592,2.206-11.779,5.905c-3.099,1.829-6.34,4.009-9.216,6.174c-2.879,2.164-5.398,4.306-7.165,5.928
		c-3.55,3.227-7.835,7.446-11.57,11.775c-3.756,4.308-6.953,8.712-8.875,11.784c-1.927,3.065-4.435,7.924-6.559,13.577
		c-2.139,5.646-3.848,12.089-4.54,18.094c-0.346,3.004-0.192,5.144,0.056,6.374c0.257,1.236,0.569,1.575,0.811,1.115
		C340.609,122.901,340.726,118.833,342.157,112.037z"/>
	<path style="fill:#231815;" d="M363.364,139.951c0.031-0.007-2.97-1.675-0.983-3.974c1.005-1.123,1.245-2.137,1.547-2.998
		c0.299-0.856,0.671-1.549,1.953-1.87c2.545-0.614,3.71-2.079,5.169-2.578c1.442-0.494,4.013-1.923,5.662-3.163
		c1.659-1.255,6.7-2.796,8.715-4.378c2.006-1.561,3.461-1.356,4.663-2.585c1.198-1.229,1.839-3.013,1.832-3.009
		c0,0,1.648-0.942,2.637-1.47c0.5-0.253,2.158-1.861,3.604-3.883c0.368-0.497,0.699-1.012,1.116-1.631l1.152-1.611l1.75-2.461
		c1.709-2.305,5.174-7.914,6.249-9.596c1.098-1.667,2.632-2.726,3.021-3.496l1.529-3.089c0.019,0.009,2.923-4.904,3.855-6.667
		c0.958-1.741,3.013-3.571,3.607-5.512c0.59-1.927,2.066-5.027,2.82-8.667c0.375-1.814,1.128-3.615,1.747-5.532
		c0.62-1.912,1.105-3.952,0.911-6.073c-0.193-2.112,0.484-4.295,1.032-6.296c0.558-1.985,0.975-3.793,0.573-4.67
		c-0.386-0.878-0.647-2.289-0.883-3.594c-0.222-1.307-0.431-2.524-0.328-3.11c0.1-0.584,0.708-0.247,1.378,0.537
		c0.673,0.775,1.347,2.022,1.685,2.952c0.358,0.917,0.872,2.842,1.14,4.701c0.29,1.855,0.387,3.616,0.509,4.066
		c0.122,0.452-0.468,1.497-1.055,2.674c-0.587,1.184-1.172,2.497-0.952,3.717c0.227,1.224-0.102,3.164-0.607,4.939
		c-0.5,1.777-1.161,3.388-1.41,4.066c-0.246,0.683-1.032,2.548-1.858,4.395c-0.82,1.85-1.669,3.684-1.832,4.407
		c-0.152,0.725-1.667,4.662-3.568,8.762c-1.881,4.11-4.127,8.375-5.003,10.062c-0.866,1.693-3.494,5.469-6.18,8.96
		c-2.674,3.503-5.386,6.732-6.082,7.659l-0.305,0.397c-0.106,0.127-0.231,0.294-0.365,0.48c-0.262,0.362-0.599,0.797-0.97,1.25
		c-0.742,0.916-1.653,1.942-2.604,2.92c-1.893,1.979-3.956,3.743-4.609,4.846c-1.323,2.229-3.462,2.86-5.563,4.497
		c-2.13,1.662-6.161,3.421-7.432,4.092c-0.638,0.341-2.785,1.375-4.798,2.451c-2.018,1.072-3.883,2.222-4.149,2.59
		c-0.54,0.732-1.987,3.157-4.007,5.65c-1.004,1.25-2.024,1.45-2.866,1.354C363.979,140.367,363.363,139.951,363.364,139.951z"/>
	<path style="fill:#231815;" d="M322.816,125.686c-2.397,1.417-5.297,2.569-8.387,3.724c-3.079,1.156-6.391,2.293-9.316,3.661
		c-0.726,0.344-1.426,0.699-2.061,1.074c-0.319,0.186-0.626,0.377-0.908,0.57l-0.208,0.144l-0.296,0.221
		c-0.271,0.235-0.746,0.443-0.814,0.496c-1.29,0.712-2.447,1.544-3.471,2.44c-2.048,1.789-3.536,3.861-4.642,5.556
		c-2.205,3.423-3.502,6.823-4.672,9.871c-1.157,3.072-2.135,5.89-3.333,8.666c-0.324,0.784-0.693,1.467-0.997,2.208
		c-0.318,0.746-0.62,1.546-0.884,2.385c-0.526,1.676-0.871,3.513-0.704,5.253c0.155,1.741,0.853,3.431,1.943,5.163
		c1.081,1.725,2.459,3.454,3.787,5.156c2.698,3.409,3.371,5.046,2.918,5.381c-0.442,0.344-1.961-0.565-3.574-2.082
		c-1.601-1.534-3.83-3.711-5.677-6.209c-0.914-1.25-1.711-2.613-2.209-3.972c-0.504-1.356-0.703-2.67-0.713-3.668
		c-0.036-0.994,0.112-3.059,0.878-5.398c0.374-1.17,0.866-2.413,1.448-3.665c0.289-0.637,0.612-1.236,0.855-1.83
		c0.268-0.623,0.53-1.257,0.783-1.899c1.009-2.554,1.889-5.164,2.639-7.293c0.745-2.131,1.371-3.777,1.648-4.466
		c0.564-1.357,1.919-5.476,4.592-9.306c1.322-1.907,2.991-3.675,4.658-4.979c0.826-0.659,1.648-1.208,2.388-1.655
		c0.154-0.091,0.198-0.12,0.297-0.207l0.469-0.358c0.31-0.224,0.593-0.417,0.845-0.576c4.066-2.621,11.571-3.598,15.484-7.297
		c1.922-1.831,2.78-2.486,3.622-2.59c0.832-0.118,1.616,0.353,2.98,0.487c0.679,0.059,1.353,0.118,1.946,0.205
		c0.589,0.09,1.106,0.229,1.384,0.591c0.278,0.351,0.304,0.978-0.121,1.762C324.97,124.034,324.106,124.924,322.816,125.686z"/>
	<path style="fill:#231815;" d="M291.428,186.698c0.939,0.499,2.404,0.68,3.905,0.727c1.514,0.048,3.11-0.014,4.577,0.053
		c2.95,0.113,4.168,0.893,3.714,0.898c-0.452-0.002-1.31,0.789-3.529,0.845c-2.222,0.054-4.022,0.208-5.11,0.318
		c-0.543,0.057-0.696-0.009-1.111-0.128c-0.417-0.15-1.09-0.241-2.72-0.745c-0.817-0.275-1.451-0.709-1.828-1.17
		c-0.384-0.461-0.494-0.909-0.481-1.182c0.053-0.56,0.378-0.506,0.624-0.219c0.27,0.308,0.772,0.513,1.195,0.567
		C291.088,186.726,291.427,186.697,291.428,186.698z"/>
	<path style="fill:#231815;" d="M298.147,189.928c0.404,0.513,1.178,0.92,2.04,1.225c0.866,0.309,1.822,0.545,2.683,0.872
		c1.729,0.643,2.313,1.555,2.03,1.495c-0.275-0.068-0.998,0.574-2.385,0.217c-1.384-0.355-2.548-0.56-3.282-0.671
		c-0.367-0.055-0.445-0.145-0.666-0.339c-0.217-0.21-0.604-0.454-1.488-1.156c-0.89-0.742-1.038-1.549-0.933-1.912
		c0.104-0.381,0.401-0.438,0.604-0.257C297.18,189.815,298.151,189.951,298.147,189.928z"/>
	<path style="fill:#231815;" d="M323.535,194.375c1.404,0.899,3.324,1.624,5.376,2.021c2.053,0.415,4.22,0.495,6.175,0.423
		c1.959-0.078,3.35-0.233,4.207-0.278c0.853-0.057,1.17,0.02,0.879,0.129c-0.289,0.106-0.656,0.454-1.362,0.852
		c-0.703,0.391-1.761,0.862-3.362,1.015c-3.192,0.301-5.769,0.033-7.289-0.122c-0.762-0.085-0.961-0.197-1.511-0.436
		c-0.539-0.266-1.46-0.589-3.484-1.602c-2.019-1.054-2.919-2.141-3.216-2.72c-0.293-0.591-0.012-0.736,0.516-0.421
		C321.532,193.897,323.536,194.401,323.535,194.375z"/>
	<path style="fill:#231815;" d="M340.553,187.555c1.265,0.875,3.053,1.563,4.966,1.987c1.918,0.424,3.952,0.611,5.803,0.706
		c1.852,0.102,3.173,0.155,3.98,0.246c0.803,0.081,1.085,0.213,0.802,0.271c-0.553,0.086-1.583,1.178-4.591,1.23
		c-2.976,0.012-5.357-0.284-6.778-0.454c-0.711-0.088-0.896-0.198-1.403-0.44c-0.499-0.261-1.354-0.577-3.243-1.577
		c-1.885-1.045-2.67-2.173-2.88-2.752c-0.213-0.596,0.084-0.709,0.545-0.379C338.696,187.093,340.559,187.576,340.553,187.555z"/>
	<path style="fill:#231815;" d="M354.062,182.875c2.094,0.745,4.744,1.269,7.497,1.328c2.753,0.082,5.579-0.306,8.115-0.872
		c2.537-0.564,4.323-1.077,5.416-1.312c1.086-0.252,1.478-0.228,1.112-0.054c-0.365,0.169-0.826,0.605-1.691,1.172
		c-0.864,0.565-2.143,1.274-4.135,1.817c-3.987,1.071-7.335,1.284-9.292,1.362c-0.983,0.036-1.261-0.045-2.013-0.204
		c-0.746-0.184-1.987-0.389-4.781-1.148c-2.79-0.8-4.265-1.746-4.874-2.285c-0.609-0.555-0.36-0.764,0.412-0.535
		C351.382,182.63,354.066,182.902,354.062,182.875z"/>
	<path style="fill:#231815;" d="M363.179,170.954c1.002,0.11,2.227-0.055,3.457-0.39c1.235-0.327,2.482-0.81,3.67-1.175
		c2.377-0.758,3.632-0.505,3.281-0.338c-0.353,0.148-0.723,1.185-2.519,1.913c-1.793,0.725-3.257,1.335-4.14,1.721
		c-0.44,0.192-0.587,0.169-0.964,0.158c-0.38-0.02-0.988,0.01-2.4,0.049c-1.423,0.016-2.235-0.377-2.557-0.69
		c-0.328-0.323-0.203-0.598,0.179-0.633C361.972,171.509,363.189,170.964,363.179,170.954z"/>
	<path style="fill:#231815;" d="M368.078,162.205c1.146-0.299,2.457-0.862,3.706-1.58c1.256-0.713,2.433-1.583,3.485-2.408
		c1.053-0.825,1.84-1.413,2.369-1.723c0.525-0.318,0.789-0.353,0.66-0.181c-0.265,0.318-0.117,1.55-1.75,3.101
		c-1.642,1.503-3.111,2.539-3.95,3.195c-0.424,0.324-0.583,0.346-0.984,0.452c-0.403,0.101-1.044,0.301-2.484,0.829
		c-2.898,1.003-3.718,0.16-2.954-0.25C366.942,163.21,368.084,162.207,368.078,162.205z"/>
	<path style="fill:#231815;" d="M283.906,180.576c-0.629,0.287-0.777-0.449-0.567-1.207c0.2-0.76,0.68-1.584,1.031-1.641
		c0.351-0.045,1.478,0.393,2.94,0.798c1.437,0.411,3.136,0.957,3.851,1.525C291.512,180.562,284.986,180.37,283.906,180.576z"/>
	<path style="fill:#231815;" d="M315.686,164.865c0,0,1.063-1.643,1.437-3.926c0.098-0.567,0.16-1.167,0.173-1.774
		c0.007-0.303,0.001-0.607-0.015-0.911l-0.038-0.453c-0.018-0.166-0.028-0.263-0.067-0.496c-0.079-0.419-0.158-0.842-0.289-1.218
		c-0.313-0.258-0.61-0.519-0.913-0.747c-0.431-0.339-0.773-0.567-1.104-0.777c-1.28-0.803-3.004-1.769-4.975-2.14
		c-0.975-0.192-1.999-0.217-2.934-0.065c-0.936,0.145-1.77,0.481-2.377,0.856c-0.609,0.367-1.289,1.003-1.808,1.862
		c-0.525,0.855-0.861,1.927-0.925,3.013c-0.073,1.087,0.113,2.171,0.433,3.157c0.318,0.99,0.771,1.884,1.221,2.707
		c0.174,0.307,0.352,0.546,0.528,0.756c0.199,0.343,0.497,0.69,1.035,0.984c0.674,0.355,0.992,0.586,1.247,0.844
		c0.257,0.246,0.454,0.512,0.93,0.698l0.041,0.014c0.2,0.345,0.415,0.695,0.724,1.059c0.72,0.277,1.52,0.464,2.352,0.464
		c0.829,0.002,1.676-0.201,2.399-0.58C314.221,167.419,315.114,166.134,315.686,164.865z"/>
	<path style="fill:#231815;" d="M266.965,148.035c-1.265-1.074-2.542-2.215-3.953-3.31c-1.411-1.115-2.88-2.298-4.367-3.52
		c-2.983-2.445-6.074-5.073-9.192-7.776l-18.428-16.149c-5.84-5.063-10.001-8.512-12.454-10.565
		c-2.455-2.046-3.155-2.746-2.201-2.082c1.873,1.362,6.233,3.325,15.187,10.814c8.895,7.531,15.87,13.686,20.103,17.077
		c2.107,1.709,2.66,2.251,4.229,3.689c1.583,1.444,4.128,3.741,10.532,8.838c3.118,2.63,5.565,4.708,7.545,6.189
		c1.969,1.495,3.44,2.422,4.374,3.01c0.937,0.582,1.328,0.858,1.181,0.934c-0.141,0.066-0.825-0.073-1.902-0.556
		C273.248,152.77,266.966,147.992,266.965,148.035z"/>
	<path style="fill:#231815;" d="M263.415,160.237c-0.627-0.388-1.272-0.779-1.929-1.131c-0.642-0.338-1.403-0.676-2.127-1.023
		l-4.604-2.138c-3.171-1.45-6.525-2.946-9.95-4.435c-6.852-2.982-14.003-5.904-20.55-8.433l-13.875-5.263
		c-2.717-1.035-3.518-1.449-2.501-1.162c2.016,0.613,6.354,0.916,16.322,4.545c9.937,3.676,17.752,6.939,22.353,8.754
		c2.298,0.918,2.922,1.252,4.659,2.119c1.75,0.887,4.554,2.225,11.326,5.431c1.682,0.91,3.062,1.832,4.315,2.606
		c1.245,0.782,2.346,1.435,3.326,1.952c1.956,1.039,3.431,1.483,4.388,1.694c0.956,0.199,1.389,0.26,1.301,0.397
		c-0.086,0.115-0.717,0.299-1.809,0.205c-2.193-0.16-4.924-1.264-7.001-2.291L263.415,160.237z"/>
	<path style="fill:#231815;" d="M260.47,173.324c-11.523-0.205-27.804,0.082-41.367-0.523c-13.559-0.612-18.933-1.773-16.902-1.642
		c2.036,0.091,6.128-0.441,16.278-0.125c10.155,0.3,18.284,0.2,23.025,0.055c4.749-0.16,2.707,0.245,16.935,0.29
		c14.228,0.021,16.941,0.978,12.873,1.175C267.25,172.749,260.47,173.324,260.47,173.324z"/>
	<path style="fill:#231815;" d="M320.109,187.167c2.333,1.714,4.999,3.495,7.824,5.395c2.796,1.919,5.815,3.801,8.9,5.728
		c6.174,3.83,12.687,7.573,18.717,10.749c6.029,3.178,10.349,5.215,12.894,6.446c2.548,1.217,3.302,1.669,2.333,1.323
		c-0.965-0.354-2.479-0.708-4.937-1.509c-2.452-0.81-5.857-2.067-10.469-4.395c-9.21-4.673-16.289-8.92-20.473-11.312
		c-4.141-2.439-2.291-1.57-14.212-9.657c-5.977-4.089-9.087-7.199-10.327-8.76c-1.239-1.575-0.779-1.523,0.76-0.183
		c1.557,1.334,3.782,2.92,5.647,4.119C318.63,186.312,320.109,187.167,320.109,187.167z"/>
	<path style="fill:#231815;" d="M350.742,126.492c2.085-2.999,4.702-6.464,7.673-9.786c2.96-3.328,6.226-6.528,9.359-9.188
		c6.272-5.269,9.598-6.499,8.751-5.638c-0.862,0.859-1.554,3.722-6.069,7.913c-4.515,4.174-7.696,7.887-9.29,10.224
		c-0.803,1.168-1.135,1.401-1.96,2.138c-0.797,0.751-2.2,1.953-4.533,5.396c-2.274,3.458-3.614,5.525-4.557,6.399
		c-0.912,0.88-1.402,0.512-1.115-0.73c0.286-1.231,0.665-2.913,1.037-4.289C350.41,127.556,350.743,126.492,350.742,126.492z"/>
	<path style="fill:#231815;" d="M343.652,21.892c-0.128-0.777-0.307-1.58-0.554-2.393c-0.232-0.823-0.443-1.677-0.671-2.551
		c-0.457-1.74-0.975-3.566-1.805-5.285c-0.809-1.714-2.028-3.331-3.69-4.24c-0.81-0.473-1.714-0.755-2.575-0.777
		c-0.864-0.027-1.66,0.167-2.367,0.443c-1.418,0.57-2.566,1.395-3.687,2.255c-0.547,0.426-1.082,0.873-1.609,1.337
		c-0.521,0.463-1.069,0.946-1.477,1.411l-1.275,1.376l-0.596,0.652l-0.556,0.676c-0.717,0.873-1.336,1.668-1.857,2.404l-0.373,0.539
		l-0.3,0.454l-0.453,0.725c-1.072,1.843-1.344,2.764-1.569,3.663c-0.139,0.625-0.032,1.271,0.238,1.761l0.379,0.76
		c0.604,0.201,1.25,0.165,1.789-0.04c0.167,0.101,0.345,0.195,0.546,0.28c0.483,0.208,0.919,0.308,1.254,0.445
		c0.166,0.069,0.306,0.144,0.411,0.233c0.146,0.138,0.052,0.046,0.084,0.082c0.012,0.019,0.06,0.104,0.108,0.25
		c0.022,0.073,0.045,0.16,0.068,0.268l0.025,0.078l0.122,0.059l0.172,0.028c0.224,0.065,0.412,0.129,0.617,0.24
		c0.303,0.075,0.598,0.142,0.876,0.2c0.311,0.061,0.592,0.111,0.85,0.146l0.42,1.081l0.201,0.517l0.101,0.028
		c0.134,0.034,0.259,0.067,0.368,0.067c0.226,0.018,0.4-0.021,0.537-0.08c0.03-0.015,0.109-0.028,0.201-0.047l0.233-0.049
		l0.101-0.021l-0.018-0.158c-0.008-0.057-0.043-0.179,0.018-0.073l0.478,0.673c0.625,0.864,1.28,1.767,1.659,1.94
		c0.091,0.031,0.159,0.011,0.201-0.08l0.049-0.179l0.014-0.125l0.005-0.067l0.039-0.015c0.121-0.019,0.287,0.005,0.513-0.045
		c0.225-0.041,0.491-0.134,0.739-0.261c0.503-0.25,0.964-0.627,1.386-1.012c0.418-0.391,0.832-0.753,0.938-0.631l0.107,0.05
		l0.055,0.111c0.008,0.106-0.033,0.257-0.097,0.412c-0.129,0.311-0.329,0.646-0.529,0.956c-0.199,0.311-0.409,0.606-0.569,0.885
		l-0.055,0.104l0.141-0.035c0.094-0.021,0.19-0.059,0.285-0.087c0.186-0.073,0.373-0.148,0.547-0.25
		c0.712-0.393,1.248-1.005,1.635-1.573c0.147,0.005-0.165-0.344-0.293-0.548l-0.121-0.171l0.088-0.008l0.198,0.004
		c0.237-0.015,0.373-0.106,0.512-0.185l0.186-0.134l0.094-0.061l0.179-0.007c0.255,0.007,0.388-0.066,0.538-0.117
		c0.518-0.295,0.805-0.747,1.079-1.178l0.194-0.327l0.095-0.162l0.09-0.087c0.106,0.094,0.219,0.187,0.338,0.271
		c0.122,0.082,0.25,0.167,0.408,0.191c0.164,0.024,0.344-0.052,0.511-0.092c0.169-0.045,0.334-0.076,0.497-0.094
		c0.154-0.002,0.336-0.073,0.436,0.054c0.172,0.115,0.508,0.411,1.085,0.639c0.288,0.097,0.661,0.194,1.092,0.018
		c0.438-0.177,0.785-0.717,0.949-1.305C343.973,24.9,343.896,23.44,343.652,21.892z"/>
	<path style="fill:#231815;" d="M428.758,42.984c0.148,0.401,0.301,0.602-0.104,2.32c-0.153,0.672-0.428,1.537-0.725,2.382
		c-0.056-0.44-0.139-0.883-0.237-1.323c0.101-0.214,0.241-0.439,0.27-0.631c-0.173-0.118-0.349-0.24-0.523-0.363
		c-0.104-0.346-0.226-0.692-0.367-1.036c0.001-0.113,0.011-0.22,0.011-0.337l-0.009-0.141c0.659-0.278,1.602-0.776,1.278-0.725
		c-0.238,0.022-0.39,0.054-0.583-0.313c-0.2-0.385-0.391-1.315-0.433-1.436l-0.02-0.191c0.025-0.184,0.011-0.742,0.279-0.984
		c0.351-0.299,0.144-0.445-1.234,0.233c-0.099-0.216-0.218-0.431-0.352-0.64c-0.048-0.171-0.099-0.344-0.163-0.525
		c-0.042-0.093-0.102-0.016-0.16,0.087c-0.152-0.165-0.327-0.323-0.573-0.42c-0.288-0.124-0.64-0.055-0.839,0.092l-0.205,0.185
		l-0.014-0.028l0.201-0.546l-0.391,0.155l-0.074-0.155c0.197-0.02,0.364-0.031,0.5-0.038c0.444-0.012,0.615,0.027,0.782,0.052
		c0.613,0.137,1.084-2.567-0.202-2.043c-0.296,0.14-0.508,0.247-0.976,0.391c-0.465,0.147-1.194,0.323-2.433,0.753
		c-1.285,0.436-2.979,1.187-4.459,1.768v-0.014v-0.085v-0.007l-0.018,0.112l0,0c0.075-0.472,0.265-1.668,0.232-1.471l-0.014,0.004
		l-0.026,0.006l-0.05,0.013l-0.399,0.094c-1.034,0.219-1.8,0.626-2.263,0.995c-0.178,0.135-0.346,0.291-0.505,0.458
		c-0.177,0.016-0.352,0.04-0.524,0.076c-0.36,0.077-0.707,0.194-1.033,0.339c-0.164,0.072-0.32,0.155-0.473,0.241l-0.225,0.137
		l-0.111,0.069l0.088,0.011h1.64c-0.068,0.127-0.133,0.259-0.192,0.397c-0.094,0.025-0.182,0.06-0.275,0.08
		c-0.344,0.079-0.972,0.193-1.648,0.314l-4.362,0.038l1.846,0.389c-0.388,0.014-0.784,0.213-0.931,0.58
		c-0.157,0.375-0.021,0.852,0.504,1.404c-0.342,0.112-0.679,0.227-0.993,0.342l-0.008,0.017l0.133,0.016l0.263,0.028l0.531,0.06
		l0.7,0.076c0.829,0.61,1.091,0.363,1.17-0.134c0.005-0.105,0.163-0.287,0.412-0.49c-0.101,0.134-0.197,0.275-0.273,0.423
		c-0.346,0.654-0.43,1.316-0.439,1.887l-0.024,1.361l1.161-0.752c0.097-0.063,0.187-0.112,0.281-0.17l-0.623,0.609l1.444,0.217
		c0.652,0.098,1.23,0.063,1.753-0.012c0.796,1.754,1.878,3.27,3.045,4.442c1.302,1.311,2.757,2.189,3.949,2.408
		c0.592,0.111,1.09,0.049,1.376-0.108c0.292-0.16,0.358-0.375,0.28-0.612c-0.049-0.132-0.152-0.259-0.278-0.39
		c0.212-0.145,0.401-0.321,0.578-0.518l0.07-0.01l0.064-0.016c0.139,0.583,0.271,1.169,0.398,1.728l-0.008,0.032
		c-0.111,0.214-0.218,0.433-0.34,0.638l0.179,0.066l-0.051,0.228l-0.434,2.65l1.377-2.301l0.113-0.206l0.177,0.065
		c0.037-0.229,0.099-0.454,0.154-0.681l0.132-0.247c0.095,0.157,0.287,0.33,0.592,0.514c-0.021,0.306,0.2,0.501,0.683,0.339
		l0.08,0.038c1.441,0.578,1.722-0.007,1.405-0.469c-0.058-0.085-0.066-0.297-0.049-0.565c0.832-0.779,0.66-0.996,0.212-0.918
		l-0.106-0.012c0.077-0.523,0.17-1.049,0.198-1.33c0.033-0.277,0.094-0.525,0.188-0.702l0.351,0.363l-0.007-1.036
		c0.486-1.083,1.424-3.424,1.881-4.901c0.588-1.858,0.694-2.134,0.83-2.379C431.035,42.763,428.408,42.178,428.758,42.984z
		 M421.311,43.547c-0.221,0.498-0.583,0.966-1.031,1.354C420.517,44.4,420.852,43.921,421.311,43.547z M417.553,44.202
		c0.274-0.198,0.576-0.374,0.893-0.524c-0.075,0.204-0.133,0.406-0.193,0.611c-0.181,0.106-0.361,0.214-0.539,0.311
		C417.661,44.468,417.609,44.334,417.553,44.202z M419.893,47.861l-0.059,0.108l-0.061,0.099l-0.022-0.174L419.893,47.861z
		 M423.489,44.398l0.127-0.211c0.066-0.116,0.119-0.213,0.175-0.314c0.055,0.12,0.112,0.24,0.164,0.367
		c-0.056,0.231-0.114,0.459-0.172,0.704l-0.191,0.059C423.543,44.8,423.505,44.6,423.489,44.398z M417.146,41.855
		c-0.158,0.075-0.329,0.152-0.494,0.228l0.185-0.166l0.152-0.116l0.019-0.009l0.137-0.009l0.133,0.009L417.146,41.855z
		 M412.428,44.217l0.089-0.033C412.403,44.226,412.255,44.279,412.428,44.217z M422.536,48.086l-0.132-0.194l-0.011-0.015
		l0.095-0.067c0.106-0.083,0.232-0.165,0.411-0.346c0.164-0.155,0.424-0.543,0.394-0.989l-0.038-0.567l0.109-0.022
		c0.049,0.069,0.098,0.154,0.15,0.27c-0.062,0.289-0.125,0.578-0.186,0.866c-0.133,0.605-0.28,1.23-0.436,1.785
		C422.793,48.556,422.679,48.313,422.536,48.086z M418.976,40.109c-0.255,0.113-0.595,0.225-0.927,0.32
		c0.411-0.155,0.826-0.315,1.238-0.473C419.202,40.004,419.104,40.052,418.976,40.109z M421.879,39.049
		c0.516-0.148,0.937-0.245,1.289-0.311l-0.197,0.418l-0.277,0.109c-0.856,0.341-1.677,0.718-2.485,1.104
		c-0.072-0.244-0.155-0.485-0.235-0.673C420.665,39.438,421.322,39.207,421.879,39.049z M408.487,44.187l-0.536-0.067l-0.27-0.034
		l-0.124-0.018l0.045-0.021c0.217-0.101,0.451-0.205,0.693-0.308l0.177,0.174c0.146,0.127,0.279,0.234,0.398,0.324L408.487,44.187z
		 M424.965,53.396l0.026,0.112l0.013,0.062l-0.162,0.102C424.883,53.581,424.925,53.489,424.965,53.396z M426.734,50.81
		c-0.084,0.206-0.18,0.411-0.287,0.606c-0.091,0.165-0.237,0.426-0.403,0.711l-0.124-0.16c-0.128-0.158-0.198-0.322-0.22-0.466
		c0.095-0.268,0.192-0.537,0.284-0.803c0.114-0.327,0.234-0.645,0.351-0.97c0.134,0.191,0.283,0.372,0.445,0.539l0.126,0.129
		C426.825,50.599,426.762,50.746,426.734,50.81z"/>
	<path style="fill:#231815;" d="M217.887,275.426c-0.63,0.215-1.238,0.653-1.655,1.301c-0.418,0.644-0.643,1.482-0.624,2.345
		c0.007,1.743,0.977,3.478,2.307,4.21c1.34,0.752,2.651,0.615,3.396,0.59c0.763-0.063,1.053-0.038,0.79,0.079
		c-0.264,0.106-0.593,0.42-1.286,0.737c-0.347,0.151-0.792,0.299-1.36,0.344c-0.564,0.045-1.268-0.02-2.007-0.358
		c-1.487-0.68-2.4-1.914-2.906-3.006c-0.512-1.114-0.667-2.144-0.706-2.915c-0.021-0.777,0.074-1.005,0.303-1.574
		c0.125-0.281,0.291-0.656,0.632-1.174c0.344-0.509,0.885-1.198,1.897-1.785c1.024-0.57,1.955-0.646,2.62-0.629
		c0.674,0.028,1.125,0.177,1.397,0.308c0.542,0.28,0.396,0.506-0.164,0.534c-0.563,0.034-1.294,0.224-1.809,0.471
		C218.193,275.156,217.884,275.423,217.887,275.426z"/>
	<path style="fill:#231815;" d="M332.004,236.666c-1.411-2.279-2.572-4.208-3.431-5.864c-0.863-1.653-1.42-3.023-1.716-4.09
		c-0.585-2.169-0.231-2.885-0.174-3.243c0.098-0.348,0.029-0.388-0.27-0.212c-0.286,0.184-0.791,0.659-1.236,1.676
		c-0.437,1.015-0.743,2.021-1.024,2.946c-0.274,0.934-0.507,1.819-0.607,2.775c-0.198,1.907,0.175,4.167,2.25,7.543
		c0.672,1.135,2.375,3.607,4.43,7.006c1.006,1.703,2.095,3.662,2.892,5.82c0.397,1.078,0.706,2.201,0.843,3.329
		c0.066,0.565,0.089,1.128,0.057,1.686c-0.015,0.278-0.046,0.555-0.092,0.831l-0.079,0.41l-0.092,0.346l-0.137,0.465l0.034,1.557
		l0.019,0.6l0.01,0.301l0.009,0.146l0.074,0.8c-0.185,0.096-0.423,0.169-0.66,0.25l-0.181,0.056l-0.485,0.115
		c-0.348,0.079-0.698,0.153-1.05,0.22c-1.41,0.272-2.859,0.451-4.345,0.531c-2.97,0.169-6.092-0.085-9.3-0.44l-2.42-0.278
		l-1.218-0.144l-0.611-0.071c-0.206-0.023-0.166-0.007-0.398-0.066c-1.656-0.412-3.336-0.709-5.01-0.908
		c-3.35-0.405-6.648-0.413-9.81-0.428c-3.169-0.013-6.199-0.059-9.122-0.39c-3.022-0.245-5.833-0.432-8.536-0.606
		c-5.382-0.343-10.114-0.458-13.779-0.383c-5.895,0.099-10.326,0.744-13.589,1.577c-3.265,0.832-5.36,1.81-6.71,2.596
		c-1.347,0.804-1.963,1.409-2.238,1.899c-0.275,0.491-0.2,0.895-0.079,1.434c0.289,1.09,1.572,0.586,3.634-0.354
		c2.059-0.959,5.116-2.301,8.719-3.365c1.777-0.558,6.574-1.361,13.074-1.303c6.504,0.008,14.569,0.799,22.963,1.689
		c4.269,0.316,8.48,0.259,12.4,0.64c1.961,0.184,3.853,0.475,5.651,0.897c0.45,0.104,0.893,0.217,1.33,0.337l0.365,0.101
		c0.182,0.059,0.364,0.088,0.545,0.109l0.703,0.102l2.733,0.401c3.58,0.529,6.959,0.908,9.874,0.877
		c2.913-0.014,5.302-0.381,6.92-0.747c0.459-0.1,1.414-0.328,2.208-0.538c0.806-0.228,1.652-0.44,2.449-0.702l0.002-3.578
		l0.014-1.344l0.011-0.61l0.013-0.356l0.042-0.12l0.055-0.173c0.055-0.192,0.107-0.385,0.153-0.579
		c0.093-0.388,0.167-0.78,0.223-1.173c0.109-0.784,0.146-1.569,0.125-2.338c-0.043-1.538-0.307-3.002-0.659-4.359
		c-0.717-2.717-1.742-5.044-2.639-6.993C333.289,239.105,331.987,236.68,332.004,236.666z"/>
	<path style="fill:#231815;" d="M368.419,235.07c0.015-0.372,1.405-2.454,0.732-4.003c-0.665-1.513-0.926-1.289-1.156-1.673
		c-0.235-0.386-1.54-0.887-1.895-0.638c-0.348,0.255-1.686,2.321-2.066,2.919c-0.372,0.604-0.65,1.702-0.304,1.965
		c0.345,0.26,1.282,0.593,1.263,1.042c-0.002,0.372-0.224,4.657-0.338,9.161c-0.052,2.252-0.055,4.559,0.029,6.456
		c0.075,1.893,0.264,3.381,0.355,3.94c0.368,2.08,0.835,7.499,1.288,8.924c0.485,1.436,0.634,1.923,0.81,2.903
		c0.204,0.982,0.14,4.565,0.053,5.664c-0.022,0.551-0.147,2.424-0.458,4.228c-0.292,1.809-0.799,3.522-0.931,3.921
		c-0.121,0.401-0.677,2.101-1.581,3.722c-0.878,1.642-2.18,3.089-2.731,3.714c-1.049,1.308-2.552,2.451-2.302,2.985
		c0.133,0.266,0.279,0.491,0.646,0.531c0.365,0.041,0.967-0.103,1.923-0.701c0.988-0.619,1.783-1.602,2.326-2.401
		c0.572-0.774,1.903-2.724,2.625-5.127c0.19-0.596,0.544-1.627,0.872-2.891c0.327-1.267,0.628-2.764,0.824-4.256
		c0.414-2.99,0.441-5.94,0.482-6.952c0.072-2.032-0.443-2.387-0.619-3.379c-0.148-0.996-0.504-5.489-0.68-6.603
		c-0.073-0.558-0.205-1.928-0.346-3.308c-0.068-0.734-0.187-1.377-0.222-1.966l-0.102-1.384c-0.061-0.606-0.007-2.976,0.177-5.352
		c0.172-2.374,0.408-4.754,0.37-5.376C367.383,239.891,368.404,235.468,368.419,235.07z"/>
	<path style="fill:#231815;" d="M355.953,283.316c-1.591,2.161-3.407,5.542-5.531,7.97c-2.135,2.434-3.594,2.804-3.232,2.479
		c0.334-0.351,0.539-1.441,1.991-3.258c1.449-1.839,2.372-3.494,2.857-4.487c0.475-1.005,0.493-0.419,2.299-3.188
		c1.801-2.785,2.843-2.858,2.45-1.981C356.401,281.728,355.954,283.316,355.953,283.316z"/>
	<path style="fill:#231815;" d="M339.164,288.188c-0.925,0.451-1.852,1.361-2.757,2.415c-0.909,1.051-1.871,2.234-2.984,3.115
		c-1.11,0.885-2.085,1.242-2.665,1.363c-0.59,0.114-0.806,0.038-0.63-0.054c0.363-0.207,0.785-1.069,2.227-2.311
		c1.442-1.294,2.319-2.66,2.869-3.458c0.268-0.406,0.397-0.48,0.71-0.709c0.329-0.215,0.784-0.646,2.022-1.513
		c1.28-0.848,2.267-0.89,2.693-0.789c0.441,0.107,0.419,0.365,0.069,0.546C339.976,287.15,339.14,288.178,339.164,288.188z"/>
	<path style="fill:#231815;" d="M310.091,289.975c1.702,0.115,3.149-0.292,4.052-0.779c0.917-0.494,1.338-1.036,1.309-1.367
		c-0.033-0.345-0.51-0.479-1.445-0.458c-0.942,0-2.334,0.152-4.339-0.111c-2.043-0.28-3.856-0.922-5.631-1.551
		c-1.773-0.64-3.502-1.304-5.362-1.9c-1.859-0.59-3.853-1.139-6.148-1.408c-1.163-0.137-2.335-0.142-3.585-0.267
		c-1.255-0.108-2.591-0.262-4.027-0.465c-5.749-0.818-11.27-1.888-16.449-2.507c-5.169-0.629-10.036-0.815-14.208-0.061
		c-2.038,0.363-3.441,1.071-4.11,1.653c-0.676,0.593-0.657,1.019-0.006,1.129c1.345,0.254,4.97-0.826,12.825-1.223
		c4.215-0.188,6.659,0.094,9.519,0.459c2.871,0.377,6.166,0.992,12.253,1.799l3.602,0.448l1.769,0.199
		c0.597,0.067,1.165,0.113,1.699,0.195c2.181,0.327,4.234,1.064,6.198,1.915c1.967,0.851,3.858,1.821,5.829,2.648
		C305.799,289.146,307.886,289.833,310.091,289.975z"/>
	<path style="fill:#231815;" d="M230.816,281.106c-0.32,0.95-0.309,2.189,0.031,3.414c0.039,0.146,0.021,0.128,0.171,0.186
		c0.309,0.14,0.624,0.264,0.946,0.376c0.644,0.227,1.314,0.388,1.994,0.479c1.362,0.186,2.76,0.033,4.095-0.375
		c1.336-0.405,2.614-1.036,3.823-1.694c2.411-1.344,4.167-2.347,5.264-2.799c1.092-0.471,1.483-0.505,1.118-0.287
		c-0.365,0.221-0.824,0.692-1.622,1.404c-0.807,0.705-1.932,1.687-3.779,2.798c-1.848,1.104-3.655,1.963-5.338,2.368
		c-1.68,0.424-3.17,0.397-4.236,0.28c-1.071-0.135-1.358-0.286-2.12-0.622l-0.666-0.325l-0.563-0.29l-0.4-0.207l-0.138-0.476
		c-0.109-0.382-0.147-0.551-0.199-0.807c-0.052-0.25-0.095-0.52-0.132-0.817c-0.069-0.593-0.11-1.295-0.002-2.119
		c0.199-1.657,1.117-2.922,2.059-3.447c0.942-0.548,1.715-0.525,2.142-0.471c0.878,0.179,0.671,0.41-0.107,0.564
		c-0.392,0.098-0.823,0.287-1.179,0.564c-0.357,0.278-0.634,0.631-0.806,0.982C230.821,280.49,230.823,281.111,230.816,281.106z"/>
	<path style="fill:#231815;" d="M238.295,263.087c-3.399-0.497-7.551-0.73-11.75-0.477c-2.09,0.131-4.199,0.387-6.135,0.87
		c-1.926,0.474-3.691,1.214-4.76,2.241c-1.07,0.999-1.413,2.241-1.476,3.475c-0.059,1.222,0.115,2.307,0.228,3.115
		c0.273,1.627,0.278,2.239-0.009,1.69c-0.255-0.556-0.97-1.217-1.723-2.658c-0.364-0.723-0.742-1.657-0.843-2.919
		c-0.104-1.231,0.192-2.919,1.382-4.341c1.18-1.41,2.656-2.215,4.007-2.802c1.368-0.581,2.677-0.943,3.879-1.228
		c2.41-0.554,4.407-0.81,5.88-1.025c1.476-0.202,1.902-0.118,3.052,0.017c1.149,0.149,3.028,0.318,7.356,0.7
		c4.328,0.407,6.808,1.182,7.908,1.72c0.547,0.278,0.764,0.501,0.716,0.699c-0.059,0.2-0.452,0.348-1.077,0.365
		C242.425,262.566,238.291,263.068,238.295,263.087z"/>
	<path style="fill:#231815;" d="M390.617,186.156c1.024,0.765,1.867,1.647,2.665,2.653c0.791,1.001,1.543,2.124,2.228,3.211
		c1.37,2.166,2.416,4.172,2.406,4.174c0,0,0.871,1.541,2.128,3.627c1.249,2.082,2.874,4.731,4.014,6.913l1.828,3.397
		c0.315,0.587,0.63,1.187,0.932,1.799c0.298,0.619,0.542,1.121,0.836,1.67l3.136,6c0.877,1.69,3.411,6.811,5.7,12.406
		c2.319,5.583,4.394,11.621,5.405,14.769c1.033,3.138,2.941,8.856,4.547,14.351l0.594,2.042l0.286,1.002l0.153,0.556l0.108,0.546
		c0.263,1.332,0.491,2.603,0.676,3.764c0.377,2.324,0.594,4.209,0.69,5.268c0.597,7.098,0.65,11.84,0.748,14.811
		c0.076,2.971,0.146,4.172,0.146,4.172s-0.006,3.334-0.314,7.372c-0.291,4.037-0.934,8.761-1.522,11.553
		c-0.57,2.797-1.508,5.99-2.404,8.934c-0.893,2.947-1.737,5.648-1.994,7.561c-0.258,1.913-0.665,2.528-1.23,3.328
		c-0.569,0.8-1.288,1.789-2.31,4.419c-0.608,1.561-1.421,3.039-2.227,4.214l0.207,0.039c0.757-3.298,2.007-5.063,2.418-1.746
		c0.064,0.513,0.108,1.102,0.138,1.746l-5.139-0.978c0.845-2.457,2.171-5.682,3.215-8.334l1.849-4.707
		c0.779-3.966,1.395-7.947,1.834-11.931c0,0,0.957-0.948,1.86-2.647c0.901-1.695,1.737-4.162,1.467-7.033
		c-0.264-2.866-0.089-7.024-0.072-11.061c0.033-4.035-0.095-7.944-0.477-10.23c-0.76-4.583-1.767-9.961-2.717-16.22l-0.186-1.183
		c-0.096-0.556-0.036-0.344-0.184-0.915l-0.626-2.458c-0.43-1.653-0.878-3.33-1.344-5.002c-0.934-3.343-1.933-6.662-2.931-9.739
		c-0.996-3.077-2.455-6.728-3.904-9.996c-1.442-3.272-2.865-6.161-3.607-7.841c-0.731-1.682-3.002-6.706-5.643-11.534l-0.995-1.801
		c-0.35-0.621-0.71-1.218-1.034-1.833c-0.573-1.07-1.208-2.061-1.829-2.984c-1.247-1.834-2.378-3.303-2.933-4.041
		c-1.115-1.48-3.853-3.8-6.299-5.967c-2.45-2.136-4.559-4.266-4.555-4.278c0.005,0.002,0.466-0.583,0.538-2.09
		c0.042-0.758-0.014-1.74-0.198-3.029c-0.179-1.288-0.509-2.876-0.795-4.924c-0.26-2.067,0.183-3.197,0.672-3.633
		c0.503-0.447,1.102-0.274,1.675,0.047C389.378,185.052,390.603,186.168,390.617,186.156z"/>
	<path style="fill:#231815;" d="M334.481,389.367c4.924-0.423,5.982-5.592-1.188-5.245c-3.665,0.175-6.453,0.979-9.483,2.189
		c-1.505,0.636-3.105,1.301-4.794,2.526c-0.814,0.61-1.723,1.514-2.153,2.688c-0.22,0.579-0.327,1.227-0.328,1.867
		c-0.004,0.631,0.084,1.255,0.222,1.871c0.595,2.456,1.734,4.508,2.818,6.494c1.11,1.969,2.266,3.824,3.396,5.585
		c2.265,3.52,4.427,6.674,6.38,9.298c1.916,2.563,4.174,2.6,4.685,0.983c0.525-1.629-0.711-4.85-5.539-9.066
		c-2.572-2.274-3.783-3.791-5.044-5.681c-0.625-0.947-1.263-1.992-2.011-3.299c-0.37-0.654-0.767-1.376-1.165-2.186
		c-0.392-0.807-0.8-1.715-1.059-2.677c-0.102-0.383-0.162-0.751-0.172-1.083c-0.011-0.344,0.025-0.586,0.111-0.862
		c0.083-0.264,0.227-0.506,0.406-0.711c0.171-0.198,0.396-0.383,0.687-0.566c1.165-0.722,2.854-1.084,4.465-1.324
		C328.001,389.711,331.314,389.641,334.481,389.367z"/>
	<path style="fill:#231815;" d="M403.801,363.483c-1.467,2.692-3.569,5.715-6.114,8.495c-2.531,2.793-5.458,5.351-8.214,7.466
		c-2.764,2.109-4.751,3.426-5.861,4.274c-1.101,0.839-1.451,1.142-1.178,0.706c0.296-0.411,0.634-1.149,1.457-2.199
		c0.813-1.055,2.102-2.391,4.113-4.029c4.045-3.252,6.881-6.239,8.307-8.14c0.717-0.949,0.971-1.169,1.622-1.834
		c0.321-0.334,0.745-0.778,1.329-1.513c0.577-0.736,1.33-1.756,2.19-3.293c1.69-3.084,2.424-5.055,2.966-5.929
		c0.505-0.885,0.785-0.666,0.632,0.386c-0.158,1.043-0.404,2.453-0.692,3.592C404.08,362.609,403.801,363.485,403.801,363.483z"/>
	<path style="fill:#231815;" d="M295.952,336.953c4.904-2.26,9.39-3.712,13.318-4.842c3.931-1.121,7.312-1.922,10.13-2.606
		c5.645-1.344,9.022-2.206,10.648-2.7c3.265-1.011-0.392-0.28-5.698-0.174c-5.299,0.099-8.118-0.734-11.663-0.996
		c-1.772-0.129-3.723-0.127-6.248,0.252c-2.519,0.391-5.635,1.136-9.613,2.734c-1.975,0.809-5.86,2.454-10.84,5.434
		c-1.242,0.746-2.547,1.578-3.904,2.497l-1.037,0.718c-0.368,0.266-0.743,0.533-1.11,0.822c-0.738,0.566-1.463,1.184-2.178,1.841
		c-2.861,2.629-5.466,5.97-7.589,9.845c-4.241,7.748-6.671,17.608-6.11,28.135c0.302,5.251,1.375,10.693,3.629,15.877
		c0.563,1.29,1.207,2.573,1.921,3.803c0.697,1.204,1.444,2.387,2.224,3.542c1.557,2.314,3.252,4.524,5.019,6.673
		c7.102,8.57,15.236,16.276,22.904,24.116c3.84,3.911,7.586,7.838,11.05,11.862c3.46,4.023,6.648,8.148,9.238,12.444
		c0.644,1.073,1.248,2.159,1.809,3.253c0.284,0.551,0.542,1.092,0.796,1.63c0.221,0.519,0.43,1.077,0.607,1.628
		c0.706,2.198,0.906,4.479,0.166,6.415c-0.714,1.947-2.331,3.458-4.16,4.548c-1.841,1.098-3.88,1.844-5.897,2.428
		c-4.06,1.145-8.067,1.687-11.764,2.08c-3.704,0.38-7.131,0.576-10.198,0.711c-6.14,0.259-11.531,0.341-16.253,0.478
		c-4.725,0.128-8.786,0.293-12.278,0.548c-1.746,0.127-3.35,0.275-4.821,0.446c-0.353,0.041-0.754,0.085-1.136,0.164
		c-0.379,0.076-0.739,0.174-1.085,0.281c-0.689,0.218-1.318,0.485-1.9,0.772c-2.315,1.169-3.878,2.635-4.9,4.016
		c-1.021,1.391-1.461,2.725-1.563,3.773c-0.104,1.055,0.092,1.81,0.325,2.321c0.504,1.018,1.102,1.182,1.828,1.314
		c0.758,0.106,0.859-0.546,0.942-1.4c0.114-0.87,0.217-1.845,1.339-3.337c0.559-0.727,1.382-1.525,2.413-2.239
		c1.012-0.709,2.298-1.354,3.444-1.62l0.205-0.044l0.101-0.018l0.165-0.025l0.663-0.098l1.354-0.188l2.806-0.36
		c1.913-0.231,3.899-0.447,5.927-0.659c2.026-0.217,5.655-0.433,10.532-0.623c4.877-0.208,10.995-0.352,18.006-0.845
		c3.504-0.259,7.235-0.606,11.14-1.268c1.954-0.337,3.95-0.751,5.977-1.338c2.025-0.592,4.09-1.339,6.104-2.491
		c1.989-1.138,4.019-2.791,5.255-5.188c0.613-1.182,0.987-2.505,1.113-3.808c0.127-1.307,0.034-2.593-0.199-3.808
		c-0.232-1.227-0.578-2.361-1.02-3.502c-0.473-1.138-0.963-2.134-1.484-3.145c-1.038-2.02-2.212-3.962-3.447-5.854
		c-4.991-7.545-11.039-14.215-16.921-20.5c-5.904-6.269-11.721-12.131-16.776-17.701c-5.06-5.556-9.36-10.834-12.327-15.62
		c-1.509-2.412-2.601-4.581-3.382-6.669c-0.785-2.065-1.295-3.928-1.654-5.476c-1.443-6.194-1.384-13.431,0.228-20.166
		c1.571-6.746,4.723-12.967,8.607-17.301c1.925-2.181,4.012-3.884,6.015-5.128c2.141-1.33,4.13-2.408,5.794-3.238
		C293.875,337.723,295.957,336.967,295.952,336.953z"/>
	<path style="fill:#231815;" d="M334.309,418.535c-0.71,0.775-1.142,1.822-1.298,2.963c-0.159,1.134-0.077,2.308,0.14,3.403
		c0.439,2.208,1.344,4.139,2.293,5.728c1.936,3.176,4.061,5.08,5.26,5.535c0.606,0.224,1.599,1.134,2.825,2.505
		c1.209,1.372,2.713,3.211,3.947,5.36c0.15,0.268,0.298,0.539,0.431,0.816l0.195,0.415l0.156,0.371l0.713,1.993
		c0.475,1.349,0.945,2.736,1.4,4.132c0.911,2.796,1.75,5.63,2.46,8.288c1.453,5.33,1.127,9.853,0.195,13.043
		c-0.923,3.229-2.274,5.16-2.849,6.612c-0.565,1.468-2.192,3.926-4.362,5.936c-1.077,1.008-2.246,1.929-3.331,2.68
		c-0.546,0.373-1.066,0.709-1.538,1.004l-1.24,0.642c-1.467,0.753-4.181,2.094-6.627,3.049c-2.438,0.971-4.567,1.614-4.567,1.614
		s-2.113,0.688-4.838,1.288c-2.719,0.619-6.047,1.116-8.281,1.302c-2.227,0.217-7.902,0.758-14.885,0.977l-5.438,0.155
		c-1.87,0.047-3.785,0.056-5.697,0.227c-3.818,0.294-7.62,1.327-11.326,1.43c-1.036,0.049-2.02,0.064-2.956,0.058
		c-0.908-0.005-1.77,0.153-2.581,0.343c-1.621,0.381-3.063,0.884-4.457,1.024c-1.386,0.172-2.73-0.17-3.65-0.89
		c-0.931-0.702-1.522-1.568-1.989-2.361c-0.235-0.401-0.434-0.795-0.613-1.176c-0.121-0.253-0.153-0.399-0.232-0.599
		c-0.059-0.202-0.132-0.405-0.175-0.6c-0.2-0.782-0.271-1.554-0.203-2.307c0.134-1.508,0.897-2.918,2.166-3.913
		c1.618-1.245,3.183-1.598,4.109-1.881c0.945-0.261,1.348-0.424,0.992-0.617c-0.178-0.089-0.545-0.18-1.142-0.202
		c-0.594-0.019-1.422,0.013-2.498,0.306c-1.056,0.298-2.435,0.862-3.73,2.223c-0.631,0.684-1.207,1.582-1.549,2.642
		c-0.343,1.056-0.444,2.241-0.297,3.39c0.033,0.288,0.082,0.569,0.141,0.839c0.052,0.258,0.151,0.619,0.213,0.832l0.093,0.293
		l0.011,0.035l0.087,0.241l0.033,0.081l0.071,0.163c0.088,0.214,0.19,0.428,0.29,0.643c0.407,0.853,0.896,1.703,1.557,2.51
		c0.653,0.803,1.536,1.57,2.592,2.066c1.053,0.5,2.193,0.676,3.146,0.667c1.929-0.034,3.298-0.49,4.485-0.76
		c1.165-0.294,2.168-0.487,2.882-0.484l1.622,0.018c0.564,0,1.118-0.007,1.662-0.023c1.09-0.033,2.141-0.106,3.144-0.206
		c2.016-0.205,3.77-0.517,5.344-0.731c3.166-0.445,5.519-0.424,8.206-0.417c2.631-0.002,5.266-0.002,8.673-0.052
		c3.409-0.059,5.312-0.125,7.794-0.252c2.479-0.16,5.547-0.261,11.311-1.142c3.505-0.574,5.215-1.056,6.604-1.49
		c1.384-0.459,2.462-0.892,4.613-1.843c2.141-0.965,3.756-1.629,5.614-2.481c0.916-0.421,1.933-0.921,3.019-1.525l0.324-0.184
		l0.207-0.139l0.426-0.287c0.292-0.193,0.584-0.411,0.89-0.631c0.609-0.452,1.253-0.959,1.921-1.556
		c2.676-2.382,4.235-4.225,5.535-5.887c1.271-1.682,2.295-3.229,3.205-5.494c0.864-2.275,1.269-3.755,1.668-6.136
		c0.338-2.369,0.685-5.744-0.244-11.539c-0.982-5.781-2.755-10.661-4.354-14.774l-0.632-1.57c-0.247-0.55-0.517-1.055-0.792-1.528
		c-0.556-0.945-1.135-1.775-1.695-2.539c-1.13-1.517-2.193-2.776-3.099-3.875c-1.819-2.19-3.556-4.016-4.999-5.706
		c-1.445-1.682-2.608-3.226-3.306-4.69c-0.706-1.456-1.88-3.151-2.506-4.62c-0.323-0.73-0.514-1.4-0.598-1.895
		C334.305,418.931,334.314,418.533,334.309,418.535z"/>
	<path style="fill:#231815;" d="M385.385,372.494c-0.719,0.753-1.463,1.66-2.315,2.611c-0.436,0.486-0.869,0.917-1.285,1.415
		c-0.43,0.485-0.89,0.989-1.361,1.474c-1.886,1.956-4.062,3.781-6.227,5.144c-2.167,1.361-3.841,2.018-4.841,2.346
		c-1.01,0.313-1.358,0.31-1.025,0.139c0.664-0.364,1.75-1.535,4.842-3.557c3.093-2.059,5.144-4.238,6.225-5.569
		c0.54-0.678,0.73-0.811,1.24-1.293l1.085-1.029c0.481-0.476,1.09-1.164,1.948-2.177c1.71-2.052,3.202-2.952,3.939-3.149
		c0.746-0.212,0.739,0.075,0.175,0.539C386.619,370.331,385.38,372.492,385.385,372.494z"/>
	<path style="fill:#231815;" d="M371.627,376.652c-1.475,1.235-3.172,2.823-5.029,4.386c-1.852,1.564-3.883,3.085-5.882,4.221
		c-1.998,1.138-3.527,1.676-4.447,1.928c-0.924,0.245-1.245,0.214-0.939,0.071c0.609-0.306,1.575-1.405,4.431-3.122
		c2.852-1.752,4.847-3.567,5.95-4.673c1.089-1.137,0.815-0.404,4.325-3.554c3.489-3.19,4.707-3.203,3.815-2.169
		C372.963,374.768,371.629,376.652,371.627,376.652z"/>
	<path style="fill:#231815;" d="M358.36,378.333c-1.683,1.474-3.701,3.263-5.956,4.936c-2.252,1.672-4.756,3.227-7.256,4.206
		c-2.5,0.99-4.429,1.173-5.535,1.149c-1.115-0.038-1.442-0.207-1.053-0.229c0.39-0.032,0.964-0.245,1.873-0.592
		c0.909-0.351,2.149-0.836,3.906-1.568c3.522-1.502,5.961-3.454,7.307-4.617c0.672-0.596,0.896-0.718,1.488-1.104
		c0.583-0.393,1.559-1.022,3.551-2.837c1.979-1.825,3.208-2.87,3.88-3.261c0.665-0.395,0.761-0.139,0.291,0.491L358.36,378.333z"/>
	<path style="fill:#231815;" d="M417.715,348.46c-0.645,2.751-1.501,6.008-2.831,9.247c-1.313,3.235-3.113,6.429-5.227,8.959
		c-2.118,2.529-4.046,3.867-5.242,4.528c-1.214,0.655-1.726,0.662-1.374,0.346c0.35-0.321,0.656-1.045,1.245-2.105
		c0.587-1.066,1.452-2.457,2.854-4.28c2.809-3.677,4.116-7.197,4.64-9.255c0.257-1.039,0.438-1.287,0.838-2.026
		c0.372-0.741,1.062-1.973,1.735-5.085c0.628-3.11,0.994-4.935,1.401-5.827c0.378-0.892,0.883-0.836,1.1,0.148
		c0.205,0.967,0.459,2.289,0.612,3.388C417.628,347.596,417.712,348.46,417.715,348.46z"/>
	<path style="fill:#231815;" d="M327.46,285.598c-2.101,1.301-4.591,3.837-7.076,5.509c-2.504,1.667-3.907,1.679-3.515,1.457
		c0.374-0.25,0.773-1.236,2.52-2.537c1.75-1.32,3.012-2.567,3.723-3.335c0.72-0.763,0.538-0.263,3.035-2.142
		c1.264-0.93,2.173-1.267,2.65-1.309c0.477-0.044,0.54,0.205,0.215,0.511C328.352,284.353,327.457,285.598,327.46,285.598z"/>
	<path style="fill:#231815;" d="M251.538,489.709c-1.101,0.816-1.942,1.677-2.513,2.898c-0.277,0.609-0.466,1.322-0.456,2.122
		c0.005,0.798,0.226,1.683,0.727,2.493c0.299,0.519,0.604,0.784,0.874,1.05c0.272,0.25,0.517,0.447,0.738,0.621l1.11,0.849
		c0.638,0.472,1.139,0.889,2.119,1.305c0.982,0.399,1.4,0.501,1.904,0.697c0.255,0.093,0.538,0.2,0.951,0.334
		c0.418,0.127,0.962,0.294,1.808,0.383c0.855,0.078,1.335,0.007,1.547-0.022c0.217-0.035,0.181-0.045,0.108-0.052l-0.108-0.082
		c0.068-0.064,0.318-0.125,0.937-0.404c0.622-0.286,1.081-0.711,1.361-1.117c0.285-0.407,0.407-0.789,0.457-1.085
		c0.088-0.603-0.068-0.89-0.06-0.891c-0.848,0.46-1.767,0.576-2.468,0.331c-0.632,0.704-1.949,1.01-3.271,0.935
		c0,0-0.882-0.245-1.865-0.732c-0.99-0.473-2.035-1.191-2.591-1.598c-0.283-0.199-0.57-0.463-0.807-0.751
		c-0.118-0.145-0.224-0.294-0.305-0.438l-0.1-0.207c-0.041-0.088-0.005-0.056-0.028-0.139c-0.188-0.669-0.113-1.229-0.085-1.591
		c0.02-0.355-0.085-0.975,0.137-1.759c0.205-0.765,0.772-1.624,1.537-2.029c0.733-0.386,0.979-0.871,0.719-1.288
		C253.673,489.146,252.691,488.896,251.538,489.709z"/>
	<path style="fill:#231815;" d="M324.189,303.897c0.612,2.438,1.381,5.346,1.798,8.466c0.426,3.108,0.478,6.446-0.204,9.412
		c-0.679,2.972-1.928,4.832-2.794,5.751c-0.886,0.925-1.365,1.027-1.144,0.666c0.217-0.372,0.254-1.095,0.366-2.166
		c0.105-1.084,0.281-2.499,0.65-4.482c0.716-4.017,0.067-7.348-0.458-9.165c-0.279-0.918-0.24-1.192-0.242-1.947
		c-0.02-0.749-0.022-2.008-0.816-4.765c-0.825-2.737-1.184-4.421-1.119-5.339c0.051-0.909,0.543-1.019,1.063-0.306
		C322.342,301.408,324.201,303.879,324.189,303.897z"/>
	<path style="fill:#231815;" d="M307.569,201.355c0.048,3.43-0.052,6.298,0.005,9.457c0.066,3.157,0.273,6.615,1.132,11.155
		c0.877,4.535,1.321,7.076,1.611,9.218c0.305,2.139,0.47,3.875,1.143,6.685c0.693,2.805,1.023,3.911,1.341,5.324
		c0.335,1.41,0.633,3.13,1.683,7.077c1.094,3.939,1.154,3.924,1.111,3.625c-0.021-0.306-0.09-0.903,1.031,1.775
		c2.314,5.349,4.74,6.707,4.713,6.714c-0.002-2.14,0.052-4.259,0.162-6.355c-1.899-3.649-3.611-7.404-5.103-11.26
		c0,0-0.712-2.73-1.376-6.035c-0.686-3.301-1.277-7.18-1.646-9.389c-0.383-2.208-0.603-5.012-0.717-7.677
		c-0.117-2.665-0.138-5.191-0.253-6.871c-0.255-3.337-1.959-10.061-1.979-15.753C310.415,193.374,307.507,194.488,307.569,201.355z"
		/>
	<path style="fill:#231815;" d="M434.355,240.615c2.174-3.204,4.759-5.909,7.682-7.897c2.914-1.997,6.163-3.239,9.493-3.688
		c1.666-0.227,3.349-0.265,5.026-0.133c0.89,0.061,1.554,0.16,2.298,0.378c0.724,0.206,1.409,0.498,2.04,0.879
		c2.558,1.502,4.187,4.464,5.124,7.761c0.945,3.322,1.304,6.993,1.401,10.816c0.084,3.83-0.118,7.849-0.511,12.068
		c-0.798,8.444-2.34,17.707-4.504,28.227c-2.184,10.526-4.295,18.676-6.059,25.443l-1.265,4.837l-1.112,4.386
		c-0.773,2.776-1.538,5.304-2.307,7.696c-1.546,4.784-3.097,9.031-4.952,13.599c-1.871,4.559-4.017,9.458-7.135,15.34
		c-3.143,5.868-5.744,9.731-7.997,12.794c-2.271,3.053-4.209,5.313-6.508,7.665c-2.318,2.324-4.979,4.801-9.161,7.625
		c-2.098,1.392-4.59,2.856-7.677,4.2c-0.772,0.334-1.581,0.661-2.431,0.975c-0.855,0.304-1.755,0.639-2.57,0.833
		c-1.942,0.478-4.059,0.945-6.345,1.411c-9.16,1.826-13.804,2.332-15.94,2.633c-2.142,0.268-1.812,0.24-1.147,0.195
		c0.664-0.045,1.661-0.122,0.845,0.052c-0.815,0.146-3.447,0.673-10.049,1.227c-6.596,0.506-12.203,0.52-16.718-0.062
		c-4.509-0.566-7.901-1.849-9.662-3.589c-1.791-1.716-2.072-3.717-2.163-4.986l-0.019-0.457l-0.001-0.491l-0.072-0.691l-0.061-0.516
		l-0.091,0.843l-0.051,0.473c-0.035,0.204-0.057,0.279-0.087,0.426c-0.101,0.52-0.165,1.05-0.184,1.581
		c-0.038,1.063,0.12,2.147,0.525,3.173c0.807,2.073,2.604,3.742,4.598,4.912c2.009,1.191,4.23,1.99,6.473,2.613
		c2.249,0.618,4.542,1.048,6.842,1.37c5.083,0.113,10.097-0.264,15.065-0.843c4.967-0.587,9.89-1.399,14.776-2.364
		c4.887-0.975,9.733-2.077,14.555-3.417c1.343-0.411,2.448-0.869,3.642-1.368c1.17-0.497,2.316-1.046,3.443-1.63
		c2.252-1.175,4.412-2.512,6.464-3.988c-0.02-0.019,2.933-1.853,6.992-5.584c4.069-3.708,9.063-9.457,13.475-16.391
		c4.452-6.908,8.375-14.908,11.434-22.486c3.075-7.579,5.335-14.723,6.82-19.952l0.56-1.994c0.1-0.355,0.201-0.719,0.282-1.081
		l0.25-1.012c0.345-1.363,0.722-2.769,1.112-4.202l2.452-8.913c1.677-6.109,3.374-12.489,4.878-18.754
		c1.507-6.264,2.819-12.417,3.794-18.046c0.981-5.628,1.616-10.734,1.9-14.863c0.266-4.122,0.434-9.336-0.449-15.314
		c-0.479-2.978-1.199-6.186-2.825-9.358c-0.818-1.574-1.892-3.138-3.335-4.456c-1.436-1.316-3.252-2.335-5.178-2.835
		c-0.93-0.254-2.006-0.405-2.901-0.438c-0.909-0.053-1.828-0.057-2.75-0.022c-1.843,0.077-3.703,0.338-5.519,0.811
		c-3.641,0.932-7.061,2.731-9.951,5.083c-2.903,2.352-5.303,5.208-7.259,8.242c-1.96,3.039-3.495,6.26-4.693,9.498
		c-2.37,6.508-2.702,11.421-2.654,14.242c0.096,2.849,0.539,3.674,0.882,2.667c0.387-0.999,0.74-3.83,1.86-8.228
		c0.566-2.194,1.335-4.78,2.478-7.66C430.669,247.01,432.184,243.827,434.355,240.615z"/>
	<path style="fill:#231815;" d="M380.038,410.529c0.75,3.867,0.649,7.357,1.164,11.258c0.271,1.954,0.64,4.068,1.686,6.362
		c0.53,1.136,1.258,2.323,2.319,3.374c0.527,0.524,1.137,1.008,1.813,1.414c0.729,0.436,1.318,0.672,2.014,0.972
		c2.724,1.127,5.124,1.63,7.21,1.509c2.088-0.115,3.749-0.876,4.96-1.792c1.221-0.93,2.083-1.987,2.835-3.189
		c0.74-1.211,1.355-2.598,1.861-4.359c0.495-1.763,0.709-3.002,0.892-4.016l0.446-2.684c0.267-1.756,0.678-3.863,1.088-8.788
		c0.351-4.92,0.29-4.914,0.225-4.565c-0.087,0.355-0.233,1.05-0.342-2.434c-0.125-3.481-0.611-5.867-1.018-7.387
		c-0.412-1.518-0.764-2.186-0.764-2.186c-0.95,2.266-1.777,4.656-2.646,6.978c0.452,5.026,0.835,10.028,0.763,15.018
		c-0.022-0.013-0.304,3.423-1.29,7.27c-0.497,1.91-1.21,3.913-2.143,5.444c-0.923,1.56-2.053,2.485-2.93,2.892
		c-0.876,0.432-2.026,0.572-3.315,0.325c-1.285-0.233-2.661-0.815-3.954-1.533c-0.637-0.359-1.342-0.772-1.695-1.082
		c-0.428-0.347-0.776-0.75-1.082-1.165c-0.603-0.843-1-1.793-1.304-2.596c-0.306-0.802-0.699-1.868-1.088-3.178
		c-0.39-1.309-0.77-2.853-1.13-4.532c-0.749-3.355-1.31-7.211-2.504-10.733c-0.605-1.773-1.56-2.867-2.259-3.295
		c-0.72-0.432-1.125-0.29-1.202,0.14c-0.079,0.434,0.115,1.156,0.387,2.192C379.312,407.205,379.652,408.612,380.038,410.529z"/>
	<path style="fill:#231815;" d="M391.419,445.68c0.733,3.578,0.686,6.712,0.606,10.137c-0.087,3.44-0.332,7.218-0.214,12.379
		c0.117,5.174,0.313,8.117,0.192,10.441c-0.055,1.161-0.166,2.18-0.406,3.161c-0.255,0.985-0.609,1.869-1.44,2.845
		c-0.858,0.973-1.729,1.559-2.431,2.02c-0.719,0.457-1.323,0.779-2.015,1.109c-0.346,0.163-0.715,0.33-1.139,0.507l-0.33,0.135
		l-0.173,0.073c-0.088,0.035-0.199,0.087-0.295,0.141l-0.775,0.379c-1.101,0.53-2.529,1.201-4.54,2.062
		c-4.037,1.675-4.052,1.583-3.73,1.559c0.313-0.064,0.964-0.121-1.857,1.132c-2.826,1.217-4.725,2.188-5.956,2.897
		c-1.227,0.705-1.773,1.155-1.77,1.162c2.211,0.535,4.593,0.795,6.993,0.906c4.444-1.966,8.552-4.388,12.514-6.992l0.501-0.26
		l0.25-0.131l0.261-0.113l0.808-0.364c1.189-0.563,2.837-1.325,4.563-2.589c0.855-0.635,1.737-1.434,2.447-2.458
		c0.718-1.015,1.189-2.22,1.43-3.317c0.47-2.214,0.41-4.016,0.421-5.315c-0.047-2.6,0.1-5.669,0.432-8.662
		c0.313-2.985,0.665-5.862,0.739-7.805c0.138-3.869-0.94-11.855-2.923-18.217c-0.489-1.6-1.132-2.619-1.662-3.123
		c-0.533-0.506-0.946-0.513-1.163-0.139C390.311,440.018,390.664,442.143,391.419,445.68z"/>
	<path style="fill:#231815;" d="M399.168,447.078c0.204,3.91,0.309,7.18,0.671,10.771c0.387,3.581,0.955,7.516,2.674,12.55
		c0.438,1.255,0.849,2.366,1.248,3.359c0.403,0.966,0.723,1.845,1.089,2.672c0.716,1.627,1.41,2.864,2.087,3.96
		c1.382,2.159,2.644,3.882,5.298,6.027c2.697,2.069,3.893,2.677,5.285,3.598c1.409,0.883,3.098,2.005,7.138,4.194
		c8.009,4.299,0.027,0.005,5.907,2.594c2.909,1.295,5.006,1.956,6.421,2.319c1.408,0.36,2.132,0.391,2.132,0.391
		c-1.315-1.912-2.829-3.767-4.404-5.568c-4.468-1.834-8.946-3.323-13.221-5.193c0.017-0.014-2.826-1.518-5.767-3.781
		c-1.47-1.128-2.924-2.473-4.09-3.828c-1.17-1.356-2.051-2.712-2.629-3.731c-0.594-1.026-1.098-2.209-1.498-3.591
		c-0.467-1.444-0.819-2.854-1.13-4.319c-0.612-2.893-0.97-5.701-1.285-7.559c-0.324-1.854-1.091-4.612-1.773-7.743
		c-0.685-3.126-1.278-6.625-1.378-9.825c-0.093-3.192-0.779-4.475-1.509-3.995C399.719,440.859,398.976,443.158,399.168,447.078z"/>
	<path style="fill:#231815;" d="M381.112,502.475c3.487-0.732,6.201-1.76,9.045-2.955c1.417-0.605,2.857-1.277,4.414-2.016
		c1.561-0.736,3.234-1.551,5.18-2.324c1.949-0.766,3.548-1.086,4.877-1.186c0.325-0.025,0.666-0.036,0.933-0.038
		c0.231,0.001,0.473,0.034,0.712,0.079c0.479,0.096,0.942,0.252,1.378,0.428c1.759,0.742,3.109,1.657,5.491,2.976
		c2.388,1.344,3.357,1.909,4.535,2.664l2.162,1.409c0.937,0.593,2.134,1.375,4.001,2.324c1.883,0.939,3,1.269,3.509,1.418
		c0.518,0.14,0.445,0.098,0.29,0.025c-0.154-0.078-0.378-0.193-0.167-0.207c0.223-0.035,0.819,0.138,2.571,0.195
		c1.767,0.045,3.484-0.565,4.564-1.461c1.099-0.888,1.608-1.861,1.879-2.584c0.505-1.48,0.28-2.159,0.308-2.159
		c-0.815,0.747-1.729,1.364-2.653,1.669c-0.926,0.313-1.809,0.267-2.517-0.005c-1.202,0.548-3.061,0.417-4.859-0.049
		c-1.822-0.463-3.663-1.201-5.484-2.01c-0.008,0.009-2.31-1.424-5.103-3.239c-2.804-1.795-6.161-3.914-8.819-4.522
		c-0.33-0.078-0.68-0.148-1.068-0.196c-0.376-0.055-0.856-0.064-1.151-0.065c-0.677-0.008-1.38,0.009-2.094,0.059
		c-1.427,0.095-2.893,0.321-4.282,0.633c-2.783,0.63-5.234,1.554-6.773,2.253c-1.551,0.702-3.616,2.134-5.927,3.508
		c-2.301,1.376-4.981,2.632-7.577,2.853c-1.283,0.111-2.181,0.24-2.746,0.472c-0.56,0.224-0.784,0.559-0.613,0.94
		c0.17,0.376,0.74,0.81,1.756,1.088C377.895,502.729,379.361,502.83,381.112,502.475z"/>
	<path style="fill:#231815;" d="M372.53,502.917c-1.069,0.41-2.038,0.52-3.057,0.673c-1.028,0.146-2.094,0.352-3.551,0.781
		l-0.266,0.068l-0.14,0.058c-0.094,0.032-0.161,0.036-0.277,0.036c-0.286-0.019-0.538-0.059-0.758-0.118
		c-0.445-0.115-0.768-0.287-1.036-0.472c-0.266-0.187-0.475-0.389-0.687-0.606l-0.637-0.661c-0.295-0.321-0.366-0.512-0.328-0.714
		c0.024-0.101,0.082-0.214,0.213-0.32c0.127-0.104,0.355-0.197,0.612-0.153c0.247,0.054,0.304,0.146,0.334,0.167l-0.008-0.033
		l-0.082-0.151l0.004-0.078c0.021-0.026,0.022-0.04,0.199-0.086c1.394-0.305,2.288-1.643,2.263-1.669
		c-0.647-0.957-1.384-1.892-2.328-2.72c-0.447,0.132-0.831,0.266-1.34,0.478c-0.535,0.224-1.076,0.514-1.514,0.864
		c-0.891,0.686-1.491,1.666-1.53,2.719c0.007-0.001-0.128,0.334-0.133,0.911c-0.011,0.571,0.149,1.384,0.613,2.205
		c0.219,0.401,0.552,0.837,0.85,1.171c0.272,0.311,0.563,0.591,0.857,0.838c0.587,0.494,1.184,0.848,1.636,1.05l1.49,0.661
		c0.269,0.109,0.501,0.214,0.969,0.354c0.206,0.088,0.423,0.08,0.64,0.104c0.255,0.018,0.324,0.039,0.481,0.058
		c1.104,0.144,2.162,0.184,2.843,0.068c0.682-0.113,1.622-0.672,2.579-1.321c0.965-0.649,1.948-1.38,2.93-1.803
		c0.995-0.433,1.042-1.285,0.579-1.854C374.481,502.847,373.583,502.503,372.53,502.917z"/>
	<path style="fill:#231815;" d="M40.149,302.547c0,0-1.276-2.705,2.979-2.976c4.258-0.272,4.684-2.166,8.088-1.355
		c3.404,0.812,5.956,0.273,8.087,0.544c2.128,0.268,6.385,0.271,9.364,0c2.981-0.272,10.641,0.538,14.473,0.268
		c3.83-0.268,5.532,0.543,8.086,0.271c2.554-0.271,5.107-1.083,5.107-1.083s2.982,0.273,4.683,0.544c1.702,0.268,14.471,0,18.728,0
		c4.257,0,14.048-0.272,17.026-0.272c2.979,0,5.536,0.607,6.811,0.54l5.106-0.268h11.492c2.979,0,6.812,0.811,9.79,0.539
		c2.979-0.271,8.087-0.271,13.619-0.811c2.767-0.27,5.747-0.201,8.832-0.201c3.083-0.016,6.361-0.032,9.583-0.457
		c3.239-0.428,6.954,0.018,10.21,0.473c3.256,0.461,6.082,0.909,7.544,0.636c1.461-0.268,3.841-0.365,6.042-0.432
		c2.204-0.06,4.235-0.098,5.077,0.049c0.842,0.15-0.004,0.631-1.465,1.105c-1.458,0.478-3.538,0.889-5.01,1.083
		c-1.467,0.205-4.428,0.457-7.195,0.607c-2.765,0.155-5.328,0.257-5.97,0.368c-1.29,0.227-6.31-1.896-9.753-1.199
		c-1.719,0.349-4.593,0.403-7.305,0.438c-2.713,0.033-5.266-0.035-6.333-0.035c-2.127,0-11.915-0.271-14.045,0
		c-2.128,0.271-24.69,1.081-30.219,1.351c-5.533,0.272-26.816-0.539-30.221-0.539c-3.404,0-15.747-0.542-19.154,0.271
		c-3.404,0.811-6.385,0.268-10.215,0.54c-3.83,0.271-10.213,0-12.342,0c-2.129,0-14.046-0.272-15.324,0
		c-1.277,0.271-5.108,1.354-10.215,1.894C41.001,304.983,40.149,302.547,40.149,302.547z"/>
	<path style="fill:#231815;" d="M46.637,316.356c0,0-1.229-1.349,2.869-1.491c4.101-0.152,4.505-1.103,7.784-0.721
		c3.283,0.377,5.737,0.076,7.791,0.186c2.052,0.108,6.153,0.052,9.02-0.129c2.87-0.181,10.258,0.102,13.949-0.089
		c3.69-0.19,5.337,0.194,7.797,0.026c2.459-0.166,4.918-0.598,4.918-0.598s2.878,0.111,4.52,0.233
		c1.641,0.106,13.958-0.049,18.066,0.023c4.108,0.025,13.563,0.112,16.436,0.233c2.87,0.098,5.333,0.511,6.581,0.537l4.932,0.315
		c0-0.002,2.03,0.191,4.423,0.349c2.39,0.166,5.14,0.292,6.569,0.337c2.85,0.103,6.525,0.546,9.385,0.367
		c2.855-0.169,7.759-0.315,13.022-1.015c1.315-0.172,2.683-0.32,4.088-0.471l1.062-0.114l0.536-0.058l0.268-0.028
		c0.104-0.015,0.297-0.03,0.419-0.023l2.226,0.019c2.992,0.039,6.075,0.101,9.166-0.056c6.183-0.306,14.323,1.109,17.187,0.873
		c1.431-0.105,3.774-0.1,5.944-0.106c2.175,0.006,4.153-0.046,4.924-0.028c0.773,0.014-0.027,0.344-1.475,0.61
		c-1.44,0.266-3.482,0.445-4.912,0.517c-2.859,0.189-11.48,0.164-12.715,0.239c-1.235,0.092-6.116-1.055-9.413-0.768
		c-1.648,0.144-4.415,0.117-7.031,0.082l-3.647-0.045c-1.068,0.026-1.933,0.172-2.445,0.203c-1.02,0.105-3.881,0.344-6.747,0.512
		c-2.865,0.18-5.733,0.286-6.757,0.385c-1.022,0.105-6.969,0.421-13.341,0.318c-3.185-0.045-6.473-0.179-9.296-0.353l-3.815-0.271
		c-1.109-0.087-2.005-0.181-2.672-0.169c-2.632-0.064-9.099-0.381-15.288-0.594c-6.196-0.215-12.141-0.348-13.782-0.352
		c-3.278-0.033-15.175-0.24-18.451,0.218c-3.276,0.441-6.149,0.211-9.84,0.403c-3.687,0.189-9.839,0.156-11.892,0.188
		c-2.051,0.039-13.539,0.069-14.769,0.211c-1.229,0.148-4.917,0.736-9.845,1.031C47.459,317.58,46.637,316.353,46.637,316.356z"/>
	<path style="fill:#231815;" d="M46.351,304.295c0.211,3.295,0.399,7.827,0.983,11.406c0.284,1.793,0.581,3.025,0.746,3.786
		c0.172,0.756,0.16,1.045,0.022,0.797c-0.133-0.247-0.484-0.538-0.911-1.144c-0.424-0.599-0.942-1.526-1.244-2.955
		c-0.586-2.852-0.786-5.143-1.037-6.461c-0.246-1.313,0.168-0.789-0.115-4.701c-0.175-1.939-0.24-3.077-0.158-3.651
		c0.08-0.574,0.334-0.563,0.559-0.021C45.655,302.417,46.357,304.293,46.351,304.295z"/>
	<path style="fill:#231815;" d="M229.674,302.726c-0.046,3.185,0.234,7.633,0.299,11.297c0.071,3.65-0.188,5.189-0.308,4.654
		c-0.084-0.539-0.945-1.561-1.135-4.378c-0.172-2.803-0.345-5.031-0.533-6.331c-0.188-1.298,0.165-0.752,0.076-4.634
		c-0.129-3.854,0.518-4.658,0.796-3.563C229.126,300.872,229.677,302.725,229.674,302.726z"/>
	<path style="fill:#231815;" d="M57.126,342.174c-1.593-21.439,4.099-32.418,4.727-14.092c0.302,9.155,0.277,45.101-0.273,83.694
		c-0.52,38.594-1.794,79.822-2.911,99.531c-0.625,6.329-0.13-31.73-0.254-73.482C58.333,396.073,57.742,350.626,57.126,342.174z"/>
	<path style="fill:#231815;" d="M198.136,317.343c-1.522-0.62-3.836,0.533-5.708,2.943c-1.868,2.405-3.27,6.075-2.948,10.334
		c0.316,4.257,0.671,12.454,1.349,20.757c0.664,8.308,1.59,16.721,2.654,21.488c1.068,4.767,1.601,11.075,1.88,17.093
		c0.139,3.009,0.219,5.943,0.272,8.576l0.036,1.886c0.007,0.605,0.042,1.197,0.005,1.7c-0.04,1.139-0.072,2.177-0.085,3.082
		c-0.106,7.237-0.85,26.547,0.22,43.449c0.533,8.447,0.714,13.271,0.853,18.398c0.159,5.127,0.212,10.561,0.893,20.2
		c0.357,4.818,0.856,8.42,1.389,10.858c0.529,2.442,1.094,3.693,1.43,3.909c0.345,0.216,0.437-0.508,0.404-2.192
		c-0.035-1.681-0.178-4.341-0.407-7.916c-0.436-7.159-0.78-11.368-1.096-15.57c-0.298-4.205-0.512-8.419-0.332-15.648
		c0.367-14.46,0.448-28.917,0.035-39.77c-0.205-5.426-0.134-11.454,0.015-17.329c0.013-0.749,0.053-1.43,0.044-2.243l-0.069-2.213
		l-0.151-4.252c-0.105-2.773-0.223-5.412-0.366-7.823c-0.576-9.647-0.579-25.346-0.818-30.146
		c-0.135-2.404-0.291-7.816-0.357-12.621c-0.068-4.805-0.046-9.003-0.046-9.003s0.412-3.61,0.758-7.648
		C198.328,323.604,198.62,319.14,198.136,317.343z"/>
	<path style="fill:#231815;" d="M75.264,505.721c-0.843-0.012-5.515-1.429-8.86-0.913c-3.299,0.511-2.832,0.78-3.678,0.962
		c-0.851,0.178-2.065,1.396-1.535,1.79c0.522,0.41,5.227,2.02,6.634,2.424c1.397,0.43,3.943,0.75,4.52,0.41
		c0.576-0.336,1.276-1.271,2.289-1.244c0.423,0.005,3.064,0.071,6.858,0.071c3.795,0.009,8.74-0.064,13.773-0.185
		c10.068-0.27,20.483-0.519,22.859-0.51c2.372-0.033,6.636,0.038,10.747,0.044c4.103,0.008,8.037-0.055,9.721-0.258
		c3.365-0.402,4.485-0.548,6.729-0.723c2.24-0.148,10.382-0.363,12.909-0.56c1.264-0.08,5.531-0.338,9.749-0.774
		c4.196-0.56,8.263-1.039,9.242-1.128c0.97-0.104,5.065-0.529,9.407-0.647c4.343-0.16,8.913,0.132,10.853,0.257
		c1.945,0.096,3.96,0.273,5.503,0.395c1.543,0.12,2.623,0.157,2.697-0.137c0.072-0.287,0.069-0.561-0.511-0.913
		c-0.578-0.352-1.74-0.779-4.004-1.227c-2.33-0.451-4.865-0.539-6.866-0.539c-2.003-0.032-6.866-0.061-12.21,0.584
		c-1.335,0.153-3.688,0.386-6.522,0.742l-4.548,0.6c-1.603,0.221-3.217,0.47-4.853,0.61c-6.564,0.652-13.065,0.866-15.298,0.897
		c-4.476,0.052-5.302,0.532-7.54,0.704c-2.235,0.193-12.323,0.161-14.848,0.147c-1.262,0.005-4.341-0.059-7.464-0.11
		c-3.123-0.048-6.282-0.055-7.686-0.028c-2.811,0.021-21.606-0.146-24.391-0.026c-1.397,0.082-4.605-0.055-7.565-0.252
		L75.264,505.721z"/>
	<path style="fill:#231815;" d="M120.803,241.434c-0.609-1.388-1.216-2.798-1.786-4.178c-1.585-3.896-6.347-14.879-6.603-17.092
		c-0.36-3.004-2.426-6.773-5.75-4.953c-2.721,1.493-0.939,5.521,0.772,6.95c1.116,0.949,7.164,12.058,9.158,15.648
		c1.064,1.889,1.963,3.722,2.418,5.038c0.167,0.48,0.892,2.22,1.921,4.76l1.722,4.36l0.955,2.53l0.487,1.334l0.245,0.681
		c0.042,0.115,0.097,0.288,0.167,0.418l0.148,0.325c1.49,3.563,2.923,7.665,4.369,11.519c1.434,3.87,2.83,7.577,4.022,10.626
		c2.341,6,3.83,9.38,4.807,11.486c0.988,2.103,1.419,2.937,1.889,3.766c0.243,0.417,0.571,0.765,0.96,1.029
		c0.384,0.259,0.866,0.454,1.295,0.466c0.429,0.018,0.824-0.122,1.123-0.393c0.308-0.283,0.492-0.606,0.613-0.871
		c0.244-0.551,0.257-0.876,0.205-1.271c-0.035-0.206-0.019-0.353-0.131-0.544c-0.132-0.214-0.423-0.539-0.848-0.96
		c-0.823-0.841-1.454-1.563-2.523-3.364c-1.063-1.815-2.557-4.772-4.884-10.357c-1.242-2.98-2.678-6.626-4.149-10.463l-2.229-5.837
		c-0.759-1.96-1.473-3.876-2.313-5.788l-0.171-0.37c-0.036-0.071-0.055-0.12-0.088-0.211l-0.257-0.694l-0.51-1.362l-1.003-2.585
		c-0.655-1.657-1.277-3.171-1.828-4.491C121.906,243.945,121.086,242.085,120.803,241.434z"/>
	<path style="fill:#231815;" d="M149.071,295.674c7.75,0.053,12.906,0.779,23.255,0.261c10.35-0.519,11.635,0.152,18.104,0.21
		c6.47,0.04,5.168,0.054,14.238,0.697c9.079,0.593-0.001,0.011,6.481-0.052c6.491-0.087,9.047-1.509,9.047-1.509
		c-2.187-0.801-4.358-1.624-6.519-2.46c-4.72,0.299-9.452,0.539-14.187,0.75c0,0.017-12.909-0.716-18.077-0.795
		c-5.166-0.061-12.912-0.826-16.793-0.876c-3.879-0.049-11.654,1.163-18.123,1.139C140.028,293.028,141.33,295.639,149.071,295.674z
		"/>
	<path style="fill:#231815;" d="M85.857,231.24c-0.845-2.076-1.641-4.205-2.346-6.295c-0.348-1.031-0.798-2.401-1.283-3.983
		l-0.165-0.547l-0.097-0.342l-0.186-0.695c-0.113-0.459-0.259-0.951-0.324-1.375l3.145,0.169l5.226,0.214
		c3.236,0.158,5.82,0.348,6.853,0.574c4.312,0.946,10.78,0.631,10.348-3.15c-0.352-3.091-6.898-3.15-9.917-2.205
		c-0.667,0.208-3.266,0.432-6.654,0.651l-5.528,0.325c-0.779,0.052-2.458,0.102-3.761,0.153l-3.926,0.146
		c0.781,2.446,1.594,4.759,2.269,6.573c0.56,1.453,1.065,2.696,1.457,3.621c1.268,3.004,2.474,5.827,3.171,7.799
		c0.257,0.72,1.301,3.359,2.985,7.131c1.672,3.776,4.026,8.659,6.578,13.991c1.271,2.669,2.578,5.457,3.818,8.301l0.916,2.142
		l0.224,0.539c0.067,0.155,0.173,0.45,0.304,0.64c0.199,0.344,0.371,0.659,0.549,1c0.701,1.349,1.337,2.759,1.959,4.162
		c2.467,5.631,4.727,11.166,7.422,15.436c1.335,2.087,2.731,3.921,4.587,5.177l0.164,0.106l0.082,0.059
		c0.117,0.087,0.233,0.167,0.351,0.243c0.235,0.153,0.474,0.284,0.71,0.406c0.473,0.239,0.941,0.418,1.394,0.566
		c0.908,0.292,1.755,0.452,2.541,0.57c3.144,0.412,5.366,0.334,7.059,0.412c3.368,0.092,4.584,0.291,5.747,0.516
		c1.167,0.236,2.127,0.208,2.973,0.09c0.835-0.132,1.611-0.319,2.095-0.697c0.473-0.364,0.596-1.069-0.209-1.919
		c-0.789-0.84-2.513-1.589-4.791-1.591c-2.185,0-3.7,0.187-6.927,0.327c-1.59,0.046-3.657,0.181-6.174-0.158
		c-0.62-0.094-1.262-0.231-1.871-0.446c-0.305-0.107-0.6-0.237-0.877-0.39c-0.154-0.086-0.237-0.136-0.43-0.271l-0.539-0.351
		c-1.196-0.836-2.429-2.298-3.608-4.11c-2.552-3.902-4.843-9.292-7.359-14.94c-0.64-1.414-1.296-2.846-2.052-4.287
		c-0.191-0.358-0.388-0.719-0.598-1.079c-0.092-0.147-0.115-0.194-0.178-0.353l-0.231-0.545l-0.945-2.173
		c-1.276-2.88-2.614-5.692-3.914-8.383c-2.61-5.372-5.011-10.281-6.754-14.142C87.388,234.998,86.254,232.212,85.857,231.24z"/>
</g>
</svg>
