<?xml version="1.0" encoding="iso-8859-1"?>
<!-- Generator: Adobe Illustrator 18.1.1, SVG Export Plug-In . SVG Version: 6.00 Build 0)  -->
<svg version="1.1" id="_x37_" xmlns="http://www.w3.org/2000/svg" xmlns:xlink="http://www.w3.org/1999/xlink" x="0px" y="0px"
	 viewBox="0 0 512 512" style="enable-background:new 0 0 512 512;" xml:space="preserve">
<g>
	<path style="fill:#FFFFFF;" d="M78.824,93.157c-10.103,3.131-55.246,10.384-52.827-29.115c8.867-21.765,29.02-24.184,29.02-24.184
		s-1.613-21.764,10.479-29.826c12.092-8.062,34.72-12.711,55.651,8.558c15.288-6.946,33.023-4.529,37.054,4.34
		c4.031,8.868,4.03,32.247-11.286,37.889c7.255,19.347,17.993,53.632,23.104,63.494c5.111,9.862-25.522,45.333-30.359,49.363
		c-4.837,4.03-28.248,27.645-33.051,14.51c-4.802-13.134-6.449-41.919-8.867-49.174C95.323,131.756,78.824,93.157,78.824,93.157z"/>
	<path style="fill:#BAD17D;" d="M117.088,149.494c-7.255,8.867-12.637,17.532-23.65,27.71
		c-11.013,10.178-23.104,34.363-31.166,54.515c-8.062,20.152-24.814,74.023-11.198,105.935c0.718,8.534-8.124,56.884,0.843,75.111
		c-2.896,8.337-3.053,17.139,14.534,26.47c17.586,9.331,31.442,14.593,30.56,21.635c-0.882,7.043-1.084,7.847-7.432,5.428
		c-6.348-2.418-20.02-4.268-27.997-0.622c8.045,0.622,13.668,5.027,13.729,6.906c0.06,1.879-29.262,7.622-33.192,20.923
		c26.3-11.79,38.996-10.278,38.996-10.278S66.907,496.83,69.627,503.48c19.952-13.603,22.261-13.831,32.648-14.813
		c10.387-0.981,28.718-16.929,22.37-25.091c-6.348-8.162-15.115-19.952-17.533-25.091c-2.418-5.139-19.597-39.084-19.775-40.854
		c-0.177-1.77,18.565-43.185,17.356-49.231c14.813,3.023,25.091,1.209,25.091,1.209s10.278,22.068,49.577,48.972
		c-0.605,6.046-3.325,6.953-4.837,9.069c-1.512,2.116-11.79,32.648-13.301,37.485c-1.511,4.837-4.837,6.953-3.325,13.603
		c1.511,6.65-5.139,4.232,5.744,9.976c10.883,5.744,17.264,7.616,20.724,9.703c3.46,2.086,16.487,6.809,22.807,9.946
		c6.32,3.137,9.069,6.651,9.069,6.651s-1.58-15.944-11.824-19.61c23.613,7.821,26.939,10.239,26.939,9.332
		c0-0.907-5.441-11.487-9.976-13.603c3.023-1.511-0.605-5.139-4.534-7.255c-3.93-2.116-18.44-4.837-25.695-5.744
		s-8.767,2.116-9.371-4.232c-0.605-6.348,5.441-15.115,11.79-22.37c6.348-7.255,21.463-20.254,21.765-26.3
		c0.302-6.046,0.605-17.231-9.674-31.741c-10.278-14.51-32.043-33.857-34.764-38.694c-2.721-4.837,1.209-5.139,2.418-7.255
		c1.209-2.116,12.696-9.371,12.696-68.923c5.139-3.023,3.628-3.023,8.767-0.302c5.139,2.721,41.415,21.463,48.972,21.161
		s27.509-6.953,36.578-5.139c9.069,1.814,10.278,4.232,11.487,7.557c1.209,3.325,12.715,14.284,19.205,15.606
		c-3.788-5.63-7.534-10.571-7.928-13.542c-0.394-2.971,2.629-3.878,5.652-0.855c3.023,3.023,5.791,4.856,9.763,4.735
		c3.972-0.12,5.488-5.396,5.488-5.396s4.643,6.77,8.63,4.289c3.987-2.481,7.789-5.458,6.301-9.019
		c-1.488-3.561-1.162-6.096-3.278-9.421c-2.116-3.325-8.464-1.511-11.79-3.023c-3.325-1.512-5.744-2.418-14.208-3.93
		c-8.464-1.512-12.394-2.418-8.464-4.232c3.93-1.814,10.942-4.884,11.819-3.802c0.877,1.082,7.226,5.616,10.551,7.732
		c3.325,2.116,5.139-0.907,5.139-0.907s-9.494-7.246-13.211-9.669c-3.717-2.423-8.252-4.237-13.088-3.33
		c-4.837,0.907-17.836,3.325-21.463,4.534c-3.628,1.209-6.564,1.723-10.278,1.511c-3.714-0.211-25.695-1.209-27.811-1.511
		c-2.116-0.302-17.231-8.162-22.672-13.906c-5.441-5.744-16.929-18.44-24.486-25.091c-7.557-6.65-9.069-10.883-8.162-14.208
		c0.907-3.325-0.302-9.371,9.069-13.301c9.371-3.93,9.069-1.209,16.324-5.744c7.255-4.535,21.161-15.417,28.718-20.858
		c7.557-5.441,13.766-9.967,13.301-13.603c-0.465-3.636-10.58-7.86-14.208-7.557c-3.628,0.302-20.556-3.325-22.975-5.139
		c-2.418-1.814-3.325-7.558-5.441-6.651c-2.116,0.907-6.348,2.418-7.86,2.721c-1.511,0.302-5.139-0.907-5.139-0.907
		s-9.371-6.046-9.673-6.953c-0.302-0.907-3.023-8.464-9.976-5.441c-6.953,3.023-15.719,12.092-19.951,14.51
		c-4.232,2.418-14.208,4.837-19.045,7.255C135.83,139.213,117.088,149.494,117.088,149.494z"/>
	<path style="fill:#FFFFFF;" d="M134.822,218.012c6.449-16.123,10.913-41.599,25.61-49.82c14.697-8.221,65.483-17.089,75.962-21.119
		c10.479-4.03,27.202-6.681,9.167,6.333s-33.234,26.378-39.8,29.943c-6.567,3.565-16.122,12.093-18.54,22.572
		c-2.418,10.479-6.107,54.03-4.263,64.096s5.875,39.894-2.992,53.597c-8.867,13.704-29.02,29.022-54.817,27.409
		c-25.796-1.613-29.02-1.613-31.439-8.062c-2.418-6.449,6.449-67.714,15.316-70.133c0,0,7.492,6.418,13.084,9.439
		c5.591,3.021,17.149,27.529,33.27,16.452c12.493-5.938,14.36-15.12,14.36-15.12l-0.684-1.097c0,0,1.174-2.917-0.912-3.575
		c-2.085-0.658-7.224-1.565-7.224-1.565s1.748-2.699-2.905-4.826c-4.652-2.127-9.187-3.034-13.721-0.615
		c-4.534,2.418-6.046,3.628-8.162,3.628c-2.116,0-4.534-0.605-6.348-5.441c-1.814-4.837-4.837-9.674-4.837-9.674L134.822,218.012z"
		/>
	<g>
		<g>
			<path style="fill:#595959;" d="M51.808,325.474c2.14,9.034,2.819,13.711,1.951,15.434c-0.416,0.841-1.2,0.886-2.133,0.104
				c-0.928-0.779-1.979-2.39-2.78-4.738c-0.803-2.343-2.461-7.664-3.69-14.869c-1.246-7.196-2.009-16.286-1.491-25.835
				c0.475-9.546,2.265-19.491,4.942-28.338c2.723-8.734,5.308-16.563,7.233-22.545c1.93-5.961,4.902-14.379,8.804-23.707
				c3.932-9.305,8.724-19.578,14.895-28.85c3.101-4.615,6.564-8.996,10.726-12.538c0.525-0.439,1.057-0.864,1.602-1.273l1.571-1.116
				c0.958-0.672,1.882-1.357,2.773-2.051c1.783-1.389,18.969-30.171,20.969-30.683c8.023-2.071,13.962-4.905,16.858-6.358
				c5.793-2.988,8.231-4.236,8.221-3.417c0.016,0.743-2.725,3.587-8.63,6.854c-1.476,0.805-4.721,2.475-9.518,4.26
				c-2.399,0.888-19.923,27.046-22.306,29.243c-1.19,1.098-2.477,2.208-3.854,3.318c-1.356,1.119-2.921,2.182-4.326,3.304
				c-5.682,4.688-10.459,11.792-14.754,19.557c-4.284,7.817-8.089,16.456-11.556,25.223c-3.463,8.771-6.584,17.687-9.397,26.193
				c-1.408,4.253-2.735,8.408-3.986,12.394c-1.273,3.965-2.283,7.738-3.064,11.357c-3.123,14.484-2.531,25.542-2.451,28.792
				c0.243,6.577,1.182,11.683,1.964,15.102C51.181,323.71,51.818,325.471,51.808,325.474z"/>
			<path style="fill:#595959;" d="M161.478,131.851c-1.816,1.28-3.788,0.68-4.619-0.553c-0.42-0.602-0.626-1.308-0.723-1.866
				c-0.087-0.564-0.014-1.011,0.385-1.259c1.608-0.799,12.17-8.119,16.324-11.969c1.186-1.058,3.127-2.376,5.814-3.127
				c1.339-0.365,2.876-0.569,4.504-0.411c1.625,0.154,3.325,0.725,4.729,1.67c1.411,0.937,2.49,2.175,3.248,3.389
				c0.763,1.221,1.24,2.425,1.582,3.495c0.661,2.152,0.81,3.8,0.921,4.615c0.194,1.641-0.35,2.35-0.98,2.267
				c-0.647-0.078-1.396-0.914-1.953-2.326c-0.146-0.352-0.354-1.131-0.73-2.173c-0.373-1.034-0.921-2.354-1.833-3.611
				c-0.898-1.257-2.232-2.381-3.871-2.794c-1.63-0.442-3.498-0.182-5.219,0.524c-0.864,0.352-1.696,0.805-2.475,1.327
				c-0.387,0.26-0.765,0.536-1.127,0.827l-1.164,0.933l-4.275,3.502c-2.57,2.125-4.499,3.696-5.104,4.145
				C162.522,130.248,161.485,131.846,161.478,131.851z"/>
			<path style="fill:#595959;" d="M200.996,130.273c-2.921-0.984-3.916-2.945-3.71-4.428c0.215-1.481,1.406-2.544,2.77-2.049
				c1.358,0.516,6.282,2.365,11.891,4.196c5.6,1.84,11.837,3.72,15.712,4.508c3.878,0.794,10.842,2.862,17.367,4.971
				c1.64,0.536,3.218,1.058,4.8,1.627c1.613,0.602,3.124,1.214,4.643,2.222c0.383,0.263,0.775,0.555,1.178,0.954
				c0.397,0.409,0.86,0.907,1.202,1.821c0.165,0.451,0.267,1.032,0.213,1.619c-0.049,0.587-0.25,1.137-0.489,1.543
				c-0.497,0.829-1.013,1.188-1.423,1.474c-0.829,0.531-1.428,0.712-1.94,0.876c-0.509,0.158-0.914,0.243-1.235,0.309
				c-2.553,0.451-3.521-0.229-3.375-0.825c0.146-0.667,1.433-1.311,3.375-2.153c0.239-0.113,0.628-0.266,1.072-0.536
				c0.435-0.25,0.968-0.751,0.751-1.142c-0.196-0.474-0.978-0.993-1.828-1.392c-0.872-0.413-1.894-0.776-3.009-1.112
				c-4.52-1.28-10.358-2.736-16.145-4.256c-11.598-2.992-23.175-6.166-25.204-6.832
				C203.554,130.384,200.999,130.275,200.996,130.273z"/>
			<path style="fill:#595959;" d="M231.464,146.101c7.607-1.058,8.105,3.323,4.369,3.788c-1.873,0.246-8.462,1.02-15.757,2.208
				c-7.3,1.164-15.29,2.786-20.018,4.154c-4.714,1.349-13.563,3.54-21.702,5.907c-4.065,1.191-7.947,2.448-11.008,3.665
				c-3.074,1.201-5.253,2.418-6.122,3.098c-0.909,0.674-1.327,1.096-1.58,1.247c-0.253,0.142-0.463,0.183-0.697,0.106
				c-0.215-0.083-0.458-0.413-0.264-1.108c0.182-0.678,0.824-1.58,1.868-2.433c0.515-0.43,1.722-1.259,3.533-2.192
				c1.809-0.937,4.207-1.988,7.012-3.056c5.611-2.142,12.828-4.36,20.086-6.379c14.532-4.114,29.42-6.759,32.048-7.194
				C228.51,147.057,231.464,146.108,231.464,146.101z"/>
			<path style="fill:#595959;" d="M182.602,166.693c2.677-1.467,1.687,1.58,0.19,2.456c-0.739,0.421-7.144,2.785-10.167,4.05
				c-3.016,1.29-20.367,16.083-21.834,17.89c-0.727,0.907,1.063,0.708-0.649,1.804c-0.836,0.535-1.925,1.089-2.98,1.426
				c-0.246,0.085-0.498,0.168-0.763,0.243l-0.392,0.113l-0.553,0.137c-0.34,0.087-0.801,0.154-1.233,0.226
				c-0.43,0.056-0.862,0.079-1.28,0.077c-1.672-0.009-3.167-0.647-4.083-1.823c-0.912-1.155,16.122-23.128,16.846-24.238
				c0.35-0.557,0.772-1.046,1.168-1.488c0.185-0.203,0.322-0.335,0.476-0.494l0.361-0.34l1.044-0.93
				c1.892-1.598,2.895,0.375,1.679,2.39c-0.14,0.253-0.546,0.753-1.006,1.415c-0.38,0.619-18.242,20.148-17.701,20.944
				c0.286,0.39,0.841,0.55,1.358,0.509c0.534-0.032,1.001-0.183,1.509-0.372c0.522-0.198,17.864-17.062,18.499-17.073
				c0.694,0.002,1.415-0.068,2.14-0.194c2.907-0.505,5.791-1.717,8.016-2.732c2.232-1.034,3.842-1.92,4.341-2.153
				C179.583,167.571,182.604,166.686,182.602,166.693z"/>
			<path style="fill:#595959;" d="M132.713,190.156c-1.377,2.723-2.496,3.788-3.294,3.968c-0.81,0.232-1.316-0.869-0.659-2.38
				c0.609-1.526,23.704-29.075,29.03-32.079c5.304-3.042,11.341-6.038,15.032-7.82c3.701-1.792,10.675-4.566,17.51-6.528
				c3.408-0.982,6.769-1.738,9.563-2.215c2.791-0.482,5.009-0.694,6.117-0.798c2.222-0.196,3.188,0.064,3.042,0.38
				c-0.144,0.331-1.382,0.727-3.525,1.127c-1.071,0.201-4.656,0.699-9.36,1.936c-4.709,1.212-10.51,3.192-16.18,5.498
				c-11.426,4.426-21.813,10.968-23.65,12.075C152.634,165.566,132.715,190.161,132.713,190.156z"/>
			<path style="fill:#595959;" d="M237.907,155.491c3.762-2.685,6.332-2.78,7.654-2.085c0.701,0.26,1.259,0.829,1.052,1.743
				c-0.119,0.819-0.625,1.658-1.572,2.356c-1.892,1.41-8.573,5.865-15.844,11.068c-7.283,5.191-15.091,11.2-19.491,15.216
				c-4.414,3.991-14.541-6.809-17.746,2.898c-1.611,4.849-3.009,9.574-3.998,13.483c-0.997,3.909-1.589,6.995-1.837,8.54
				c-0.491,3.084-1.136,4.353-1.752,4.063c-0.6-0.289-1.145-2.19-0.961-5.438c0.087-1.617,0.822-6.953,2.558-13.998
				c1.707-7.05,6.391-0.373,13.225-6.424c13.646-12.137,28.298-23.031,30.896-24.932
				C235.331,158.202,237.912,155.493,237.907,155.491z"/>
			<path style="fill:#595959;" d="M90.496,347.329c-5.093-2.019-6.884-4.686-6.767-6.256c0.163-1.575,1.894-2.225,4.188-1.155
				c2.266,1.082,10.516,4.903,20.365,6.837c4.899,0.995,10.149,1.521,14.958,1.417c4.813-0.078,9.161-0.782,12.322-1.658
				c3.163-0.862,7.619-2.225,12.31-4.53c4.831-2.398,10.214-5.218,15.065-8.297c4.846-3.063,9.213-6.499,11.66-9.818
				c1.229-1.644,1.939-3.207,2.241-4.513c0.313-1.306,0.269-2.378,0.185-3.106c-0.178-1.448-0.445-2.574-0.495-3.346
				c-0.06-0.768,0.078-1.176,0.424-1.183c0.337-0.005,0.882,0.383,1.491,1.226c0.595,0.841,1.287,2.163,1.54,4.036
				c0.116,0.907,0.222,3.049-0.895,5.746c-1.079,2.698-3.375,5.71-6.483,8.552c-3.101,2.864-6.971,5.626-11.207,8.266
				c-2.117,1.322-4.335,2.608-6.605,3.864c-2.28,1.24-4.556,2.503-7.005,3.635c-4.861,2.246-10.051,3.788-15.069,4.645
				c-5.021,0.867-9.858,1.07-14.112,0.921c-8.528-0.314-14.689-1.878-16.52-2.314C94.765,348.399,90.516,347.289,90.496,347.329z"/>
			<path style="fill:#595959;" d="M174.208,345.185c-2.747-2.707-4.403-5.363-4.977-7.508c-0.598-2.159-0.103-3.605,0.598-4.157
				c0.71-0.574,1.587-0.426,2.374,0.017c0.803,0.459,1.554,1.222,2.427,2.495c0.808,1.281,3.243,4.193,7.233,7.91
				c3.932,3.733,9.153,8.34,14.254,13.622c5.121,5.262,10.04,11.265,13.859,17.186c3.871,5.904,6.622,11.833,7.957,16.615
				c0.685,2.374,1.259,5.38,1.147,8.819c-0.106,3.422-1.007,7.29-3.042,10.857c-1.005,1.783-2.259,3.486-3.711,5.049
				c-0.365,0.387-0.736,0.775-1.122,1.147l-1.113,1.046c-0.672,0.626-1.342,1.285-2.008,1.962c-2.665,2.718-5.263,5.677-7.731,8.64
				c-4.924,5.938-9.322,11.971-12.472,17.093c-3.193,5.109-4.967,9.339-5.402,11.334c-0.52,2.037-0.456,3.125-0.53,3.5
				c-0.132,0.326-0.137,0.727-0.473,0.892c-0.299,0.141-1.065,0.126-1.693-1.031c-0.615-1.134-0.759-3.16-0.214-5.517
				c0.247-1.19,1.057-3.698,2.67-7.011c1.602-3.316,3.987-7.433,7.031-11.977c3.048-4.543,6.723-9.529,10.972-14.575
				c2.12-2.504,4.424-5.082,6.929-7.452c2.325-2.297,4.204-4.986,5.316-7.946c1.129-2.956,1.48-6.151,1.189-9.309
				c-0.283-3.167-1.174-6.287-2.364-9.241c-2.414-5.916-5.935-11.174-9.305-15.613c-3.393-4.433-6.766-8.03-9.473-10.753
				c-2.713-2.725-4.758-4.59-5.688-5.472c-3.747-3.503-6.959-6.072-9.17-7.862L174.208,345.185z"/>
			<path style="fill:#595959;" d="M180.444,397.393c-1.896-1.961-7.671-7.49-14.196-12.928c-3.254-2.734-6.669-5.479-9.79-7.875
				l-4.277-3.254l-3.293-2.611c-1.852-1.461-4.134-3.612-6.344-6.21c-2.22-2.588-4.34-5.631-6.02-8.698
				c-1.357-2.454-2.384-4.884-3.14-7.054c-1.692,0.622-3.452,0.978-5.208,0.98c0.609,1.287,1.398,2.961,2.353,4.978
				c0.594,1.223,2.665,5.326,6.459,10.087c3.736,4.788,9.299,10.095,15.421,14.423c5.975,4.346,11.873,8.797,16.48,12.433
				c4.616,3.624,7.917,6.458,8.972,7.254c2.128,1.578,3.622,2.211,4.303,2.05C182.766,400.702,182.36,399.297,180.444,397.393z"/>
			<path style="fill:#595959;" d="M181.381,396.577c2.032-1.835,4.063-1.573,5.209-0.631c1.13,0.961,1.553,2.454,0.594,3.262
				c-0.96,0.798-4.458,3.61-7.889,7.243c-3.464,3.602-6.744,8.055-8.153,11.042c-1.462,2.951-4.355,8.234-5.867,13.548
				c-0.786,2.643-1.253,5.255-1.439,7.416c-0.192,2.161-0.125,3.864-0.057,4.709c0.148,1.678-0.236,2.482-0.893,2.466
				c-0.636-0.021-1.546-0.926-2.038-2.754c-0.236-0.902-0.686-4.007-0.263-8.22c0.39-4.205,1.789-9.424,4.024-14.278
				c2.198-4.872,5.118-9.378,7.659-12.756c2.542-3.391,4.677-5.699,5.329-6.379C180.227,398.546,181.385,396.589,181.381,396.577z"
				/>
			<path style="fill:#595959;" d="M101.163,353.691c0.886-2.947,2.652-4.043,4.159-4.074c1.507-0.05,2.723,1.117,2.291,2.671
				c-0.42,1.558-2.154,6.877-4.383,12.68c-2.196,5.817-4.945,12.092-6.469,15.985c-1.478,3.905-5.099,10.775-9.423,16.68
				c-2.144,2.962-4.438,5.68-6.457,7.804c-2.017,2.127-3.743,3.662-4.603,4.429c-1.731,1.545-2.874,1.708-3.134,1.114
				c-0.272-0.605,0.293-1.947,1.66-3.695c0.687-0.871,3.207-3.514,6.091-7.463c2.907-3.932,6.129-9.18,8.885-14.666
				c5.595-10.955,9.277-22.724,9.976-24.765C101.172,356.277,101.158,353.687,101.163,353.691z"/>
			<path style="fill:#595959;" d="M91.09,414.309c-6.668-11.924-1.708-14.808,1.716-8.82c1.683,3.003,7.462,13.557,13.543,25.557
				c1.515,3.004,3.048,6.1,4.511,9.22c0.751,1.608,1.382,3.032,2.163,4.405c0.765,1.376,1.614,2.676,2.521,3.896
				c1.813,2.441,3.876,4.505,5.95,6.357c2.057,1.882,4.197,3.495,5.901,5.807c0.828,1.126,1.672,2.839,1.793,4.804
				c0.074,0.94-0.042,2.003-0.2,2.794c-0.151,0.801-0.346,1.62-0.593,2.442c-0.979,3.292-2.773,6.738-5.458,9.77
				c-2.673,3.035-6.27,5.574-10.276,7.147c-1.999,0.796-4.086,1.37-6.185,1.736c-1.049,0.186-2.103,0.321-3.153,0.413
				c-0.947,0.078-1.826,0.172-2.737,0.298c-7.241,0.992-14.114,3.424-19.195,6.157c-2.546,1.368-4.655,2.813-6.228,4.142
				c-1.581,1.327-2.625,2.527-3.244,3.35c-1.241,1.647-1.854,2.864-2.319,3.624c-0.452,0.758-0.779,1.077-1.072,0.871
				c-0.273-0.198-0.517-0.949-0.342-2.248c0.174-1.287,0.831-3.115,2.283-5.071c0.713-0.973,2.457-2.98,5.436-5.165
				c2.962-2.192,7.124-4.549,12.226-6.483c2.551-0.966,5.329-1.833,8.299-2.51c1.486-0.338,3.018-0.631,4.596-0.854
				c1.608-0.228,3.125-0.337,4.638-0.658c3.037-0.595,6.046-1.684,8.733-3.356c2.69-1.663,5.036-3.909,6.799-6.549
				c1.757-2.607,2.983-5.699,3.406-8.634c0.153-1.315-0.172-2.402-0.954-3.514c-0.772-1.108-1.919-2.166-3.082-3.221
				c-2.365-2.097-4.82-4.277-6.864-6.662c-2.063-2.37-3.767-4.89-5.114-7.378c-0.683-1.254-1.247-2.494-1.778-3.578l-1.592-3.2
				l-2.827-5.474l-3.481-6.537C94.413,418.73,91.081,414.314,91.09,414.309z"/>
			<path style="fill:#595959;" d="M95.622,472.907c2.742-0.697,4.546,0.654,4.549,1.808c0.021,0.57-0.248,1.052-0.442,1.435
				c-0.224,0.377-0.527,0.621-1.006,0.647c-0.47,0.019-1.648,0.12-3.269,0.6c-1.618,0.465-3.635,1.289-5.687,2.366
				c-2.057,1.072-4.154,2.385-6.015,3.706c-1.892,1.332-3.443,2.595-4.447,3.72c-1.02,1.108-2.451,2.685-3.852,4.641
				c-1.405,1.951-2.761,4.284-3.819,6.679c-2.17,4.787-3.03,9.735-3.179,11.346c-0.17,1.625-0.557,2.26-1.035,2.13
				c-0.475-0.086-1.011-1.098-1.075-2.855c-0.024-0.871,0.142-3.781,1.129-7.595c0.964-3.8,2.862-8.502,5.862-12.581
				c1.481-2.043,3.217-3.912,5.035-5.498c1.861-1.586,3.613-2.844,5.245-3.996c3.243-2.265,5.902-3.646,6.721-4.027L95.622,472.907z
				"/>
			<path style="fill:#595959;" d="M81.929,469.596c2.78-0.612,4.369,0.106,4.996,1.068c0.623,0.961,0.188,2.206-1.236,2.544
				c-1.42,0.364-6.367,1.223-11.722,2.494c-5.369,1.249-11.099,3.21-14.275,4.948c-3.2,1.655-9.109,4.707-13.547,8.88
				c-2.241,2.045-4.107,4.312-5.437,6.311c-1.326,2.003-2.161,3.705-2.533,4.572c-0.746,1.726-1.364,2.378-1.779,2.088
				c-0.392-0.278-0.562-1.54,0.021-3.488c0.3-0.952,1.53-4.128,4.268-7.803c2.69-3.694,7.036-7.654,11.99-10.623
				c4.935-3.013,10.321-5.158,14.64-6.589c4.329-1.429,7.593-2.232,8.571-2.475C79.82,470.604,81.932,469.605,81.929,469.596z"/>
			<path style="fill:#595959;" d="M76.709,479.148c2.399-0.445,3.563,0.25,4.33,1.097c0.367,0.435,0.55,0.947,0.392,1.46
				c-0.151,0.503-0.623,0.961-1.3,1.141c-1.39,0.439-5.823,0.983-10.61,1.759c-4.799,0.77-9.956,2.097-12.845,3.436
				c-2.9,1.268-8.28,3.517-12.415,6.844c-2.083,1.63-3.842,3.481-5.102,5.144c-1.272,1.658-2.061,3.106-2.427,3.836
				c-0.718,1.469-1.323,1.996-1.736,1.705c-0.385-0.279-0.553-1.417,0.02-3.122c0.291-0.834,1.497-3.597,4.12-6.688
				c2.581-3.115,6.676-6.329,11.242-8.613c4.55-2.329,9.433-3.859,13.321-4.856c3.898-0.992,6.808-1.512,7.679-1.672
				C74.884,480.035,76.715,479.151,76.709,479.148z"/>
			<path style="fill:#595959;" d="M90.705,463.484c1.926,0.342,2.728,1.516,2.867,2.633c0.137,1.108-0.509,2.14-1.566,1.988
				c-2.213-0.165-13.932-3.597-19.046-3.257c-2.549,0.049-7.178-0.04-11.379,0.827c-4.214,0.779-7.908,2.461-9.077,3.115
				c-2.31,1.32-2.921-0.248-0.668-2.109c0.567-0.442,2.595-1.719,5.628-2.881c3.018-1.174,7.071-2.095,11.185-2.293
				c4.114-0.234,8.22,0.168,11.414,0.616c3.202,0.458,5.52,0.904,6.215,1.039C89.058,463.744,90.705,463.484,90.705,463.484z"/>
			<path style="fill:#595959;" d="M76.408,470.002c0.62,1.011-0.136,2.066-1.097,2.579c-0.986,0.475-2.032,0.763-2.205,0.42
				c-0.165-0.338-0.765-1.724-1.911-2.9c-1.105-1.204-2.762-2.022-3.851-2.031c-1.064-0.064-2.946-0.298-4.876-0.038
				c-1.913,0.217-3.757,0.796-4.345,1.038c-1.161,0.492-1.719-1.055-0.633-2.091c0.272-0.253,1.28-0.85,2.78-1.419
				c1.491-0.564,3.516-1.07,5.656-1.011c2.137,0.023,4.309,0.716,5.827,1.622c1.534,0.89,2.457,1.856,2.718,2.14
				C75.498,469.48,76.391,470,76.408,470.002z"/>
			<path style="fill:#595959;" d="M91.211,450.821c5.127,4.768,6.341,8.486,5.8,10.049c-0.562,1.587-2.697,1.245-4.978-1.131
				c-1.148-1.193-3.75-3.902-7.461-7.22c-3.703-3.313-8.509-7.269-13.943-10.779c-1.356-0.876-2.751-1.722-4.178-2.506
				c-0.713-0.39-1.433-0.768-2.156-1.129l-1.094-0.522c-0.392-0.187-0.829-0.392-1.233-0.602c-3.304-1.684-6.27-4.121-8.443-6.969
				c-2.196-2.841-3.604-5.987-4.504-8.911c-0.902-2.936-1.332-5.671-1.599-8.001c-0.069-0.586-0.125-1.2-0.168-1.842l-0.106-1.927
				c-0.078-1.219-0.213-2.632-0.347-4.126c-0.279-2.997-0.572-6.377-0.786-9.964c-0.444-7.182-0.555-15.235-0.146-23.015
				c0.387-7.782,1.294-15.28,2.364-21.385c1.06-6.112,2.244-10.833,2.841-13.188c1.205-4.715,2.395-6.535,2.884-6.022
				c0.522,0.52,0.38,3.342-0.399,8.057c-0.38,2.356-2.034,10.119-2.952,20.739c-0.98,10.611-1.018,24.04,0.142,37.395l0.883,10.036
				c0.066,0.816,0.104,1.77,0.128,2.533c0.035,0.801,0.087,1.59,0.158,2.374c0.142,1.566,0.366,3.099,0.685,4.577
				c0.638,2.958,1.672,5.696,3.101,8.013c1.417,2.329,3.226,4.211,5.182,5.638c0.98,0.716,1.991,1.32,3.009,1.833
				c0.959,0.484,2.17,0.983,3.221,1.518c2.13,1.046,3.975,2.116,5.562,3.082c3.169,1.939,5.3,3.486,6.285,4.199
				c3.925,2.884,6.946,5.215,9.031,6.791C90.07,449.996,91.211,450.823,91.211,450.821z"/>
			<path style="fill:#595959;" d="M153.49,452.679c1.071-4.386,6.695-2.671,6.147-0.71c-0.22,0.981-1.46,4.498-1.582,8.14
				c-0.057,1.802,0.313,3.535,1.121,4.499c0.393,0.494,0.877,0.842,1.418,1.077c0.287,0.124,0.508,0.183,0.868,0.287l1.232,0.378
				c3.091,0.903,7.481,3.919,11.368,6.43c1.957,1.256,3.838,2.351,5.393,3.07c1.556,0.733,2.768,1.07,3.365,1.189
				c1.176,0.221,1.646,0.731,1.546,1.38c-0.103,0.609-0.956,1.363-2.532,1.378c-0.769,0.032-3.319-0.436-6.446-1.853
				c-3.139-1.361-6.817-3.592-10.461-5.563c-0.914-0.488-1.826-0.953-2.726-1.359c-0.451-0.201-0.899-0.388-1.337-0.555
				c-0.218-0.08-0.438-0.17-0.653-0.236l-0.731-0.246c-1.147-0.407-2.252-1.06-3.133-1.909c-0.891-0.845-1.531-1.85-1.961-2.813
				c-0.851-1.947-1-3.666-1.071-4.937c-0.057-1.28,0.017-2.161,0.052-2.567C153.718,454.546,153.515,452.692,153.49,452.679z"/>
			<path style="fill:#595959;" d="M204.528,480.315c-1.842-0.991-2.413-2.33-2.31-3.461c0.06-1.128,1.068-1.951,2.199-1.448
				c1.098,0.52,5.004,2.364,8.386,5.968c0.836,0.902,1.623,1.913,2.281,3.024c0.954,1.685,1.72,3.503,2.326,5.093
				c0.606,1.608,1.001,3.023,1.242,4.198c0.262,1.202,0.278,2.052,0.345,2.878l0.006,0.054c-0.112,0.227-0.247,0.449-0.41,0.673
				c-0.083,0.111-0.171,0.224-0.268,0.34l-0.198,0.182c-0.12,0.083-0.253,0.158-0.386,0.226c-0.543,0.276-1.162,0.393-1.602,0.391
				c-0.452,0.002-0.755-0.069-0.984-0.132c-0.222-0.071-0.372-0.144-0.463-0.201c-0.096-0.07-0.009-0.044-0.573-0.335
				c-0.256-0.144-0.651-0.362-1.181-0.893c-0.517-0.53-1.181-1.374-1.728-2.723c-0.138-0.309-0.243-0.662-0.365-0.99
				c-0.058-0.155-0.122-0.366-0.176-0.472l-0.163-0.308c-0.214-0.478-0.447-0.69-0.673-0.965c-0.237-0.222-0.469-0.453-0.713-0.64
				c-0.125-0.099-0.235-0.196-0.373-0.295l-0.197-0.145c-1.788-1.281-3.968-2.238-5.765-2.932c-1.814-0.695-3.296-1.141-4.042-1.348
				c-1.482-0.399-2.098-0.966-1.865-1.404c0.261-0.417,1.26-0.743,2.88-0.573c0.479,0.053,1.592,0.268,3.137,0.687
				c1.54,0.429,3.524,1.044,5.666,2.095c0.535,0.264,1.076,0.56,1.619,0.9l0.62,0.403c0.165,0.115,0.326,0.231,0.477,0.355
				c0.613,0.484,1.038,1.089,1.178,1.709c0.216,0.575,0.474,1.151,1.035,1.279c0.137,0.024,0.292-0.002,0.431-0.081l0.197-0.146
				l0.079-0.103l-0.023-0.154c-0.065-0.413-0.169-0.796-0.279-1.156c-0.311-0.986-0.676-1.768-0.995-2.396
				c-0.161-0.308-0.313-0.583-0.454-0.822l-0.208-0.333l-0.364-0.539c-1.346-1.886-2.765-2.944-3.207-3.332
				C206.361,480.569,204.496,480.332,204.528,480.315z"/>
			<path style="fill:#595959;" d="M236.376,484.897c1.032,0.886,1.559,1.853,1.713,2.663c0.159,0.811-0.044,1.473-0.393,1.912
				c-0.723,0.872-1.905,1.025-2.593,0.251c-0.357-0.398-1.169-1.311-2.486-2.363c-1.307-1.055-3.114-2.228-5.164-3.269
				c-4.087-2.112-9.069-3.684-12.148-4.267c-3.08-0.613-8.713-1.954-14.086-3c-5.366-1.063-10.424-1.951-12.176-2.293
				c-0.87-0.161-1.5-0.401-1.927-0.69c-0.204-0.139-0.41-0.316-0.483-0.461c-0.076-0.151-0.055-0.268,0.037-0.358
				c0.477-0.28,1.519-0.568,3.253-0.543c1.723,0.091,11.388,0.98,20.979,2.904c4.791,0.954,9.547,2.213,13.261,3.539
				c3.72,1.302,6.372,2.682,7.149,3.133C234.42,483.82,236.36,484.907,236.376,484.897z"/>
			<path style="fill:#595959;" d="M200.228,468.677c-2.107-0.289-3.153-1.545-3.191-2.688c0.1-1.099,0.601-2.068,1.661-1.921
				c1.033,0.161,4.844,0.747,9.065,1.673c4.233,0.897,8.838,2.315,11.672,3.381c1.424,0.492,3.455,1.551,5.372,3.053
				c1.943,1.495,3.844,3.422,5.449,5.45c1.614,2.03,2.941,4.154,3.883,6.014c0.951,1.849,1.495,3.46,1.732,4.315
				c0.495,1.726,0.002,2.761-0.459,2.578c-0.485-0.159-1.032-1.069-1.757-2.391c-0.348-0.673-1.385-2.963-3.385-5.661
				c-1.975-2.69-4.859-5.844-8.276-8.143c-3.351-2.323-7.398-3.443-10.613-4.225c-3.231-0.753-5.692-1.098-6.423-1.236
				C202.014,468.356,200.225,468.684,200.228,468.677z"/>
			<path style="fill:#595959;" d="M192.368,461.533c-3.158-0.387-2.476-4.721-0.999-4.505c1.449,0.24,10.643,1.605,14.81,1.886
				c2.074,0.106,5.891,0.874,9.348,2.422c1.724,0.762,3.335,1.735,4.563,2.703c1.234,0.965,2.077,1.907,2.489,2.376
				c0.827,0.966,0.76,1.667,0.323,1.853c-0.451,0.2-1.243-0.046-2.164-0.642c-0.456-0.304-1.813-1.47-3.95-2.476
				c-2.121-1.032-4.986-1.871-7.921-2.401c-5.878-1.047-11.968-1.214-13.041-1.378C193.679,461.139,192.368,461.533,192.368,461.533
				z"/>
			<path style="fill:#595959;" d="M184.098,247.451c-0.217,3.217-0.973,8.417-0.815,12.064c0.158,3.646,3.048,8.689,3.048,8.689
				s0.62-3.191,1.13-4.771c0.511-1.58,0.647-3.592,0.729-4.799c0.081-1.207,1.021-3.162,1.021-3.162l0.219-3.217l0.809-6.006
				L184.098,247.451z"/>
			<path style="fill:#595959;" d="M189.981,123.604c0.168,4.276,2.13,8.46,0.113,8.252c-2.017-0.208-1.946-0.881-2.156-2.806
				c-0.21-1.925,1.318-4.891,0.09-7.465C186.798,119.012,189.941,122.564,189.981,123.604z"/>
			<path style="fill:#595959;" d="M228.911,142.922c-0.765-0.486-2.156-2.806-0.489-3.176c1.67-0.371,5.611-0.371,4.707,0.487
				c-0.903,0.857-1.365,2.712-2.109,3.315C230.281,144.152,228.911,142.922,228.911,142.922z"/>
			<path style="fill:#595959;" d="M246.116,147.414c-2.076-0.668,3.939-3.944-0.467-6.029c-4.406-2.085,5.242-0.047,6.321,2.485
				c1.077,2.534,0.005,3.07,0.005,3.07S252.957,149.613,246.116,147.414z"/>
			<path style="fill:#595959;" d="M181.586,130.027c1.32-0.952,3.547-2.761,2.154-5.08c-1.391-2.317-3.663-2.688-4.568-1.828
				c-0.904,0.857-1.436,3.384-1.436,3.384l1.833,3.313L181.586,130.027z"/>
			<path style="fill:#595959;" d="M185.969,193.337c-0.093,12.229,5.03-3.429,3.979,12.134c-1.053,15.561,2.683,29.313,2.546,31.342
				c-0.138,2.033-0.9,6.06-0.9,6.06l-6.077,13.863c0,0-0.182-8.169,0.413-16.966c0.595-8.797-1.626-28.657-1.626-28.657
				L185.969,193.337z"/>
			<path style="fill:#595959;" d="M138.095,143.213c-0.486,2.983,0.094,4.36,0.465,6.029c0.373,1.667-0.949,2.622-2.943,3.5
				c-1.993,0.884-2.735,1.489-3.5,1.001c-0.765-0.489-1.901-2.643-3.176-3.458c-1.278-0.81-4.778-3.753-3.363-4.286
				c1.412-0.534,2.64-1.901,5.03-0.024c2.388,1.875,4.128,0.831,4.128,0.831S138.466,140.941,138.095,143.213z"/>
			<path style="fill:#595959;" d="M149.778,136.671c2.156-1.138,2.666-0.813,2.62,0.949c-0.046,1.762-0.646,8.901-1.528,6.91
				C149.988,142.535,149.778,136.671,149.778,136.671z"/>
			<path style="fill:#595959;" d="M144.027,134.446c1.97-1.97,2.759-0.395,2.041,1.299c-0.718,1.691-0.834,4.126-2.594,4.081
				c-1.763-0.047-6.028,0.468-8.208,0.513c-2.18,0.05,4.357-4.036,5.262-4.893C141.431,134.585,144.027,134.446,144.027,134.446z"/>
			<path style="fill:#595959;" d="M84.919,201.157c0.144-2.132,1.676-6.856,5.597-6.589c3.92,0.265,1.344,2.513,2.428,4.405
				c1.084,1.892,1.566,3.741,0.559,5.189c-1.007,1.448-1.532,4.745-3.563,3.396C87.911,206.206,84.838,202.364,84.919,201.157z"/>
			<path style="fill:#595959;" d="M99.902,176.718c0.907,0.061,2.451,4.105,0.217,5.772c-2.234,1.669-0.992,5.689-2.499,5.588
				c-1.509-0.102-1.386-1.91-4.504-0.607c-3.117,1.304-5.274,6.309-4.707,2.409c0.567-3.902,5.718-8.4,7.267-8.901
				C97.226,180.475,99.902,176.718,99.902,176.718z"/>
			<path style="fill:#595959;" d="M124.666,204.371c0.312-2.109,1.718-3.023,3.169-3.385c1.437-0.36,2.938,0.28,2.858,1.657
				c-0.04,0.671-0.22,2.135-0.621,3.965c-0.394,1.835-1,4.046-1.736,6.324c-1.45,4.565-3.461,9.383-4.504,12.404
				c-1.007,3.037-3.746,8.299-7.057,12.801c-1.641,2.258-3.408,4.327-4.968,5.942c-1.56,1.62-2.904,2.787-3.572,3.373
				c-1.351,1.178-2.313,1.197-2.592,0.621c-0.293-0.588,0.048-1.736,1.027-3.113c0.491-0.687,2.36-2.706,4.484-5.715
				c2.14-2.993,4.508-6.979,6.502-11.143c2.01-4.152,3.659-8.462,4.775-11.922c1.124-3.465,1.719-6.067,1.925-6.84
				C125.172,206.22,124.66,204.357,124.666,204.371z"/>
			<path style="fill:#595959;" d="M93.977,210.034c0.641-0.836,1.475-1.254,2.311-1.334c0.409-0.033,0.841,0.002,1.221,0.125
				c0.383,0.128,0.692,0.354,0.948,0.626c0.504,0.538,0.797,1.209,1.045,1.698c0.125,0.246,0.234,0.453,0.293,0.615
				c0.031,0.19-0.002,0.351-0.13,0.492c-0.512,0.494-2.659,2.995-4.7,6.1c-2.064,3.084-4.049,6.702-4.832,9.071
				c-0.795,2.359-2.756,6.457-4.135,10.358c-0.695,1.944-1.237,3.828-1.517,5.337c-0.293,1.514-0.308,2.619-0.261,3.127
				c0.086,0.999-0.273,1.462-0.912,1.606c-0.612,0.123-1.568-0.368-2.008-1.762c-0.233-0.668-0.445-3.04,0.094-6.138
				c0.504-3.1,1.634-6.882,3.052-10.536c2.796-7.327,6.743-14.144,7.537-15.308C93.516,211.789,93.973,210.044,93.977,210.034z"/>
			<path style="fill:#595959;" d="M82.494,248.943c0.131-1.731,0.912-2.926,1.689-3.507c0.79-0.595,1.589-0.642,2.151-0.401
				c1.056,0.602,1.653,1.589,1.308,2.395c-0.177,0.423-0.609,1.441-0.517,2.988c0.07,1.533,0.777,3.564,2.104,5.515
				c2.605,3.961,7.269,7.309,10.136,9.163c2.879,1.845,8.023,5.397,13.084,8.533c2.518,1.585,4.991,3.122,7.017,4.478
				c2.026,1.348,3.587,2.529,4.363,3.132c1.56,1.221,1.885,2.156,1.435,2.432c-0.456,0.296-1.637-0.008-3.297-0.883
				c-0.822-0.461-3.442-2.076-7.116-4.061c-3.658-2.004-8.304-4.535-12.777-7.405c-2.238-1.429-4.431-2.935-6.473-4.419
				c-2.025-1.477-3.959-2.924-5.581-4.416c-3.272-2.912-5.073-5.911-5.5-6.868C82.631,251.876,82.527,248.913,82.494,248.943z"/>
			<path style="fill:#595959;" d="M104.972,249.165c-1.709-0.716-2.957-1.509-3.776-2.367c-0.811-0.831-1.216-1.829-0.964-2.428
				c0.229-0.598,0.843-0.808,1.216-1.091c0.387-0.269,1.015-0.255,1.836,0.092c1.547,0.753,8.266,3.03,14.495,7.827
				c1.56,1.19,3.046,2.489,4.475,3.942c1.436,1.483,2.65,3.115,3.668,4.733c2.033,3.25,3.354,6.393,4.44,8.644l1.826,3.951
				c0.684,1.427,1.505,3.004,2.463,3.975c0.482,0.475,0.924,0.741,1.417,0.86c0.191,0.054,0.701,0.113,1.101,0.132
				c0.432,0.024,0.895,0.024,1.374,0.007c1.922-0.073,4.049-0.381,6.159-0.673c4.235-0.615,8.519-1.148,12.133-1.101
				c3.617,0.009,6.516,0.607,7.932,1.004c2.874,0.805,3.792,1.927,3.377,2.255c-0.423,0.392-2.076,0.152-4.721-0.161
				c-0.661-0.076-2.081-0.292-4.085-0.338c-2.002-0.052-4.578,0.096-7.518,0.505c-2.945,0.392-6.231,1.077-9.806,1.641
				c-1.795,0.262-3.66,0.527-5.697,0.387c-1.001-0.047-2.252-0.397-3.171-1.039c-0.948-0.633-1.683-1.451-2.29-2.288
				c-1.204-1.691-2.007-3.472-2.78-5.193c-0.763-1.724-1.464-3.408-2.196-5.003c-1.447-3.197-3.066-6.017-4.863-8.151
				c-1.764-2.107-3.779-3.67-5.312-4.823c-1.556-1.146-2.739-1.859-3.285-2.193c-2.179-1.343-4.074-2.087-5.388-2.526
				C105.719,249.307,104.972,249.168,104.972,249.165z"/>
			<path style="fill:#595959;" d="M142.998,289.782c-1.144-0.231-1.438-1.542-1.24-2.709c0.224-1.164,0.739-2.237,1.202-2.126
				c0.458,0.113,8.439,0.377,10.377,0.616c1.931,0.26,4.089,0.175,5.285-0.295c1.202-0.439,3.383-0.9,5.172-1.797
				c1.818-0.843,3.186-2.142,3.576-2.63c0.73-0.97,2.182,0.084,1.686,1.66c-0.132,0.374-0.812,1.482-2.126,2.671
				c-1.3,1.194-3.276,2.363-5.418,3.073c-4.31,1.477-15.187,1.442-15.946,1.35C144.007,289.401,143.003,289.777,142.998,289.782z"/>
			<path style="fill:#595959;" d="M152.446,299.561c-1.395,0.047-2.082-1.193-2.146-2.376c-0.034-1.186,0.281-2.333,0.836-2.324
				c0.549,0.017,2.607,0.154,4.867-0.196c2.262-0.314,4.642-1.197,5.798-2.149c1.183-0.9,3.378-2.333,4.979-4.201
				c1.645-1.816,2.693-3.972,2.96-4.716c0.51-1.469,2.176-0.827,2.116,1.072c-0.032,0.458-0.381,1.932-1.326,3.767
				c-0.926,1.833-2.544,3.979-4.631,5.649c-2.063,1.696-4.504,2.884-6.499,3.585c-2.001,0.704-3.554,0.978-4.02,1.046
				C153.523,298.966,152.452,299.554,152.446,299.561z"/>
			<path style="fill:#595959;" d="M153.701,298.033c1.764-0.423,2.971,0.331,3.667,1.327c0.738,0.964,0.615,2.322-0.455,2.671
				c-1.056,0.345-4.823,1.344-9.178,1.06c-2.168-0.13-4.452-0.605-6.454-1.372c-2.022-0.749-3.71-1.795-4.931-2.536
				c-1.245-0.744-2.91-2.13-4.371-3.927c-1.481-1.79-2.705-3.779-4.016-5.345c-2.547-3.181-6.069-5.115-7.268-5.718
				c-1.199-0.59-1.566-1.214-1.266-1.653c0.295-0.427,1.273-0.659,2.682-0.274c0.686,0.21,2.941,1.065,5.591,3.021
				c1.32,0.975,2.688,2.281,3.942,3.779c1.261,1.49,2.428,3.109,3.741,4.48c1.306,1.386,2.78,2.534,4.316,3.45
				c1.491,0.905,3.019,1.469,4.42,1.793c2.813,0.645,5.007,0.411,5.647,0.397C152.395,299.037,153.713,298.007,153.701,298.033z"/>
			<path style="fill:#595959;" d="M105.749,212.944c-2.518,0.486-4.036-1.514-6.084-0.687c-2.049,0.824-4.305-1.29-3.377-3.557
				c0.926-2.265,6.317-3.569,6.479-2.066c0.159,1.506,2.295,1.58,4.401,2.512C109.275,210.074,108.55,212.403,105.749,212.944z"/>
			<path style="fill:#595959;" d="M94.715,222.388c-1.6-3.051,1.008-4.242,3.146-4.166c2.135,0.076,6.026-1.066,6.613,0.451
				c0.588,1.519-1.83,3.356-2.525,4.831c-0.694,1.47-0.772,3.605-2.654,2.47C97.408,224.837,94.715,222.388,94.715,222.388z"/>
			<path style="fill:#595959;" d="M88.406,237.35c0.106-2.992,0.991-3.816,3.556-3.724c2.562,0.092,4.036,0.786,5.141-0.243
				c1.108-1.03,2.091,1.359-0.801,4.461c-2.893,3.106-3.38,4.801-5.677,3.219C88.329,239.485,88.406,237.35,88.406,237.35z"/>
			<path style="fill:#595959;" d="M78.042,267.046c-1.769-0.725-4.886,0.579-5.127-0.347c-0.241-0.922-1.018-7.34,1.415-7.477
				c2.433-0.139,4.586-0.599,5.951,1.613C81.646,263.047,78.042,267.046,78.042,267.046z"/>
			<path style="fill:#595959;" d="M179.931,352.032c-2.411-0.351-4.823-0.701-6.68,0.358c-1.859,1.056-5.154,3.913-7.063,4.014
				c-1.909,0.104-1.691-2.972,1.523-5.536c3.213-2.565,5.552-5.374,6.586-5.714c1.034-0.344,3.418,1.252,5.27,3.641
				C181.418,351.186,179.931,352.032,179.931,352.032z"/>
			<path style="fill:#595959;" d="M181.513,356.542c0.475,1.698,1.319,3.184,2.747,4.83c1.43,1.648,0.919,4.641-1.251,3.42
				c-2.174-1.222-2.094-1.516-4.163-0.832c-2.067,0.686-5.624,2.218-5.063,0.177c0.56-2.042,4.218-1.664,4.778-3.704
				c0.562-2.038-2.536-4.459-0.837-4.931C179.423,355.025,181.513,356.542,181.513,356.542z"/>
			<path style="fill:#595959;" d="M188.395,375.989c-2.223-2.179-0.366-3.234,1.574-4.583c1.935-1.35,2.73-0.817,4.029,0.167
				c1.297,0.984-0.006,3.447-0.729,6.069c-0.72,2.623-1.253,3.419-2.338,2.806C189.846,379.835,188.395,375.989,188.395,375.989z"/>
			<path style="fill:#595959;" d="M194.674,364.548c0,0,1.765,6.129-0.165,4.029c-1.933-2.1-2.771-7.031-2.771-7.031
				L194.674,364.548z"/>
			<path style="fill:#595959;" d="M201.842,371.281c1.075,1.034,3.321,6.457,2.217,8.001c-1.103,1.547-4.386,3.6-4.354,4.716
				c0.034,1.12,1.431,9.636,2.533,8.09c1.105-1.544,1.608-5.841,3.187-5.407c1.58,0.435,4.08,3.708,4.897-0.504
				C211.139,381.968,201.842,371.281,201.842,371.281z"/>
			<path style="fill:#595959;" d="M212.962,394.969c0,0-2.28,0.312-4.161-0.831c-1.88-1.143-1.485,0.848,0.526,2.652
				c2.011,1.807,4.315,3.694,4.636,2.529C214.281,398.151,212.962,394.969,212.962,394.969z"/>
			<path style="fill:#595959;" d="M205.465,405.135c-0.714-0.825-0.232-2.573,1.253-3.417c1.487-0.847,2.973-1.692,3.688-0.869
				c0.716,0.823,1.798,1.437,0.948,3.396c-0.853,1.959-1.626,3.629-2.87,3.599C207.237,407.816,205.465,405.135,205.465,405.135z"/>
			<path style="fill:#595959;" d="M198.404,409.151c1.604-1.242,0.808-6.363,2.5-3.39c1.69,2.972,2.746,4.831,2.746,4.831
				s1.401,2.895-0.801,2.915C200.649,413.53,197.211,410.076,198.404,409.151z"/>
			<path style="fill:#595959;" d="M192.97,422.078c0.472-0.773,2.157-4.422,3.345-1.902c1.188,2.522,0.489,7.345-0.918,7.9
				C193.993,428.63,191.827,423.959,192.97,422.078z"/>
			<path style="fill:#595959;" d="M58.25,420.608c0.981-1.969,3.338-3.07,4.154-4.147c0.815-1.077,1.521-1.561-1.417-3.953
				c-2.937-2.392-4.181-2.314-3.973-0.125c0.205,2.192-1.405,5.888-0.084,7.057C58.25,420.608,58.25,420.608,58.25,420.608z"/>
			<path style="fill:#595959;" d="M56.255,399.943c-3.441,0.21-3.753-1.313-3.035-5.177c0.718-3.866,1.514-6.483,1.715-9.213
				c0.201-2.73,3.491-0.581,5.425,2.239c1.937,2.82,3.035,5.177,1.679,5.848c-1.356,0.668-1.762,1.209-1.334,2.211
				c0.43,1.004,2.045,2.227,0.746,2.6C60.152,398.821,57.498,399.867,56.255,399.943z"/>
			<path style="fill:#595959;" d="M57.964,372.588c-2.223-1.683-1.935-2.82-2.011-4.068c-0.077-1.242,1.458-6.185,2.482-5.073
				c1.021,1.115,2.251,4.419,4.201,3.859c1.948-0.56-1.058,0.725-1.445,2.806C60.804,372.193,59.581,373.808,57.964,372.588z"/>
			<path style="fill:#595959;" d="M70.777,373.126c-3.316,0.661-2.288-2.579-0.989-2.95C71.087,369.803,73.97,372.49,70.777,373.126
				z"/>
			<path style="fill:#595959;" d="M59.113,356.502c-2.434-0.144-2.565-1.091-0.767-4.138c1.797-3.049,3.075-4.964,2.869-7.154
				c-0.208-2.192,3.545-0.879,5.163,0.345c1.617,1.223,1.271,6.386,0.531,8.708C66.17,356.584,59.113,356.502,59.113,356.502z"/>
			<path style="fill:#595959;" d="M56.881,340.407c0.332-1.785,1.901-8.564,3.724-5.151c1.826,3.415,3.554,4.043,1.68,5.848
				c-1.874,1.804-3.768,2.067-4.992,3.684c-1.223,1.616-0.718,3.864-3.186,5.557c-2.468,1.693-4.175,2.605-3.049-1.799
				C52.189,344.145,56.881,340.407,56.881,340.407z"/>
			<path style="fill:#595959;" d="M71.724,338.124c-1.99-1.952-2.348-5.613-0.298-4.566c2.05,1.049,4.299,3.625,2.75,4.126
				C72.629,338.184,71.724,338.124,71.724,338.124z"/>
			<path style="fill:#595959;" d="M61.278,326.813c-1.446-1.006-5.887-7.064-2.608-6.235c3.277,0.827,6.998-0.437,6.998-0.437
				s-0.404,1.488-0.867,3.88C64.335,326.414,61.278,326.813,61.278,326.813z"/>
			<path style="fill:#595959;" d="M69.425,322.819c-1.81-0.123,0.424-1.79,1.088-2.655c0.665-0.862,5.066,1.252,0.42,2.756
				L69.425,322.819z"/>
			<path style="fill:#595959;" d="M68.572,223.383c0.928,1.337,1.764,5.269,3.231,5.975c1.468,0.704,2.874,2.314,1.765,5.269
				c-1.109,2.955-0.627,4.806-0.126,6.355c0.501,1.549-0.786,2.673-1.854,5.026c-1.069,2.35-3.89,8.221-3.522,2.792
				c0.367-5.43,0.449-6.636-0.677-7.923c-1.124-1.29-2.25-2.577-2.388-5.009C64.861,233.433,67.466,221.793,68.572,223.383z"/>
			<path style="fill:#595959;" d="M77.371,232.156c1.242,0.085,3.016,0.205,2.853,2.617c-0.163,2.414-2.702,8.606-3.224,7.357
				C76.479,240.883,76.164,232.076,77.371,232.156z"/>
			<path style="fill:#595959;" d="M87.189,225.853c-2.692-0.485-3.476-2.357-1.646-2.536c1.83-0.179-0.118-2.734,2.274-2.27
				c2.392,0.465,2.669,5.331,1.464,5.25c-1.207-0.083-1.207-0.083-1.207-0.083L87.189,225.853z"/>
			<path style="fill:#595959;" d="M50.743,280.956c2.376-2.076,3.039-4.643,3.781-2.168s1.423,5.852,1.341,7.059
				c-0.082,1.207,3.472,6.901,2.466,8.349c-1.006,1.445-3.179,2.208-3.322,4.32c-0.143,2.111,1.12,5.833-0.909,4.482
				c-2.03-1.347-3.778-2.376-4.642-3.039C48.594,299.292,49.454,282.08,50.743,280.956z"/>
			<path style="fill:#595959;" d="M49.388,309.95c1.7,0.464,5.992,1.011,5.588,2.499c-0.402,1.488-1.71,2.914-0.867,3.88
				c0.843,0.966,2.428,4.407,0.838,5.512c-1.589,1.103-6.292-1.032-5.526-3.403C50.188,316.065,47.9,309.549,49.388,309.95z"/>
			<path style="fill:#595959;" d="M65.746,256.217c-1.81-0.123-1.324-2.817-0.057-3.639c1.267-0.824,1.227-0.222,1.707,1.63
				C67.877,256.057,65.746,256.217,65.746,256.217z"/>
			<path style="fill:#595959;" d="M85.847,286.055c-1.769-0.725-2.532-2.897-0.701-3.077
				C86.976,282.798,85.847,286.055,85.847,286.055z"/>
			<path style="fill:#595959;" d="M81.283,219.092c-2.682,0.349-1.924-7.404-0.998-7.642c0.925-0.241,2.735-0.118,4.667-1.807
				c1.932-1.686,4.988-2.085,3.277,0.829C86.517,213.383,82.813,218.891,81.283,219.092z"/>
			<path style="fill:#595959;" d="M207.529,127.536c2.853,0.021,6.072-6.171,8.878-4.388c2.807,1.785,2.947,4.383,3.968,5.034
				c1.02,0.648-0.857,3.036-0.857,3.036L207.529,127.536z"/>
			<path style="fill:#595959;" d="M215.943,125.005c0,0-4.986-1.737-6.167-2.131c-1.183-0.392-1.322,0.952,1.065,2.829
				c2.39,1.878,4.732,1.575,4.732,1.575L215.943,125.005z"/>
			<path style="fill:#595959;" d="M195.288,253.485c2.609,1.467,8.41,4.232,6.802,1.859c-1.608-2.374-2.927-4.83-2.336-7.196
				c0.593-2.364,2.777-8.001-0.061-4.689c-2.839,3.308-7.087,6.068-8.578,5.232C189.625,247.855,195.288,253.485,195.288,253.485z"
				/>
			<path style="fill:#595959;" d="M182.337,262.412c0.123-6.974,5.963-6.761,5.864-3.349l-1.188,33.315
				c-0.045,4.561-1.049,13.016-3.259,20.759c-1.084,3.867-2.452,7.54-3.788,10.477c-1.33,2.939-2.605,5.141-3.245,6.238
				c-1.292,2.201-2.392,2.783-2.806,2.281c-0.437-0.512-0.222-2.057,0.635-4.334c0.43-1.138,2.18-4.747,3.729-9.886
				c1.582-5.122,2.903-11.756,3.613-18.464c1.45-13.42,0.959-27.024,1.065-29.434C183.026,265.196,182.332,262.412,182.337,262.412z
				"/>
			<path style="fill:#595959;" d="M287.406,275.359c-0.804-0.646-2.209-1.304-4.086-1.707c-0.935-0.209-2.995-0.508-5.883-0.536
				c-2.885-0.037-6.589,0.187-10.783,0.77c-2.097,0.294-4.316,0.668-6.622,1.138c-2.317,0.449-4.675,1.09-7.085,1.526
				c-4.811,0.883-10.138,1.27-14.925-0.354c-1.38-0.461-2.679-1.111-3.896-1.882c-1.053,0.82-2.071,1.678-3.042,2.59
				c0.038,0.026,0.069,0.054,0.106,0.082c2.237,1.582,5.118,2.901,8.252,3.526c6.315,1.307,13.041,0.026,18.844-1.556
				c5.687-1.467,11.309-2.468,15.925-2.869c4.626-0.433,8.192-0.18,9.825,0.151c1.658,0.302,2.667,0.612,3.278,0.745
				c0.601,0.136,0.908,0.115,1.012-0.15C288.419,276.573,288.225,276.006,287.406,275.359z"/>
			<path style="fill:#595959;" d="M241.722,249.025c-1.64-0.144-1.865,0.841-2.719,1.331c-0.334,0.285-0.707,0.733-0.727,1.266
				c-0.002,0.256,0.104,0.512,0.312,0.738c0.208,0.217,0.543,0.399,0.836,0.46c1.268,0.342,4.386,0.248,7.822,0.064
				c3.433-0.177,7.176-0.338,9.442-0.14c2.265,0.194,6.418,0.102,10.253,0.223c3.848,0.084,7.306,0.566,8.371,0.882
				c1.075,0.282,1.625,0.099,1.708-0.35c0.073-0.436-0.399-1.167-1.545-1.7c-0.562-0.274-2.543-0.874-5.293-1.286
				c-2.747-0.429-6.229-0.703-9.707-0.825c-6.968-0.222-13.873-0.097-15.063-0.123C242.979,249.62,241.706,249.025,241.722,249.025z
				"/>
			<path style="fill:#595959;" d="M203.479,260.289c2.91-0.815,2.819,1.094,5.075-2.052c2.257-3.146,11.034-6.554,8.776-3.408
				c-2.255,3.146-4.874,3.883-4.593,6.001c0.281,2.118,2.554,4.62-0.975,4.355c-3.528-0.263-4.691,0.064-4.691,0.064
				L203.479,260.289z"/>
			<path style="fill:#595959;" d="M220.719,268.007c0.087-1.835,1.429-3.854,3.629-3.844c2.202,0.008,6.021,0.193,5.265,1.973
				c-0.756,1.783-2.711,2.645-4.166,3.056C223.992,269.601,220.673,268.963,220.719,268.007z"/>
			<path style="fill:#595959;" d="M193.283,213.619c-0.791-0.956-0.241-2.161,0.491-3.221c0.73-1.052,1.886-1.731,2.435-1.148
				c1.245,1.122,5.543,8.379,8.235,10.875c1.337,1.252,6.984,8.141,13.417,13.729c3.193,2.817,6.54,5.328,9.232,7.106
				c2.685,1.786,4.683,2.888,5.082,3.134c1.607,0.949,0.455,2.487-1.547,2.032c-0.492-0.119-3.242-1.39-6.908-3.677
				c-3.67-2.275-8.194-5.66-12.349-9.502c-4.173-3.821-7.985-8.044-10.798-11.369c-2.815-3.337-4.707-5.666-5-6.036
				C194.424,213.99,193.276,213.615,193.283,213.619z"/>
			<path style="fill:#595959;" d="M288.372,280.068c-0.353-0.801,0.328-1.569,1.141-1.987c0.816-0.406,1.728-0.547,1.87-0.193
				c0.144,0.355,0.586,1.676,1.253,3.083c0.66,1.408,1.543,2.895,2.293,3.642c0.726,0.751,3.792,4.865,7.582,7.883
				c1.869,1.532,3.864,2.799,5.471,3.628c1.605,0.834,2.8,1.268,3.038,1.379c0.958,0.387,0.359,1.622-0.856,1.605
				c-0.295-0.012-1.993-0.466-4.259-1.572c-2.265-1.09-5.047-2.902-7.526-5.122c-5.048-4.393-8.558-10.295-8.796-10.826
				C289.059,280.524,288.374,280.069,288.372,280.068z"/>
			<path style="fill:#595959;" d="M301.578,285.381c-0.169-0.612,0.642-1.155,1.514-1.419c0.876-0.248,1.783-0.315,1.848-0.069
				c0.059,0.253,0.194,1.203,0.5,2.237c0.3,1.031,0.766,2.133,1.278,2.681c0.491,0.55,2.306,3.581,4.696,5.855
				c2.331,2.35,5.124,3.746,5.43,3.902c0.609,0.333-0.084,1.508-0.991,1.521c-0.22-0.005-1.389-0.387-2.924-1.271
				c-1.537-0.869-3.409-2.281-5.03-3.999c-3.323-3.389-5.38-7.869-5.488-8.272C302.144,285.744,301.582,285.383,301.578,285.381z"/>
			<path style="fill:#595959;" d="M137.882,276.854c-2.44,0.435-2.744-2.508-1.655-2.655c0.553-0.08,2.499-0.328,4.629-0.93
				c2.135-0.586,4.454-1.49,5.9-2.14c0.718-0.324,1.79-0.716,3.146-0.952c1.341-0.241,3.032-0.217,4.525,0.295
				c1.502,0.489,2.714,1.332,3.59,2.064c0.881,0.739,1.469,1.379,1.771,1.689c1.183,1.28,0.17,1.764-1.202,0.845
				c-0.357-0.21-1.372-1.145-2.94-1.965c-0.784-0.399-1.712-0.744-2.716-0.853c-1.004-0.123-2.074-0.005-3.129,0.26
				c-2.114,0.548-4.206,1.53-5.937,2.182c-1.726,0.678-3.065,1.096-3.469,1.204C138.773,276.332,137.882,276.851,137.882,276.854z"
				/>
			<path style="fill:#595959;" d="M332.422,261.745c0.152-0.411,1.334-5.584-0.047-6.407c-0.704-0.404-3.751,3.398-5.46,1.686
				c-1.722-1.693-3.782-3.93-6.241-6.052c-2.437-2.12-5.396-4.08-8.487-5.036c-3.141-0.973-5.91-0.874-7.777-0.735
				c-1.885,0.165-4.332,0.469-6.953,0.968c-2.624,0.491-5.425,1.164-8.054,1.878c-5.263,1.443-9.861,2.945-11.152,3.31
				c-1.278,0.398-1.675,1.425-1.122,2.217c0.56,0.795,2.222,1.262,4.85,0.398c0.005,0.009,1.958-1.138,5.62-2.265
				c0.918-0.267,3.934-1.289,8.07-2.296c2.069-0.494,4.421-0.971,6.922-1.241c2.487-0.261,5.171-0.329,7.673,0.186
				c1.29,0.276,2.539,0.736,3.729,1.31c0.22-0.144,0.515-0.17,0.75,0.076c0.238,0.248,0.495,0.478,0.74,0.72
				c0.595,0.347,1.175,0.711,1.729,1.097c2.075,1.443,3.883,3.069,5.479,4.523c1.594,1.458,2.985,2.748,4.135,3.678
				c1.142,0.935,2.041,1.507,2.475,1.726C331.082,262.411,332.28,262.113,332.422,261.745z"/>
			<path style="fill:#595959;" d="M310.952,253.205c-1.639,0.261-2.926,0.469-3.714,0.598c-6.551,1.119-5.809,5.375,7.259,3.207
				c-0.001,0.002,0.116-0.03,0.303-0.078C313.56,255.646,312.286,254.395,310.952,253.205z"/>
			<path style="fill:#595959;" d="M325.075,279.769c-0.273,0.576-0.562,1.145-0.85,1.712c-0.065,0.325-0.132,0.648-0.229,0.964
				l9.716-1.677c0.439-1.207,0.879-2.411,1.405-3.58l-10.122,1.91C325.134,279.276,325.194,279.517,325.075,279.769z"/>
			<path style="fill:#595959;" d="M322.687,259.78c1.129,0.811-0.316,2.898-0.909,2.474c-0.613-0.393-3.86-3.274-5.452-4.29
				c-0.816-0.472-2.108-1.676-3.237-2.603c-1.136-0.973-2.024-1.118-2.444-1.084c-0.744,0.086-0.926-0.883,0.09-1.271
				c0.234-0.081,1.16-0.201,2.271,0.3c1.095,0.484,2.239,1.377,3.359,2.221c2.227,1.721,4.499,3.296,4.896,3.586
				C322.045,259.708,322.69,259.78,322.687,259.78z"/>
			<path style="fill:#595959;" d="M324.059,284.948c-1.046-0.845-1.093-1.741-0.805-2.212c0.3-0.483,0.893-0.629,1.299-0.242
				c0.394,0.391,1.894,1.817,3.962,2.73c1.018,0.454,2.163,0.778,3.174,0.788c1.019,0.025,1.823-0.303,2.219-0.705
				c0.207-0.196,0.412-0.443,0.603-0.809c0.268-0.495,0.58-1.023,0.901-1.572c0.642-1.093,1.341-2.279,1.745-3.439
				c0.422-1.16,0.47-2.251,0.215-3.093c-0.241-0.847-0.692-1.461-0.928-1.746c-0.484-0.573-0.621-0.938-0.409-1.079
				c0.196-0.128,0.755-0.019,1.403,0.583c0.275,0.286,1.408,1.462,1.488,3.561c0.094,2.092-1.118,4.442-2.314,6.538
				c-0.326,0.55-0.522,1.021-0.952,1.638c-0.42,0.568-0.994,1.037-1.619,1.312c-1.26,0.561-2.532,0.531-3.566,0.388
				c-2.091-0.321-3.442-1.081-3.848-1.276C325.024,285.442,324.072,284.935,324.059,284.948z"/>
			<path style="fill:#595959;" d="M310.879,286.779c-1.045-0.847-1.095-1.744-0.804-2.21c0.299-0.484,0.89-0.633,1.298-0.243
				c0.393,0.389,1.893,1.816,3.962,2.73c1.019,0.455,2.162,0.776,3.173,0.786c1.019,0.024,1.826-0.302,2.22-0.704
				c0.208-0.196,0.413-0.443,0.605-0.809c0.267-0.496,0.579-1.025,0.901-1.572c0.641-1.096,1.34-2.281,1.744-3.441
				c0.423-1.157,0.47-2.251,0.215-3.091c-0.242-0.848-0.691-1.46-0.929-1.748c-0.482-0.57-0.62-0.936-0.407-1.079
				c0.195-0.128,0.753-0.019,1.403,0.586c0.274,0.284,1.409,1.461,1.488,3.559c0.093,2.094-1.117,4.445-2.315,6.541
				c-0.327,0.549-0.522,1.018-0.952,1.638c-0.42,0.567-0.995,1.034-1.62,1.311c-1.258,0.562-2.532,0.531-3.564,0.39
				c-2.092-0.324-3.443-1.082-3.85-1.278C311.845,287.272,310.893,286.766,310.879,286.779z"/>
			<path style="fill:#595959;" d="M318.685,283.716c-0.103,0.097-0.136-0.083-0.347-0.139c-0.191-0.084-0.445-0.159-0.693-0.248
				c-0.505-0.154-1.007-0.517-0.789-0.831c0.318-0.449,0.972-0.756,1.564-1.128c0.605-0.367,1.156-0.842,1.321-1.243
				c0.179-0.392,0.58-0.947,0.783-1.566c0.224-0.612,0.261-1.285,0.25-1.507c-0.037-0.434,0.775-0.517,1.092,0.007
				c0.066,0.129,0.191,0.574,0.185,1.209c-0.001,0.631-0.167,1.462-0.561,2.201c-0.797,1.52-2.193,2.448-2.364,2.598
				C318.675,283.372,318.68,283.72,318.685,283.716z"/>
			<path style="fill:#595959;" d="M332.677,282.381c-0.184,0.241-0.667,0.019-1.202-0.134c-0.526-0.151-0.97-0.522-0.81-0.784
				c0.319-0.601,2.193-2.057,2.529-3.004c0.187-0.463,0.666-1.16,0.929-1.815c0.285-0.653,0.329-1.271,0.296-1.48
				c-0.064-0.383,0.742-0.59,1.09-0.044c0.08,0.131,0.217,0.614,0.166,1.288c-0.033,0.678-0.298,1.509-0.68,2.26
				c-0.782,1.509-1.856,2.722-2.005,2.928C332.62,282.006,332.674,282.386,332.677,282.381z"/>
			<path style="fill:#595959;" d="M71.568,76.228c14.51,16.929,29.021,58.041,30.23,67.714c1.209,9.674,2.418,35.066-3.628,13.301
				c-6.046-21.765-2.418-22.975-4.837-27.811c-2.418-4.837-3.628-18.138-8.464-22.975c-4.837-4.837-7.255-13.301-12.092-19.347
				C67.941,81.065,71.568,76.228,71.568,76.228z"/>
			<path style="fill:#595959;" d="M142.91,49.626c2.731,6.829,23.102,55.011,26.545,60.705c3.443,5.694-5.989,5.8-7.198-0.246
				c-1.209-6.046-9.673-33.857-13.301-37.485c-3.627-3.628-4.837-6.046-7.255-10.883c-2.418-4.837-1.209-4.837-4.837-12.092
				C133.237,42.371,140.492,43.58,142.91,49.626z"/>
			<path style="fill:#595959;" d="M78.824,93.157c-12.092,7.255-41.112,10.883-51.995-10.883
				C15.946,60.509,31.665,43.58,51.012,39.952c6.046-2.418,13.301,0,7.255,2.418c-3.826,1.53-9.785,1.189-14.813,3.93
				c-2.918,1.589-4.252,3.238-8.464,6.046c-2.721,1.814-2.116,3.325-4.535,4.837c-2.418,1.512-4.534,11.185-4.534,13.906
				c0,2.721,2.721,9.371,4.232,11.79c1.511,2.418,3.023,4.535,7.86,7.255c4.837,2.721,5.441,4.232,13.603,4.837
				s19.045-1.209,21.765-2.418c2.721-1.209,4.232-2.418,4.232-2.418L78.824,93.157z"/>
			<path style="fill:#595959;" d="M102.202,128.626c9.271-7.658,3.626-14.913,47.561-25.796c3.628-1.209,8.464,1.612,3.628,1.612
				c-4.837,0-13.301,3.224-16.122,3.628c-2.821,0.404-16.525,5.241-18.54,7.659c-2.016,2.418-5.642,7.254-9.674,11.688
				c-4.031,4.434-7.255,6.852-7.255,6.852L102.202,128.626z"/>
			<path style="fill:#595959;" d="M188.458,250.753c6.851,5.239,33.857,18.542,39.097,20.556c5.239,2.015,6.843,2.387,5.239,4.03
				c-1.604,1.644,0.42,2.078-1.604,1.644c-2.024-0.435-13.309-5.674-15.728-6.481c-2.418-0.806-8.464-4.031-12.092-6.852
				c-3.628-2.821-12.606-4.338-15.17-4.588C185.636,258.814,188.458,250.753,188.458,250.753z"/>
			<path style="fill:#595959;" d="M146.135,57.284c12.092-9.674,15.317-37.887-1.612-38.694
				c-16.929-0.807-20.153,4.031-26.602,5.643c-6.449,1.612-5.642-1.613,3.225-5.643c8.867-4.03,17.734-6.45,25.795-5.643
				c8.062,0.807,10.479,2.42,13.704,11.286c3.225,8.867,4.031,11.285,1.613,16.122s-5.643,20.153-12.898,22.572
				C142.105,65.345,146.135,57.284,146.135,57.284z"/>
			<path style="fill:#595959;" d="M51.012,39.952c-3.224-10.077,4.03-31.841,22.572-37.485c3.694-1.124,7.387-1.833,10.985-2.189
				c14.463-1.43,27.38,2.828,32.545,8.638c6.45,7.255,14.512,12.092,4.032,9.674c-10.48-2.418-8.711-4.462-15.317-8.867
				c-4.837-3.225-14.51-5.643-19.347-5.643c-4.837,0-12.093,2.42-17.735,5.643c-5.642,3.224-6.447,4.031-8.06,12.092
				c-1.613,8.06-4.837,12.897-2.418,16.122L51.012,39.952z"/>
			<path style="fill:#595959;" d="M314.616,261.233c-3.225,0-16.929-4.03-22.572-4.03s-8.062,12.091-2.418,12.897
				c5.643,0.806,31.148,6.953,31.148,6.953s-1.323-6.952,1.902-5.34c3.225,1.612,11.744,3.451,11.744,3.451
				s-1.264-6.675-3.682-6.675C328.32,268.488,314.616,261.233,314.616,261.233z"/>
			<path style="fill:#595959;" d="M416.188,270.1c-15.317,0-33.052,7.255-37.082,6.45s-26.007-7.139-31.439-8.868
				c-17.735-5.643-12.898,0-10.48,2.418c2.418,2.418,0.185,6.295,6.45,7.255c6.264,0.96,32.244,12.898,32.244,12.898
				s1.613,16.122,13.705,22.572c12.092,6.45,61.265,12.092,78.193,3.224c10.899-5.709,20.96-24.184,20.96-29.826
				C479.872,275.745,431.504,270.1,416.188,270.1z M479.871,292.672c-2.418,2.016-3.628,0.403-10.077,3.628
				c-6.45,3.225-12.897,3.628-15.719,3.628s-12.092,2.016-14.106,2.016s-4.434-0.807-7.659-0.807c-3.225,0-10.479,0-16.929-2.821
				c-6.45-2.821-21.361-3.225-26.198-6.852c-4.837-3.628-6.45-2.418-6.046-7.255c0,0,2.418-4.434,4.433-4.434
				s-2.014,1.613-2.014,4.837c0,3.224,2.821,4.031,6.851,6.046c4.03,2.015,10.077,2.418,14.914,2.822
				c4.837,0.404,8.867,2.418,11.285,2.821c2.418,0.403,4.434,1.612,9.673,1.612s16.526,0.806,21.363,0
				c4.837-0.807,17.734-3.224,20.959-4.433c3.225-1.209,8.867-2.822,11.689-2.822C485.111,290.656,482.289,290.656,479.871,292.672z
				"/>
		</g>
		<path style="fill:#595959;" d="M424.675,245.121c0,0-3.177-4.538-0.454-4.538c2.723,0,2.722,1.362,3.177,2.724
			C427.852,244.667,424.675,245.121,424.675,245.121z"/>
		<path style="fill:#595959;" d="M455.66,258.318c-2.724,0.455-3.178-1.815-2.724-3.177c0.454-1.361,4.085-1.361,4.539,0
			C457.928,256.503,455.66,258.318,455.66,258.318z"/>
		<path style="fill:#595959;" d="M469.364,252.675c0,0-3.63-2.723-1.361-3.63c2.27-0.908,2.27-0.908,2.27-0.908L469.364,252.675z"/>
		<polygon style="fill:#595959;" points="461.452,236.986 462.87,235.001 464.572,235.284 464.856,237.269 463.721,238.971 
			461.735,238.688 		"/>
		<path style="fill:#595959;" d="M442.66,240.157c0,0,1.362-4.085,3.63-3.631c2.269,0.453,2.724,2.723,2.724,2.723l-1.816,3.176
			L442.66,240.157z"/>
		<path style="fill:#595959;" d="M436.462,254.335c-0.348,1.392,0.453,3.631,2.269,3.176
			C440.547,257.058,436.916,252.519,436.462,254.335z"/>
		<path style="fill:#595959;" d="M458.293,269.569c0.868,1.143,3.117,1.918,3.898,0.216
			C462.972,268.085,457.159,268.079,458.293,269.569z"/>
		<path style="fill:#595959;" d="M473.394,268.797c0,0-2.418-5.642,0.806-5.642c3.224,0,3.224,0,3.224,0
			S475.813,270.409,473.394,268.797z"/>
	</g>
</g>
</svg>
