<?xml version="1.0" encoding="iso-8859-1"?>
<!-- Generator: Adobe Illustrator 18.1.1, SVG Export Plug-In . SVG Version: 6.00 Build 0)  -->
<svg version="1.1" id="_x32_" xmlns="http://www.w3.org/2000/svg" xmlns:xlink="http://www.w3.org/1999/xlink" x="0px" y="0px"
	 viewBox="0 0 512 512" style="enable-background:new 0 0 512 512;" xml:space="preserve">
<g>
	<path style="fill:#94C85C;" d="M300.356,68.631c-8.543-2.67-20.29-8.542-13.883-19.221s33.637-22.423,38.977-22.958
		c5.34-0.535,6.94-7.476,7.475-12.281c0.534-4.805,5.34-9.611,8.543-8.009c3.204,1.602,11.212,13.348,11.212,13.348
		s13.882-1.068,18.687,0c4.805,1.068,11.747,4.272,11.747,4.272s0.534-19.221,3.738-20.823c3.203-1.602,22.958,9.077,29.9,32.036
		c9.611,0,37.908,41.113,44.316,60.334c6.407,19.221,21.357,49.653,29.9,66.74s22.425,61.401,11.212,92.37
		c-11.212,30.968-13.348,50.723-13.348,57.664c0,6.941,0.533,16.019-5.34,15.484c-5.873-0.534-9.611-7.475-9.611-3.738
		c0,3.738-8.01,54.461-6.941,64.605c1.068,10.144-2.135,36.307-2.669,47.519c-0.534,11.212-4.805,27.764,4.805,34.172
		c9.611,6.407,18.153,7.475,26.696,8.009c8.543,0.533,10.679-1.602,8.543,0.533c-2.136,2.136-13.882,2.67-17.62,2.67
		c-3.738,0-0.534,2.136,8.009,4.805c8.543,2.669,9.076,3.203,4.805,3.737c-4.271,0.534-18.154-1.602-18.154-1.602
		s17.62,5.874,12.814,5.874c-4.805,0-11.746,2.136-22.958,0c-11.212-2.136-30.967-11.747-33.637-18.688
		c-2.67-6.94,1.068-49.121-6.407-69.944c-7.476-20.823-16.552-60.868-18.154-64.605c-1.602-3.737-3.738-11.746-3.738-11.746
		s-17.62,2.135-24.027-0.534c-6.407-2.669-4.805,4.806-9.077,10.145c-4.271,5.339-22.959,42.715-19.755,68.877
		c3.203,26.162,6.942,50.188,9.077,58.732c2.135,8.543-4.271,24.027-16.018,25.628c-11.747,1.602-28.832-0.534-40.044,0
		c-11.212,0.534-17.62,3.203-16.018,1.068c1.602-2.135,11.746-5.873,11.746-5.873s-14.415,1.068-13.348-0.534
		c1.068-1.602,5.873-4.805,5.873-4.805s-10.145,0-8.543-1.068c1.602-1.068,4.271-4.805,20.823-7.475s33.637,2.669,27.23-14.95
		c-6.407-17.62-29.9-57.13-28.832-80.089c1.068-22.959,3.738-44.849,21.357-71.546c-10.145-12.814-12.28-12.281-12.28-12.281
		s-10.679,11.746-15.484,16.018c0,0,1.602-16.552,3.203-22.425c-13.882,16.018-18.687,21.357-18.687,21.357
		s10.678-18.154,9.611-24.561c-12.28,13.348-21.357,14.416-21.357,14.416s14.95-18.154,14.95-20.823
		c-1.602-2.669-14.95-6.94-12.814-6.94c2.136,0,18.154-3.204,19.756-3.204c1.602,0,5.339-7.475,5.339-7.475
		s6.408-68.878,13.883-92.37s11.746-44.315,7.475-56.596c-4.271-12.281-8.009-25.095-10.678-28.832
		C309.967,79.31,300.356,68.631,300.356,68.631z"/>
	<path style="fill:#ED7342;" d="M302.422,70.289c1.137,2.079,19.383,21.888,32.952,18.658c13.569-3.23,46.138-14.978,57.35-17.113
		c11.212-2.135,14.95-5.874,14.95-5.874s-20.937-7.43-32.093-4.248c-11.155,3.182-33.581,10.124-42.123,11.191
		C324.916,73.97,302.422,70.289,302.422,70.289z"/>
	<path style="fill:#FFFFFF;" d="M308.899,77.173c4.805,2.137,18.688,12.816,27.23,10.146c8.542-2.67,66.206-17.085,71.546-19.221
		c5.34-2.137,5.34,1.067-5.873,13.348c-11.212,12.281-6.94,36.306,4.805,59.799s36.306,97.71,32.569,111.591
		c-0.533,6.407-3.204,8.009-6.407,9.611c-3.204,1.602-9.611,3.203-9.611,3.203s21.357,4.271,19.221,10.678
		c-2.135,6.407-19.755,17.62-26.162,21.357c-4.805,3.738,25.628-5.34,25.628-5.34s-10.145,9.077-16.552,12.814
		c-6.407,3.738-4.805,16.018-16.018,21.357c-11.212,5.34-26.163-0.534-35.773-3.738c-9.611-3.204-27.229-3.202-43.781-16.017
		s-40.044-57.132-21.357-101.447c18.687-44.315,0-2.135,0-2.135s4.805-30.432,9.611-42.18c4.805-11.747,7.475-35.774,2.669-56.597
		C315.839,83.58,308.899,77.173,308.899,77.173z"/>
	<path style="fill:#94C85C;" d="M109.744,43.002c3.738-8.009,20.29-34.706,24.561-33.637c4.271,1.068,10.678,13.883,13.882,15.484
		c3.204,1.602,15.484-1.07,17.086-0.535c1.602,0.535,6.941-2.135,10.678-6.941c3.738-4.805,12.814-9.609,15.484-5.339
		c2.67,4.27,5.874,18.153,5.874,18.153s30.434,10.144,38.976,17.62c8.543,7.475,12.814,11.211,8.543,11.746
		c-4.271,0.535-30.968,7.475-30.968,7.475s20.29,10.677,16.552,14.949c-3.738,4.272-5.873,4.805-5.873,4.805
		s-34.706,27.764-26.697,52.859c21.892,16.018,60.333,35.241,66.207,37.376c5.874,2.135,8.009,2.669,13.348,2.135
		s44.85-3.737,51.257-9.611c6.407-5.874,20.289-24.028,31.501-23.493c-6.407,8.009-5.339,13.883-5.339,13.883
		s24.026,1.603,32.569-5.339c-9.077,10.678-15.483,13.881-18.153,14.949c11.746,2.67,19.221,3.737,24.027,1.602
		c-5.874,5.874-24.027,10.677-26.697,10.144c18.688,6.942,22.426,6.942,18.688,6.942c-3.738,0-22.958,6.94-44.85,0.533
		c-17.086,5.874-54.46,21.356-75.818,19.755c-21.357-1.602-38.977-5.339-38.977-5.339s-0.534,14.949,1.602,24.56
		c2.136,9.611-10.145,65.14-18.154,72.081c7.476,19.221,30.968,67.274,30.434,77.953c-0.533,10.679-10.144,25.628-16.018,35.239
		c-5.873,9.611-22.425,27.764-21.891,32.57c0.534,4.805-1.068,9.077,10.678,7.475c11.747-1.602,38.443-1.068,49.122,13.348
		c3.204,2.669,4.271,9.076,4.271,9.076l-8.009-2.669c0,0,7.475,5.873,4.272,6.407c-3.204,0.534-18.154-5.873-29.366-3.203
		c-11.212,2.669-42.714,12.281-54.46-1.068c-11.747-13.348-5.873-13.883-3.204-25.095c2.669-11.212,19.221-64.605,16.018-70.478
		c-3.204-5.873-36.308-43.247-42.18-43.781c-5.873-0.534-24.561,4.805-28.832,2.669c-4.271-2.136-28.298,37.908-48.588,47.519
		c-4.271,6.941-4.271,12.814-2.669,21.357c1.602,8.543,12.28,61.935,12.814,69.944c0.534,8.009-1.068,19.755-12.814,24.027
		c-11.747,4.272-25.628,1.602-37.375,2.136c-11.746,0.534-20.823,4.271-20.823,4.271l2.67-7.475
		c-2.67-2.136,6.407-7.475,6.407-7.475s1.602-6.407,2.135-8.009c0.534-1.602,0-3.204,4.805-4.272
		c4.805-1.068,24.028-4.805,26.697-9.611c2.669-4.805-1.068-6.94-3.738-13.348c-2.669-6.407-27.764-44.316-26.163-72.08
		c1.602-27.764,21.357-62.47,22.425-65.14c1.068-2.669-23.492-51.79-27.23-58.197c-3.737-6.407-1.068-13.881,2.136-19.221
		c3.204-5.34,6.941-33.639,8.543-38.978c1.602-5.339,16.551-59.264,19.755-69.943c3.204-10.679,7.475-14.951,10.679-19.756
		c3.203-4.805,7.475-20.288,17.62-37.374C87.319,59.554,99.066,47.808,99.6,46.206C100.133,44.604,109.744,43.002,109.744,43.002z"
		/>
	<path style="fill:#ED7342;" d="M151.887,82.235c7.512-2.392,53.43-15.741,59.303-14.673c5.874,1.068,23.305,10.951,18.861,14.019
		c-4.445,3.067-15.701,4.417-26.091,3.476c-10.39-0.942-58.976,1.194-58.976,1.194L151.887,82.235z"/>
	<path style="fill:#FFFFFF;" d="M144.983,86.251c5.873,0,25.095-2.137,41.646-2.67c16.551-0.533,37.909,3.204,37.909,3.204
		s-29.9,30.969-28.299,45.385c1.602,14.416,3.203,26.162,10.678,38.976c7.475,12.814,19.756,42.181,18.154,72.614
		c-1.602,30.434-10.144,49.655-22.425,64.071c-12.281,14.416-32.036,11.747-34.172,12.814c-2.136,1.068-18.153,9.61-25.094,11.746
		c-6.941,2.136-17.086,5.874-23.493,1.068c-6.407-4.805-16.017-14.416-19.755-24.561c-3.738-10.145-0.534-13.882-0.534-13.882
		s11.747,17.085,24.561,18.153c-11.747-10.678-15.484-33.102-10.145-30.967c5.34,2.135,19.221,7.475,19.221,7.475
		s-2.669-8.008-11.747-15.484c-9.076-7.476-17.62-10.679-18.687-15.484c-1.068-4.805-3.203-30.435-2.669-38.977
		c0.533-8.542,0-13.881,0.533-17.085c0.534-3.204,28.833-44.85,36.308-68.343s-6.941-34.171-7.475-41.646
		C128.965,85.182,144.983,86.251,144.983,86.251z"/>
	<g>
		<path style="fill:#595959;" d="M194.299,32.754c-6.068-3.061-12.992-4.471-19.549-5.087c-6.566-0.637-12.871-0.771-18.07-1.805
			c-5.197-1.049-4.353-2.174-1.497-2.897c2.86-0.73,7.751-1.273,11.013-1.007c3.249,0.28,7.849,0.64,12.8,1.411
			c4.948,0.754,10.21,2.032,14.651,3.606c1.113,0.383,3.031,1.084,5.491,2.144c2.516,1.107,5.261,2.426,8.614,3.81
			c6.604,2.825,15.083,5.786,23.169,10.143c4.026,2.182,7.903,4.78,11.211,7.736c1.656,1.474,3.17,3.025,4.523,4.599l0.501,0.591
			l0.248,0.292l0.199,0.269l0.05,0.075c0.108,0.164,0.288,0.516,0.369,0.762c0.415,1.486,0.156,2.34-0.271,3.341
			c-0.256,0.485-0.569,1.035-1.376,1.572c-0.235,0.135-0.446,0.25-0.734,0.34c-0.288,0.092-0.655,0.144-0.612,0.136l-0.342,0.045
			l-1.339,0.18c-7.002,0.934-12.265,1.811-14.181,2.137c-3.82,0.654-20.814,3.205-38.065,8.211
			c-8.954,2.592-18.256,3.332-25.427,5.75c-1.798,0.582-3.466,1.244-4.981,1.966c-0.119,0.052-0.558,0.285-0.87,0.357l-0.616,0.202
			l-1.188,0.397l-2.245,0.776c-2.866,1.014-5.203,1.92-6.833,2.625c-6.501,2.819-11.223,3.914-13.245,4.192
			c-0.433,0-0.91,0.162-0.947,0.238c-0.055,0.028-0.13-0.052-0.443-0.238c-0.155-0.102-0.359-0.211-0.466-0.393
			c-0.122-0.188-0.103-0.468,0.023-0.737c0.27-0.569,0.88-1.118,1.589-1.586c2.913-1.954,10.527-4.918,17.961-7.454l2.766-0.929
			l2.595-0.839l1.163-0.53l1.252-0.526c0.824-0.328,1.619-0.626,2.376-0.881c3.028-1.031,5.383-1.552,6.349-1.785
			c0.967-0.239,4.316-0.823,8.858-1.487c2.271-0.344,4.838-0.739,7.551-1.27l2.037-0.424l2.105-0.546l4.347-1.082
			c11.757-2.842,24.297-4.88,28.744-5.911c2.224-0.516,5.505-1.161,9.346-1.782c1.92-0.314,3.978-0.629,6.115-0.926l3.253-0.443
			l1.652-0.213l0.781-0.105c0.064,0.003,0.216-0.136,0.312-0.318c0.219-0.344,0.245-0.945,0.139-1.15
			c-0.279-0.382-0.688-0.839-1.025-1.253c-0.724-0.835-1.474-1.642-2.237-2.418c-1.535-1.542-3.146-2.936-4.74-4.159
			c-3.197-2.447-6.292-4.247-8.591-5.448c-4.59-2.482-12.081-4.733-18.977-6.803c-3.449-1.051-6.751-2.11-9.467-3.146
			C197.452,34.052,195.448,33.325,194.299,32.754z"/>
		<path style="fill:#595959;" d="M182.568,82.409l-6.063-0.095c-2.805-0.066-8.219-0.144-13.306-0.092
			c-5.088,0.031-9.845,0.206-11.312,0.014c-3.984-0.58-9.8,0.596-8.83,4.228c0.781,2.953,6.42,2.226,8.974,1.067
			c0.832-0.399,5.385-1.183,10.454-1.73c5.065-0.566,10.634-0.901,13.368-1.082c2.88-0.196,5.608-0.25,7.461-0.122
			c1.356,0.064,10.066,0.329,20.645,0.462c5.222-0.078,10.904,0.746,16.508,0.798c2.796,0.02,5.576-0.067,8.24-0.77l0.496-0.146
			c0.197-0.059,0.393-0.131,0.584-0.202c0.384-0.142,0.756-0.305,1.108-0.491c0.708-0.369,1.334-0.83,1.842-1.364
			c0.456-0.549,1.006-1.119,0.926-1.852c-0.076-0.685-0.401-1.281-0.777-1.852c-0.72-1.081-1.89-2.162-2.523-2.741
			c-0.738-0.668-1.457-1.261-2.146-1.802c-1.378-1.084-2.64-1.965-3.772-2.722c-2.269-1.508-4.024-2.507-5.379-3.255
			c-2.726-1.472-3.829-1.979-4.9-2.49c-2.204-1.023-4.324-0.278-4.816,0.796c-0.495,1.11,0.339,2.307,3.699,3.105
			c1.638,0.422,2.863,0.74,5.403,1.913c1.265,0.596,2.859,1.417,4.915,2.706c1.025,0.646,2.167,1.409,3.404,2.346
			c0.617,0.468,1.258,0.979,1.902,1.544l0.781,0.716c0.196,0.192,0.391,0.397,0.576,0.623c0.192,0.241,0.399,0.502,0.481,0.824
			c0.085,0.347-0.258,0.594-0.461,0.839c-0.25,0.235-0.543,0.43-0.863,0.588c-0.159,0.081-0.325,0.152-0.495,0.218l-0.256,0.089
			l-0.392,0.122c-2.192,0.619-4.823,0.765-7.495,0.762c-5.368,0.012-11.107-0.781-16.534-0.679L182.568,82.409z"/>
		<path style="fill:#595959;" d="M120.291,21.995l-2.549,3.764c-1.201,1.725-3.439,5.095-5.507,8.289
			c-2.079,3.185-3.988,6.218-4.891,7c-1.228,1.045-2.213,2.687-2.224,4.314c-0.02,1.633,0.982,3.146,3.513,3.804
			c2.067,0.549,3.409-0.025,4.251-1.029c0.837-1.006,1.182-2.486,1.01-3.638c-0.124-0.748,0.924-3.989,2.364-7.482
			c1.423-3.498,3.214-7.22,4.076-9.06c0.903-1.943,1.915-3.69,2.806-4.736l3.033-4.028c0.822-1.059,1.789-2.273,2.913-3.502
			c0.561-0.61,1.163-1.229,1.803-1.78c0.348-0.297,0.549-0.455,0.926-0.643c0.383-0.203,0.776-0.388,1.175-0.543
			c1.609-0.641,3.276-0.698,4.706,0.139c1.451,0.817,2.664,2.362,3.66,3.994c1.986,3.324,3.347,7,4.57,9.983
			c2.321,5.93,4.027,9.356,5.4,11.408c1.377,2.056,2.144,2.828,2.888,3.559c0.783,0.737,1.881,0.889,2.726,0.565
			c0.858-0.311,1.444-1.051,1.712-1.819c0.274-0.776,0.287-1.575,0.155-2.154c-0.153-0.597-0.412-0.912-1.323-1.214
			c-0.886-0.339-1.643-0.701-2.881-2.138c-1.244-1.456-2.863-4.144-5.231-9.658c-1.317-2.927-2.73-6.6-5.028-10.341
			c-1.183-1.832-2.616-3.801-4.958-5.135c-1.16-0.654-2.561-1.039-3.91-1.037c-1.353-0.008-2.601,0.314-3.688,0.749
			c-0.546,0.218-1.057,0.466-1.541,0.732c-0.511,0.242-1.169,0.746-1.522,1.075c-0.806,0.712-1.471,1.422-2.091,2.113
			c-1.227,1.384-2.239,2.695-3.104,3.851C121.81,19.709,120.69,21.407,120.291,21.995z"/>
		<path style="fill:#595959;" d="M178.935,12.334l-2.125,1.674c-0.989,0.765-2.787,2.347-4.391,3.955
			c-1.621,1.588-3.067,3.213-3.819,3.548c-2.094,0.851-2.946,3.914,2.045,5.591c4.014,1.397,4.81-0.139,4.232-1.675
			c-0.21-0.488,0.292-2.251,1.203-4.103c0.886-1.855,2.172-3.735,2.815-4.661c0.666-0.985,1.463-1.777,2.149-2.102
			c0.253-0.114,1.082-0.705,2.353-1.37c0.634-0.328,1.382-0.671,2.206-0.92c0.838-0.252,1.707-0.389,2.484-0.283
			c1.651,0.271,2.855,1.786,3.292,3.77c0.459,1.974,0.432,4.156,0.461,5.971c-0.011,3.596,0.246,5.911,0.656,7.385
			c0.406,1.482,0.71,2.11,0.985,2.7c0.304,0.604,1.022,0.793,1.718,0.597c0.702-0.184,1.391-0.74,1.908-1.362
			c0.523-0.626,0.918-1.322,1.122-1.802c0.198-0.5,0.244-0.734-0.228-0.838c-0.463-0.133-0.872-0.296-1.338-1.095
			c-0.464-0.821-0.902-2.367-1.089-5.733c-0.142-1.8-0.145-4.073-0.814-6.689c-0.349-1.292-0.946-2.723-2.019-3.912
			c-0.552-0.612-1.19-1.125-1.89-1.521c-0.693-0.407-1.438-0.705-2.219-0.765c-0.748-0.097-1.589-0.055-2.243,0.047
			c-0.662,0.099-1.267,0.258-1.822,0.443c-1.112,0.371-2.035,0.83-2.806,1.265C180.225,11.32,179.276,12.079,178.935,12.334z"/>
		<path style="fill:#595959;" d="M102.515,47.429c-2.61,2.177-7.503,8.47-10.617,10.629c-3.184,2.129-7.106,6.65-8.466,8.411
			c-1.373,1.747-3.085,5.174-4.991,9.903c-0.929,2.326-1.136,3.338-1.633,4.324c-0.464,0.978-1.117,1.857-2.486,4.061
			c-2.777,4.411-4.445,13.593-5.425,9.881c-0.913-3.496-0.002-7.217,1.299-10.38c1.289-3.178,2.973-5.734,3.314-7.271
			c0.753-3.113,2.623-4.66,4.629-8.858c2.09-4.183,2.972-6.485,5.448-10.508c2.533-4.014,6.413-4.552,9.062-8.344
			c2.677-3.781-0.003-0.025,5.39-6.429C103.363,36.489,110.653,40.545,102.515,47.429z"/>
		<path style="fill:#595959;" d="M67.003,105.179c-2.052,5.781-2.983,3.785-4.516,9.8c-0.832,3.01-0.517,3.177-0.32,3.26
			c0.174,0.077,0.211,0.097-1.528,2.762c-1.792,2.654-3.165,2.536-3.792,1.42c-0.638-1.126-0.651-3.219,0.134-4.893
			c0.787-1.683,1.004-2.199,1.408-3.141c0.399-0.945,0.998-2.309,2.305-5.822C63.24,101.532,68.947,99.403,67.003,105.179z"/>
		<path style="fill:#595959;" d="M217.366,90.016c3.771-1.976,6.55-5.586,9.569-6.709c2.971-1.086,1.272,3.377-0.222,4.433
			c-1.546,1.062-4.247,3.078-6.249,4.763c-1.008,0.826-4.923,4.176-8.251,8.003c-3.387,3.779-6.057,8.026-6.6,8.987
			c-0.575,0.935-3.232,5.104-4.916,9.961c-0.863,2.412-1.484,4.966-1.779,7.164c-0.298,2.199-0.27,4.028-0.086,5.004
			c0.362,1.949-0.04,3.204-0.635,3.979c-0.574,0.768-1.457,1.012-1.857,0.008c-0.406-0.976-0.72-3.487-0.607-5.861
			c0.081-2.379,0.491-4.615,0.604-5.192c0.102-0.584,1.129-3.901,2.679-7.142c1.504-3.269,3.48-6.442,4-7.688
			c0.5-1.259,1.844-3.493,3.429-5.608c1.576-2.124,3.369-4.128,4.392-5.268c1.01-1.148,2.206-3.182,3.416-5.01
			C215.458,92.01,216.65,90.38,217.366,90.016z"/>
		<path style="fill:#595959;" d="M203.421,136.441c-1.377-0.829-3.869-0.095-5.946,2.442c-2.075,2.476-3.561,6.941-2.526,11.863
			c0.491,2.442,1.348,5.969,2.766,9.867c1.402,3.904,3.378,8.15,5.652,12.199c1.134,2.029,2.34,4.009,3.558,5.904
			c1.182,1.81,2.234,3.532,3.229,5.248l4.93,8.757c2.635,4.467,4.97,10.889,6.485,17.157c1.553,6.269,2.25,12.353,2.602,16.16
			c0.185,1.907,0.368,4.618,0.312,7.863c-0.03,1.62-0.124,3.376-0.327,5.214l-0.69,6.027c-0.972,8.4-2.21,17.976-4.423,26.725
			c-2.242,8.758-4.422,13.545-6.688,18.574l-1.838,3.851c-0.683,1.29-1.46,2.673-2.347,4.139c-1.797,2.917-4.07,6.294-7.809,9.883
			c-3.772,3.554-7.103,5.673-9.358,7.174c-2.274,1.487-3.537,2.316-3.72,2.722c-0.192,0.387,0.68,0.322,2.508-0.332
			c1.816-0.666,4.615-1.924,7.981-4.277c3.352-2.375,5.679-4.718,7.483-6.878c1.803-2.171,3.104-4.169,4.308-6.188
			c1.177-2.034,2.325-4.055,3.519-6.564l4.243-8.822c3.398-7.149,5.998-14.786,7.477-22.111c1.509-7.319,2.171-14.202,2.589-20.079
			c0.204-2.903,0.515-6.113,0.471-9.345c-0.013-3.23-0.216-6.506-0.567-9.719c-0.694-6.426-1.965-12.595-3.379-17.687
			c-1.4-5.093-3.386-11.744-5.648-17.638c-2.207-5.888-4.79-11.067-6.173-13.304c-1.316-2.204-4.049-7.285-5.878-11.973
			c-1.891-4.675-2.815-8.904-2.806-8.9c0.003,0.001-0.502-3.717-0.472-7.759C202.9,142.576,203.602,138.269,203.421,136.441z"/>
		<path style="fill:#595959;" d="M46.11,323.035c0.523-0.632,1.083-1.223,1.664-1.789c-0.329-0.656-0.664-1.338-1.016-2.083
			c-0.804-1.699-1.625-3.586-2.472-5.626c-0.888-2.047-1.638-4.225-2.851-6.594c-2.167-4.347-4.296-9.232-6.518-14.255
			c-2.218-5.026-4.532-10.197-6.969-15.197c-1.219-2.5-2.465-4.957-3.735-7.336c-1.257-2.325-2.324-4.611-3.084-6.917
			c-0.754-2.284-1.664-5.742-1.285-10.027c0.314-4.294,2.19-9.259,4.205-14.868c0.996-2.811,1.983-5.8,2.807-8.943
			c0.826-3.169,1.465-6.366,2.182-9.643l4.111-19.93c1.412-6.603,3.041-13.054,4.738-19.035l4.876-16.515
			c2.889-9.811,4.932-16.798,5.536-18.482c2.411-6.736,1.093-5.057,3.822-9.589c2.231-3.714,2.765-7.443,3.699-12.404
			c0.578-3.077-2.123-1.929-3.903-0.399c-3.965,3.405-7.687,6.916-8.298,13.754c-0.393,4.494-3.8,16.156-4.859,22.015
			c-0.263,1.466-1.857,7.713-4.174,16.323c-2.416,8.641-4.967,19.9-6.961,31.094c-1.031,5.588-2.067,11.133-3.139,16.349
			c-0.983,5.237-2.31,9.852-3.735,13.986c-1.405,4.104-2.701,7.715-3.391,10.577c-0.714,2.856-0.869,4.873-0.922,5.505
			c-0.102,1.251-0.26,4.549,0.783,8.572c0.507,2.004,1.287,4.156,2.281,6.314c0.496,1.078,1.043,2.161,1.63,3.233l1.683,3.143
			c4.441,8.468,8.297,17.463,9.482,20.182c1.154,2.695,4.202,9.267,7.631,15.763c1.52,3.363,3.031,6.869,4.585,9.889
			C45.045,321.154,45.58,322.118,46.11,323.035z"/>
		<path style="fill:#595959;" d="M27.922,414.62c-0.566-1.329-1.081-2.698-1.505-4.047c-0.621-1.89-1.602-5.591-1.865-9.113
			c-0.314-3.521,0.038-6.811,0.418-7.777c0.982-2.609,1.233-6.554-2.49-6.861c-3.071-0.249-3.684,4.27-2.778,6.382
			c0.275,0.682,0.463,4.259,1.255,8.076c0.744,3.833,2.191,7.779,3.031,9.629c0.871,1.966,1.707,3.788,2.155,5.084
			c0.322,0.963,2.86,6.831,6.695,13.604c3.871,6.743,9.036,14.187,12.119,19.683l1.071,1.922c0.351,0.601,0.572,1.178,1.041,1.827
			c0.642,0.957,1.154,1.919,1.603,2.761l2.039,4.007c1.015,2.002,1.436,2.809,1.889,3.599c0.465,0.796,1.251,1.316,2.063,1.438
			c0.821,0.139,1.464-0.285,1.764-0.782c0.314-0.501,0.374-1.059,0.408-1.481c0.082-0.377-0.21-0.854-1.072-1.705
			c-0.831-0.832-1.455-1.524-2.576-3.268c-0.565-0.874-1.239-2.028-2.193-3.627c-0.479-0.787-1.046-1.738-1.782-2.727l-1.955-3.317
			c-3.262-5.515-8.477-12.882-12.353-19.5C31.07,421.8,28.428,415.84,27.922,414.62z"/>
		<path style="fill:#595959;" d="M105.755,355.812l2.734-2.823c1.283-1.289,3.723-3.807,5.981-6.227
			c2.267-2.406,4.328-4.752,5.156-5.334c2.302-1.503,4.115-5.268,0.653-6.784c-2.759-1.24-4.541,1.607-4.812,3.515
			c-0.057,0.624-1.505,3.194-3.358,5.907c-1.839,2.717-4.041,5.569-5.102,6.986c-1.118,1.495-2.269,2.828-3.172,3.618l-9.49,9.335
			c-4.852,4.785-10.657,10.26-14.999,13.764c-1.061,0.869-2.022,1.627-2.892,2.287l-0.633,0.482c-0.243,0.188-0.26,0.189-0.53,0.352
			l-1.205,0.752c-0.752,0.486-1.408,0.95-1.983,1.438c-0.571,0.484-1.078,1.067-1.394,1.574c-0.59,0.982-0.821,1.273-1.155,1.631
			c-0.304,0.322-0.565,0.54-0.817,0.754c-1.026,0.851-1.06,2.481-0.421,3.48c0.621,0.96,2.006,1.362,3.553-0.915
			c0.36-0.565,0.669-1.092,0.999-1.752c0.351-0.67,0.604-1.475,0.852-1.893c0.276-0.493,1.068-1.233,2.322-2.123l1.066-0.727
			c0.304-0.211,0.461-0.369,0.653-0.519l0.59-0.485l2.716-2.292c4.313-3.667,10.089-9.23,14.935-14.104
			C100.872,360.871,104.924,356.709,105.755,355.812z"/>
		<path style="fill:#595959;" d="M71.592,418.861l-0.936-3.767c-0.4-1.727-1.24-5.031-1.552-8.067
			c-0.371-3.062,0.081-5.683,0.588-6.279c0.63-0.895,1.081-1.727,1.146-2.598c0.03-0.866-0.174-2.062-1.552-3.333
			c-1.108-1.026-2.621-0.68-3.662,0.576c-1.049,1.233-1.369,3.085-1.083,4.166c0.077,0.363,0.059,1.422,0.178,2.787
			c0.113,1.369,0.389,3.03,0.801,4.688c0.817,3.322,2.084,6.667,2.709,8.3c0.67,1.715,1.206,3.363,1.36,4.51
			c0.091,0.377,0.265,1.983,0.735,4.289c0.452,2.307,1.169,5.305,2.05,8.553c1.768,6.494,4.061,14.009,5.263,19.362
			c1.213,5.258,1.581,8.294,1.768,10.172c0.171,1.88,0.146,2.613,0.142,3.325c-0.068,2.82,5.336,4.079,3.996-0.655
			c-0.35-1.126-0.622-1.943-1.036-3.771c-0.429-1.821-0.978-4.666-2.277-9.711c-1.36-5.392-3.735-12.883-5.56-19.334
			c-0.912-3.228-1.655-6.208-2.14-8.533C72.046,421.251,71.791,419.488,71.592,418.861z"/>
		<path style="fill:#595959;" d="M135.005,337.406c-0.839,0.042-1.691,0.045-2.52,0.017c-2.336-0.027-9.001-0.629-10.127-1.439
			c-1.532-1.029-3.924-0.931-4.114,2.797c-0.153,3.052,2.382,3.326,3.603,2.465c0.807-0.509,8.073-0.946,10.403-1.417
			c1.232-0.203,2.391-0.331,3.19-0.264c0.292,0.02,1.371,0.005,2.946-0.111c1.568-0.14,3.652-0.305,5.924-0.937
			c2.259-0.615,4.632-1.753,6.563-3.293c1.949-1.516,3.48-3.298,4.65-4.78c2.27-2.95,3.4-4.672,4.201-5.677
			c0.78-1.015,1.13-1.367,1.462-1.722c1.33-1.395-2.416-5.275-3.442-2.123c-0.236,0.759-0.396,1.322-0.952,2.422
			c-0.568,1.084-1.47,2.778-3.399,5.491c-1.041,1.43-2.389,3.071-4.058,4.425c-1.654,1.375-3.665,2.389-5.675,2.973
			c-1.99,0.593-4.014,0.793-5.573,0.959C136.522,337.332,135.396,337.391,135.005,337.406z"/>
		<path style="fill:#595959;" d="M214.153,308.486c2.511,5.724,4.294,11.452,6.129,16.276c0.921,2.421,1.876,4.636,2.884,6.626
			c0.933,1.882,2.184,3.842,3.119,5.589c3.893,6.965,7.08,12.899,8.759,18.202c0.879,2.612,2.655,7.251,3.614,12.301
			c0.492,2.533,0.827,5.059,1.01,7.429c0.188,2.374,0.156,4.605-0.053,6.355c-0.382,3.465-0.878,8.082-2.38,12.483
			c-1.456,4.394-3.468,8.425-5.701,11.453l-7.454,10.305c-2.544,3.513-4.906,6.881-6.518,9.476
			c-3.188,5.17-6.413,6.735-9.188,11.944c-1.355,2.579-3.25,6.08-4.145,8.659c-0.464,1.286-0.663,2.282-0.7,2.79
			c-0.05,0.532-0.002,0.607-0.015,0.626c0.009-0.016-0.523-0.005-0.978-0.508c-0.454-0.482-0.749-1.586-0.129-3.014
			c0.592-1.403,1.301-3.613,2.073-5.661c0.763-2.044,1.53-3.901,1.966-4.552c0.431-0.654,2.212-3.252,4.464-6.193
			c2.242-2.944,4.923-6.244,6.833-8.43c1.908-2.188,3.917-5.191,5.76-8.325c1.855-3.106,3.483-6.459,4.715-8.982
			c2.518-5.181,0.178-6.452,3.22-9.817c2.96-3.477,3.823-5.569,4.395-8.276c0.264-1.364,0.835-2.673,1.126-4.201
			c0.286-1.519,0.286-3.25-0.635-5.201c-0.915-1.944-2.137-5.231-3.278-8.112c-1.131-2.903-2.213-5.439-2.118-6.626
			c0.1-1.185-0.184-3.01-0.724-4.687c-0.531-1.68-1.291-3.206-1.855-3.878c-0.569-0.676-2.377-2.268-4.265-3.994
			c-1.881-1.735-3.836-3.653-4.486-5.288l-2.511-6.273c-0.931-2.467-1.391-4.661-1.309-5.739c0.21-2.134,1.183-2.224,0.346-5.734
			c-0.822-3.513,0.59,0.479-2.779-8.997c-1.771-4.728-2.903-7.422-3.436-9.184c-0.552-1.755-0.535-2.572-0.509-3.402
			c0.023-0.827,0.389-1.344,1.197-0.837C211.395,303.59,212.682,305.137,214.153,308.486z"/>
		<path style="fill:#595959;" d="M164.95,348.504c-0.869-0.785-1.74-1.592-2.576-2.393c-1.174-1.129-3.46-3.286-5.656-5.292
			c-2.182-2.016-4.321-3.849-4.848-4.613c-1.351-2.127-4.873-3.654-6.28-0.148c-1.156,2.795,1.367,4.273,3.129,4.397
			c0.574,0.008,2.913,1.216,5.388,2.809c2.479,1.577,5.091,3.483,6.392,4.395c1.373,0.962,2.598,1.96,3.322,2.759
			c0.522,0.561,4.226,4.079,8.776,8.101c2.212,2.055,4.459,4.438,6.4,6.902c1.946,2.458,3.6,4.98,4.91,7.109
			c5.052,8.464,5.535,9.84,6.117,11.032c1.154,2.458,6.327,0.77,3.327-2.302c-1.476-1.499-2.1-2.17-7.193-10.166
			c-1.389-2.121-3.138-4.683-5.195-7.211c-2.055-2.529-4.422-4.988-6.743-7.097C169.516,352.718,165.799,349.251,164.95,348.504z"/>
		<path style="fill:#595959;" d="M180.005,440.095c1.026-3.133,1.999-6.326,2.882-9.446c1.274-4.357,3.428-12.975,4.923-20.962
			c2.007-7.88,3.566-15.456,4.307-17.643c2.002-6.018,3.187-15.288-0.584-15.282c-3.099,0.005-4.68,9.331-4.513,13.757
			c0.045,1.46-0.856,8.915-2.362,17.059c-0.214,1.032-0.373,2.09-0.504,3.154l-0.453,3.1c-0.313,2.049-0.649,4.06-0.995,5.947
			c-0.679,3.778-1.39,7.061-1.866,9.22c-0.986,4.586-2.26,8.717-3.263,11.668c-0.229,1.045-1.528,4.846-3.566,10.469
			c-0.961,2.828-2.102,6.128-2.678,9.978c-0.264,1.921-0.396,4.011,0.096,6.172c0.573,2.17,1.564,4.076,2.874,5.932
			c2.629,3.701,6.811,6.314,11.237,7.698c4.449,1.419,9.138,1.858,13.662,1.857c9.072-0.003,17.626-1.83,24.475-3.324
			c6.799-1.481,12.073-2.461,16.259-2.429c2.089-0.005,3.872,0.19,5.424,0.483c0.83,0.171,1.516,0.268,2.144,0.454
			c0.638,0.174,1.231,0.373,1.782,0.572c4.398,1.73,6.159,2.719,7.966,3.38c1.826,0.717,3.699,0.848,5.051,0.508
			c1.369-0.338,2.12-1.076,2.207-1.666c0.092-0.611-0.364-1.071-1.308-1.426c-0.961-0.364-2.483-0.695-5.189-1.431
			c-1.31-0.358-2.471-0.732-3.867-1.208c-1.408-0.461-3.013-1.099-5.467-1.722c-0.599-0.147-1.326-0.299-2.008-0.386
			c-0.66-0.102-1.397-0.228-2.223-0.308c-1.626-0.178-3.481-0.24-5.584-0.133c-4.219,0.177-9.362,1.251-15.742,2.7
			c-3.481,0.723-7.172,1.671-11.195,2.287c-4.005,0.649-8.275,1.117-12.629,1.156c-4.341,0.03-8.798-0.368-12.91-1.644
			c-4.104-1.253-7.793-3.543-10.126-6.764c-0.588-0.796-1.097-1.639-1.531-2.512c-0.417-0.865-0.837-1.798-1.01-2.593
			c-0.409-1.725-0.324-3.604-0.075-5.39c0.529-3.599,1.647-6.912,2.622-9.792c0.997-2.886,1.913-5.372,2.549-7.371
			c0.321-1,0.581-1.872,0.767-2.605C179.78,440.788,179.85,440.532,180.005,440.095z"/>
		<path style="fill:#595959;" d="M234.24,467.316l-2.944,0.247l-6.363,0.694c-2.411,0.253-4.629,0.3-5.292,0.145
			c-1.815-0.328-4.309-0.422-4.409,1.42c-0.07,1.578,3.034,1.811,4.343,1.226c0.44-0.158,2.736-0.477,5.176-0.981l6.373-1.272
			c1.364-0.266,2.667-0.418,3.557-0.418c0.639,0.008,4.854-0.285,9.794,0.777c4.958,0.979,10.373,3.525,14.156,5.339
			c7.475,3.566,8.621,3.922,9.618,4.416c2.095,0.909,3.936-1.25,0.526-1.958c-1.645-0.413-2.46-0.427-9.581-3.669
			c-3.786-1.732-9.291-4.29-14.458-5.286C239.595,466.922,235.144,467.256,234.24,467.316z"/>
		<path style="fill:#595959;" d="M233.283,459.84l-2.894-0.109c-2.679-0.177-10.314,0.005-11.691-0.189
			c-1.872-0.339-4.615,0.066-4.258,1.908c0.289,1.502,3.031,1.29,4.266,0.741c0.802-0.416,8.753-1.19,11.357-1.261
			c1.368-0.083,2.663-0.08,3.539,0.014c0.636,0.081,4.779,0.236,9.69,1.118c4.922,0.829,10.512,2.662,14.152,4.539
			c3.596,1.812,5.426,3.214,6.556,4.058c1.117,0.869,1.504,1.258,1.898,1.62c1.521,1.484,4.172,0.268,1.127-1.686
			c-0.743-0.452-1.295-0.767-2.474-1.522c-1.191-0.732-2.989-1.962-6.524-3.671c-3.76-1.855-9.461-3.687-14.51-4.503
			C238.477,460.022,234.181,459.887,233.283,459.84z"/>
		<path style="fill:#595959;" d="M218.432,453.427c-1.223,0.025-2.453,0.003-3.637-0.089c-1.635-0.131-4.94-0.464-7.383-1.71
			c-1.22-0.605-2.066-1.452-2.391-2.19c-0.336-0.74-0.282-1.382-0.175-1.68c0.29-0.796,0.602-1.775,0.598-2.808
			c-0.011-1.014-0.385-2.069-1.786-2.611c-1.131-0.432-2.168,0.221-2.783,1.439c-0.64,1.186-0.72,2.974-0.261,4.047
			c0.153,0.336,0.304,1.495,1.118,2.859c0.788,1.387,2.343,2.615,3.983,3.272c3.314,1.345,6.871,1.294,8.58,1.28
			c1.811-0.047,3.497-0.138,4.646-0.08c0.841,0.149,6.235-0.308,12.671-0.359c3.223-0.016,6.723,0.11,10.022,0.572
			c3.301,0.45,6.383,1.27,8.763,2.29c4.694,2.035,6.669,4.271,7.82,5.563c1.123,1.359,1.424,1.98,1.752,2.558
			c0.64,1.152,1.96,1.577,2.871,1.287c0.882-0.269,1.348-1.474-0.339-3.311c-0.832-0.851-1.442-1.469-2.833-2.758
			c-1.409-1.222-3.614-3.332-8.462-5.315c-2.582-1.041-5.841-1.854-9.269-2.286c-3.43-0.442-7.019-0.544-10.318-0.498
			c-3.301,0.044-6.319,0.214-8.653,0.34l-2.893,0.153L218.432,453.427z"/>
		<path style="fill:#595959;" d="M73.946,498.645c1.501-1.201,2.864-2.63,3.99-4.176c0.78-1.061,1.792-2.72,2.577-4.754
			c0.808-2.01,1.362-4.447,1.651-6.689l0.02-0.085c0.241-1.536,0.168-2.58,0.184-3.691l-0.018-2.949
			c0.006-1.764,0.098-3.085,0.257-3.686c0.409-1.615,0.634-3.577,0.511-4.517c-0.03-0.241-0.142-0.349-0.228-0.546
			c-0.093-0.192-0.171-0.426-0.235-0.676c-0.153-0.521-0.173-1.024-0.74-1.811c-0.468-0.665-1.33-1.106-2.311-0.745
			c-0.98,0.287-1.911,1.58-2.267,2.617c-0.784,2.151-0.493,4.21-0.02,5.465c0.169,0.439,0.386,1.857,0.689,3.724l0.469,3.086
			c0.145,1.064,0.307,2.334,0.274,3.175l-0.024,0.266c-0.042,2.087-0.311,4.087-0.798,5.848c-0.472,1.754-1.145,3.198-1.66,4.137
			c-1.152,2.17-2.866,3.855-4.201,4.715c-0.488,0.307-2.242,1.602-5.193,2.762c-2.939,1.177-7.048,2.152-11.656,2.45
			c-4.61,0.335-9.683,0.166-14.57,0.009c-4.888-0.164-9.611-0.275-13.531-0.081c-7.723,0.342-12.118,1.699-14.746,2.648
			c-2.632,1.001-3.606,1.556-4.572,2.041c-1.972,1.056-2.404,3.135-1.773,4.115c0.665,1.021,2.003,1.075,4.187-0.862
			c1.111-0.913,1.953-1.606,4.148-2.601c2.205-0.942,5.84-2.215,12.907-2.676c3.765-0.256,8.383-0.21,13.258-0.092
			c4.874,0.106,10.019,0.248,14.837-0.13c4.826-0.347,9.267-1.406,12.533-2.777C71.189,500.823,73.254,499.198,73.946,498.645z"/>
		<path style="fill:#595959;" d="M34.664,497.481l2.44-0.15c2.258-0.058,8.732-0.557,9.96-0.404
			c1.659,0.322,4.013-0.377,3.352-2.526c-0.532-1.75-2.73-1.329-3.701-0.63c-0.312,0.242-2.109,0.723-4.127,1.134
			c-2.017,0.415-4.245,0.77-5.336,0.966c-1.15,0.207-2.245,0.338-2.998,0.33c-1.075,0.037-14.118,0.634-21.035,2.611
			c-3.397,0.888-5.257,1.71-6.416,2.179l-2.04,0.893c-1.8,0.879-0.722,3.937,1.337,2.03c0.52-0.455,0.913-0.782,1.89-1.342
			c0.99-0.525,2.562-1.328,5.653-2.215C20.216,498.285,33.156,497.635,34.664,497.481z"/>
		<path style="fill:#595959;" d="M30.483,490.382c0.726-0.063,1.463-0.108,2.183-0.133c2.016-0.052,7.839-0.288,8.949-0.056
			c1.488,0.402,3.65-0.171,3.075-2.348c-0.459-1.764-2.429-1.474-3.319-0.814c-0.547,0.492-6.589,1.428-8.574,1.764
			c-1.039,0.188-2.025,0.314-2.704,0.309c-0.494,0.015-3.674,0.177-7.499,0.858c-3.822,0.634-8.251,2.21-10.908,4.187
			c-2.628,1.895-3.734,3.454-4.445,4.342l-1.193,1.651c-0.989,1.556,1.617,3.455,2.195,1.041c0.169-0.586,0.3-1.021,0.793-1.875
			c0.519-0.823,1.361-2.157,3.591-3.862c2.36-1.861,6.486-3.421,10.221-4.081C26.574,490.654,29.809,490.456,30.483,490.382z"/>
		<path style="fill:#595959;" d="M36.591,481.967c3.331-0.004,4.839,1.233,4.883,1.849c0.053,0.671-1.018,0.906-2.722,0.673
			c-3.498-0.4-7.11,0.099-11.161,1.032c-2.025,0.493-3.207,0.711-3.835,0.537c-0.626-0.177-0.695-0.74-0.33-1.607
			c0.759-1.696,1.408-2.007,4.622-2.704c1.618-0.333,3.785-0.41,5.519-0.25C35.303,481.643,36.592,481.963,36.591,481.967z"/>
		<path style="fill:#595959;" d="M18.247,485.556c1.787-0.937,2.425,0.601,1.071,1.932c-0.665,0.691-1.458,1.1-2.399,1.61
			c-0.928,0.511-2.025,1.138-3.01,2.307c-0.924,1.169-1.421,1.112-1.104-0.178C13.137,489.979,14.726,487.493,18.247,485.556z"/>
		<path style="fill:#595959;" d="M45.588,476.21l2.075-0.363c0.984-0.226,2.915-0.401,4.944-1.771
			c1.025-0.71,1.734-1.826,2.132-2.404c0.419-0.608,0.712-0.858,0.947-0.922c0.627-0.167,0.951-0.333,0.946-0.932
			c-0.023-0.583-0.334-1.621-1.538-3.047c-0.981-1.163-1.981-1.38-2.786-0.948c-0.806,0.418-1.284,1.469-1.16,2.218
			c0.032,0.239-0.124,0.878-0.243,1.543c-0.137,0.686-0.198,1.215-0.456,1.671c-0.53,1.005-2.368,1.841-3.144,2.204
			c-0.86,0.411-1.747,0.646-2.396,0.665c-0.467-0.001-3.405,0.535-6.886,1.414l-10.362,2.689c-5.596,1.33-6.421,1.161-7.192,1.189
			c-1.529-0.02-1.412,5.34,0.928,3.936c1.1-0.716,1.639-1.008,6.962-2.548c2.834-0.83,6.823-2.044,10.261-2.967
			C42.061,476.901,44.959,476.315,45.588,476.21z"/>
		<path style="fill:#595959;" d="M226.748,155.427l-3.044-1.494c-1.382-0.719-4.228-1.913-6.573-3.127
			c-2.331-1.208-4.074-2.808-4.454-3.526c-0.991-1.872-3.384-3.66-5.782-0.801c-1.973,2.351,0.566,4.697,2.442,4.901
			c0.583,0.059,3.027,1.503,5.894,2.451c2.839,0.929,5.737,1.68,7.177,2.156c1.516,0.455,2.898,1.032,3.757,1.581
			c1.305,0.635,16.657,9.475,24.691,14.685c7.953,5.065,8.964,5.942,9.96,6.729c2.017,1.591,5.837-2.271,1.924-3.559
			c-1.897-0.629-2.799-0.867-10.49-5.448C244.061,165.018,228.785,156.241,226.748,155.427z"/>
		<path style="fill:#595959;" d="M255.415,207.416c-1.986-0.069-3.993-0.216-5.934-0.444c-2.731-0.302-7.98-1.095-12.725-2.443
			c-4.761-1.298-8.963-3.127-10.104-3.95c-1.564-1.1-3.59-2.146-5.392-2.55c-1.797-0.399-3.426-0.141-4.148,1.594
			c-0.586,1.411,0.449,2.856,2.056,3.926c1.601,1.078,3.746,1.746,5.207,1.816c0.955,0.058,5.551,1.466,10.691,2.398
			c5.133,0.986,10.772,1.466,13.533,1.539c2.913,0.1,5.648,0.156,7.51,0.314c1.349,0.128,10.163,0.436,20.693-0.964
			c2.63-0.331,5.367-0.76,8.106-1.214c2.741-0.438,5.534-0.912,8.244-1.461c5.43-1.082,10.581-2.492,14.728-4.001
			c4.089-1.422,7.18-3.067,9.53-4.123c2.416-1.085,4.216-1.808,5.608-2.312c2.787-0.996,3.902-1.217,4.979-1.47
			c2.155-0.491,3.516-2.01,3.548-3.215c0.05-1.162-1.532-2.093-5.092-0.543l-5.575,2.609c-1.333,0.627-3.017,1.436-5.264,2.553
			c-2.286,1.184-4.915,2.601-8.663,3.998c-3.958,1.514-8.928,2.939-14.242,4.048c-2.659,0.563-5.385,1.051-8.13,1.509
			c-2.744,0.473-5.437,0.914-8.046,1.261C266.107,207.756,257.261,207.502,255.415,207.416z"/>
		<path style="fill:#595959;" d="M100.652,176.714c1.022-3.279,1.424-6.717,1.639-9.991c0.354-3.512,0.827-6.266,0.814-8.431
			c0.008-1.075,0.085-1.606,0.421-1.808c0.31-0.188,0.863,0.014,1.42,0.612c1.199,1.17,1.865,4.009,1.599,5.656
			c-0.105,0.835-0.269,1.808-0.43,2.828c-0.077,0.509-0.16,1.037-0.214,1.552l-0.196,1.754c-0.276,2.412-0.642,4.968-0.995,7.192
			c-0.177,1.111-0.629,3.848-1.261,7.355c-0.623,3.508-1.422,7.785-2.028,12.034c-0.648,4.28-0.985,8.4-0.908,11.815
			c0.038,3.404,0.213,6.025,0.253,6.978c0.04,0.954,0.171,3.542,0.203,7.063c0.007,1.761-0.02,3.756-0.177,5.882
			c-0.158,2.166-0.47,4.292-0.64,6.467c-0.395,4.341-0.378,8.735,0.359,12.345c0.706,3.617,1.969,6.431,2.81,7.887
			c1.695,2.9,2.381,5.156,2.306,6.504c-0.066,1.336-0.89,1.689-1.89,0.396c-0.981-1.287-3.095-4.791-4.459-8.513
			c-1.427-3.702-1.921-7.516-2.016-8.489c-0.051-0.491-0.149-2.188-0.037-4.489c0.099-2.304,0.432-5.193,0.868-8.125
			c1.07-5.805,0.961-12.046,0.679-14.266c-0.269-2.22-0.589-6.521-0.521-10.931c0.034-4.419,0.788-8.854,1.143-11.377
			C100.111,189.556,99.941,179.135,100.652,176.714z"/>
		<path style="fill:#595959;" d="M67.022,206.521c-0.229-2.734-0.299-5.519-0.201-8.225c0.072-3.811,0.799-11.147,2.116-17.975
			c1.284-6.823,2.784-13.213,3.49-15.114c0.995-2.561,1.697-5.9,1.528-8.605c-0.162-2.708-1.194-4.726-3.441-4.677
			c-1.848,0.036-2.986,2.016-3.649,4.445c-0.658,2.431-0.858,5.351-0.606,7.275c0.192,1.258-0.562,7.673-1.335,14.818
			c-0.801,7.138-1.161,15.015-0.969,18.868c0.117,4.064,0.433,7.876,0.562,10.483c0.055,0.95,0.329,4.497,1.364,9.553
			c0.521,2.525,1.226,5.423,2.143,8.547l1.474,4.821c0.478,1.643,0.907,3.358,1.3,5.128c1.557,7.075,2.386,15.064,4.013,22.594
			c0.682,3.904,2.133,7.483,3.143,10.799c1.045,3.326,1.679,6.468,1.546,9.299c-0.105,2.808-0.683,5.38-0.982,7.82
			c-0.326,2.431-0.342,4.743,0.027,6.748c0.176,1.003,0.433,1.927,0.73,2.765c0.145,0.422,0.307,0.819,0.471,1.198
			c0.197,0.423,0.163,0.381,0.293,0.841c0.41,1.42,0.821,2.601,1.2,3.618c1.552,4.056,2.38,5.561,3.164,7.06
			c0.82,1.503,2.05,2.561,3.207,3.031c1.172,0.484,2.202,0.342,2.731-0.127c0.537-0.48,0.678-1.183,0.404-2.037
			c-0.279-0.873-1.044-1.995-2.48-3.844c-1.358-1.807-2.379-3.245-3.903-6.757c-0.184-0.441-0.372-0.914-0.56-1.425l-0.278-0.793
			c-0.074-0.347-0.386-0.971-0.477-1.135c-0.506-1.045-0.955-2.279-1.187-3.778c-0.241-1.502-0.227-3.27,0.027-5.405
			c0.228-2.135,0.739-4.649,0.815-7.693c0.107-3.291-0.677-6.844-1.789-10.266c-1.093-3.462-2.496-6.832-3.148-10.416
			c-1.668-7.393-2.521-15.292-4.171-22.653c-0.419-1.835-0.873-3.629-1.388-5.36l-1.52-4.874c-0.928-3.107-1.649-5.99-2.181-8.525
			C67.438,211.473,67.139,207.796,67.022,206.521z"/>
		<path style="fill:#595959;" d="M89.793,299.938c0.049-0.319,0.112-0.641,0.189-0.954c0.247-0.871,0.716-3.458,1.19-3.922
			c0.679-0.619,0.469-1.613-2.142-1.542c-2.135,0.055-2.185,0.9-1.552,1.333c0.444,0.272,0.759,2.897,0.853,3.796
			c0.066,0.465,0.055,0.901-0.063,1.178c-0.074,0.209-0.379,1.549-0.578,3.272c-0.214,1.73-0.031,3.818,0.256,5.217
			c0.576,2.756,0.673,3.133,0.667,3.532c0.06,0.799,3.634-0.203,2.64-1.011c-0.448-0.402-0.809-0.569-1.485-2.933
			c-0.352-1.263-0.569-3.075-0.421-4.665C89.483,301.647,89.759,300.237,89.793,299.938z"/>
		<path style="fill:#595959;" d="M99.486,300.609c-0.017-0.516-0.019-1.039,0.013-1.55c0.035-1.437,0.499-5.526,1.066-6.208
			c0.726-0.928,0.659-2.407-1.949-2.583c-2.133-0.142-2.326,1.417-1.73,2.185c0.355,0.505,0.624,5.005,0.93,6.446
			c0.133,0.762,0.208,1.478,0.156,1.972c-0.037,0.357-0.009,2.671,0.41,5.449c0.391,2.782,1.294,5.979,2.125,8.146
			c1.668,4.25,2.019,4.8,2.168,5.411c0.43,1.2,3.899-0.178,2.428-1.454c-0.665-0.652-1.177-0.869-2.859-4.649
			c-0.879-2.023-1.796-5.035-2.22-7.714C99.572,303.387,99.507,301.09,99.486,300.609z"/>
		<path style="fill:#595959;" d="M93.882,306.217c-0.162-0.469-0.311-0.951-0.426-1.428c-0.362-1.331-1.091-5.237-0.762-6.043
			c0.418-1.078-0.107-2.437-2.636-1.777c-2.067,0.54-1.783,2-0.989,2.521c0.497,0.345,2.04,4.401,2.733,5.648
			c0.346,0.663,0.621,1.301,0.711,1.773c0.072,0.337,0.746,2.476,2.008,4.889c1.236,2.429,3.179,5.02,4.754,6.632
			c3.127,3.144,3.696,3.449,4.069,3.937c0.881,0.881,3.38-1.883,1.577-2.35c-0.833-0.293-1.408-0.23-4.318-2.903
			c-1.539-1.439-3.397-3.813-4.614-6.099C94.743,308.746,94.046,306.647,93.882,306.217z"/>
		<path style="fill:#595959;" d="M112.601,294.748c-0.193-0.533-0.37-1.081-0.525-1.621c-0.429-1.513-1.652-5.877-1.484-6.809
			c0.25-1.258-0.544-2.758-2.946-1.722c-1.962,0.843-1.441,2.362-0.576,2.858c0.577,0.309,2.609,4.661,3.357,6.052
			c0.393,0.732,0.706,1.442,0.814,1.966c0.089,0.378,0.862,2.738,2.057,5.519c1.171,2.791,2.921,5.93,4.413,7.974
			c1.455,2.018,2.424,3.072,3.003,3.741c0.577,0.674,0.804,0.935,1.01,1.21c0.918,1.081,3.695-1.407,1.811-2.176
			c-0.453-0.204-0.802-0.343-1.421-0.831c-0.611-0.491-1.529-1.309-2.903-3.061c-1.477-1.861-3.2-4.813-4.389-7.525
			C113.608,297.621,112.788,295.242,112.601,294.748z"/>
		<path style="fill:#595959;" d="M107.476,302.802c-0.414-0.485-0.821-0.989-1.186-1.502c-1.096-1.397-3.691-5.761-3.694-6.803
			c-0.07-1.367-1.136-2.839-3.364-1.47c-1.821,1.122-0.896,2.845,0.131,3.269c0.336,0.141,1.325,1.341,2.448,2.622
			c1.115,1.287,2.374,2.639,3.029,3.265c0.691,0.659,1.307,1.303,1.653,1.808c0.253,0.361,2.087,2.579,4.772,4.805
			c2.649,2.268,6.261,4.307,8.957,5.354c2.653,1.031,4.243,1.4,5.213,1.675c0.978,0.247,1.355,0.369,1.725,0.483
			c1.549,0.413,2.572-3.187,0.285-2.815c-0.558,0.055-0.981,0.145-1.876,0.049c-0.896-0.086-2.284-0.31-4.684-1.139
			c-2.557-0.892-5.986-2.75-8.564-4.891C109.712,305.416,107.871,303.243,107.476,302.802z"/>
		<path style="fill:#595959;" d="M112.56,265.694c-0.731-0.43-1.459-0.874-2.142-1.328c-0.953-0.643-2.816-1.85-4.077-3.203
			c-1.297-1.34-1.826-2.834-1.704-3.391c0.14-0.757,0.045-1.453-0.527-1.954c-0.57-0.486-1.649-0.812-3.475-0.405
			c-1.484,0.333-2.124,1.2-2.138,2.174c-0.024,0.97,0.607,1.973,1.33,2.379c0.441,0.272,1.873,2.259,3.89,3.601
			c1.977,1.383,4.18,2.288,5.25,2.733c1.138,0.452,2.157,0.946,2.762,1.433c0.429,0.372,3.569,2.16,6.79,5.001
			c3.262,2.805,6.367,6.832,8.186,9.884c1.808,2.992,2.599,4.837,3.084,5.973c0.471,1.144,0.581,1.62,0.713,2.073
			c0.486,1.812,5.75,0.61,3.588-1.863c-0.525-0.589-0.928-1.007-1.605-2.041c-0.695-1.025-1.625-2.688-3.533-5.586
			c-2.016-3.094-5.338-7.279-8.872-10.229C116.58,267.951,113.216,266.112,112.56,265.694z"/>
		<path style="fill:#595959;" d="M117.789,281.764l-1.24-0.414c-0.572-0.211-1.72-0.53-2.842-0.729
			c-1.122-0.224-2.191-0.332-2.564-0.633c-1.02-0.804-2.321-0.174-1.277,3.413c0.842,2.934,1.657,2.809,1.951,1.827
			c0.093-0.315,0.808-0.769,1.677-1.067c0.863-0.314,1.881-0.435,2.402-0.496c0.546-0.07,1.061-0.002,1.347,0.214
			c0.217,0.141,1.689,0.745,3.36,1.832c1.674,1.071,3.631,2.504,5.118,3.429c2.942,1.802,3.459,2.021,3.823,2.375
			c0.885,0.624,2.731-4.33,1.298-3.829c-0.715,0.174-1.118,0.472-3.794-0.863c-1.43-0.723-3.376-2.049-5.227-3.149
			C119.987,282.557,118.177,281.869,117.789,281.764z"/>
		<path style="fill:#595959;" d="M336.697,158.656c-0.53,0.593-1.072,1.181-1.611,1.733c-0.766,0.766-2.198,2.287-3.631,3.391
			c-1.43,1.131-2.882,1.689-3.427,1.583c-0.749-0.125-1.411-0.014-1.827,0.571c-0.403,0.58-0.628,1.666-0.132,3.468
			c0.405,1.467,1.27,2.068,2.188,2.048c0.914-0.012,1.797-0.648,2.123-1.355c0.233-0.441,1.922-1.802,3.25-3.502
			c1.358-1.68,2.533-3.524,3.104-4.438c0.592-0.967,1.225-1.81,1.784-2.267c0.355-0.341,2.755-2.689,5.86-5.278
			c3.09-2.603,7.054-5.181,10.038-6.587c1.453-0.718,2.641-1.179,3.583-1.538c1.076-0.351,1.331-0.54,1.737-0.374l0.603,0.138
			l0.513,0.133c0.288,0.084,0.482,0.16,0.671,0.231c0.726,0.279,1.47-0.759,2.124-1.744c0.296-0.502,0.418-1.079,0.133-1.563
			c-0.275-0.48-0.894-0.804-1.728-0.702l-1.115,0.15l-0.617,0.058l-1.103-0.003c-0.214-0.045-0.421,0.052-0.639,0.171l-0.704,0.327
			l-1.225,0.588c-0.896,0.439-2.036,0.978-3.459,1.757c-3.068,1.608-7.164,4.374-10.336,7.137
			C339.676,155.52,337.186,158.044,336.697,158.656z"/>
		<path style="fill:#595959;" d="M351.102,165.26c-0.134,0.261-0.279,0.518-0.436,0.765c-0.148,0.26-0.321,0.429-0.561,0.871
			c-0.389,0.741-1.235,2.037-2.285,2.988c-1.032,0.97-2.176,1.466-2.597,1.38c-0.587-0.084-1.06-0.016-1.346,0.426
			c-0.272,0.44-0.483,1.286-0.202,2.755c0.229,1.193,0.956,1.721,1.753,1.691c0.794-0.016,1.546-0.565,1.801-1.148
			c0.191-0.369,1.536-1.525,2.52-3.011c1.025-1.464,1.75-3.183,1.999-4.056c0.081-0.269,0.078-0.336,0.197-0.562l0.286-0.582
			c0.182-0.369,0.361-0.691,0.532-0.942c0.279-0.34,1.507-2.942,2.158-6.234c0.682-3.26,1.294-7.075,2.759-9.11
			c1.384-2.009,2.744-2.576,3.494-2.949c0.795-0.333,1.139-0.382,1.464-0.446c1.236-0.182,0.885-4.536-1.316-2.956
			c-0.504,0.408-0.863,0.71-1.687,1.305c-0.769,0.621-2.234,1.475-3.766,3.915c-1.674,2.636-2.18,6.697-2.805,9.847
			C352.477,162.419,351.38,164.786,351.102,165.26z"/>
		<path style="fill:#595959;" d="M350.657,188.614c-0.978-0.131-1.976-0.307-2.948-0.502c-1.367-0.272-4.017-0.82-6.578-1.267
			c-2.552-0.465-5.067-0.713-5.884-0.993c-1.078-0.418-2.55-0.402-3.573,0.28c-1.043,0.682-1.432,1.941-0.648,3.631
			c0.639,1.395,1.417,1.924,2.165,2.06c0.749,0.12,1.584-0.186,2.16-0.684c0.353-0.341,2.49-0.755,5.006-0.81
			c2.499-0.083,5.291,0.083,6.666,0.109c1.452,0.034,2.814,0.16,3.729,0.385c0.307,0.089,1.65,0.274,3.429,0.438
			c1.806,0.213,4.222,0.469,6.865,0.659c5.288,0.416,11.576,0.368,15.982-0.247c4.334-0.562,6.765-1.301,8.276-1.711l2.683-0.774
			c2.421-0.806,0.777-5.889-1.796-3.624c-0.666,0.521-1.154,0.935-2.403,1.502c-1.252,0.55-3.265,1.322-7.145,1.966
			c-4.137,0.718-10.199,0.863-15.433,0.519c-2.626-0.153-5.01-0.377-6.924-0.571c-1-0.103-1.738-0.12-2.349-0.205L350.657,188.614z"
			/>
		<path style="fill:#595959;" d="M372.687,182.503c-0.416-0.178-0.832-0.371-1.234-0.571c-1.103-0.596-4.435-2.076-5.047-2.604
			c-0.734-0.817-2.395-0.857-2.475,1.405c-0.091,1.816,0.861,2.007,1.563,1.633c0.217-0.135,1.217-0.064,2.333,0.158
			c1.115,0.211,2.327,0.541,2.931,0.679c0.637,0.147,1.215,0.346,1.572,0.569c0.527,0.275,7.043,3.448,11.079,4.152
			c1.96,0.374,3.166,0.316,3.907,0.266c0.748-0.059,1.05-0.111,1.344-0.148c0.617-0.099,0.709-0.989,0.426-1.625
			c-0.291-0.646-0.736-1.12-1.231-0.662c-0.264,0.216-0.473,0.386-1.017,0.544c-0.546,0.142-1.454,0.289-3.163,0.045
			C379.991,185.894,373.467,182.798,372.687,182.503z"/>
		<path style="fill:#595959;" d="M374.564,178.634c-0.526,0.145-1.063,0.283-1.592,0.378c-0.742,0.141-2.18,0.38-3.519,0.415
			c-1.342,0.049-2.565-0.103-2.916-0.328c-0.96-0.554-2.303-0.585-2.623,1.632c-0.25,1.825,1.619,2.115,2.435,1.535
			c0.273-0.161,1.654-0.355,3.099-0.701c1.449-0.333,2.961-0.824,3.685-1.106c0.764-0.297,1.483-0.548,2-0.63
			c0.379-0.056,2.733-0.726,5.475-1.804c2.748-1.061,5.889-2.481,8.1-3.441c4.346-1.89,5.005-1.965,5.616-2.123
			c1.218-0.278,0.73-3.495-1.007-2.207c-0.818,0.633-1.208,0.932-5.278,2.873c-2.168,1.036-5.247,2.482-7.952,3.57
			C377.389,177.804,375.057,178.495,374.564,178.634z"/>
		<path style="fill:#595959;" d="M377.777,170.908c-0.547-0.022-1.102-0.059-1.641-0.116c-1.515-0.145-5.841-0.649-6.585-1.122
			c-1.007-0.633-2.597-0.562-2.651,1.678c-0.044,1.832,1.542,1.982,2.319,1.477c0.507-0.327,5.153-0.454,6.664-0.602
			c0.796-0.072,1.546-0.084,2.052-0.002c0.73,0.156,9.582,0.507,14.396-0.326c2.361-0.356,3.699-0.716,4.531-0.945l1.485-0.407
			c1.362-0.433,0.299-3.443-1.057-2.184c-0.352,0.3-0.622,0.524-1.303,0.838c-0.683,0.308-1.79,0.717-3.918,1.115
			c-2.27,0.435-5.593,0.677-8.472,0.698C380.72,171.045,378.29,170.927,377.777,170.908z"/>
		<path style="fill:#595959;" d="M367.427,159.754c-0.637,0.048-1.286,0.076-1.911,0.056l-0.797-0.031
			c-0.222-0.003-0.554-0.08-0.926-0.141c-0.724-0.131-1.539-0.313-2.337-0.505c-1.589-0.396-3.146-0.765-3.624-1.006
			c-1.26-0.746-3.593-0.396-3.12,1.838c0.344,1.774,1.8,1.753,2.701,1.306c0.277-0.167,1.733-0.2,3.409-0.091
			c1.649,0.072,3.559,0.282,4.505,0.077c0.956-0.12,1.843-0.238,2.457-0.222c0.447,0.014,3.32-0.213,6.707-0.97
			c3.392-0.724,7.276-1.977,9.929-3.069c2.615-1.062,4.054-1.808,4.957-2.253l1.607-0.785c1.434-0.732,0.129-3.684-1.409-1.976
			c-0.393,0.405-0.682,0.712-1.432,1.232c-0.755,0.512-1.973,1.255-4.346,2.304c-2.526,1.132-6.288,2.401-9.611,3.154
			C370.866,159.46,368.02,159.713,367.427,159.754z"/>
		<path style="fill:#595959;" d="M374.119,167.672c-3.516,2.218-5.551,2.296-6.1,1.985c-0.575-0.349,0.169-1.193,1.71-1.744
			c3.125-1.117,5.684-3.264,7.701-4.888c2.048-1.622,3.941-3.456,5.949-5.22c2.009-1.76,6.29-5.132,4.177-2.511
			c-2.134,2.601-2.686,3.928-5.643,6.765c-1.488,1.411-3.384,2.914-4.975,3.95C375.351,167.051,374.119,167.672,374.119,167.672z"/>
		<path style="fill:#595959;" d="M358.296,18.203c-0.405,0.041-0.817,0.055-1.221,0.053c-1.134-0.042-4.389,0.076-5.107-0.466
			c-0.96-0.782-2.156-0.197-1.22,3.418c0.756,2.955,1.754,2.795,2.093,1.794c0.188-0.682,3.311-1.904,4.36-2.343
			c0.543-0.247,1.072-0.374,1.445-0.3c0.536,0.069,6.879-0.283,10.225,0.152c3.283,0.396,3.534,0.876,3.831,1.089
			c0.242,0.238,0.914-0.809,1.567-1.79c0.3-0.5,0.522-1.02,0.467-1.445c-0.059-0.43-0.376-0.727-0.908-0.646
			c-0.986,0.222-1.438,0.257-4.795,0.127C365.463,17.687,359.057,18.095,358.296,18.203z"/>
		<path style="fill:#595959;" d="M355.143,68.689c3.31-0.981,6.632-1.849,9.931-2.507c4.611-0.985,13.646-2.301,22.11-1.863
			c8.447,0.358,16.291,1.979,18.695,2.572c3.208,0.895,7.445,1.524,10.835,1.165c3.398-0.338,5.716-1.592,5.221-3.413
			c-0.4-1.5-2.92-2.085-5.887-2.496c-2.97-0.386-6.51-0.584-8.843-0.413c-0.761,0.063-3.114-0.097-6.413-0.355
			c-3.295-0.252-7.543-0.563-12.006-0.559c-4.46-0.009-9.117,0.321-13.203,0.893c-4.09,0.561-7.611,1.322-9.905,1.886
			c-4.839,1.162-9.338,2.584-12.398,3.357c-1.124,0.261-5.255,1.442-11.397,2.537c-6.131,1.084-14.319,2.024-23.259,1.545
			c-8.922-0.444-18.567-2.478-27.008-6.376c-1.053-0.487-2.092-0.989-3.106-1.521l-1.507-0.813l-0.709-0.399
			c-0.178-0.109-0.352-0.21-0.486-0.364c-0.29-0.28-0.477-0.648-0.598-1.026c-0.12-0.413-0.187-0.899-0.214-1.386
			c-0.029-0.99,0.101-2.023,0.31-3.03c0.429-2.021,1.157-3.959,2.008-5.723c0.854-1.749,1.867-3.397,3.009-4.546
			c0.199-0.188,0.396-0.354,0.585-0.49l0.038-0.028l0.031-0.025c5.476-4.35,10.334-7.073,14.186-9.184
			c3.878-2.087,6.833-3.502,9.106-4.574l2.885-1.331c0.706-0.239,1.509-0.474,2.116-0.624c1.271-0.316,2.235-0.497,3.185-0.702
			c3.92-0.824,6.434-2.906,6.479-4.133c0.035-1.258-2.248-1.588-8.103,0.375c-1.416,0.474-2.734,0.901-4.251,1.522l-0.595,0.247
			c-0.147,0.055-0.288,0.124-0.425,0.202l-0.279,0.153l-1.164,0.634l-2.813,1.513c-2.133,1.15-4.862,2.587-8.487,4.68
			c-3.606,2.12-8.184,4.807-13.536,9.148l0.093-0.07c-0.341,0.247-0.646,0.513-0.926,0.785c-1.52,1.574-2.542,3.357-3.483,5.287
			c-0.914,1.933-1.685,4.015-2.168,6.299c-0.232,1.147-0.39,2.346-0.353,3.639c0.038,0.654,0.096,1.314,0.314,2.03
			c0.227,0.746,0.606,1.486,1.159,2.065c0.551,0.596,1.352,0.973,1.78,1.217l1.562,0.834c1.051,0.549,2.129,1.062,3.22,1.564
			c8.753,4.003,18.72,6.088,27.944,6.518c9.245,0.471,17.727-0.535,24.189-1.728C349.085,70.475,353.582,69.125,355.143,68.689z"/>
		<path style="fill:#595959;" d="M383.965,4.84c-0.192,0.441-0.327,0.798-0.438,1.118l-0.336,1.011
			c-0.205,0.67-0.395,1.331-0.562,1.976c-0.527,1.797-1.112,5.342-2.027,8.131c-0.25,0.716-0.469,1.239-0.818,1.838
			c-0.127,0.261-0.315,0.518-0.39,0.776l-0.152,0.765c-0.105,0.43-0.169,0.546-0.274,0.809c-0.385,0.885-0.889,1.556-1.258,1.861
			c-0.49,0.393-0.96,0.94-1.318,1.658c-0.36,0.72-0.574,1.607-0.512,2.431c0.124,1.71,1.378,2.856,3.757,2.905
			c1.968,0.044,2.998-0.535,3.581-1.176c0.545-0.634,0.776-1.807,0.611-2.924c-0.07-0.357,0.166-1.319,0.395-2.819
			c0.046-0.375,0.105-0.774,0.128-1.2c0.008-0.191,0.039-0.477,0.03-0.601l-0.035-0.333l0.032-0.288l0.17-0.621
			c0.113-0.46,0.21-0.918,0.286-1.372c0.531-3.59,0.527-7.053,0.714-8.785c0.065-0.906,0.188-1.771,0.38-2.528
			c0.095-0.379,0.205-0.732,0.333-1.043c0.113-0.289,0.236-0.513,0.361-0.713c0.11-0.15,0.31-0.559,0.711-1.079
			c0.204-0.255,0.45-0.546,0.784-0.809c0.159-0.139,0.35-0.257,0.548-0.375l0.317-0.15l0.335,0.178
			c0.613,0.33,1.273,0.702,1.958,1.117c0.77,0.465,1.799,1.114,2.733,1.752c1.92,1.309,3.927,2.845,5.832,4.536
			c3.835,3.359,7.18,7.389,9.2,10.754c2.733,4.541,3.436,7.483,3.825,9.243c0.348,1.786,0.303,2.495,0.317,3.174
			c-0.007,1.341,1.611,2.261,3.114,2.389c1.474,0.138,2.928-0.86,1.962-3.399c-0.491-1.192-0.868-2.043-1.589-3.906
			c-0.758-1.832-1.787-4.765-4.747-9.338c-2.293-3.541-5.879-7.715-9.949-11.194c-2.025-1.749-4.15-3.344-6.202-4.708
			c-1.061-0.704-1.959-1.262-3.078-1.913c-1.316-0.768-2.569-1.4-3.721-1.987l-0.58,0.033l-0.579,0.319
			c-0.367,0.218-0.715,0.43-1.023,0.668c-0.619,0.473-1.119,0.995-1.496,1.508C384.522,3.543,384.156,4.424,383.965,4.84z"/>
		<path style="fill:#595959;" d="M372.906,78.278c1.968-0.582,3.974-1.136,5.936-1.638c5.511-1.42,21.355-5.292,24.365-5.547
			c2.035-0.116,4.483-0.72,6.215-1.772c1.739-1.051,2.693-2.537,1.802-4.186c-0.725-1.355-2.387-1.528-4.198-1.214
			c-1.807,0.324-3.781,1.161-4.952,1.996c-1.473,1.175-17.922,6.373-23.234,8.228c-2.794,0.975-5.453,1.827-7.305,2.268
			c-0.68,0.183-3.156,0.818-6.761,2.032c-3.574,1.223-8.145,3.033-13.255,4.633c-5.099,1.611-10.768,2.961-16.281,3.377
			c-0.688,0.045-1.373,0.095-2.053,0.113c-0.722,0.042-1.229,0.03-1.861-0.075c-1.217-0.196-2.438-0.613-3.6-1.081
			c-2.33-0.954-4.467-2.121-6.374-3.211c-7.461-4.416-11.555-7.328-14.205-8.963c-2.631-1.679-3.678-2.328-4.724-2.949
			c-2.13-1.291-4.526-0.691-4.933,0.449c-0.229,0.551-0.132,1.131,0.343,1.658c0.483,0.532,1.419,1.062,3.102,1.669
			c1.628,0.597,2.848,1.076,5.412,2.464c2.596,1.358,6.393,3.84,13.696,7.999c1.969,1.083,4.172,2.256,6.699,3.261
			c1.27,0.493,2.617,0.957,4.147,1.198c0.38,0.063,0.78,0.099,1.189,0.117c0.438,0.016,0.812-0.006,1.152-0.023
			c0.713-0.025,1.427-0.081,2.146-0.134c5.752-0.477,11.595-1.907,16.823-3.592c5.237-1.674,9.902-3.562,13.517-4.824
			C369.303,79.304,372.004,78.561,372.906,78.278z"/>
		<path style="fill:#595959;" d="M438.137,52.152c-0.755-0.893-1.464-1.868-2.115-2.852c-0.929-1.373-2.593-4.139-4.233-6.804
			c-1.607-2.672-3.469-5.137-3.963-6.047c-0.599-1.245-1.923-2.525-3.38-2.86c-1.47-0.354-2.751,0.299-3.25,2.09
			c-0.421,1.483-0.063,2.426,0.484,3.111c0.563,0.673,1.476,1.143,2.318,1.309c0.551,0.058,2.593,1.689,4.598,4.017
			c2.012,2.292,4.109,5.01,5.241,6.26c1.175,1.336,2.269,2.603,2.942,3.542c0.453,0.693,3.991,4.621,7.584,9.823
			c3.649,5.168,6.75,11.937,8.623,16.834c3.662,9.651,3.807,11.148,4.17,12.481c0.649,2.726,6.103,2.277,3.722-1.589
			c-1.193-1.86-1.652-2.736-5.42-11.902c-2.017-4.873-5.276-11.81-9.131-17.161C442.547,57.041,438.819,53.004,438.137,52.152z"/>
		<path style="fill:#595959;" d="M345.335,10.851c0.535,0.601,1.028,1.278,1.456,1.996c0.619,0.993,1.691,3.044,2.745,5.134
			c1.031,2.085,2.279,4.125,2.495,4.968c0.243,1.147,1.165,2.264,2.36,2.459c1.201,0.216,2.488-0.569,3.59-2.676
			c1.738-3.48,0.645-4.331-0.902-4.289c-0.497,0.061-2.011-0.976-3.539-2.622c-1.524-1.613-3.149-3.613-4.065-4.5
			c-0.943-0.956-1.808-1.863-2.299-2.593c-0.192-0.252-0.934-1.197-2.38-2.253c-1.488-1.034-3.602-2.069-6.41-2.127
			c-1.484,0.012-3.016,0.695-4.056,1.882c-1.021,1.136-1.596,2.404-2.077,3.612c-0.922,2.431-1.454,4.724-1.986,6.578
			c-0.998,3.646-1.779,5.572-2.341,6.726c-0.567,1.148-0.884,1.533-1.168,1.919c-0.566,0.756,0.491,2.115,1.733,2.958
			c1.225,0.84,2.809,0.961,3.039-0.953c0.092-0.907,0.126-1.569,0.43-2.906l1.624-6.916c0.439-1.877,0.912-4.166,1.653-6.269
			c0.369-1.037,0.847-2.03,1.394-2.656c0.479-0.579,1.186-0.921,1.897-0.937c0.7-0.033,1.82,0.208,2.587,0.477
			c0.819,0.285,1.517,0.671,2.101,1.07C344.376,9.745,345.086,10.571,345.335,10.851z"/>
		<path style="fill:#595959;" d="M312.529,204.242c-0.683,2.715-1.006,4.757-2.555,6.687c-1.875,2.384-0.984,1.513-2.43,5.226
			c-0.681,1.818-4.724,15.706-4.486,30.92c0.05,7.571,1.189,15.339,3.003,21.686c1.78,6.364,4.116,11.287,5.431,13.761
			c2.586,4.992,6.351,10.283,10.53,14.73c4.161,4.472,8.661,8.117,12.112,10.654c3.447,2.542,5.217,4.078,5.542,4.819
			c0.339,0.721-0.749,0.571-2.72-0.723c-1.962-1.295-5.668-3.639-9.003-6.248c-3.363-2.572-6.341-5.388-7.476-6.654
			c-1.155-1.241-4.941-5.421-7.979-10.079c-3.103-4.611-5.439-9.595-5.949-10.862c-0.245-0.636-1.738-3.921-3.177-8.778
			c-1.462-4.843-2.766-11.272-3.264-17.798c-0.548-6.524-0.314-13.102,0.149-18.214c0.459-5.118,1.081-8.786,1.127-9.647
			c0.162-3.46,2.017-10.232,2.212-12.849c0.235-4.031,3.048-5.813,6.008-7.319C310.945,202.871,312.954,202.563,312.529,204.242z"/>
		<path style="fill:#595959;" d="M464.354,97.219c-1.34-0.473-2.838,1.427-3.197,5.088c-0.375,3.626,0.389,8.788,2.855,14.067
			c2.437,5.3,7.162,15.422,12.365,25.505c2.594,5.048,5.284,10.097,7.789,14.576c2.536,4.491,4.77,8.325,6.456,11.158
			c3.401,5.606,7.011,13.427,9.443,21.199c2.495,7.758,3.679,15.403,4.199,20.224c0.276,2.414,0.562,5.847,0.595,9.999
			c0.023,4.158-0.094,9.063-0.56,14.306c-0.463,5.25-1.353,10.845-2.736,16.457c-1.369,5.616-3.175,11.264-4.92,16.741l-2.418,7.404
			c-0.727,2.207-1.47,4.244-1.929,6.212c-0.943,3.9-1.437,7.272-1.922,10.743c-0.47,3.474-0.87,7.055-1.306,11.402
			c-0.463,4.344-0.837,9.472-1.76,15.965c-0.501,3.205-1.007,6.144-2.51,8.062c-0.752,0.988-2.014,1.344-3.023,1.053
			c-1.014-0.245-1.865-0.785-2.57-1.259c-1.407-0.982-2.403-1.891-3.164-2.365c-0.362-0.211-0.669-0.397-0.933-0.25
			c-0.203,0.21-0.181,0.452-0.217,0.563c-0.027,0.248-0.129,0.181-0.052-0.066c0.295-0.179,0.639,0.432,1.479,1.272
			c0.404,0.43,0.885,0.935,1.487,1.486c0.303,0.275,0.636,0.559,1.016,0.849c0.358,0.275,0.956,0.673,1.51,0.937
			c1.136,0.563,2.611,0.874,4.014,0.289c1.387-0.532,2.507-1.984,3.166-3.457c1.138-2.612,1.423-4.887,1.77-6.906
			c0.311-2.033,0.522-3.86,0.698-5.561c0.346-3.397,0.553-6.271,0.786-9.139c0.233-2.868,0.474-5.731,0.874-9.083
			c0.418-3.344,0.928-7.214,2.077-11.919c0.294-1.172,0.616-2.332,0.986-3.462c0.357-1.117,0.816-2.224,1.254-3.396l2.593-6.862
			c1.696-4.558,3.315-9.085,4.661-13.565c2.761-8.947,4.028-17.737,4.248-25.2c0.244-7.451,0.277-15.774-0.831-23.826
			c-1.042-8.047-3.085-15.729-5.32-21.979c-2.187-6.273-5.541-14.313-8.882-21.418c-3.393-7.12-6.422-13.327-7.879-16.29
			c-1.478-2.93-4.677-9.584-7.397-15.547c-2.733-5.96-4.969-11.227-4.969-11.227l-3.438-9.819
			C466.926,104.995,465.21,99.288,464.354,97.219z"/>
		<path style="fill:#595959;" d="M324.436,427.291l-2.801-6.766c-1.269-3.133-3.785-9.137-5.773-14.849
			c-2.03-5.704-3.339-11.147-3.462-12.838c-0.209-2.295-0.669-5.057-1.352-7.172c-0.686-2.109-1.646-3.609-3.111-3.219
			c-1.186,0.317-1.6,2.295-1.43,4.593c0.158,2.296,0.91,4.865,1.68,6.385c0.479,1.007,2.215,6.49,4.648,12.245
			c2.397,5.772,5.296,11.886,6.721,14.879c1.511,3.15,2.854,6.16,3.625,8.267l1.008,2.601l0.878,2.285
			c0.373,0.962,0.866,1.811,1.401,2.814c2.139,3.923,5.352,8.799,7.956,14.545c1.266,2.863,2.407,5.992,2.606,9.195
			c0.103,3.107-0.471,6.761-3.103,8.214c-1.277,0.774-2.83,1.194-4.363,1.521c-1.543,0.317-3.1,0.534-4.619,0.728l-8.563,0.964
			c-5.153,0.595-9.198,1.038-12.435,1.651c-3.222,0.608-5.577,1.289-7.358,1.899c-3.553,1.266-4.856,2.056-6.129,2.798
			c-1.277,0.784-2.163,1.874-2.543,2.85c-0.393,0.978-0.273,1.807,0.113,2.094c0.4,0.276,0.824,0.307,1.467-0.076
			c0.654-0.38,1.544-1.181,3.123-2.42c1.557-1.164,2.814-2.005,5.949-3.199c1.578-0.579,3.648-1.214,6.544-1.798
			c2.878-0.578,6.664-1.067,11.517-1.676l8.539-1.039c1.534-0.209,3.121-0.439,4.752-0.783c1.623-0.358,3.331-0.792,4.978-1.772
			c1.676-0.946,2.972-2.766,3.461-4.57c0.516-1.804,0.707-3.563,0.616-5.408c-0.231-3.629-1.472-6.912-2.797-9.903
			c-2.73-5.972-6.05-10.934-8.229-14.902l-0.765-1.43l-0.307-0.622l-0.259-0.665l-0.965-2.442L324.436,427.291z"/>
		<path style="fill:#595959;" d="M356.382,396.904c0.423-3.866,1.182-7.775,2.069-11.539c1.214-5.298,4.098-15.46,7.613-24.638
			c1.736-4.568,3.757-8.789,5.739-11.981c1.972-3.193,3.84-5.44,4.782-6.453c2.561-2.678,5.674-6.498,7.327-9.991
			c1.682-3.469,2.011-6.349,0.194-6.881c-1.497-0.446-3.555,1.786-5.681,4.543c-2.102,2.762-4.413,6.135-5.648,8.589
			c-0.383,0.802-1.966,3.105-3.866,6.524c-1.909,3.412-3.92,7.957-5.566,12.798c-3.276,9.656-5.928,20.365-6.948,25.697
			c-1.12,5.608-1.93,10.932-2.321,14.626c-0.167,1.338-0.447,6.47,0.885,13.642c0.613,3.587,1.556,7.668,2.418,12.131
			c0.426,2.234,0.822,4.557,1.083,6.98c0.279,2.49,0.724,4.999,1.171,7.562c1.797,10.211,4.148,21.336,3.631,32.001
			c-0.282,5.269-1.444,10.476-4.223,14.324c-1.368,1.921-3.128,3.43-5.046,4.5c-0.533,0.294-0.841,0.454-1.402,0.626
			c-0.51,0.177-1.032,0.322-1.552,0.457c-1.044,0.264-2.091,0.463-3.122,0.621c-4.067,0.6-7.807,0.695-11.137,0.749
			c-3.336,0.034-6.29-0.027-8.905-0.095l-12.093-0.429l-10.544-0.35c-4.607-0.106-8.001,1.461-8.323,2.673
			c-0.308,1.242,2.069,1.908,9.123,1.358c3.432-0.25,5.963-0.402,11.621-0.405l11.37,0.088c2.463,0.01,5.253,0.016,8.444-0.072
			c3.19-0.102,6.783-0.242,10.861-0.879c1.088-0.175,2.206-0.396,3.352-0.694c0.572-0.153,1.152-0.32,1.736-0.525l0.939-0.349
			l0.887-0.475c2.207-1.241,4.267-3.028,5.841-5.238c3.189-4.46,4.363-10.116,4.657-15.621c0.51-11.133-1.93-22.351-3.76-32.598
			c-0.456-2.558-0.91-5.078-1.188-7.481c-0.279-2.514-0.702-4.948-1.151-7.245c-0.908-4.6-1.881-8.746-2.507-12.378
			C355.784,403.804,356.141,398.68,356.382,396.904z"/>
		<path style="fill:#595959;" d="M435.059,464.459c-0.384-1.929-1.202-6.994-1.605-12.111c-0.433-5.118-0.584-10.267-0.615-12.356
			l-0.084-6.837c0.001-3.299-0.055-7.13-0.468-11.031c-0.729-7.772-2.691-15.348-3.042-17.21
			c-0.615-3.762-3.555-12.811-4.607-15.514c-0.976-2.789-2.185-7.131-3.002-10.241c-0.834-3.107-2.602-10.262-2.978-11.816
			c-0.383-1.557-2.657-8.578-3.42-11.678c-0.741-3.116-4.433-16.666-6.08-22.124c-1.567-5.498-3.252-10.225-1.899-9.702
			c1.359,0.532,1.927,1.359,3.017,2.014c1.086,0.667,0.542,2.533,1.892,6.145c1.367,3.618,3.359,11.057,5.365,16.832
			c2.019,5.776,2.529,10.265,3.096,13.749c0.561,3.484,1.008,9.961,2.157,13.301c1.122,3.339,2.547,9.579,3.639,11.895
			c0.512,1.141,1.868,4.338,3.154,7.727c1.316,3.379,2.61,6.956,3.495,8.741c0.898,1.779,1.78,5.691,2.273,9.586
			c0.52,3.893,0.63,7.741,0.749,9.364c0.225,3.252,1.149,0.26,0.205,3.257c-0.992,2.978-1.579,3.912-1.57,6.157
			c0.002,1.12,0.275,5.039,0.589,8.907c0.303,3.868,0.704,7.669,0.627,8.63c-0.163,1.924,0.488,3.152,0.321,4.439
			c-0.155,1.288-0.414,1.64,0.117,3.821c0.561,2.167,0.142,1.274,1.125,4c1.05,2.69,0.543,0.234,1.444,4.51
			c0.491,2.11,0.064,3.53-0.825,3.465C437.27,470.308,435.841,468.644,435.059,464.459z"/>
		<path style="fill:#595959;" d="M479.073,318.314c-0.944,4.248-1.359,7.442-3.029,10.771c-1.997,4.102-1.068,2.548-2.598,8.599
			c-0.368,1.517-1.563,7.779-2.639,16.695c-1.096,8.911-2.021,20.468-2.51,32.417c-0.253,5.974-0.412,12.043-0.505,17.928
			l-0.098,8.649c-0.008,2.792-0.021,5.598-0.223,8.233c-0.377,5.279-1.065,10.011-1.596,13.983c-0.547,3.973-0.953,7.189-1.179,9.39
			c-0.458,4.397-0.756,9.134-0.437,13.908c0.093,2.404,0.602,4.538,1.796,6.481c1.156,1.925,2.853,3.514,4.744,4.788
			c3.828,2.537,8.286,3.922,12.417,4.834c4.156,0.9,8.071,1.317,11.408,1.541c6.68,0.408,10.305,0.491,11.374,0.881
			c1.071,0.339-0.455,0.965-4.141,1.039c-3.67,0.077-10.526,0.087-17.069-0.982c-3.267-0.521-6.446-1.295-9.068-2.246
			c-2.628-0.928-4.681-2.036-5.82-2.798c-1.107-0.755-3.699-2.401-5.792-5.677c-1.026-1.628-1.811-3.685-2.077-5.895
			c-0.229-2.143-0.327-4.28-0.326-6.462c0.045-8.68,1.355-17.006,1.56-19.083c0.091-1.038,0.978-6.496,1.471-14.104
			c0.236-3.762,0.067-8.192,0.101-12.93c-0.002-4.725,0.027-9.74,0.111-14.762c0.156-10.044,0.575-20.13,1.103-28.028
			c0.512-7.9,1.101-13.61,1.149-14.936c0.096-2.646,0.557-6.653,1.078-10.492c0.515-3.84,1.097-7.51,1.203-9.525
			c0.326-6.155,3.353-9.545,6.582-12.539C477.528,316.631,479.678,315.694,479.073,318.314z"/>
		<path style="fill:#595959;" d="M451.519,488.292c-1.077-0.496-2.135-1.065-3.115-1.686c-1.379-0.86-3.968-2.69-5.791-4.871
			c-1.888-2.144-2.827-4.533-2.785-5.326c0.008-1.095-0.188-2.198-0.784-3.03c-0.594-0.816-1.646-1.475-3.505-1.225
			c-1.504,0.202-2.206,1.359-2.188,2.729c0,1.366,0.745,2.806,1.556,3.472c0.498,0.461,2.222,3.246,4.776,5.442
			c2.499,2.262,5.603,3.982,7.163,4.685c1.646,0.752,3.187,1.422,4.194,1.987c0.365,0.2,1.786,0.884,3.907,1.656
			c2.136,0.815,5.026,1.588,8.197,2.248c3.173,0.667,6.637,1.228,9.942,1.774c1.596,0.298,3.422,0.54,5.003,0.519
			c1.607,0.009,3.092-0.083,4.421-0.164c5.217-0.397,8.055-0.292,9.784-0.013c1.721,0.264,2.332,0.529,2.934,0.747
			c1.177,0.435,2.48-0.349,3.095-1.368c0.61-0.974,0.202-2.458-2.389-2.616c-1.222-0.038-2.106-0.028-3.983-0.034
			c-1.865-0.016-4.752,0.123-9.648,0.622c-1.302,0.116-2.728,0.235-4.202,0.254c-1.519,0.033-2.872-0.114-4.592-0.404
			c-3.309-0.501-6.743-1.018-9.874-1.639c-3.132-0.619-5.948-1.339-8.034-2.113C453.457,489.182,452.027,488.527,451.519,488.292z"
			/>
		<path style="fill:#595959;" d="M476.219,487.078l-1.872-0.521c-0.864-0.251-2.543-0.711-4.146-1.079
			c-1.6-0.38-3.125-0.655-3.579-0.863c-1.233-0.587-3.201-0.446-3.052,1.425c0.114,1.516,1.849,1.58,2.714,1.2
			c0.281-0.133,1.734-0.18,3.343-0.062c1.608,0.106,3.363,0.371,4.227,0.495c0.912,0.127,1.762,0.313,2.318,0.519
			c0.806,0.199,10.621,3.526,16.363,3.632c2.778,0.138,4.369-0.022,5.351-0.083l1.742-0.127c1.542-0.141,1.629-2.853-0.468-1.969
			c-0.517,0.2-0.899,0.355-1.777,0.529c-0.879,0.156-2.262,0.377-4.794,0.316C487.15,490.554,477.414,487.308,476.219,487.078z"/>
		<path style="fill:#595959;" d="M483.423,480.587c-0.619-0.088-1.245-0.189-1.849-0.317c-1.715-0.294-6.496-1.609-7.231-2.221
			c-1.015-0.765-2.744-1.143-3.202,0.668c-0.371,1.483,1.42,2.065,2.375,1.842c0.619-0.093,5.911,0.82,7.656,0.86
			c0.915,0.064,1.771,0.148,2.345,0.276c0.418,0.099,3.151,0.501,6.485,0.65c3.334,0.169,7.244,0.072,9.977,0.013
			c5.376-0.117,6.113,0.015,6.829,0.077c1.433,0.147,2.174-2.501-0.142-2.018c-1.114,0.242-1.639,0.364-6.734,0.608
			c-2.716,0.129-6.566,0.266-9.87,0.135C486.755,481.048,484.002,480.668,483.423,480.587z"/>
		<path style="fill:#595959;" d="M372.643,319.551c-0.058,0.914-1.247,2.15-2.214,3.195c-0.963,1.046-1.651,1.936-0.446,2.329
			c1.201,0.378,3.031,1.037,4.727,1.553c1.693,0.527,3.247,0.937,3.847,1.159c1.195,0.505,6.64,1.857,10.852,2.539
			c4.203,0.802,9.952,1.321,13.203,1.141c3.25-0.17,3.751-0.494,6.228-0.781c2.469-0.321,1.231-2.853-2.181-1.955
			c-3.441,0.892-7.386,0.643-10.304,0.321c-1.463-0.151-4.901-0.889-8.129-1.887c-3.243-0.973-6.223-2.24-7.226-2.592
			c-2.013-0.669-4.69-1.109-6.224-2.288C373.225,321.108,373.54,318.973,372.643,319.551z"/>
		<path style="fill:#595959;" d="M136.553,35.136c-1.5-7.43,5.828-11.31,6.575-3.767C144.199,42.177,137.277,38.716,136.553,35.136z
			"/>
		<path style="fill:#595959;" d="M279.91,183.205c-3.861-1.724-8.188-0.078-10.942-1.714c-2.662-1.638,1.674-5.699,3.325-5.486
			c1.713,0.238,4.796,0.571,7.187,0.673c1.196,0.069,5.89,0.241,10.488-0.314c4.597-0.501,9.148-1.633,10.172-1.877
			c1.014-0.222,5.585-1.128,10.444-2.287c4.851-1.159,9.974-2.318,11.814-3.286c3.727-1.962,6.074,3.061,4.428,3.951
			c-1.642,0.854-8.519,2.364-9.543,2.656c-1.012,0.175-12.629,0.895-14.917,2.07c-1.143,0.593-3.496,1.175-5.936,1.575
			c-2.438,0.413-4.95,0.609-6.376,0.757c-1.42,0.156-3.495,1.209-5.505,2.063C282.548,182.853,280.643,183.527,279.91,183.205z"/>
		<path style="fill:#595959;" d="M432.472,134.487c-0.296,0.998-0.312,2.798-0.074,4.636c0.23,1.841,0.651,3.717,0.676,5.006
			c0.002,2.595,1.369,6.538,1.941,7.979c0.552,1.46,2.03,3.663,4.009,6.77c1.99,3.108,1.78,2.623,2.782,6.201
			c1.027,3.559,4.46,9.145,2.198,7.676c-4.236-2.742-5.333-9.124-6.695-10.828c-1.366-1.697-1.499-3.357-3.225-6.069
			c-1.703-2.738-2.809-4.023-4.343-6.97c-0.758-1.485-0.853-2.911-0.885-4.324c-0.029-1.422-0.009-2.809-0.453-4.463
			c-0.424-1.675-0.39-1.699-0.404-2.057l-0.033-1.087c-0.019-0.633-0.062-1.633,0.103-3.324c0.185-1.702,0.959-3.008,1.778-3.701
			c0.827-0.709,1.686-0.829,2.257-0.58c0.588,0.253,0.938,0.868,0.987,1.696C433.141,131.889,432.931,132.938,432.472,134.487z"/>
		<path style="fill:#595959;" d="M447.836,179.243c0.742,2.024,0.716,2.895,0.766,3.727c0.034,0.843,0.167,1.63,0.964,3.676
			c0.772,2.065,1.008,2.044,1.154,2.01c0.123-0.023,0.181-0.033,0.217,2.248c-0.018,2.307-0.921,2.741-1.693,2.299
			c-0.791-0.444-1.582-1.639-1.788-2.886c-0.206-1.258-0.302-1.631-0.449-2.321c-0.169-0.685-0.374-1.691-1.143-4.158
			C444.252,178.975,446.265,175.235,447.836,179.243z"/>
		<path style="fill:#595959;" d="M461.321,125.981c-2.709,5.16-1.293,8.361,0.402,8.689c1.726,0.299,2.677,6.451,4.894,10.643
			c2.274,4.26,1.002,7.496,1.772,8.736c0.786,1.267,1.486,4.971,1.693,6.367c0.246,1.384,1.214,5.062,1.204,5.066
			c0.011-0.005,0.916,3.706,1.059,5.603c0.199,1.874,1.609,9.572,1.493,15.799c-0.099,6.984,0.279,8.395,0.665,10.793
			c0.478,3.011,1.912,3.332,1.923-2.376c0.012-5.719,0.454-9.091,0.387-11.98c-0.073-2.891-0.132-4.5-0.286-7.401
			c-0.184-2.9-0.167-3.222-0.632-8.06c-0.316-2.942-0.484-2.888-1.21-4.747c-0.745-1.852-0.403-2.888-1.383-5.67
			c-1-2.766-0.742-3.8-1.17-5.695c-0.461-1.883-0.355-2.41-1.705-7.081c-1.391-4.668-3.258-8.123-4.174-10.355
			c-0.928-2.242-2.17-3.795-2.359-5.309C463.702,127.456,461.314,125.963,461.321,125.981z"/>
		<path style="fill:#595959;" d="M447.779,206.102c1.021-4.899-0.698-9.984-0.038-13.654c0.66-3.684,4.18,0.719,4.271,3.019
			c0.094,2.29,0.237,6.416,0.299,9.631c0.033,1.606,0.17,7.921-0.01,14.211c-0.134,6.287-0.796,12.558-1.024,13.951
			c-0.241,1.367-1.043,7.601-3.884,13.778c-1.411,3.074-3.54,6.004-5.828,8.012c-2.267,2.038-4.473,3.222-5.609,3.984
			c-2.332,1.505-4.342,1.306-5.354,0.698c-1.029-0.618-1.171-1.65-0.167-2.162c1.004-0.519,3.61-1.47,5.808-2.803
			c2.23-1.294,3.957-3.008,4.369-3.487c0.211-0.235,1.034-0.945,2.006-2.124c0.986-1.164,2.081-2.833,2.995-4.696
			c1.852-3.731,2.899-8.133,2.941-9.725c0.052-1.606,0.438-4.644,0.721-7.765c0.29-3.118,0.509-6.305,0.554-8.131
			C449.956,215.169,447.419,207.912,447.779,206.102z"/>
		<path style="fill:#595959;" d="M475.839,200.333c0.185,1.57,0.419,2.739-0.229,4.039c-0.792,1.588-0.341,0.975-0.658,3.205
			c-0.178,1.112-0.287,9.116-1.021,17.623c-0.364,4.25-0.911,8.619-1.554,12.295c-0.633,3.677-1.346,6.659-1.738,8.198
			c-0.772,3.085-1.779,6.604-3.017,9.858c-1.218,3.261-2.683,6.238-3.947,8.348c-1.274,2.113-2.315,3.005-2.77,3.136
			c-0.465,0.127-0.378-0.499,0.343-1.57c0.728-1.072,1.864-3.202,2.775-5.318c0.924-2.113,1.638-4.2,1.981-5.049
			c0.353-0.845,1.372-3.699,2.13-6.582c0.78-2.878,1.333-5.762,1.482-6.481c0.185-0.707,1.482-7.576,1.926-14.61
			c0.512-7.023,0.443-14.139,0.314-15.064c-0.265-1.849-0.123-5.636-0.54-7.025c-0.63-2.113,0.827-3.476,2.434-4.816
			C474.472,199.917,475.725,199.36,475.839,200.333z"/>
		<path style="fill:#595959;" d="M425.2,267.402c-0.675-0.219-1.428-0.402-1.965-0.773c-0.275-0.967,0.802-0.823,1.441-1.025
			l2.331-0.538l3.587-0.959c2.243-0.604,4.164-1.109,5.588-1.392c2.033-0.404,4.473-1.245,6.209-2.323
			c1.743-1.073,2.742-2.381,1.963-3.448c-0.63-0.876-2.253-0.684-4.071-0.131c-1.812,0.56-3.812,1.5-5.012,2.293
			c-0.774,0.515-2.569,1.428-4.856,2.418c-1.144,0.494-2.409,1.011-3.729,1.502l-0.511,0.188l-0.672,0.23l-1.321,0.432
			c-0.873,0.275-1.752,0.522-2.605,0.751c-0.499,0.371-1.034,0.63-1.582,0.82c-0.077,0.313-0.002,0.777-0.013,1.144l0.007,0.29
			l0.184,0.141l0.4,0.245c1.039,0.631,2.473,1.059,3.554,1.423c0.77,0.253,1.632,0.51,2.417,0.738l2.036,0.595l3.993,1.16
			c2.592,0.785,5.117,1.577,7.144,2.595c1.017,0.533,1.788,0.793,2.255,1.09c0.543,0.398,0.464,0.888,0.828,1.032
			c0.161,0.078,0.376,0.078,0.69-0.101c0.314-0.171,0.598-0.547,0.651-1.188c0.072-0.615-0.335-1.555-1.111-2.207
			c-0.706-0.619-1.552-1.04-2.549-1.378c-1.987-0.645-3.495-0.928-4.811-1.214l-3.506-0.724l-3.458-0.782l-1.993-0.493
			L425.2,267.402z"/>
		<path style="fill:#595959;" d="M438.033,282.904c-4.474,3.891-10.681,9.682-16.927,13.104c-3.103,1.718-5.502,2.483-6.933,2.813
			c-1.44,0.318-1.923,0.249-1.436,0.065c0.975-0.41,2.61-1.874,7.042-4.436c4.435-2.628,7.561-5.378,9.301-7.04
			c1.705-1.717,1.273-0.606,6.668-5.443c5.289-4.94,6.986-5.238,5.687-3.579C440.124,280.022,438.04,282.906,438.033,282.904z"/>
		<path style="fill:#595959;" d="M442.814,290.913c-4.515,3.438-11.633,6.787-18.015,8.041c-3.181,0.632-5.497,0.605-6.843,0.44
			c-1.351-0.175-1.741-0.432-1.264-0.425c0.975-0.04,2.797-0.897,7.343-1.906c4.574-1.053,8.008-2.659,9.883-3.737
			c0.938-0.548,1.236-0.63,2.032-0.934c0.768-0.331,2.135-0.784,4.733-2.656c2.557-1.91,3.774-3.291,4.486-3.887
			c0.683-0.618,0.944-0.366,0.549,0.555c-0.404,0.9-1.074,2.065-1.714,2.961C443.368,290.261,442.811,290.911,442.814,290.913z"/>
		<path style="fill:#595959;" d="M448.728,290.856c-2.469,2.487-5.602,5.306-9.102,7.874c-3.486,2.587-7.296,4.95-10.862,6.854
			c-7.152,3.761-10.402,4.48-9.346,3.914c1.049-0.595,2.757-2.514,8-5.465c5.242-2.953,9.119-5.791,11.212-7.618
			c1.049-0.914,1.391-1.111,2.298-1.714c0.883-0.629,2.412-1.596,5.347-4.521c2.891-2.96,4.498-4.833,5.417-5.594
			c0.904-0.767,1.077-0.428,0.476,0.641C451.013,287.368,448.762,290.875,448.728,290.856z"/>
		<path style="fill:#595959;" d="M444.878,289.935c-0.81,2.511-2.015,5.408-3.58,8.233c-1.56,2.821-3.462,5.568-5.444,7.836
			c-4.024,4.505-6.489,5.395-5.821,4.801c0.616-0.651,1.276-2.478,4.069-5.844c2.79-3.4,4.471-6.504,5.257-8.367
			c0.393-0.934,0.575-1.159,1.005-1.827c0.4-0.674,1.167-1.768,2.114-4.614c0.889-2.853,1.231-4.583,1.577-5.406
			c0.329-0.821,0.662-0.701,0.749,0.214C445.019,286.765,444.906,289.931,444.878,289.935z"/>
		<path style="fill:#595959;" d="M462.546,270.138c0.598-2.162,0.458-3.709-0.248-4.291c-0.356-0.271-0.92-0.233-1.578,0.369
			c-0.657,0.598-1.366,1.763-1.883,3.529c-1.96,7.185-0.256,11.159-1.875,20.04c-0.831,4.411-2.113,8.592-3.913,12.077
			c-1.788,3.495-4.146,6.182-6.547,7.784c-1.162,0.789-1.953,1.47-2.337,2.094c-0.381,0.612-0.33,1.181,0.286,1.449
			c0.608,0.267,1.838,0.247,3.524-0.63c1.666-0.864,3.738-2.719,5.231-5.736c1.527-3.227,2.144-5.063,2.981-7.233
			c0.785-2.174,1.686-4.727,2.486-9.481C459.926,282.562,460.98,275.858,462.546,270.138z"/>
		<path style="fill:#595959;" d="M451.219,290.586c0.014,2.347,0.282,5.188,0.345,8.191c0.062,2.991-0.117,6.205-1.08,9.015
			c-0.945,2.825-2.458,4.436-3.393,5.178c-0.968,0.746-1.379,0.801-1.087,0.505c0.286-0.305,0.572-0.91,0.965-1.869
			c0.396-0.962,0.907-2.249,1.51-4.137c1.146-3.838,0.82-7.189,0.622-9.062c-0.272-1.907,0.262-1.07-0.068-6.864
			c-0.341-5.85,0.917-6.983,1.116-5.317C450.387,287.875,451.218,290.584,451.219,290.586z"/>
		<path style="fill:#595959;" d="M285.613,288.039c0.333-0.446,0.68-0.89,1.029-1.312c0.974-1.205,3.791-4.546,4.615-4.841
			c1.082-0.449,1.945-1.694,0.222-3.124c-1.414-1.168-2.561,0.08-2.601,1.026c-0.074,0.605-2.579,4.588-3.285,5.933
			c-0.385,0.705-0.795,1.336-1.153,1.707c-0.267,0.267-1.71,2.186-3.565,4.405c-1.844,2.226-4.191,4.667-6,6.189
			c-3.579,2.97-4.312,3.043-4.837,3.359c-1.122,0.5-0.023,3.571,1.434,1.955c0.338-0.4,0.588-0.683,1.194-1.238
			c0.606-0.55,1.598-1.336,3.277-2.882c1.807-1.638,4.169-4.167,6.026-6.471C283.839,290.446,285.297,288.452,285.613,288.039z"/>
		<path style="fill:#595959;" d="M289.433,293.251c0.385-0.28,0.783-0.552,1.174-0.809c1.119-0.711,4.195-2.873,4.966-2.971
			c1.055-0.127,1.987-1.113,0.52-2.805c-1.201-1.384-2.291-0.555-2.43,0.272c-0.089,0.551-2.888,3.335-3.793,4.256
			c-0.472,0.49-0.958,0.903-1.347,1.102c-0.286,0.142-1.946,1.312-4.051,2.553c-2.096,1.259-4.679,2.501-6.564,3.149
			c-3.725,1.226-4.327,0.984-4.834,1.047c-1.016-0.021-1.181,3.224,0.532,2.365c0.788-0.474,1.211-0.541,4.873-1.915
			c1.942-0.761,4.582-2.086,6.725-3.421C287.361,294.752,289.069,293.507,289.433,293.251z"/>
		<path style="fill:#595959;" d="M300.532,296.361c0.371-0.451,0.75-0.901,1.132-1.33c1.082-1.203,4.064-4.707,4.885-5.092
			c1.117-0.531,1.981-1.917,0.169-3.233c-1.485-1.076-2.573,0.244-2.603,1.198c-0.027,0.629-2.633,4.727-3.458,6.077
			c-0.429,0.716-0.887,1.351-1.276,1.721c-0.286,0.267-1.886,2.189-3.943,4.393c-2.048,2.214-4.608,4.655-6.563,6.151
			c-1.912,1.486-3.115,2.143-3.859,2.531c-0.752,0.377-1.066,0.464-1.365,0.568c-1.165,0.347-0.627,3.601,1.197,2.11
			c0.422-0.365,0.712-0.649,1.413-1.162c0.686-0.527,1.793-1.275,3.624-2.803c1.966-1.617,4.533-4.134,6.596-6.424
			C298.556,298.783,300.185,296.78,300.532,296.361z"/>
		<path style="fill:#595959;" d="M295.807,293.578l0.704-1.392c0.334-0.641,0.953-1.893,1.491-3.106
			c0.545-1.205,1.017-2.37,1.301-2.696c0.81-0.87,0.873-2.525-1.366-2.709c-1.822-0.16-2.064,1.112-1.692,1.865
			c0.135,0.247,0.057,1.385-0.178,2.637c-0.227,1.25-0.619,2.597-0.801,3.266c-0.195,0.702-0.45,1.342-0.715,1.73
			c-0.195,0.283-1.202,2.226-2.628,4.464c-1.412,2.245-3.232,4.779-4.579,6.509c-2.661,3.394-3.177,3.755-3.598,4.155
			c-0.869,0.792,1.238,3.237,1.959,1.433c0.337-0.883,0.502-1.28,2.926-4.636c1.287-1.793,3.085-4.379,4.5-6.707
			C294.56,296.073,295.595,294.014,295.807,293.578z"/>
		<path style="fill:#595959;" d="M311.787,299.605c2.22-4.059,3.37-5.744,4.31-6.007c0.893-0.288,1.387,1.221,0.345,3.102
			c-2.055,3.637-3.983,7.281-6.133,9.81c-2.141,2.496-4.504,4.832-7.279,6.649c-1.38,0.918-3.656,2.008-5.197,2.361
			c-1.55,0.348-2.205,0.203-0.568-0.824c1.614-1.095,2.575-2.105,3.598-3.15c1.013-1.064,2.093-2.17,3.753-3.796
			c1.664-1.622,3.534-3.601,4.899-5.244C310.888,300.868,311.786,299.603,311.787,299.605z"/>
		<path style="fill:#595959;" d="M304.639,297.468l0.174-1.406c0.22-1.294,0.616-5.02,1.023-5.683
			c0.587-0.897,0.402-2.279-1.836-2.181c-1.829,0.078-1.87,1.387-1.331,2.014c0.38,0.402,0.645,4.293,0.722,5.574
			c0.055,0.673,0.039,1.304-0.069,1.724c-0.083,0.307-0.318,2.306-0.756,4.696c-0.426,2.392-1.108,5.159-1.764,7.033
			c-1.33,3.668-1.862,3.989-2.138,4.411c-0.633,0.752,1.775,2.945,2.185,1.051c0.115-0.912,0.322-1.295,1.48-4.979
			c0.598-1.971,1.244-4.805,1.642-7.27C304.379,299.99,304.591,297.906,304.639,297.468z"/>
		<path style="fill:#595959;" d="M286.916,269.806l3.552-0.028c0.745-0.015,1.806-0.033,3.057-0.209
			c0.625-0.088,1.298-0.223,1.986-0.43c0.699-0.216,1.316-0.445,2.271-0.99l0.276-0.377l0.146-0.192l0.084-0.098l0.348-0.362
			c0.239-0.229,0.493-0.427,0.766-0.612c0.537-0.371,1.214-0.677,1.935-1.208c0.726-0.522,1.301-1.268,1.617-1.844
			c0.332-0.585,0.51-1.029,0.647-1.29c1.303-2.644,0.763-6.188-1.799-5.81c-2.107,0.311-2.055,3.473-1.747,4.737
			c0.052,0.26,0.062,1.114-0.457,1.791c-0.265,0.369-0.895,0.801-1.638,1.417c-0.364,0.308-0.734,0.663-1.062,1.053
			c-0.328,0.38-0.664,0.876-0.721,1.025c-0.209,0.197-0.763,0.499-1.268,0.716c-0.508,0.221-1.036,0.384-1.539,0.517
			c-1.014,0.258-1.945,0.381-2.595,0.469c-1.65,0.21-3.251,0.253-4.342,0.213c-0.498,0.011-2.736-0.094-5.873,0.505
			c-0.39,0.081-0.794,0.171-1.206,0.283c-0.447,0.119-0.996,0.285-1.493,0.468c-1.022,0.364-2.031,0.838-2.982,1.388
			c-0.952,0.549-1.85,1.168-2.791,1.865l-0.705,0.54l-0.178,0.138l0.095,0.028l0.214,0.055c0.272,0.089,0.493,0.237,0.597,0.49
			c1.067,0.077,2.109,0.171,3.049,0.276c0.953,0.096,1.7,0.271,2.465,0.461c1.653,0.429,2.616,0.748,3.739,1.1l6.075,1.978
			c4.798,1.535,7.723,2.026,9.579,2.166c1.86,0.133,2.626,0.045,3.362-0.02c1.559-0.175,2.267-1.558,1.95-2.309
			c-0.133-0.393-0.445-0.671-0.86-0.757c-0.428-0.092-0.945,0.009-1.802,0.318c-0.842,0.282-1.516,0.482-3.091,0.476
			c-1.578-0.02-4.091-0.329-8.596-1.663c-3.369-0.971-9.126-2.983-11.145-3.172c-0.303-0.042-0.608-0.073-0.913-0.088l-0.227-0.006
			l-0.103-0.006l0.088-0.069l0.354-0.274c0.479-0.354,0.976-0.669,1.482-0.933c0.504-0.266,1.016-0.481,1.516-0.653
			c0.277-0.094,0.439-0.148,0.8-0.244c0.385-0.107,0.763-0.194,1.133-0.271C283.929,269.775,286.237,269.848,286.916,269.806z"/>
		<path style="fill:#595959;" d="M316.466,486.093c0.731-0.016,1.473-0.019,2.194-0.002c2.028,0.025,7.824,0.308,8.855,0.682
			c1.387,0.501,3.538,0.365,3.392-1.508c-0.114-1.517-2.202-1.574-3.198-1.131c-0.644,0.285-6.818,0.536-8.82,0.754
			c-1.054,0.102-2.05,0.158-2.73,0.123c-0.496-0.02-3.689-0.005-7.547,0.35c-3.856,0.333-8.378,1.155-11.417,2.344
			c-2.997,1.134-4.514,2.326-5.393,3.089c-0.879,0.785-1.165,1.165-1.469,1.506c-0.604,0.737-0.307,1.664,0.195,1.949
			c0.528,0.299,1.106,0.15,1.539-0.903c0.236-0.516,0.433-0.908,1.092-1.61c0.68-0.673,1.86-1.707,4.521-2.789
			c2.829-1.185,7.214-2.04,11.033-2.403C312.538,486.159,315.784,486.115,316.466,486.093z"/>
		<path style="fill:#595959;" d="M315.713,479.063c0.701,0.013,1.41,0.044,2.1,0.089c1.938,0.124,7.495,0.576,8.492,0.938
			c1.335,0.521,3.414,0.381,3.268-1.489c-0.114-1.52-2.094-1.573-3.046-1.146c-0.611,0.303-6.517,0.387-8.444,0.505
			c-1.014,0.058-1.969,0.073-2.618,0.009c-0.474-0.038-3.533-0.169-7.246,0.054c-3.71,0.195-8.075,0.983-10.968,2.195
			c-2.848,1.162-4.28,2.277-5.148,2.943c-0.86,0.692-1.183,0.98-1.498,1.263c-0.642,0.583-0.528,1.483-0.109,1.888
			c0.433,0.413,1.072,0.4,1.681-0.614c0.313-0.487,0.539-0.861,1.226-1.519c0.701-0.633,1.843-1.632,4.359-2.729
			c2.676-1.198,6.863-2.016,10.525-2.242C311.949,478.954,315.06,479.06,315.713,479.063z"/>
		<path style="fill:#595959;" d="M318.959,329.765c0.673-1.203,1.41-2.401,2.161-3.554c1.046-1.627,3.153-4.735,5.032-7.824
			c1.904-3.064,3.365-6.257,3.986-7.21c0.888-1.248,1.473-3.125,1.215-4.661c-0.255-1.552-1.284-2.588-3.14-2.451
			c-1.535,0.106-2.317,1.011-2.745,2.045c-0.42,1.039-0.497,2.314-0.308,3.268c0.157,0.61-0.466,3.59-1.851,6.81
			c-1.336,3.217-3.184,6.658-4.01,8.389c-0.886,1.818-1.781,3.506-2.501,4.598c-0.26,0.401-1.174,1.923-2.248,4.308
			c-0.258,0.588-0.538,1.28-0.781,1.937l-0.922,2.096c-0.645,1.499-1.306,3.147-1.934,4.895c-1.265,3.493-2.388,7.389-3.152,11.201
			c-0.775,3.81-1.193,7.521-1.395,10.587c-0.355,6.036-0.156,9.478-0.131,11.607c0.057,2.131,0.053,2.956,0.05,3.767
			c0.042,3.297,5.46,4.191,3.995-0.659c-0.332-1.18-0.603-2.047-0.867-4.006c-0.239-1.959-0.573-5.022-0.382-10.567
			c0.126-2.955,0.471-6.525,1.171-10.208c0.688-3.685,1.735-7.473,2.941-10.903c0.599-1.717,1.235-3.347,1.861-4.841l0.955-2.246
			c0.239-0.668,0.489-1.297,0.74-1.879C317.714,331.933,318.659,330.331,318.959,329.765z"/>
		<path style="fill:#595959;" d="M381.374,128.238c-1.622-1.037-3.041-2.414-4.121-4.009c-0.535-0.801-0.996-1.649-1.353-2.533
			c-0.085-0.222-0.177-0.443-0.249-0.668c-0.103-0.282-0.215-0.687-0.299-1.036c-0.105-0.349-0.138-0.762-0.211-1.14
			c-0.019-0.455-0.064-0.846-0.046-1.378c0.029-1.308,0.129-3.124,0.289-5.165c-0.255,0.091-0.487,0.153-0.588,0.07l-0.138-0.138
			l-0.089-0.02l-0.268,0.313l-2.206,2.64c-0.76,0.912-1.57,1.933-2.402,3.032l-1.247,1.624l-0.913,1.132
			c-1.241,1.484-2.601,2.945-4.198,3.998c-1.583,1.076-3.404,1.669-5.306,1.743c-1.837,0.078-3.847-0.419-5.737-0.986
			c-1.895-0.582-3.698-1.303-5.331-2.077c-3.246-1.524-5.914-3.404-6.955-4.879l-2.787,2.734c0.667,0.652,1.04,1.433,1.221,1.951
			c1.072,2.999,0.945,7.648,0.109,10.742c-0.395,1.578-0.909,2.747-1.301,3.612c-0.372,0.865-0.723,1.588-0.248,2.207
			c0.362,0.487,1.626,0.499,3.023-0.482c1.371-0.964,2.619-2.781,3.318-4.852c1.484-4.155,0.912-9.306-0.722-12.214
			c-0.365-0.579-0.949-2.201-2.968-3.882l-0.076-0.063c-0.776-0.648-1.929-0.541-2.576,0.235c-0.587,0.705-0.553,1.722,0.041,2.387
			c2.069,2.318,5.229,4.039,8.949,5.594c1.866,0.757,3.879,1.444,6.016,1.972c2.105,0.504,4.464,0.973,6.879,0.643
			c2.388-0.285,4.68-1.334,6.445-2.762c1.794-1.414,3.154-3.091,4.36-4.661c0.682-0.899,0.936-1.28,1.332-1.836l1.097-1.541
			c0.365-0.499,0.725-0.982,1.086-1.431l0.063-0.077l-0.009,0.091l-0.016,0.181l-0.02,0.357c-0.013,0.235-0.005,0.463,0.001,0.684
			c0.012,0.211,0.022,0.415,0.047,0.61c0.058,0.527,0.161,1.064,0.306,1.597c0.148,0.54,0.308,1.007,0.63,1.766
			c0.587,1.362,1.34,2.597,2.188,3.663c1.695,2.143,3.716,3.612,5.469,4.532c0.364,0.24,1.249,0.548,2.206,1.025
			c1.083,0.482,2.572,1.039,4.455,1.142c1.882,0.127,4.051-0.346,6.225-1.195l1.451-0.582l1.298-0.55l1.352-0.562l0.7-0.274
			l0.177-0.067l0.09-0.033l-0.02,0.07l-0.153,0.36c-0.314,0.753-0.602,1.539-0.832,2.361c-0.119,0.418-0.212,0.812-0.301,1.273
			c-0.09,0.466-0.196,1.156-0.242,1.744c-0.229,2.445,0.186,5.173,1.572,7.513c1.362,2.351,3.495,4.197,5.814,5.653
			c1.165,0.73,2.388,1.378,3.643,1.971c0.472,0.224,0.917,0.421,1.384,0.618l0.698,0.288l0.352,0.141
			c0.09,0.05,0.332,0.074,0.143,0.177c-0.53,0.474-1.019,0.995-1.464,1.552l-0.341,0.449l-0.436,0.633
			c-0.282,0.43-0.547,0.873-0.787,1.333c-0.954,1.829-1.59,3.914-1.482,6.091c0.072,2.163,1.158,4.397,2.971,5.692
			c0.443,0.33,0.917,0.608,1.405,0.841c0.248,0.116,0.493,0.221,0.739,0.314c0.189,0.07,0.339,0.12,0.514,0.172
			c0.677,0.2,1.374,0.305,2.069,0.347l0.406,0.017l0.202,0.003l0.089,0.008l-0.059,0.083c-0.155,0.225-0.318,0.443-0.49,0.654
			c-0.34,0.422-0.709,0.818-1.088,1.198l-1.242,1.193c-0.547,0.521-1.098,1.054-1.623,1.635c-1.046,1.14-1.999,2.584-2.294,4.233
			c-0.156,0.812-0.166,1.635-0.076,2.418c0.047,0.391,0.111,0.777,0.199,1.151c0.06,0.228,0.103,0.673,0.173,1.014
			c0.481,2.931,1.734,5.597,2.968,7.931l1.535,2.969c0.385,0.773,0.745,1.531,1.072,2.273l0.077,0.208l-0.242-0.064
			c-0.823-0.219-1.624-0.391-2.403-0.516c-0.403-0.061-0.731-0.108-1.243-0.156c-0.581-0.055-1.155-0.097-1.722-0.113
			c-2.267-0.075-4.425,0.163-6.379,0.754c-1.933,0.563-3.744,1.596-4.992,2.863c-1.286,1.206-2.294,2.544-3.031,3.89
			c-1.487,2.712-1.905,5.357-2.011,7.53c-0.023,0.651-0.026,0.779-0.02,1.117c0.005,0.291,0.017,0.565,0.037,0.826l0.068,0.737
			l0.042,0.339c-0.01,0.072,0.096,0.316-0.052,0.174c-0.579-0.363-1.106-0.601-1.552-0.816c-0.497-0.23-0.699-0.33-1.382-0.616
			c-1.225-0.515-2.176-0.893-3.123-1.261c-2.248-0.868-4.339-1.297-5.957-1.372c-1.611-0.088-2.784,0.246-2.981,0.726
			c-0.154,0.48,0.064,0.843,1.396,1.453c1.316,0.607,3.645,1.412,7.187,2.501l1.725,0.549l0.833,0.28l1.179,0.437
			c0.906,0.346,1.802,0.729,2.827,1.312c1.007,0.56,2.19,1.222,3.277,1.869c-0.206-2.023-0.999-5.207-0.962-7.871
			c0.009-1.807,0.236-3.962,1.307-6.258c0.533-1.144,1.294-2.307,2.339-3.412c0.531-0.546,1.11-1.118,1.728-1.536
			c0.642-0.438,1.395-0.815,2.226-1.122c1.666-0.608,3.643-0.924,5.81-0.907c1.124,0.017,1.997,0.046,3.976,0.361
			c1.767,0.311,3.778,0.84,5.687,1.32l0.087-0.199c-0.03-0.122-0.132-0.307-0.195-0.458c-0.702-1.542-1.399-3.077-2.185-4.68
			l-1.205-2.359l-0.917-1.733c-1.24-2.324-2.351-4.672-2.802-7.321c-0.077-0.369-0.079-0.573-0.196-1.106
			c-0.075-0.311-0.126-0.621-0.167-0.929c-0.075-0.618-0.067-1.225,0.042-1.808c0.202-1.167,0.864-2.237,1.79-3.263
			c0.461-0.513,0.975-1.018,1.512-1.531l1.02-0.979c0.379-0.371,0.751-0.746,1.1-1.128c0.707-0.763,1.286-1.527,1.873-2.312
			l0.873-1.22l0.109-0.156l-0.031-0.069l-0.088-0.119l-0.124-0.324c-1.617-0.07-3.41-0.099-4.802-0.385
			c-0.346-0.072-0.697-0.184-0.998-0.288c-0.21-0.078-0.41-0.163-0.601-0.252c-0.384-0.182-0.747-0.394-1.079-0.638
			c-1.343-0.968-2.117-2.506-2.202-4.212c-0.096-1.705,0.411-3.488,1.243-5.089c0.208-0.402,0.44-0.793,0.688-1.173l0.386-0.563
			c0.14-0.2,0.401-0.53,0.607-0.779c0.904-1.045,2.059-2.099,3.097-3.06c0.03-0.131-0.299-0.202-0.505-0.294l-0.681-0.267
			l-1.362-0.54c-0.907-0.363-1.793-0.737-2.65-1.135c-1.193-0.559-2.346-1.164-3.426-1.837c-2.158-1.339-4.04-2.98-5.208-4.954
			c-1.183-1.966-1.569-4.227-1.385-6.415c0.052-0.583,0.102-1.009,0.237-1.708c0.14-0.73,0.359-1.566,0.637-2.363
			c0.572-1.625,1.277-3.337,1.915-4.868l-0.21-0.163l-0.257,0.056l-0.336,0.128l-1.315,0.512l-2.539,1.018
			c-1.6,0.662-3.567,1.536-4.427,1.836c-2.167,0.829-4.122,1.165-5.803,0.948c-0.84-0.091-1.609-0.299-2.3-0.544
			c-0.347-0.122-0.673-0.26-0.981-0.394l-0.447-0.211l-0.327-0.142l-0.214-0.086C382.635,129.017,381.858,128.538,381.374,128.238z"
			/>
		<path style="fill:#595959;" d="M60.895,314.529c-0.91-1.589-2.983-3.432-5.36-4.3c-2.356-0.884-5.008-0.73-6.387,1.137
			c-1.394,1.837-4.134,5.197-6.425,8.869c-2.314,3.662-4.226,7.594-4.683,10.168c-0.974,5.081-5.533,11.528-6.992,14.913
			c-1.519,3.282-5.81,12.162-6.887,20.728c-0.55,4.253-0.912,6.635-1.344,9.17c-0.399,2.529-0.928,5.22-1.026,10.058
			c-0.044,4.854,0.99,7.202,1.656,7.43c0.718,0.228,1.115-1.491,1.229-4.911c0.148-3.434,0.126-5.488,0.186-7.547
			c0.083-2.055,0.266-4.13,1.339-7.512c2.15-6.753,4.39-13.415,5.756-18.596c1.338-5.206,4.611-10.912,6.808-15.081
			c1.093-2.096,2.854-4.668,4.56-6.89c1.696-2.234,3.324-4.117,3.982-5.073c0.658-0.956,2.286-3.005,3.84-4.701
			c1.542-1.708,2.982-3.074,2.982-3.074c-0.002-0.002,1.581-0.872,3.211-1.838C58.971,316.491,60.651,315.48,60.895,314.529z"/>
		<path style="fill:#595959;" d="M306.776,80.881c-0.601-2.315-3.1-3.211-3.67-4.868c-0.598-1.689,2.888-2.118,3.61-1.295
			c0.708,0.793,1.949,2.253,2.869,3.426c0.466,0.58,2.266,2.894,3.853,5.329c1.607,2.42,2.992,4.948,3.291,5.512
			c0.305,0.563,1.475,3.143,2.539,5.896c1.089,2.744,2.055,5.658,2.734,6.676c1.37,2.071-1.528,3.71-2.133,2.805
			c-0.578-0.904-1.847-4.769-2.098-5.331c-0.106-0.285-0.392-2.082-0.88-3.948c-0.472-1.869-1.155-3.798-1.649-4.356
			c-0.95-1.132-2.73-4.868-3.682-6.235C310.646,83.066,306.992,81.702,306.776,80.881z"/>
		<path style="fill:#595959;" d="M320.238,108.886c-0.378-1.772,2.12-3.466,2.6-1.408c0.454,2.045,2.134,3.487,1.978,4.823
			c-0.135,1.323,0.371,5.534,0.815,8.725c0.25,1.594,0.288,4.918,0.109,7.984c-0.163,3.069-0.507,5.875-0.412,6.532
			c0.098,0.659-0.074,2.637-0.372,4.596c-0.291,1.962-0.703,3.899-0.842,4.525c-0.228,1.273-2.1,7.188-3.057,10.003
			c-0.895,2.844-2.418,5.911-2.586,7.386c-0.144,1.442-2.289,0.064-1.926-0.931c0.179-0.49,0.855-2.526,1.496-4.679
			c0.648-2.151,1.241-4.421,1.499-5.322c0.533-1.799,1.203-4.419,1.826-5.563c0.672-1.128,1.728-6.498,1.598-8.417
			c-0.049-1.924-0.278-6.518,0.155-8.977c0.47-2.487-0.576-5.179-0.368-8.061c0.107-1.453-0.356-4.018-0.99-6.308
			C321.139,111.499,320.367,109.479,320.238,108.886z"/>
		<path style="fill:#595959;" d="M227.654,56.405c-3.46,0-3.46-5.384,0.77-4.615c4.23,0.77,5,3.847,3.462,4.231
			C230.347,56.405,227.654,56.405,227.654,56.405z"/>
		<path style="fill:#595959;" d="M393.934,26.872c-2.508-1.253-1.602-5.206-1.602-5.206s-0.401-3.204,2.403-3.204
			c2.803,0,3.604,0.4,4.805,1.602c1.201,1.201,0.801,2.803,0.801,4.405C400.342,26.071,397.138,28.474,393.934,26.872z"/>
		<path style="fill:#595959;" d="M338.273,26.071c-2.606-0.652-4.005-4.805-0.801-5.606c3.203-0.801,5.206,0.4,5.606,2.002
			C343.478,24.069,339.874,26.472,338.273,26.071z"/>
		<path style="fill:#595959;" d="M309.441,63.313c-3.203-1.602-5.206-5.606-1.602-4.405c3.604,1.201,3.604,5.606,3.604,5.606
			L309.441,63.313z"/>
		<path style="fill:#595959;" d="M329.463,64.113c0,0,1.602-7.208,4.405-6.407s1.201,3.204,0,4.005
			C332.666,62.512,329.463,64.113,329.463,64.113z"/>
		<path style="fill:#595959;" d="M344.68,46.894c3.205-1.832,9.611-6.007,14.416-10.411c4.805-4.405,7.608-5.206,8.81-3.604
			c1.201,1.602-0.4,4.004-1.201,5.206c-0.801,1.201-2.803,2.403-5.206,3.204c-2.403,0.801-6.807,3.204-6.807,3.204
			s-2.403,1.201-4.405,2.803C348.284,48.896,341.877,48.496,344.68,46.894z"/>
		<path style="fill:#595959;" d="M320.653,42.89c5.065-1.266,5.206-10.412,8.409-11.212c3.204-0.801,4.805,1.602,2.403,4.004
			c-2.403,2.403-7.208,8.409-9.21,10.411C320.253,48.096,319.051,43.29,320.653,42.89z"/>
		<path style="fill:#595959;" d="M416.76,42.089c5.537,3.322,7.608,7.608,4.805,7.608c-2.803,0-6.007-3.604-8.009-4.405
			c-2.002-0.801-4.805-0.4-6.007-1.602C406.348,42.489,410.753,38.485,416.76,42.089z"/>
		<path style="fill:#595959;" d="M90.742,74.866c4.524-2.262,3.461-11.538,8.845-13.845c5.384-2.307,8.846,2.307,7.307,3.077
			c-1.539,0.77-4.615,1.539-5.769,4.999c-1.154,3.462-2.307,4.616-2.692,6.538c-0.385,1.923,1.154,0-1.923,3.077
			c-3.076,3.077-3.461,3.077-6.153,3.462C87.665,82.559,87.665,76.405,90.742,74.866z"/>
		<path style="fill:#595959;" d="M176.889,39.1c4.216,0.527,8.846,1.924,13.845,3.077c4.999,1.154,11.538,3.077,13.844,4.231
			c2.308,1.153-0.384,2.307-1.922,1.537c-1.538-0.768-3.846-1.153-6.923-1.537c-3.077-0.385-6.922-1.924-11.153-1.924
			c-4.23,0-1.154,2.309-7.692,1.154C170.351,44.484,170.736,38.332,176.889,39.1z"/>
		<path style="fill:#595959;" d="M132.277,81.02c-5.77,1.924-6.538,12.692,1.538,14.615c7.691,1.922,3.461,4.999-0.385,3.077
			c-3.846-1.922-8.076-4.614-7.691-9.615c0.385-4.999,1.153-8.461,4.23-9.614C133.046,78.328,132.277,81.02,132.277,81.02z"/>
		<path style="fill:#595959;" d="M425.97,60.91c4.004,1.201,3.604,8.009-0.4,8.81c-4.405,1.201-5.206,3.203-2.002,2.803
			c3.203-0.4,6.407-2.403,6.807-6.407c0.401-4.005,0-7.208-4.004-7.609C422.366,58.107,425.97,60.91,425.97,60.91z"/>
		<path style="fill:#595959;" d="M70.375,113.636c2.135-4.805,0-10.146,4.805-12.281c4.805-2.135,3.737,2.67,8.542,4.805
			c4.805,2.135,2.135,5.874-1.602,6.407c-3.737,0.533-3.203,5.872-6.941,5.339C71.443,117.373,70.375,113.636,70.375,113.636z"/>
		<path style="fill:#595959;" d="M62.366,139.798c2.681-4.023-1.602-10.679,4.271-9.077s7.475,2.137,5.34,5.874
			C69.841,140.331,61.299,141.399,62.366,139.798z"/>
		<path style="fill:#595959;" d="M81.053,167.028c4.403-2.201,11.213,0.533,12.814,3.204c1.602,2.67-3.738,3.204-6.941,4.805
			c-3.203,1.602-3.203,4.807-8.542,1.068C73.045,172.367,75.714,169.698,81.053,167.028z"/>
		<path style="fill:#595959;" d="M74.646,188.384c4.923,0,9.611-2.134,14.95,0.535c5.339,2.669,1.601,5.872-2.67,5.339
			c-4.271-0.533-4.805,1.068-10.144,1.068C71.443,195.326,70.909,188.384,74.646,188.384z"/>
		<path style="fill:#595959;" d="M51.687,177.172c-3.737-4.27-5.339-9.076-0.533-11.746c4.805-2.67,6.406-5.34,8.542-2.67
			c2.136,2.67-1.602,5.339,0,8.009c1.602,2.67,3.204,3.204,0,7.476C56.493,182.512,51.687,177.172,51.687,177.172z"/>
		<path style="fill:#595959;" d="M41.009,196.928c0-5.874,0.534-9.077,3.738-9.077c3.203,0,3.737,2.67,5.339,4.805
			c1.602,2.135-1.068,2.669-2.669,5.339C45.814,200.665,41.009,201.2,41.009,196.928z"/>
		<path style="fill:#595959;" d="M42.076,233.769c0.692-5.531,1.068-17.621,6.941-16.553c5.873,1.068,5.34,2.137,6.941,7.476
			c1.602,5.339-0.534,8.542-1.602,10.144c-1.068,1.602-0.001,11.212-5.874,8.009C42.611,239.641,41.542,238.041,42.076,233.769z"/>
		<path style="fill:#595959;" d="M29.262,250.854c0-3.204,1.602-5.874,4.805-6.407c3.204-0.533,2.137,0.535,4.272,3.739
			c2.135,3.203,0.533,8.009-1.068,11.746c-1.602,3.737-7.475,4.272-8.009,0C28.729,255.659,29.262,250.854,29.262,250.854z"/>
		<path style="fill:#595959;" d="M50.62,283.424c-2.136-1.068-5.339-5.339-2.669-8.009c2.669-2.669,5.874-3.739,8.009,0.534
			c2.135,4.271,2.669,13.347-1.068,14.949C51.154,292.5,50.62,283.424,50.62,283.424z"/>
		<path style="fill:#595959;" d="M43.678,338.419c-0.533-4.273,1.068-12.817,6.941-12.282s3.738,4.274,8.543,8.544
			c4.805,4.27,11.746,8.007,6.941,9.076c-4.805,1.069-5.339-0.533-9.077-0.533c-3.738,0-1.068,6.94-8.009,3.204
			C42.076,342.69,43.678,338.419,43.678,338.419z"/>
		<path style="fill:#595959;" d="M36.204,366.182c-2.669-5.338-1.603-8.544,2.669-9.611c4.272-1.067,10.679,2.137,10.679,2.137
			s4.271,5.34,2.669,8.009c-1.602,2.669,2.136,3.202-4.271,4.27C41.543,372.056,36.204,366.182,36.204,366.182z"/>
		<path style="fill:#595959;" d="M202.789,321.332c-3.738,0.535-3.737,2.672-9.076,5.34c-5.34,2.669-11.746,3.202-3.204,4.27
			c8.542,1.069,8.542,1.067,10.678,0s2.669,1.067,5.873-4.805c3.204-5.872,3.204-9.076,1.068-8.541
			C205.992,318.128,202.789,321.332,202.789,321.332z"/>
		<path style="fill:#595959;" d="M208.661,341.088c-4.669-1.56-9.611,5.872-4.805,7.474c4.805,1.602,12.281,8.009,11.747,2.671
			C215.069,345.894,210.263,341.623,208.661,341.088z"/>
		<path style="fill:#595959;" d="M215.464,154.364c0.987,1.481-5.433,11.849,0.987,10.862c6.42-0.987,8.394-3.455,8.394-4.937
			c0-1.481-1.974-5.925-6.418-6.42C213.982,153.375,215.464,154.364,215.464,154.364z"/>
		<path style="fill:#595959;" d="M231.758,169.177c0,0-1.976-2.468,1.975-1.976c3.95,0.494,3.95,4.444,3.95,4.444
			s0.989,3.455-2.962,3.95C230.77,176.091,229.29,169.177,231.758,169.177z"/>
		<path style="fill:#595959;" d="M435.046,89.074c-5.34-5.339-4.272-7.474,1.068-11.746c5.34-4.272,5.34,3.204,8.543,6.407
			C447.86,86.939,435.046,89.074,435.046,89.074z"/>
		<path style="fill:#595959;" d="M441.453,113.636c-5.34-2.137-6.407-10.679,1.068-10.679s6.406,3.204,7.475,9.611
			C451.063,118.974,441.453,113.636,441.453,113.636z"/>
		<path style="fill:#595959;" d="M446.792,140.331c7.774,0,6.407-1.067,12.814-1.067c6.407,0,4.272,7.474-4.271,8.542
			C446.792,148.875,438.248,140.331,446.792,140.331z"/>
		<path style="fill:#595959;" d="M451.063,156.349c5.179,1.295,8.543-1.067,12.814-1.067c4.271,0,3.204,4.272-3.203,6.407
			C454.267,163.824,446.792,155.28,451.063,156.349z"/>
		<path style="fill:#595959;" d="M488.438,177.707c7.644,5.095,9.611,18.153,3.204,18.153s-6.406-3.204-8.542-9.611
			C480.963,179.842,485.234,175.572,488.438,177.707z"/>
		<path style="fill:#595959;" d="M482.031,218.285c-1.068-7.475,1.068-16.019,4.272-10.679c3.204,5.34,2.136,9.611,0,12.814
			C484.167,223.623,482.031,218.285,482.031,218.285z"/>
		<path style="fill:#595959;" d="M488.438,249.252c-3.736-4.981-1.068-8.541,0-13.881c1.068-5.34-7.474-5.34,1.068-5.34
			s10.679,0,9.611,7.475C498.048,244.982,491.641,253.522,488.438,249.252z"/>
		<path style="fill:#595959;" d="M472.42,273.814c0.702-4.214-1.068-17.085,6.407-12.814c7.476,4.27,9.611,18.155,3.204,22.425
			C475.624,287.694,471.352,280.221,472.42,273.814z"/>
		<path style="fill:#595959;" d="M436.113,333.613c8.543,1.068,19.221,8.542,19.221,8.542s-8.542,7.474-13.882,6.407
			c-5.34-1.067-16.018-5.337-17.086-10.677s-4.272-9.611,3.203-12.814C435.046,321.867,436.113,333.613,436.113,333.613z"/>
		<path style="fill:#595959;" d="M342.294,341.431c-6.832-5.124-14.446-7.646-11.046-11.045c3.399-3.399,6.797-4.248,11.895-4.248
			c5.098,0,7.647,5.946,12.745,7.646C360.986,335.484,349.092,346.529,342.294,341.431z"/>
		<path style="fill:#595959;" d="M325.102,354.537c-2.685-3.492,0.735-5.873,8.809-4.404c8.075,1.467,11.011,4.404,8.075,5.137
			C339.05,356.005,332.443,364.079,325.102,354.537z"/>
		<path style="fill:#595959;" d="M432.91,362.446c3.276-0.821,9.611-4.273,14.95-4.273c5.339,0,7.475,3.205,1.068,5.34
			c-6.407,2.136-5.339,1.068-12.814,3.204C428.639,368.853,428.639,363.513,432.91,362.446z"/>
	</g>
</g>
</svg>
