<?xml version="1.0" encoding="iso-8859-1"?>
<!-- Generator: Adobe Illustrator 21.1.0, SVG Export Plug-In . SVG Version: 6.00 Build 0)  -->
<svg version="1.1" id="_x31_2" xmlns="http://www.w3.org/2000/svg" xmlns:xlink="http://www.w3.org/1999/xlink" x="0px" y="0px"
	 viewBox="0 0 512 512" style="enable-background:new 0 0 512 512;" xml:space="preserve">
<g>
	<path style="fill:#FFFFFF;" d="M462.266,422.73c4.228,1.057,16.382,8.455,24.309,12.154c7.927,3.699,7.398,7.398,3.699,8.984
		c-3.699,1.585-58.658,18.496-63.414,20.61c-4.756,2.114-21.177,10.992-26.423,11.097c-5.245,0.105-54.959,24.837-60.772,30.122
		c-5.813,5.285-12.683-4.756-17.967-6.87c-5.285-2.114-2.642-12.683-2.642-12.683L462.266,422.73z"/>
	<path style="fill:#FFFFFF;" d="M329.625,426.958c7.927,3.171,89.308,34.878,90.365,36.992c1.057,2.114-31.707-6.87-60.243,10.569
		c-28.536,17.439-35.935,32.236-39.105,31.179c-3.171-1.057-93.406-48.287-96.707-49.674c-3.301-1.387,11.626-14.268,19.024-15.853
		c7.398-1.585,27.479-9.512,33.821-11.626S303.202,417.446,329.625,426.958z"/>
	<path style="fill:#FFFFFF;" d="M338.08,424.316c5.813-7.927,30.122-30.65,68.699-36.463c29.593,9.512,69.756,28.008,72.398,29.593
		c2.642,1.585-2.642,4.228-2.642,4.228l-8.455,4.228c0,0-17.967,6.87-29.065,17.967c-11.098,11.097-16.91,20.61-16.91,20.61
		s-53.374-22.723-55.487-23.252c-2.114-0.528-30.122-11.626-30.122-11.626S335.966,428.015,338.08,424.316z"/>
	<path style="fill:#FFFFFF;" d="M398.852,429.072c2.114,1.585,18.496,8.455,21.138,8.455c2.642,0,25.894-14.797,25.366-16.91
		c-0.528-2.114-20.081-8.455-22.195-7.927C421.047,413.218,398.324,423.787,398.852,429.072z"/>
	<path style="fill:#FFFFFF;" d="M178.488,242.529c7.398-8.984,17.439-43.861,16.91-56.544c-0.528-12.683-8.984-39.105-10.041-49.146
		c-1.057-10.04-17.439-48.617-8.455-81.381c8.984-32.764,20.61-45.975,31.179-41.748c10.569,4.228,21.666,32.236,25.894,51.26
		c4.228,19.024-0.529,62.357-2.114,72.398c-1.585,10.041,5.813-4.228,7.927-13.74c2.114-9.512,4.756-48.618,21.666-66.585
		c16.911-17.967,42.805-32.236,49.146-28.536c6.341,3.699,7.398,44.918-1.585,60.243c-8.984,15.325-25.366,45.447-30.122,59.715
		c-4.756,14.268-7.398,23.78-1.057,25.366c6.341,1.585,29.593,13.74,37.52,24.309c7.927,10.569,3.699,30.65-6.87,40.691
		c16.382,6.87,17.967,15.325,13.211,24.309c-4.756,8.984-18.496,20.61-18.496,20.61s10.04,17.439,14.268,25.894
		c4.228,8.455,8.931,24.387,13.158,31.785c4.228,7.398,19.077,32.686,21.191,43.255c2.114,10.569-6.87,25.366-21.667,25.366
		c-14.797,0-28.008-4.756-30.122-11.626c-2.114-6.87-5.813-13.211-5.813-13.211l-33.821,8.984c0,0-6.87,10.569-12.154,10.569
		s-4.228,7.927-4.228,7.927s-8.455,20.609-31.179,25.366c-13.3,3.962-24.309-5.285-24.309-5.285s-69.756-5.813-79.268-6.341
		c-9.512-0.528-19.553-0.528-31.179-12.154c-11.626-11.626,7.398-50.731,10.569-58.13c3.171-7.398,47.561-79.796,59.715-93.007
		C160.52,249.927,178.488,242.529,178.488,242.529z"/>
	<path style="fill:#94C85C;" d="M208.61,383.097c0,0-15.325-17.967-15.854-20.61c-0.528-2.642,6.87-7.927,9.512-7.927
		c2.642,0,20.61,22.723,20.61,22.723S211.252,378.341,208.61,383.097z"/>
	<path style="fill:#94C85C;" d="M239.788,420.088l20.081,22.723c0,0,6.341-8.455,8.984-8.455c2.642,0-0.528-4.228-0.528-4.228
		l-23.252-23.78c0,0-3.171,2.114-2.114,4.228C244.016,412.69,239.788,420.088,239.788,420.088z"/>
	<path style="fill:#C79F62;" d="M263.568,447.039c3.536,1.516,16.911,10.041,15.854,6.341c-1.057-3.699-7.927-19.553-7.927-19.553
		s-7.398,2.642-9.512,4.756S259.869,445.454,263.568,447.039z"/>
	<g>
		<path style="fill:#231815;" d="M282.782,171.287c-2.007-0.762-8.942-1.959-7.963,2.107c0.644,2.676,8.698,4.937,10.556,5.764
			c7.186,3.202,14.648,6.168,20.922,11.022c6.608,5.112,12.591,12.872,12.833,21.562c0.114,4.093-1.203,7.985-2.949,11.63
			c-1.698,3.546-5.175,7.417-5.999,11.273c-0.709,3.321,0.456,4.627,3.456,2.598c2.387-1.615,4.107-4.953,5.359-7.478
			c3.714-7.491,4.856-16.921,2.062-24.892C315.747,189.723,297.209,176.871,282.782,171.287z"/>
		<path style="fill:#231815;" d="M301.18,282.346c-6.392,5.312-3.561,9.759,3.186,5.245c7.539-5.044,12.875-13.314,17.116-21.144
			c3.664-6.764,7.05-14.533,0.913-20.855c-5.96-6.14-15.655-10.259-24.156-10.624c-3.079-0.132-8.916,0.034-10.674,3.311
			c-2.411,4.494,2.798,2.978,5.552,2.59c7.271-1.023,14.981-0.708,21.526,2.91c8.298,4.588,10.292,10.372,5.366,18.712
			C315.377,270.335,308.083,276.58,301.18,282.346z"/>
		<path style="fill:#231815;" d="M287.677,248.854c-4.273-4.901-10.428-1.171-15.242-3.508c-0.93-0.452,4.137-2.914,4.502-3
			c2.749-0.651,6.792-0.408,9.344,0.788c1.68,0.788,5.756,3.642,5.566,5.594C291.583,251.419,289.605,249.145,287.677,248.854z"/>
		<path style="fill:#231815;" d="M276.632,259.321c-2.505-0.999-9.507,0.674-11.193-1.749c-1.502-2.158,3.339-2.344,4.843-2.529
			C273.779,254.612,283.998,256.225,276.632,259.321z"/>
		<path style="fill:#231815;" d="M313.302,295.357c1.333,3.848,17.587,46.011,17.327,46.07c-1.958,0.441-7.555-10.581-8.073-11.675
			c-2.859-6.04-5.871-12.168-8.472-18.319c-1.059-2.504-1.607-5.187-2.485-7.763c-1.065-3.124-6.973-13.544-4.86-16.974
			C306.973,286.315,312.564,294.294,313.302,295.357z"/>
		<path style="fill:#231815;" d="M266.155,274.267c0.478-2.092-1.942-3.438-3.696-3.062c-3.289,0.705-2.977,5.365-2.425,7.784
			c1.604,7.031,5.241,16.106,10.352,21.293c1.725,1.75,5.673,4.269,5.844-0.421c0.117-3.203-3.769-3.999-5.658-5.578
			C264.647,289.331,264.724,281.072,266.155,274.267z"/>
		<path style="fill:#231815;" d="M283.174,328.961c-1.525-5.379-3.137-10.746-4.487-16.173c-0.354-1.424-1.997-5.613-1.204-7.114
			c1.635-3.093,4.039,3.488,4.618,5.01c2.536,6.672,4.165,13.887,6.036,20.771c3.502,12.889,5.818,25.983,7.852,39.175
			c0.915,5.933,1.697,11.888,2.697,17.807c0.287,1.696,1.639,12.654,2.849,13.1c-3.578-1.32-5.724-12.159-6.724-15.431
			c-1.8-5.891-3.189-11.885-4.326-17.937C288.029,355.097,286.09,341.947,283.174,328.961z"/>
		<path style="fill:#231815;" d="M342.288,355.989c8.817,14.464,20.089,29.569,8.428,46.042
			c-4.803,6.784-12.574,10.462-20.855,10.141c-3.613-0.14-7.122-1.044-10.472-2.351c-2.036-0.794-7.705-2.874-8.591-5.122
			c0.626,1.587,11.014,2.083,12.836,2.243c6.268,0.553,12.855,0.222,18.051-3.711c9.249-7.002,8.941-18.25,4.919-27.976
			c-3.968-9.596-11.489-17.274-15.306-26.94c-1.091-2.762-2.691-9.646,1.226-4.046C335.459,348.465,338.743,352.289,342.288,355.989
			z"/>
		<path style="fill:#231815;" d="M272.923,156.955c-0.831,2.736-0.526,10.503,3.722,6.422c2.478-2.381,3.424-8.544,4.301-11.633
			c2.13-7.503,3.897-15.052,7.167-22.171c4.097-8.918,9.502-17.273,14.723-25.562c1.958-3.109,12.602-16.359,9.781-19.96
			c-3.755-4.793-15.219,22.299-17.139,25.652C287.002,124.508,277.427,140.403,272.923,156.955z"/>
		<path style="fill:#231815;" d="M233.965,144.414c7.598-7.889,12.074-14.755,12.549-25.892c0.537-12.571,1.755-25.38,5.531-37.436
			c6.362-20.314,21.962-45.434,42.381-53.905c1.945-0.807,11.366-1.437,11.336-4.257c-0.046-4.452-10.344-0.998-12.556-0.095
			c-10.078,4.114-18.58,11.491-25.495,19.783c-5.33,6.391-8.913,13.217-12.814,20.445c-5.229,9.689-10.965,19.74-13.197,30.657
			c-1.883,9.212-2.831,18.62-5.297,27.741c-1.483,5.485-4.009,10.556-5.569,15.976C229.975,140.414,228.001,150.553,233.965,144.414
			z"/>
		<path style="fill:#231815;" d="M322.154,36.92c-0.526-6.109-5.906-3.198-6.091,1.319c-0.204,4.996,1.916,9.815,1.799,14.832
			c-0.143,6.094-2.253,12.148-4.246,17.845c-0.892,2.55-4.636,8.781-2.764,11.449c4.717,6.724,6.831-12.379,7.081-13.642
			C319.986,58.332,323.079,47.635,322.154,36.92z"/>
		<path style="fill:#231815;" d="M228.486,25.321c-0.926-2.151-4.398-9.528-7.553-9.281c-3.231,0.253-0.258,6.149,0.454,8.035
			c3.947,10.465,7.658,20.892,9.938,31.874c4.748,22.865,2.207,46.383-0.197,69.38c-1.104,10.556-4.24,23.29-2.282,33.83
			c1.456,7.834,4.089,1.016,4.739-2.774c1.652-9.631,1.212-19.536,1.381-29.259c0.138-7.943,0.837-15.842,1.357-23.765
			C237.987,78.074,238.697,49.032,228.486,25.321z"/>
		<path style="fill:#231815;" d="M187.992,175.929c-4.539-5.94-3.449-15.564-3.838-22.662c-0.429-7.837-1.674-15.248-3.525-22.875
			c-3.327-13.712-7.104-27.519-8.779-41.558c-1.816-15.213-0.585-31.506,3.408-46.342c2.484-9.229,6.768-16.937,11.457-25.147
			c2.086-3.652,3.782-5.919,6.677-8.861c0.697-0.708,7.612-8.637,9.069-6.597c0.848,1.186-11.907,16.121-13.223,19.051
			c-1.915,4.26-2.948,7.057-5.829,10.439c-2.661,3.123-2.999,6.795-3.655,10.668c-3.264,19.283-4.325,38.667-0.552,58.065
			c3.146,16.173,8.164,32.142,11.755,48.248c0.819,3.675,2.043,7.121,3.364,10.651c0.521,1.391,1.758,3.407,1.845,4.939
			c0.144,2.528,0.081-0.054-1.03,2.946C193.779,170.559,193.488,184.193,187.992,175.929z"/>
		<path style="fill:#231815;" d="M189.997,204.154c0.263-2.457,0.027-12.665,3.009-14.124c5.086-2.487,1.764,17.286,1.42,19.32
			c-1.309,7.747-3.979,15.29-7.612,22.255c-1.427,2.736-7.398,14.513-11.217,14.198c0.458,0.038,6.401-18.51,7.156-20.413
			C185.515,218.424,188.257,211.462,189.997,204.154z"/>
		<path style="fill:#231815;" d="M163.34,253.678c-13.743,7.684-24.329,22.734-33.367,35.2
			c-8.602,11.865-16.81,24.219-24.173,36.898c-7.597,13.081-13.872,27.299-19.866,41.188c-5.585,12.939-12.351,29.28-7.694,43.437
			c1.097,3.335,2.923,6.214,5.017,9.002c0.666,0.887,3.649,3.605,2.98,4.628c-2.434,3.721-11.71-10.529-12.383-12.212
			c-5.256-13.141-0.395-27.829,4.701-40.203c11.17-27.122,23.988-54.447,39.844-79.167c8.913-13.896,20.524-25.604,30.366-38.801
			c3.651-4.896,7.088-8.978,13.604-8.52c2.004,0.141,7.486,0.615,7.146,3.75C169.265,251.193,164.956,252.745,163.34,253.678z"/>
		<path style="fill:#231815;" d="M133.983,381.953c-1.909-0.404-6.669-0.407-6.498,2.639c0.127,2.261,4.595,3.173,6.162,3.604
			c6.137,1.686,12.536,1.74,18.808,2.558c7.874,1.026,15.507,3.334,23.171,5.34c6.487,1.698,16.597,5.799,23.313,3.693
			c6.623-2.077,0.401-4.923-3.09-5.284c-6.503-0.673-12.898-0.073-19.338-1.497C162.207,389.842,148.292,384.959,133.983,381.953z"
			/>
		<path style="fill:#231815;" d="M195.001,399.925c-0.702,1.611-1.896,6.844,1.081,7.268c2.201,0.314,3.759-3.404,4.522-4.796
			c3.646-6.656,5.998-14.593,11.709-19.894c6.305-5.853,13.809-4.245,21.334-2.019c3.973,1.176,7.898,2.645,11.636,4.435
			c2.836,1.358,6.862,5.153,9.863,5.622c3.461,0.541,3.488-1.562,1.902-4.15c-1.753-2.86-5.407-4.575-8.424-5.654
			c-6.168-2.207-13.293-3.47-19.742-4.72C212.9,372.921,200.999,386.309,195.001,399.925z"/>
		<path style="fill:#231815;" d="M260.218,399.44c0.643-3.502-4.324-2.848-5.78-1.242c-1.742,1.921-0.863,4.104-3.731,5.292
			c-3.572,1.479-16.203-5.503-15.957,0.304c0.188,4.445,8.341,2.825,11.356,2.977C251.376,407.037,259.045,405.681,260.218,399.44z"
			/>
		<path style="fill:#231815;" d="M245.598,416.785c1.11-2.246,1.101-6.224-2.062-6.498c-2.916-0.253-4.75,3.587-5.976,5.633
			c-2.805,4.682-5.01,9.781-9.088,13.551c-5.183,4.791-12.746,7.513-19.771,7.556c-3.13,0.019-6.308-0.505-9.226-1.653
			c-2.114-0.831-5.163-3.377-7.485-1.928c-5.48,3.42,4.754,8.21,7.548,8.572c4.954,0.641,10.661-0.734,15.498-1.869
			C226.924,437.361,240.095,427.787,245.598,416.785z"/>
		<path style="fill:#231815;" d="M89.147,426.291c1.85-2.319,2.37-5.545,5.589-5.57c1.345-0.01,3.518,1.402,4.825,1.748
			c2.096,0.554,4.267,0.801,6.43,0.848c8.719,0.188,17.515,0.788,26.239,0.759c14.321-0.048,28.176,4.084,42.438,5.24
			c3.014,0.244,18.911,0.469,20.093,4.12c1.053,3.253-11.456,0.69-13.484,0.463c-14.095-1.577-27.976-1.048-42.103-1.262
			C122.396,432.384,105.7,428.77,89.147,426.291z"/>
		<path style="fill:#231815;" d="M207.068,332.033c2.01,2.292,10.091,8.637,8.616,12.352c-0.116,0.292-7.529-6.426-8.344-7.297
			c-0.862-0.92-3.773-3.765-3.778-4.892C203.552,330.079,205.521,331.579,207.068,332.033z"/>
		<path style="fill:#231815;" d="M228.485,339.188c2.537,2.33,4.883,4.976,6.166,8.222c0.415,1.05,2.28,6.601,0.447,7.572
			c0.308-0.163-5.316-9.811-6.225-10.942C226.406,340.971,221.601,337.384,228.485,339.188z"/>
		<path style="fill:#231815;" d="M249.783,354.486c1.315,2.051,6.722,6.56,6.17,9.368c-0.594,3.02-2.636-0.628-4.205-2.245
			C249.932,359.738,242.864,351.227,249.783,354.486z"/>
		<path style="fill:#231815;" d="M167.946,344.381c5.873-0.455,4.569-5.999-0.733-6.043c-5.969-0.049-9.798,5.101-12.257,9.873
			c-5.377,10.433-11.437,21.934-15.063,33.111c-1.245,3.839,0.894,6.893,4.147,3.444c3.537-3.749,3.128-10.201,4.608-14.819
			C151.477,361.116,156.963,345.207,167.946,344.381z"/>
		<path style="fill:#231815;" d="M304.25,213.179c3.444-0.313,10.265-5.572,13.474-3.805c0.734,0.404-7.887,5.712-9.078,6.096
			c-1.215,0.392-5.326,1.348-6.285,0.554C300.768,214.703,303.092,214.214,304.25,213.179z"/>
		<path style="fill:#231815;" d="M344.639,196.341c10.048-3.714,19.842-7.764,30.41-9.83c5.164-1.009,10.405-1.626,15.665-1.798
			c0.698-0.023,9.272,0.37,9.244,0.429c-0.74,1.525-12.203,2.234-13.699,2.448c-7.633,1.093-15.108,2.462-22.378,5.1
			c-3.811,1.383-28.974,11.483-29.867,9.617C333.793,201.846,343.581,196.947,344.639,196.341z"/>
		<path style="fill:#231815;" d="M349.361,211.472c11.886-0.566,23.768-1.373,35.664-0.578c5.214,0.349,10.42,0.969,15.544,2.011
			c0.697,0.142,10.345,3.114,10.384,3.074c-0.369,0.383-4.076-0.352-4.709-0.398c-3.536-0.255-7.065-0.543-10.592-0.906
			c-8.6-0.886-17.029-1.239-25.663-0.819c-4.325,0.21-33.693,0.46-33.673,0.324C336.488,213.062,348.037,211.74,349.361,211.472z"/>
		<path style="fill:#231815;" d="M341.34,227.484c7.491,1.723,15.168,2.509,22.681,4.132c3.228,0.697,15.362,2.562,16.988,6.422
			c-0.223-0.53-5.485-0.929-5.833-0.994c-4.031-0.757-7.972-1.908-12.005-2.662c-4.346-0.812-8.75-1.074-13.058-2.023
			c-2.639-0.581-5.282-1.12-7.93-1.661c-1.57-0.32-8.14-0.968-9.242-2.78C331.961,226.307,339.712,227.484,341.34,227.484z"/>
		<path style="fill:#231815;" d="M249.539,219.351c-5.791-8.428-1.631-36.048,9.194-22.073
			C263.723,203.721,257.738,226.122,249.539,219.351z"/>
		<path style="fill:#231815;" d="M206.525,354.416c1.165,2.318,16.546,20.087,15.584,20.723
			c-2.236,1.478-12.989-9.955-14.547-11.835c-1.219-1.471-7.749-12.129-5.464-12.783
			C202.886,350.294,205.784,353.822,206.525,354.416z"/>
		<path style="fill:#231815;" d="M253.093,411.825c4.428,4.708,9.634,8.616,14.02,13.372c0.723,0.784,6.732,10.233,6.715,10.231
			c-3.447-0.314-7.957-6.583-10.123-8.635c-2.555-2.421-5.456-4.403-7.933-6.863c-2.4-2.384-8.081-6.432-8.77-9.837
			C246.316,406.705,251.531,411.056,253.093,411.825z"/>
		<path style="fill:#231815;" d="M195.041,362.665c-1.544-1.407-3.695,1.178-3.965,2.531c-0.596,2.986,1.84,3.515,4.026,4.548
			c3.107,1.469,4.869,2.737,6.758,5.764c0.897,1.438,2.236,6.411,3.943,6.836c1.34,0.334,2.988-0.663,3.512-1.923
			c1.132-2.724-1.549-3.533-3.202-4.995C201.933,371.731,199.074,366.534,195.041,362.665z"/>
		<path style="fill:#231815;" d="M244.879,420.146c-0.848-1.938-3.619-1.7-4.809-0.302c-1.958,2.299,0.307,5.333,1.861,7.105
			c2.724,3.106,5.899,5.32,8.448,8.677c2.46,3.239,4.717,7.159,7.876,9.798c2.034,1.7,5.586,2.698,5.348-1.299
			c-0.186-3.131-3.971-3.745-6.045-5.192C251.409,434.642,247.858,426.715,244.879,420.146z"/>
		<path style="fill:#231815;" d="M266.434,446.69c1.815,1.176,9.816,2.715,10.05,5.648c0.218,2.728-4.448,0.552-6.119,0.074
			C267.145,451.492,259.164,447.989,266.434,446.69z"/>
		<path style="fill:#231815;" d="M276.297,438.79c0.431,4.3,6.551,11.854,5.078,15.935c-0.312,0.863-4.015-3.134-4.09-3.243
			c-1.345-1.966-3.089-4.875-3.816-7.141c-0.494-1.538-1.495-6.059-0.827-7.402C274.039,434.133,274.943,437.369,276.297,438.79z"/>
		<path style="fill:#231815;" d="M22.064,441.369c-6.029,1.5-6.617,6.815,0.513,6.109c6.589-0.653,12.703-3.914,18.868-6.061
			c8.456-2.945,17.422-4.021,26.245-5.298c4.596-0.666,9.199-1.284,13.785-2.015c2.539-0.405,6.088-0.429,8.263-1.934
			c3.594-2.487,0.892-4.223-2.452-4.42c-6.394-0.376-12.57,3.385-18.667,4.809C53.255,436.146,37.407,437.636,22.064,441.369z"/>
		<path style="fill:#231815;" d="M260.017,391.828c-4.007,0.362-3.139,4.994-0.16,5.949c3.389,1.086,7.281-1.599,10.057-3.159
			c3.956-2.224,8.011-3.569,12.493-4.284c3.952-0.631,8.202,0.309,12.002-0.31c3.616-0.589,4.191-3.909,0.58-5.408
			c-3.353-1.392-7.508,1.283-10.663,2.094C276.268,388.783,268.352,391.132,260.017,391.828z"/>
		<path style="fill:#231815;" d="M352.554,371.281c-4.988,1.066-8.523,6.086-1.337,6.248c7.241,0.163,14.689-3.464,21.427-5.68
			c8.461-2.783,17.193-4.164,25.991-5.401c8.447-1.188,18.378-1.007,26.477-3.777c7.595-2.598,0.94-5.356-3.534-4.904
			c-6.629,0.67-12.823,3.606-19.352,4.854C385.728,365.776,369.002,367.894,352.554,371.281z"/>
		<path style="fill:#231815;" d="M191.068,360.109c2.386-3.131,7.69-8.378,12.237-6.38c3.556,1.562-0.896,2.421-2.722,3.38
			c-2.337,1.227-4.135,2.869-6.08,4.604C191.514,364.379,191.027,364.277,191.068,360.109z"/>
		<path style="fill:#231815;" d="M256.878,441.635c-1.425,1.841,4.248,4.973,6.212,1.79c1.467-2.378-0.166-4.239,3.057-5.808
			c1.973-0.961,4.764,0.627,6.171-0.093c1.565-0.8,2.183-3.987,0.661-5.179c-1.597-1.251-3.711,0.546-5.067,1.182
			C263.805,435.456,259.857,438.077,256.878,441.635z"/>
		<path style="fill:#231815;" d="M283.009,424.681c8.116-3.006,16.273-5.104,25.004-4.4c4.028,0.325,7.953,1.2,11.897,2.032
			c1.494,0.315,7.012,0.684,8.107,1.811c-0.291-0.3-4.162,0.918-4.843,0.992c-2.703,0.293-5.355-0.023-8.038-0.383
			c-5.395-0.725-10.604-1.243-16.007-0.3c-3.603,0.629-7.271,1.105-10.758,2.234c-2.583,0.836-10.176,5.612-13.023,4.335
			C275.002,430.846,282.069,425.353,283.009,424.681z"/>
		<path style="fill:#231815;" d="M352.109,436.361c-5.268-1.748-10.552-3.521-15.691-5.628c-1.337-0.548-5.605-1.686-6.378-3.14
			c-1.394-2.623,5.236-0.333,6.5,0.057c6.721,2.072,13.325,4.688,19.988,6.952c12.429,4.224,24.691,8.87,36.707,14.167
			c2.008,0.885,28.125,13.849,27.5,14.669c-0.791,1.037-29.23-11.355-32.024-12.487
			C376.535,446.014,364.356,441.113,352.109,436.361z"/>
		<path style="fill:#231815;" d="M310.577,504.539c2.369,0.964,7.039,3.288,9.121,0.861c-0.288-0.119-0.623-0.118-0.875-0.343
			c-0.501,2.235,1.713,2.92,2.92,1.142c1.501-2.211-2.167-4.216-3.449-4.955c-7.904-4.559-17.169-7.463-25.522-11.15
			c-21.306-9.405-40.896-22.153-62.177-31.557c-0.633-0.28-5.365-1.46-5.75-2.723c-1.156-3.8,7.123-8.178,9.438-9.434
			c4.352-2.36,10.614-3.418,14.364-6.665c4.491-3.888-1.401-3.596-4.5-3.023c-8.026,1.483-23.035,8.213-23.512,17.944
			c-0.21,4.286,1.928,4.714,5.45,5.923c4.419,1.517,8.676,3.414,12.872,5.46C263.266,477.868,285.499,494.416,310.577,504.539z"/>
		<path style="fill:#231815;" d="M325.408,499.94c-1.196,0.893-6.992,4.543-6.433,6.439c0.692,2.349,5.195-0.068,6.597-0.807
			c7.233-3.811,12.664-10.41,18.062-16.371c12.16-13.426,28.658-22.606,46.832-24.686c8.672-0.992,16.39,0.933,24.884,1.807
			c1.199,0.123,8.573,0.006,5.733-3.176c0.302,0.339-4.639-0.828-4.541-0.799c-13.471-4.081-28.248-1.456-41.318,3.082
			c-8.979,3.117-17.649,7.935-25.266,13.594C341.313,485.445,334.137,493.628,325.408,499.94z"/>
		<path style="fill:#231815;" d="M403.947,477.101c4.371-1.733,8.132-6.784,0.823-5.338c-7.396,1.463-14.284,6.28-20.616,10.126
			c-7.817,4.749-15.983,8.807-24.102,13.005c-7.867,4.069-17.129,7.731-24.122,13.233c-6.443,5.07,0.686,4.371,4.519,2.352
			c6.042-3.182,11.157-7.857,17.056-11.291C372.389,490.527,388.003,483.537,403.947,477.101z"/>
		<path style="fill:#231815;" d="M395.192,475.681c5.545-1.042,6.633-5.256,0.159-4.932c-6.603,0.33-12.729,3.725-18.493,6.629
			c-12.947,6.523-23.89,14.728-35.219,23.717c-1.267,1.005-4.873,3.463-2.532,5.07c1.078,0.74,3.666-0.725,4.556-1.195
			c5.574-2.946,9.003-8.734,13.658-12.806C368.176,482.669,381.233,478.327,395.192,475.681z"/>
		<path style="fill:#231815;" d="M427.774,462.781c-1.557,0.61-5.354,2.842-4.442,5.175c1.016,2.599,5.833,0.805,7.571,0.239
			c6.747-2.197,12.85-5.942,19.444-8.514c7.417-2.893,15.265-4.557,22.864-6.894c6.106-1.877,15.27-4.031,19.78-8.923
			c4.761-5.164-2.146-4.528-5.4-2.869c-5.893,3.004-10.854,7.117-17.188,9.28C456.42,455.051,441.493,457.338,427.774,462.781z"/>
		<path style="fill:#231815;" d="M423.959,456.772c-0.997,1.597-2.674,5.385-0.26,6.281c1.745,0.648,4.074-3.237,4.847-4.275
			c3.89-5.218,7.072-10.972,11.542-15.744c9.669-10.321,21.834-14.869,35.172-17.884c8.181-1.849-0.862-4.578-4.875-3.708
			c-5.816,1.26-11.266,5.072-16.385,8.016C442.71,435.954,431.016,445.727,423.959,456.772z"/>
		<path style="fill:#231815;" d="M342.95,414.327c9.011-9.171,20.855-15.811,32.641-20.705c5.92-2.458,12.052-4.492,18.345-5.75
			c2.246-0.449,4.516-0.819,6.802-0.988c0.875-0.065,4.603,0.484,5.145,0.153c-1.262,0.771-3.692,0.966-5.126,1.443
			c-3.758,1.247-7.492,2.561-11.253,3.801c-8.085,2.665-15.978,5.818-23.312,10.182c-5.466,3.252-11.233,6.294-16.142,10.363
			c-0.634,0.525-14.083,14.548-13.007,15.437C334.762,426.38,341.758,415.969,342.95,414.327z"/>
		<path style="fill:#231815;" d="M414.954,389.281c-1.405-0.55-6.446-2.068-6.958,0.583c-0.416,2.155,5.744,4.242,6.802,4.684
			c5.834,2.435,11.992,3.85,17.973,5.849c8.381,2.802,16.58,6.349,24.845,9.494c4.052,1.542,8.076,3.16,12.027,4.949
			c2.957,1.339,7.238,4.573,10.525,4.78c6.237,0.392-0.664-4.87-2.719-5.975c-6.101-3.279-13.28-4.239-19.789-6.493
			C442.986,402.074,429.393,394.886,414.954,389.281z"/>
		<path style="fill:#231815;" d="M433.058,456.196c-4.305,2.096-4.804,7.21,0.932,6.066c5.293-1.056,10.334-4.765,15.077-7.191
			c12.339-6.311,26.152-11.204,39.511-14.714c6.529-1.715,4.178-6.052-1.735-5.336c-5.91,0.715-10.833,5.078-16.081,7.561
			c-5.247,2.483-10.652,4.846-16.175,6.633C447.421,451.534,439.867,452.871,433.058,456.196z"/>
		<path style="fill:#231815;" d="M443.052,450.012c6.694-4.399,13.002-9.376,20.168-13.025c3.394-1.728,15.761-7.607,19.564-3.778
			c-1.07-1.078-10.709,2.969-11.725,3.353c-5.724,2.16-10.322,5.48-15.342,8.813c-2.807,1.863-17.621,13.053-19.325,11.314
			C436.109,456.4,442.416,450.662,443.052,450.012z"/>
		<path style="fill:#231815;" d="M332.367,472.471c6.795-5.633,14.529-10.388,22.668-13.804c3.695-1.551,16.736-7.089,20.721-3.538
			c-1.114-0.992-9.643,2.598-10.775,2.953c-5.931,1.86-11.589,4.212-16.87,7.515c-3.205,2.004-6.592,3.737-9.678,5.928
			c-2.424,1.721-4.674,3.677-6.878,5.668c-1.067,0.964-3.115,3.722-4.615,3.988C326.97,481.175,331.398,473.636,332.367,472.471z"/>
		<path style="fill:#231815;" d="M319.228,462.883c6.369-4.9,13.907-8.49,21.494-11.043c3.7-1.245,7.504-2.232,11.369-2.805
			c1.538-0.228,6.718-1.367,8.152-0.349c-0.837-0.595-8.675,2.932-9.691,3.219c-5.535,1.564-10.961,3.163-16.104,5.791
			c-3.015,1.541-6.202,2.844-9.102,4.597c-2.605,1.575-4.978,3.503-7.299,5.463c-0.98,0.828-2.65,2.994-4.007,3.121
			C313.838,470.896,318.473,463.792,319.228,462.883z"/>
		<path style="fill:#231815;" d="M427.772,415.493c-0.821-0.13-8.01-0.979-6.695-3.414c1.123-2.081,9.527,0.763,11.195,1.181
			c1.494,0.374,17.619,5.382,16.903,7.657C448.38,423.441,429.445,416.035,427.772,415.493z"/>
		<path style="fill:#231815;" d="M426.265,435.806c-1.01,0.837-6.739,6-8.247,3.642c-1.065-1.666,8.411-7.755,9.672-8.705
			c3.881-2.922,8.143-5.535,12.585-7.517c0.585-0.261,7.901-2.972,7.898-2.296c-0.006,1.681-8.679,6.753-10.08,7.651
			C434.206,431.071,430.185,433.363,426.265,435.806z"/>
		<path style="fill:#231815;" d="M411.419,435.382c1.03,0.215,4.663,1.251,4.305,3.059c-0.485,2.452-4.775,0.045-6.029-0.306
			c-1.162-0.325-15.703-5.442-11.723-8.671C398.534,429.009,409.887,434.724,411.419,435.382z"/>
		<path style="fill:#231815;" d="M401.983,426.397c-1.067,0.917-6.228,5.115-7.991,3.259c-1.344-1.415,7.135-6.626,8.425-7.706
			c3.194-2.674,6.432-5.369,10.293-7.046c1.923-0.835,3.884-1.451,5.996-1.511c0.178-0.005,5.324,0.75,4.644,1.209
			c-1.491,1.007-4.38,1.037-6.152,1.917c-1.714,0.852-3.36,1.926-4.979,2.941C408.728,421.651,405.385,424.07,401.983,426.397z"/>
		<path style="fill:#231815;" d="M386.841,418.74c7.294-3.717,17.136-14.223,26.079-12.649
			c-0.508-0.089-30.225,19.372-30.716,17.002C382.044,422.32,386.165,419.427,386.841,418.74z"/>
		<path style="fill:#231815;" d="M376.061,413.268c5.165-2.98,9.91-6.642,14.896-9.902c0.531-0.347,9.166-5.077,9.178-4.879
			c0.142,2.35-6.791,6.597-8.14,7.574c-2.762,2.001-5.337,4.322-8.212,6.13c-2.107,1.325-8.369,6.356-10.681,5.827
			C370.442,417.41,374.687,414.814,376.061,413.268z"/>
		<path style="fill:#231815;" d="M247.988,243.014c-2.66,3.158-8.784,12.199-14.075,9.758c1.018,0.47,7.887-7.331,9.012-8.614
			c0.911-1.038,3.555-4.994,5.057-5.099C249.761,238.937,248.193,241.963,247.988,243.014z"/>
		<path style="fill:#231815;" d="M228.171,247.237c-1.649,1.414-7.506,7.282-5.46,1.732
			C223.397,247.106,229.146,242.215,228.171,247.237z"/>
		<path style="fill:#231815;" d="M214.332,247.483c-1.683,0.558-6.539,6.819-7.969,6.39c-2.043-0.614,0.206-3.292,1.278-4.799
			C209.432,246.557,218.49,241.586,214.332,247.483z"/>
		<path style="fill:#231815;" d="M175.003,74.205c1.949-3.509,3.887-9.456,7.281-11.825c4.663-3.255,4.804,5.48,5.289,8.482
			c0.819,5.067,1.41,6.706,6.534,4.778c2.569-0.966,6.961-1.6,9.024-2.692c2.8-1.482,11.539-20.63,13.595-8.802
			c0.195,1.121-0.639,2.509,0.42,3.385c1.329,1.099,4.452-0.384,6.017-0.155c2.387,0.349,6.035,4.056,8.264,2.621
			c3.203-2.061,1.035-11.379,0.652-14.125c-1.174-8.421-3.201-16.77-5.923-24.821c-2.797-8.274-6.37-16.702-11.935-23.526
			c-2.146-2.632-5.336-6.351-8.749-7.288c-4.468-1.227-6.931,2.563-9.181,5.841C182.353,26.385,173.719,49.172,175.003,74.205z"/>
		<path style="fill:#231815;" d="M259.294,65.252c2.7-2.7,6.106-6.078,9.741-7.432c4.83-1.8,4.568,2.172,4.596,6.022
			c0.035,4.912-0.439,6.713,4.397,4.66c2.618-1.111,3.937-0.611,6.564-0.752c1.619-0.087,2.831-1.766,3.855-1.816
			c0.249-0.012,0,0.809,0,0.919c0-2.56,3.369-7.394,5.013-9.406c2.241-2.742,4.966-4.447,8.217-2.224
			c8.208,5.614-3.239,10.312-0.994,14.442c0.071,0.131,1.971,1.123,2.345,1.633c0.748,1.022,0.789,2.958,1.03,4.143
			c0.324,1.592,0.558,6.227,2.883,6.384c3.889,0.263,7.844-11.658,8.721-14.042c3.721-10.121,5.144-20.788,4.706-31.539
			c-0.194-4.752-0.002-13.14-4.488-16.298c-6.22-4.378-17.522,3.075-22.613,6.075C278.399,34.781,263.832,48.013,259.294,65.252z"/>
	</g>
</g>
</svg>
