<svg id="レイヤー_1" data-name="レイヤー 1" xmlns="http://www.w3.org/2000/svg" viewBox="0 0 800 270.53"><defs><style>.cls-1{fill:#fff;}.cls-2{fill:#fad9e1;}.cls-3{fill:#d66c79;}.cls-4{fill:#7a8952;}.cls-5{font-size:74.29px;fill:#b4a00d;font-family:MrEavesXLModOT-Reg, Mr Eaves XL Mod OT;}</style></defs><title>supported-by-haskell-jp</title><rect class="cls-1" y="-0.4" width="800" height="271"/><path class="cls-2" d="M80.45,118.26c-5.73-35.05,8.6-40,8.6-40l14.72,15.32,9.31-18.93s16.83.34,20,35.71c2.27,25.59-20.53,43.26-20.53,43.26S84.93,145.71,80.45,118.26Z"/><path class="cls-2" d="M56.38,183.83C21.29,178.44,21,163.28,21,163.28L40.12,154,25,139.31s5.52-15.89,40.13-7.95c25,5.74,34.79,32.89,34.79,32.89S83.87,188,56.38,183.83Z"/><path class="cls-2" d="M112.82,227.72C96.86,259.44,82.35,255,82.35,255L79.45,234l-18.66,9.84s-13.41-10.17,4.84-40.63c13.2-22,42-22.92,42-22.92S125.33,202.88,112.82,227.72Z"/><path class="cls-2" d="M172.16,187.09c25.23,25,16.55,37.42,16.55,37.42l-20.91-3.74,3.59,20.79s-13.81,9.61-37.15-17.16c-16.87-19.36-8.81-47.06-8.81-47.06S152.4,167.53,172.16,187.09Z"/><path class="cls-2" d="M151.14,119.74c31.56-16.28,40.7-4.18,40.7-4.18l-10,18.73,20.87,3s4.88,16.11-27.79,30c-23.63,10.07-47.48-6.16-47.48-6.16S126.42,132.49,151.14,119.74Z"/><path class="cls-3" d="M167.8,220.77s-32.86-30.59-45.61-59.05C110,134.56,103.77,93.58,103.77,93.58L89.05,78.26s-14.33,4.95-8.6,40c2.23,13.64,19.25,47,19.25,47-8.65,6.7-24.77,22.45-34.07,38-18.25,30.46-4.84,40.63-4.84,40.63L79.45,234l30.62-50.25a137,137,0,0,0,24.17,40.67c23.34,26.77,37.15,17.16,37.15,17.16Z"/><path class="cls-4" d="M298.33,202.71H284.26V160.49H246.41v42.22H232.33V109.78h14.08v38.34h37.85V109.78h14.07Z"/><path class="cls-4" d="M363.73,186.82c0,5.7.12,11.53,1,15.89H352L351,195h-.37a22.62,22.62,0,0,1-18.68,9.1c-12.5,0-19.66-9.22-19.66-19.53,0-16.63,14.44-24.88,37.37-24.88,0-5,0-14.92-13.46-14.92a30.77,30.77,0,0,0-16.26,4.61L317,140c4.73-3,12.61-5.58,21.59-5.58,19.66,0,25.12,13,25.12,27.17ZM350,169.11c-11,0-23.78,2.06-23.78,13.95,0,7.4,4.61,10.68,9.82,10.68a13.65,13.65,0,0,0,14-13.59Z"/><path class="cls-4" d="M414.68,148.48a24.4,24.4,0,0,0-12.74-3.76c-6.31,0-9.7,3.64-9.7,8.13s3,6.91,11.16,10.43c11,4.49,16.86,10.56,16.86,20.26,0,12.86-9.82,20.51-25,20.51-7,0-13.71-1.82-18.2-4.49l3.16-10.43a32.48,32.48,0,0,0,15.28,4.48c7.53,0,11.16-3.63,11.16-8.73s-2.79-7.89-10.79-11.28c-11.89-4.74-17.11-11.41-17.11-19.17,0-11.17,9.1-20,23.17-20a33.31,33.31,0,0,1,15.9,3.88Z"/><path class="cls-4" d="M489.66,202.71h-17L453.51,172l-5.46,6.67v24H434v-97.3h14.08V166h.24c1.58-2.55,3.4-5.46,5.1-7.76L470,135.86h16.62L463.09,163.4Z"/><path class="cls-4" d="M546.44,200.05c-4.73,2.18-12.13,4-21.23,4-20.14,0-31.79-13.47-31.79-33.85,0-19.9,11.16-35.79,30.09-35.79s26.33,15.65,26.33,32.15a40.9,40.9,0,0,1-.37,5.94H507c.36,15.05,9.7,20.75,20.26,20.75a41.66,41.66,0,0,0,16.86-3.15Zm-10-37.62c.12-8-3.15-18-14-18-10.31,0-14.68,10.19-15.41,18Z"/><path class="cls-4" d="M577.5,202.71H563.43v-97.3H577.5Z"/><path class="cls-4" d="M609.53,202.71H595.45v-97.3h14.08Z"/><path class="cls-3" d="M622.63,160.86H656v10.07H622.63Z"/><path class="cls-3" d="M684.87,196.65c0,13.59-2.31,21.84-8.13,27.54-5.34,5.09-13.83,7.28-20.75,7.28l-1.45-11c14.56-1.46,16.25-8.62,16.25-28.15V135.74h14.08Zm-7.16-71.1a8.19,8.19,0,1,1,.12-16.38c5,0,8.13,3.52,8.13,8.25A7.87,7.87,0,0,1,677.71,125.55Z"/><path class="cls-3" d="M715.44,146.06c4.61-7.53,11.89-11.65,21.23-11.65,15.05,0,26.33,13.34,26.33,34.09,0,24.51-14.2,35.55-28.27,35.55-8,0-14.56-3.76-17.83-9.22h-.25v34.94H702.58V157.46c0-8.74-.24-15.65-.49-21.6h12.38l.73,10.2Zm1.21,29.72c0,12,8.25,17.11,15.17,17.11,10.92,0,16.86-10.07,16.86-23.9,0-12.74-5.7-23.3-16.5-23.3-8.37,0-15.53,7.89-15.53,17.71Z"/><text class="cls-5" transform="translate(202.6 62.93) rotate(0.03)">supported by</text></svg>