<?xml version="1.0" encoding="UTF-8" standalone="no"?>
<svg
   xmlns:dc="http://purl.org/dc/elements/1.1/"
   xmlns:cc="http://creativecommons.org/ns#"
   xmlns:rdf="http://www.w3.org/1999/02/22-rdf-syntax-ns#"
   xmlns:svg="http://www.w3.org/2000/svg"
   xmlns="http://www.w3.org/2000/svg"
   version="1.1"
   id="svg2"
   width="498.67181mm"
   height="93.284569mm">
  <metadata
     id="metadata32">
    <rdf:RDF>
      <cc:Work
         rdf:about="">
        <dc:format>image/svg+xml</dc:format>
        <dc:type
           rdf:resource="http://purl.org/dc/dcmitype/StillImage" />
        <dc:title></dc:title>
      </cc:Work>
    </rdf:RDF>
  </metadata>
  <defs
     id="defs30" />
  <g
     id="g4"
     transform="translate(1.8517247,65.508185)">
    <g
       id="g6"
       transform="matrix(2.7685829,0,0,2.7685829,53.967087,47.115293)">
      <g
         style="fill:#333333;fill-opacity:0.93699999"
         id="g8">
        <path
           id="path10"
           d="m 188.778,3.424 0,74.198 -20.39,0 0,-29.052 -24.89,0 0,29.05 -20.39,0 0,-74.196 20.39,0 0,27.38 24.89,0 0,-27.38 z m 26.79,75.243 q -4.078,0 -7.634,-1.36 -3.555,-1.357 -6.17,-3.657 -2.51,-2.403 -3.973,-5.643 -1.46,-3.24 -1.46,-7.002 0,-4.18 1.78,-7.628 1.78,-3.45 4.92,-5.957 3.14,-2.508 7.43,-3.867 4.39,-1.358 9.62,-1.358 6.7,0 11.09,2.09 l 0,-1.672 q 0,-3.867 -2.3,-5.748 -2.19,-1.88 -7.21,-1.88 -4.7,0 -8.68,1.566 -3.97,1.47 -8.36,4.39 l -5.75,-12.33 q 10.876,-7 24.78,-7 13.177,0 20.288,5.86 7.11,5.86 7.11,17.56 l 0,10.66 q 0,2.82 1.05,3.97 1.05,1.05 3.77,1.26 l 0,16.72 q -2.72,0.52 -5.126,0.73 -2.407,0.32 -4.29,0.32 -5.332,0 -8.156,-1.88 -2.72,-1.98 -3.56,-5.75 l -0.42,-1.98 q -3.66,4.71 -8.47,7.21 -4.81,2.41 -10.25,2.41 z m 5.96,-14.213 q 1.778,0 3.66,-0.522 1.882,-0.628 3.346,-1.568 1.15,-0.836 1.883,-1.777 0.732,-1.045 0.732,-2.09 l 0,-4.075 q -1.78,-0.627 -3.87,-1.045 -2.1,-0.418 -3.77,-0.418 -3.66,0 -6.07,1.77 -2.41,1.77 -2.41,4.49 0,2.3 1.78,3.76 1.88,1.46 4.7,1.46 z m 65.41,14.213 q -3.45,0 -7.424,-0.523 -3.974,-0.522 -7.843,-1.358 -3.76,-0.836 -7.32,-1.986 -3.55,-1.254 -6.16,-2.717 l 7.64,-13.48 q 5.75,3.03 10.98,4.597 5.23,1.568 9.73,1.568 5.23,0 5.23,-2.613 0,-1.36 -2.09,-2.404 -2.09,-1.04 -7.94,-2.5 -5.85,-1.56 -9.83,-3.13 -3.97,-1.56 -6.37,-3.45 -2.41,-1.98 -3.45,-4.28 -1.05,-2.4 -1.05,-5.54 0,-4.18 1.674,-7.73 1.777,-3.55 4.914,-6.16 3.136,-2.61 7.423,-3.97 4.39,-1.46 9.515,-1.46 5.544,0 11.82,1.57 6.38,1.57 12.965,4.6 l -7.64,12.63 q -5.86,-2.72 -9.728,-3.87 -3.87,-1.25 -7.43,-1.25 -2.3,0 -3.763,0.73 -1.36,0.63 -1.36,2.09 0,0.84 0.42,1.47 0.42,0.52 1.47,1.044 1.05,0.523 2.83,1.15 1.88,0.523 4.6,1.15 6.275,1.567 10.56,3.344 4.29,1.68 6.8,3.77 2.613,1.99 3.66,4.6 1.15,2.51 1.15,5.85 0,8.47 -6.484,13.38 -6.38,4.92 -17.465,4.92 z m 66.962,-1.045 -12.445,-20.065 -3.973,4.39 0,15.673 -19.87,0 0,-76.288 19.87,0 0,41.7 14.64,-20.38 20.914,0 -18.928,24.036 20.81,30.934 -21.02,0 z" />
        <path
           style="fill:#3f3d3a;fill-opacity:1"
           id="path12"
           d="m 402.905,78.667 q -7.215,0 -12.862,-2.195 -5.647,-2.3 -9.516,-6.166 -3.764,-3.866 -5.75,-8.883 -1.988,-5.016 -1.988,-10.555 0,-5.956 1.88,-11.286 1.98,-5.33 5.75,-9.3 3.87,-3.972 9.41,-6.27 5.64,-2.405 13.07,-2.405 7.32,0 12.97,2.404 5.64,2.3 9.41,6.27 3.87,3.87 5.75,9.1 1.98,5.12 1.98,10.77 0,1.57 -0.21,3.24 -0.11,1.57 -0.32,2.82 l -38.579,0 q 0.315,4.39 3.243,6.38 2.927,1.88 6.377,1.88 3.25,0 6.07,-1.46 2.93,-1.46 3.87,-4.07 l 16.84,4.81 q -3.344,6.59 -10.35,10.77 -6.902,4.18 -17.045,4.18 z m 8.784,-34.382 q -0.53,-3.97 -2.93,-6.27 -2.41,-2.3 -6.17,-2.3 -3.77,0 -6.17,2.3 -2.4,2.3 -2.93,6.27 l 18.19,0 z m 27.54,-42.952 19.86,0 0,53.09 q 0,6.27 5.12,6.27 1.25,0 2.72,-0.42 1.46,-0.417 2.72,-1.15 l 2.51,15.99 q -3.56,1.673 -8.06,2.613 -4.39,0.94 -8.37,0.94 -7.95,0 -12.24,-4.075 -4.29,-4.07 -4.29,-11.8 l 0,-61.451 z m 37.98,0 19.87,0 0,53.09 q 0,6.27 5.12,6.27 1.25,0 2.72,-0.42 1.46,-0.417 2.72,-1.15 l 2.51,15.99 q -3.56,1.673 -8.06,2.613 -4.39,0.94 -8.37,0.94 -7.95,0 -12.23,-4.075 -4.29,-4.07 -4.29,-11.8 l 0,-61.451 z" />
      </g>
      <path
         style="fill:#453a62"
         id="path14"
         d="M 1.842,77.722 26.586,40.63 1.842,3.537 20.4,3.537 45.144,40.63 20.4,77.722 Z m 0,0" />
      <path
         style="fill:#5e5086"
         id="path16"
         d="M 26.586,77.722 51.33,40.63 26.586,3.537 l 18.558,0 49.486,74.185 -18.556,0 L 60.61,54.54 45.143,77.722 Z m 0,0" />
      <path
         style="fill:#8f4e8b"
         id="path18"
         d="m 86.384,56.085 -8.248,-12.365 28.868,0 0,12.366 -20.62,0 z M 74.012,37.54 65.764,25.175 l 41.24,0 0,12.365 z m 0,0" />
    </g>
    <g
       style="fill:#8f3440"
       id="g20"
       transform="translate(-17.258199,0)">
      <path
         id="path22"
         d="m 1512.2845,179.26745 0,-24.63726 66.577,0 0,24.63726 z" />
      <path
         id="path24"
         d="m 1589.0173,265.02768 0,-24.26112 q 20.1235,0 25.3895,-3.57334 5.266,-3.57334 5.266,-16.36215 l 0,-98.17289 32.7243,0 0,98.17289 q 0,17.67864 -5.266,26.70604 -5.0779,9.21546 -18.619,13.35301 -13.353,4.13756 -39.4948,4.13756 z m 30.6555,-161.74078 0,-25.013398 32.7243,0 0,25.013398 z" />
      <path
         id="path26"
         d="m 1682.8646,122.65818 29.527,0 0.3762,12.60074 0.3761,0 q 12.6008,-14.66952 29.9033,-14.66952 17.8667,0 28.5867,13.54109 10.72,13.54109 10.72,38.55449 0,24.26111 -11.0961,38.17834 -11.0962,13.72916 -28.2106,13.72916 -15.986,0 -28.5868,-11.84845 l -0.5642,0 0,52.28365 -31.0316,0 z m 68.8338,50.0268 q 0,-28.96288 -19.1832,-28.96288 -7.5228,0 -13.5411,5.26597 -5.8302,5.26598 -5.8302,11.66039 l 0,23.88497 q 0,6.3944 5.8302,11.66038 6.0183,5.26598 13.5411,5.26598 8.8393,0 13.9172,-7.14668 5.266,-7.14669 5.266,-21.62813 z" />
    </g>
  </g>
  <text
     id="text4160"
     y="80.725098"
     x="-1.6082764"
     style="font-style:normal;font-weight:normal;font-size:40px;line-height:125%;font-family:sans-serif;letter-spacing:0px;word-spacing:0px;fill:#000000;fill-opacity:1;stroke:none;stroke-width:1px;stroke-linecap:butt;stroke-linejoin:miter;stroke-opacity:1"
     xml:space="preserve"><tspan
       style="font-style:italic;font-variant:normal;font-weight:bold;font-stretch:normal;font-size:106.25px;font-family:sans-serif;-inkscape-font-specification:'sans-serif Bold Italic'"
       y="80.725098"
       x="-1.6082764"
       id="tspan4162">Supported By</tspan></text>
</svg>
