<?xml version="1.0" encoding="iso-8859-1"?>
<!-- Generator: Adobe Illustrator 21.1.0, SVG Export Plug-In . SVG Version: 6.00 Build 0)  -->
<svg version="1.1" id="_x31_" xmlns="http://www.w3.org/2000/svg" xmlns:xlink="http://www.w3.org/1999/xlink" x="0px" y="0px"
	 viewBox="0 0 512 512" style="enable-background:new 0 0 512 512;" xml:space="preserve">
<g>
	<path style="fill:#231815;" d="M200.594,63.847c7.75-12.793-1.702-24.432-13.961-28.767c-15.274-5.401-33.085-2.03-47.387,4.599
		c-13.401,6.211-25.217,16.364-30.188,30.627c-5.286,15.165-1.298,30.845,0.852,46.182c2.174,15.508,1.114,29.605-7.013,43.354
		c-8.202,13.876-20.028,25.207-30.757,37.085c-19.408,21.486-30.668,47.291-40.58,74.227c-5.127,13.934-10.108,28.118-13.76,42.519
		c-2.987,11.775-7.991,35.277,8.104,40.087c1.545,0.462,15.129,0.677,13.58-3.276c-0.297-0.758-8.044-0.476-9.112-0.688
		c-4.091-0.81-6.806-3.06-8.35-6.991c-4.919-12.516-0.033-29.641,3.425-41.88c4.277-15.14,10.049-29.811,15.989-44.361
		c4.827-11.824,9.544-23.922,16.301-34.808c15.958-25.706,45.727-43.304,55.473-72.821c10.082-30.534-12.75-65.788,11.673-92.222
		c11.07-11.982,28.411-18.578,44.6-17.736c7.367,0.383,14.6,2.355,20.383,7.13C195.769,50.981,197.395,57.287,200.594,63.847z"/>
	<path style="fill:#231815;" d="M241.834,87.226c6.319-2.074,19.274-8.558,8.741-14.642c-6.098-3.522-14.845-6.154-21.797-7.487
		c-2.628-0.504-9.145-1.416-10.733,1.693c-1.984,3.883,4.799,4.723,7.07,5.012c7.787,0.991,15.389,0.178,22.882,3.463
		c9.053,3.969-4.247,8.399-8.437,9.624c-9.028,2.638-19.919,4.32-27.773,9.811c-1.436,1.004-6.198,5.741-2.624,6.887
		c2.247,0.721,7.687-4.8,9.192-5.683C225.563,91.678,233.959,89.783,241.834,87.226z"/>
	<path style="fill:#231815;" d="M198.025,88.407c2.294-4.105,5.062-8.353,8.483-11.632c2.037-1.954,6.598-4.184,4.565-7.759
		c-4.469-7.857-12.3,12.39-13.581,14.614c-1.358,2.359-11.291,18.007-0.697,16.566c1.301-0.177,2.552-0.625,2.852-2.055
		c0.497-2.372-1.399-1.936-2.324-2.738c-1.219-1.057-0.744,1.635-1.868-0.991C194.934,93.195,197.5,89.354,198.025,88.407z"/>
	<path style="fill:#231815;" d="M204.093,113.531c5.311,9.786,9.012,21.686,18.582,28.308c7.241,5.011,17.472,4.312,25.799,3.368
		c13.271-1.504,26.189-5.08,39.316-7.419c11.513-2.051,22.546-2.013,34.166-1.319c8.301,0.496,59.08,2.893,43.238,19.996
		c-7.863,8.489-22.895,11.577-33.142,16.274c-11.48,5.262-23.36,9.663-34.317,16.006c-11.591,6.71-22.153,14.944-32.547,23.348
		c-2.732,2.209-23.985,20.738-26.41,17.807c-1.856-2.243,48.136-38.193,52.133-40.635c20.629-12.603,44.225-18.597,65.529-29.673
		c5.261-2.735,14.575-9.048,5.498-14.292c-8.878-5.129-21.898-5.085-31.853-5.038c-12.341,0.058-24.632-0.642-36.847,1.489
		c-13.59,2.37-26.856,6.334-40.494,8.462c-11.952,1.865-26.657,3.074-36.774-4.967C206.345,137.596,204.619,125.025,204.093,113.531
		z"/>
	<path style="fill:#231815;" d="M236.063,212.745c-1.432,6.359-0.174,10.94,1.884,16.833c2.229,6.381,3.627,13.126,5.234,19.682
		c3.468,14.149,7.838,29.305,8.865,43.898c1.914,27.175-6.079,57.896-23.521,79.158c-4.494,5.479-9.789,9.178-16.55,11.41
		c-2.967,0.979-6.38,1.899-9.542,1.739c-6.314-0.32-2.451-3.808,1.283-4.984c7.176-2.26,13.416-1.816,19.272-7.32
		c5.618-5.281,9.991-12.322,12.847-19.426c5.62-13.979,6.487-28.511,8.733-43.197c2.05-13.405,3.875-26.817,1.011-40.219
		c-3.205-15.002-7.004-29.542-15.132-42.513c-3.217-5.135-7.399-11.936-3.146-17.917c1.088-1.529,4.329-4.196,6.384-3.715
		C236.533,206.84,234.655,209.954,236.063,212.745z"/>
	<path style="fill:#231815;" d="M126.077,244.237c-0.737,7.101-3.251,10.859-8.951,14.587c-7.357,4.811-14.163,10.939-20.765,16.708
		c-6.348,5.547-12.832,11.004-17.848,17.834c-6.733,9.169-12.191,19.293-18.216,28.928c-4.58,7.324-9.301,16.388-16.027,22.024
		c-2.301,1.928-8.162,4.618-4.659-0.356c2.015-2.861,5.071-5.301,7.295-8.033c13.098-16.083,23.1-34.571,35.146-51.429
		c6.077-8.504,13.967-15.565,21.846-22.383C111.091,255.893,118.086,249.44,126.077,244.237z"/>
	<path style="fill:#231815;" d="M214.874,368.346c6.962,4.738,6.406,8.915,5.442,15.956c-1.33,9.719-4.723,19.993-11.802,27.029
		c-7.329,7.285-17.026,12.562-27.398,13.621c-7.043,0.719-24.113-1.543-25.333-11.281c-0.712-5.678,2.934-0.803,4.558,0.983
		c3.058,3.363,6.831,5.693,11.25,6.842c9.84,2.558,21.194-0.491,29.108-6.654C214.849,403.822,213.891,384.322,214.874,368.346z"/>
	<path style="fill:#231815;" d="M171.915,380.71c1.074,3.592,1.728,6.193-1.111,7.675c-2.709,1.415-7.767,0.793-10.576,0.497
		c-5.639-0.594-12.588-0.62-17.604-0.908c-1.515-0.087-4.542-0.749-2.979-3.314c1.632-2.678,7.817,0.523,10.084,0.889
		C157.58,386.817,164.965,383.951,171.915,380.71z"/>
	<path style="fill:#231815;" d="M145.756,389.984c13.979,3.551,2.284,22.209-3.185,29.013c-7.57,9.417-22.567,22.397-34.92,11.752
		c-1.468-1.265-4.014-4.48-0.77-4.599c1.742-0.064,5.178,3.046,6.853,3.733c6.777,2.779,13.836,0.95,19.28-3.744
		C142.491,417.968,146.883,402.046,145.756,389.984z"/>
	<path style="fill:#231815;" d="M84.218,401.016c-3.567,3.147-6.031,7.09-9.976,2.493c-1.6-1.865-2.19-4.326-2.57-6.691
		c-1.406-8.749-0.286-18.077-0.377-26.898c-0.17-16.602-1.8-33.13-4.749-49.468c-0.632-3.502-1.301-5.343-0.187-8.486
		c1.087-3.068,2.876-6.09,4.407-8.953c1.955-3.657,4.154-6.81,6.783-9.978c8.091-9.748,16.61-19.45,26.146-27.816
		c5.167-4.533,10.921-9.299,9.453,0.582c-3.662,24.647-15.292,47.886-20.264,72.337C88.667,358.88,87.208,380.087,84.218,401.016z"
		/>
	<path style="fill:#231815;" d="M81.694,374.168c6.72,1.946,7.155,4.102,6.863,10.172c-0.304,6.341-1.376,12.654-1.633,18.975
		c-0.289,7.12,0.871,15.714,4.461,21.967c1.025,1.786,10.613,10.593,3.934,8.987c-11.022-2.65-10.269-25.22-11.707-33.537
		C82.153,392.288,82.177,382.753,81.694,374.168z"/>
	<path style="fill:#231815;" d="M115.351,435.559c1.8,1.623,4.812,4.237,5.267,6.851c0.412,2.365-0.957,5.469-1.061,7.951
		c-0.312,7.432,1.993,15.619,7.511,20.853c6.152,5.836,15.203,6.761,22.035,11.512c2.428,1.688,11.776,13.252,5.346,15.884
		c-2.877,1.178-1.942-2.157-2.151-4.173c-0.391-3.768-1.585-6.457-4.519-8.955c-6.37-5.424-15.262-7.183-22.022-12.181
		C113.93,464.558,111.453,449.319,115.351,435.559z"/>
	<path style="fill:#231815;" d="M99.943,490.479c4.518-2.625,7.154-2.935,10.171,0.886c3.102,3.928,6.37,7.752,9.592,11.581
		c1.324,1.573,7.209,8.272,9.779,6.414c1.564-1.131-0.12-8.725-0.602-10.166c-0.882-2.636-2.694-3.872-3.986-6.09
		c-1.681-2.885-0.886-4.228,2.291-2.615c2.335,1.185,3.776,4.702,4.452,6.961c1.041,3.481,1.011,7.258,0.496,10.827
		c-0.425,2.944-0.227,3.465-2.654,3.702c-4.161,0.405-11.943-5.351-14.845-7.885C109.632,499.725,104.822,494.999,99.943,490.479z"
		/>
	<path style="fill:#231815;" d="M137.434,498.494c0.739-3.024,1.034-6.319,3.501-6.15c2.466,0.169,4.16,2.868,6.118,3.993
		c1.867,1.072,6.578,1.52,7.783,3.266c0.59,0.855,1.036,2.382-0.464,3.112c-1.602,0.781-3.566-1.905-5.009-2.725
		C145.899,498.022,141.317,498.229,137.434,498.494z"/>
	<path style="fill:#231815;" d="M98.122,436.603c7.538,2.825,6.733,6.43,5.202,12.901c-1.573,6.649-3.911,13.661-6.109,19.909
		c-1.654,4.7-5.615,8.648-8.875,12.277c-2.82,3.14-8.682,7.473-9.969,11.612c-0.711,2.285,2.875,8.892-1.902,6.072
		c-8.251-4.87,7.83-17.128,10.845-19.998c5.57-5.302,5.952-10.012,7.446-17.168C96.606,453.361,98.087,445.652,98.122,436.603z"/>
	<path style="fill:#231815;" d="M102.677,491.36c-1.538,6.63-1.213,6.973-7.388,5.739c-2.572-0.514-4.227-0.985-6.75,0.19
		c-1.919,0.894-3.904,4.578-5.548,4.957c-2.101,0.484-3.045-0.715-2.471-2.468c0.749-2.291,5.511-3.988,7.435-4.769
		C92.883,493.008,97.211,491.545,102.677,491.36z"/>
	<path style="fill:#231815;" d="M185.64,423.075c6.094,2.424,7.004,4.764,6.405,10.678c-0.639,6.301-0.327,14.696,4.063,19.765
		c5.624,6.493,32.973,6.669,31.094,19.094c-0.615,4.066-2.052,1.935-3.479-0.083c-1.767-2.498-2.417-4.668-5.22-6.489
		c-6.697-4.352-15.303-4.46-22.04-8.964C185.234,449.57,185.679,435.382,185.64,423.075z"/>
	<path style="fill:#231815;" d="M194.163,474.413c3.044-6.888,7.951-4.751,11.112,0.362c1.452,2.349,4.967,12.566,0.932,14.77
		c-3.251,1.775-13.075-6.105-15.455-7.739c-3.061-2.102-6.123-4.404-9.588-5.821c-1.706-0.698-5.218-0.786-6.498-2.231
		c-4.805-5.427,8.759-0.303,10.159,0.573c3.497,2.188,11.936,11.802,16.502,10.846c1.886-0.395,1.362-0.591,1.467-2.318
		C203.066,478.367,197.802,475.254,194.163,474.413z"/>
	<path style="fill:#231815;" d="M165.714,424.499c7.233,3.333,7.192,6.232,6.879,13.235c-0.389,8.709-1.694,17.136-9.007,22.663
		c-3.206,2.423-11.196,6.338-8.915,11.782c2.458,5.864,15.214-5.195,20.139-1.532c3.994,2.97-2.282,3.004-4.313,3.337
		c-4.116,0.676-8.068,2.26-12.259,2.518c-2.526,0.156-4.717,0.524-5.786-1.376c-1.401-2.489,0.025-7.846,1.318-9.814
		c1.822-2.773,4.949-3.956,7.302-6.127c2.446-2.257,3.747-5.101,4.654-8.296C168.25,442.006,165.796,433.42,165.714,424.499z"/>
	<path style="fill:#231815;" d="M205.309,474.453c-0.124-3.328-0.626-6.419,2.071-6.796c2.658-0.371,5.098,2.17,7.236,3.275
		c2.032,1.05,6.999,1.326,8.359,3.161c0.636,0.857,1.252,2.325-0.258,3.178c-1.591,0.898-3.924-1.961-5.417-2.724
		C213.684,472.698,209.048,473.105,205.309,474.453z"/>
	<path style="fill:#231815;" d="M44.372,334.843c0.659,0.834,3.233-3.099,3.415-3.435c1.655-3.065,1.999-6.807-0.554-9.512
		c-4.02-4.257-12.142-2.892-15.912-7.275c-3.762-4.374,2.065-12.117,3.771-16.502c3.025-7.773,6.945-14.743,9.288-22.86
		c2.549-8.829,4.286-18.157,8.179-26.532c2.495-5.367,6.611-9.872,10.29-14.462c9.792-12.215,20.355-23.757,30.032-36.072
		c12.113-15.413,26.894-29.284,42.286-41.422c9.416-7.425,26.593-11.271,32.046-22.771c3.561-7.511-1.568-15.408-4.979-21.929
		c-4.197-8.025-7.58-17.267-8.704-26.304c-1.526-12.268,4.807-21.246,16.876-23.983c4.813-1.091,10.042-1.202,14.848-0.009
		c1.804,0.448,3.669,1.043,5.241,2.062c1.086,0.703,2.409,3.072,3.3,3.463c4.476,1.965,14.828-3.148,15.464-7.907
		c0.797-5.962-6.335-11.932-10.614-14.917c-6.094-4.253-13.367-6.624-20.692-7.599c-15.043-2.003-29.726,1.892-42.489,9.843
		c-12.164,7.578-25.096,19.459-26.782,34.531c-0.908,8.116,2.891,15.148,4.569,22.889c1.946,8.976,2.161,18.293,0.704,27.358
		c-5.726,35.614-34.683,57.414-55.195,84.432c-9.143,12.043-14.982,26.925-20.447,40.898c-5.26,13.449-9.994,27.118-13.235,41.202
		c-2.964,12.882-6.546,26.893-6.507,40.207c0.02,6.854,2.793,12.116,9.658,13.924c5.318,1.401,8.077-2.522,10.742-6.717
		C41.093,342.105,42.851,338.494,44.372,334.843z"/>
	<path style="fill:#231815;" d="M211.585,129.206c-6.536,31.419,34.704,27.786,53.325,23.741
		c24.299-5.279,53.778-15.736,78.254-6.523c-2.83,3.832-7.078,4.317-7.77,9.662c-0.509,3.938,1.119,10.561,6.404,10.119
		c1.945-0.163,5.047-2.509,6.741-3.349c4.206-2.084,8.413-4.167,12.633-6.222c2.922-1.423,7.587-2.544,6.683-6.541
		c-0.928-4.106-7.427-7.102-10.911-8.238c-6.801-2.218-14.407-2.91-21.459-3.869c-8.912-1.212-18.064-2.405-27.079-2.114
		c-6.284,0.203-12.501,1.975-18.612,3.328c-15.034,3.329-30.067,7.484-45.281,9.901C228.699,151.615,213.621,147.53,211.585,129.206
		z"/>
	<path style="fill:#231815;" d="M175.296,85.802c4.793,0.973,7.971-5.122,3.609-7.879C174.834,75.353,168.766,81.533,175.296,85.802
		z"/>
	<path style="fill:#231815;" d="M439.984,59.768c-21.099,21.228-41.712,42.918-63.037,63.908
		c-4.898,4.822-10.774,10.238-14.011,16.392c-3.982,7.569,3.017,4.805,6.914,1.705c9.16-7.289,15.681-17.196,23.117-26.096
		c19.248-23.036,40.181-44.148,61.243-65.478c10.255-10.385,20.185-21.081,30.231-31.667c1.393-1.468,16.319-16.303,12.194-18.412
		c-2.444-1.249-9.283,7.652-10.456,8.992c-5.215,5.96-10.201,12.119-15.429,18.071C460.886,38.411,450.466,49.121,439.984,59.768z"
		/>
</g>
</svg>
